<?xml version="1.0" encoding="UTF-8"?>
<!DOCTYPE svg PUBLIC "-//W3C//DTD SVG 1.1//EN" "http://www.w3.org/Graphics/SVG/1.1/DTD/svg11.dtd">
<svg version="1.1" xmlns="http://www.w3.org/2000/svg" xmlns:xlink="http://www.w3.org/1999/xlink" x="0" y="0" width="463" height="303" viewBox="0, 0, 463, 303">
  <defs>
    <clipPath id="Clip_1">
      <path d="M0,0.064 L462,0.064 L462,303 L0,303 z"/>
    </clipPath>
    <clipPath id="Clip_2">
      <path d="M0,0.064 L462,0.064 L462,303 L0,303 z"/>
    </clipPath>
  </defs>
  <g id="Layer_1">
    <g clip-path="url(#Clip_1)">
      <path d="M3.441,146.397 C3.441,133.316 5.745,27.151 8.049,15.053 C8.373,13.355 8.195,8.127 10.531,7.702 C17.314,6.466 48.609,3.776 72.615,2.638 C103.667,1.167 384.334,-0.834 393.667,0.5 C403,1.833 407,2.5 407,9.167 C407,15.833 411.666,139.833 410.333,145.833 L3.441,146.397" fill="#BCA06E"/>
    </g>
    <path d="M21.875,9.869 C13.797,10.925 11.986,12.617 11.505,23.118 C10.972,34.781 9.201,144.669 9.201,144.669 C9.201,144.669 6.897,145.821 14.962,145.821 C23.027,145.821 393.439,145.821 399.776,145.821 C406.113,145.821 406.113,142.365 406.113,140.637 C406.113,138.909 402.657,11.597 402.657,9.293 C402.657,6.988 400.354,4.684 393.44,4.684 C386.527,4.684 96.764,0.075 21.875,9.869" fill="#99B189"/>
    <path d="M415,153.998 C415,155.558 413.725,156.833 412.165,156.833 L2.834,156.833 C1.275,156.833 0,155.558 0,153.998 L0,146.668 C0,145.108 1.275,143.833 2.834,143.833 L412.165,143.833 C413.725,143.833 415,145.108 415,146.668 L415,153.998" fill="#D3BF99"/>
    <path d="M415,147.667 L415,153.998 C415,155.558 413.725,156.833 412.165,156.833 L2.834,156.833 C1.275,156.833 0,155.558 0,153.998 L0,146.668 L415,147.667" fill="#BCA06E"/>
    <path d="M30.833,126 C31.167,125.333 31.667,124.5 33.5,124.167 C35.333,123.833 61.501,125 63.334,125.167 C65.167,125.333 65.834,126.5 66,128.167 C66.167,129.833 66.499,140.834 66.167,141.667 C65.834,142.5 62.667,144 61.334,144.333 C60,144.667 30.833,126 30.833,126" fill="#717E98"/>
    <path d="M30.334,125.667 C28.5,126.333 26.167,127.666 26,128.5 C25.834,129.333 23.333,141.166 25,144.5 C25.834,145.667 31,145.667 33,145.667 C35,145.667 59.167,145.5 60.5,145 C61.834,144.5 62.667,143.333 62.667,143.333 C62.667,143.333 62.667,130.333 62.5,129.333 C62.333,128.333 62.333,127.334 61.167,127.167 C60,127 33.833,125.167 30.334,125.667" fill="#D3AE5A"/>
    <path d="M26.167,128 C27,127.833 55.334,128.5 57.5,129 M60,129.333 C60.334,130.5 61.334,141.667 60.334,143.167" fill-opacity="0" stroke="#FFFFFE" stroke-width="1"/>
    <path d="M41.167,126.667 L44.5,126.833 C43.334,128.833 43.001,127.833 42.833,130.333 C42.667,132.833 42.334,143.833 43,145.333 C43,145.333 40,146.833 39.5,146 C39,145.167 39,143 39,140.833 C39,138.667 39,131.5 39.167,129.833 C39.334,128.167 39.999,127.5 41.167,126.667" fill="#4D4E4C"/>
    <path d="M407,237.167 C408,242.167 410.109,270.87 409.745,274.512 C409.017,276.332 407.741,277.971 407.014,278.881 C408.835,278.517 414.659,277.424 415.57,276.878 C415.57,278.152 415.389,280.338 415.389,280.338 C416.845,279.791 421.033,277.972 421.943,277.425 C422.125,275.786 422.308,270.87 422.489,269.05 C422.671,267.23 425.766,240.648 425.22,237.735 L407,237.167" fill="#F9D8AE"/>
    <path d="M421.943,277.425 C421.033,277.972 416.845,279.791 415.389,280.338 C415.389,280.338 415.57,278.152 415.57,276.878 C414.659,277.424 408.835,278.517 407.014,278.881 C405.375,282.158 401.37,286.163 400.46,287.438 C399.55,288.712 396.818,291.625 395.908,292.354 C396.272,293.446 396.271,293.991 397.729,294.174 C399.186,294.356 408.652,291.626 410.655,289.259 C412.658,286.892 415.57,283.979 415.57,283.979 C415.389,285.436 415.024,288.349 415.024,288.349 C416.845,287.438 419.94,286.527 419.94,286.527 C420.122,285.253 420.669,283.615 420.851,282.887 C421.032,282.158 422.49,279.974 421.943,277.425" fill="#C28BB2"/>
    <g clip-path="url(#Clip_2)">
      <path d="M427.222,237.918 C428.132,247.203 428.131,277.79 426.493,283.251 C426.13,284.889 425.037,287.438 425.037,287.438 C426.676,287.256 429.588,286.347 431.045,285.8 C431.045,286.527 430.135,289.44 430.135,289.44 C431.592,288.712 438.691,285.254 439.966,284.161 C439.966,283.068 440.33,278.332 440.33,277.786 C441.786,271.96 445.61,254.12 447.066,232.82 L427.222,237.918" fill="#F9D8AE"/>
      <path d="M439.966,284.161 C438.691,285.254 431.592,288.712 430.135,289.44 C430.135,289.44 431.045,286.527 431.045,285.8 C429.588,286.347 426.676,287.256 425.037,287.438 C423.833,290.666 420.166,296.333 419.333,297.333 C418.5,298.333 417.333,300 416.333,300.833 C415.833,301.833 416.833,303.167 418.5,303 C420.167,302.833 427.833,299.334 429.833,298 C431.833,296.666 434.166,294.166 434.833,293.166 C434.833,295.333 434.333,297.666 434.333,297.666 C435.667,297.833 437.834,296.832 438.667,296.166 C439,294.666 439.5,292.5 439.5,291.833 C440.167,290.166 441.432,285.989 439.966,284.161" fill="#C28BB2"/>
      <path d="M409.5,155.333 C410.167,154.833 427.333,152.499 428.5,152.999 C429.667,153.499 443.666,153.833 449.5,162.833 C455.334,171.833 455.666,195.666 455.833,201.999 C458.833,212.832 460.166,222.999 461.166,228.833 L462.333,229.999 C460.5,231.332 441,239.666 425.5,240.499 C410,241.332 384.5,234.166 381.166,231.333 C382.332,227.333 395.333,172.499 396.333,165.833 L409.5,155.333" fill="#E89589"/>
    </g>
    <path d="M426,168.208 C426.5,167.958 432.375,168.833 434,169.333" fill-opacity="0" stroke="#D8232A" stroke-width="1"/>
    <path d="M355.833,80.499 C356,81.666 355.166,84.333 355.833,85.333 C356.5,86.333 356.666,86.333 357.333,87.166 C358,87.999 359.166,89.166 360.166,90.333 C361.166,91.499 361.334,92.999 359.5,98.166 C359.5,99.333 359.166,99.166 359.666,99.999 C360.166,100.833 360,102.166 360,102.166 C358.333,102.833 351.334,108.499 351,109.499 C350,108.833 349.166,105.833 348.833,105.333 C347.666,105.833 345.499,105.999 344.166,104.499 C342.833,102.999 342.999,102.166 342.166,101.999 C341.333,101.833 340.166,100.666 339.333,100.166 C338.5,99.666 338.667,97.666 339.5,97.333 C339,96.499 338.5,94.499 339.5,93.666 C339,92.999 338.833,92.666 338.833,91.333 C338.833,89.999 338.833,89.666 339.333,88.833 C339.833,87.999 341.5,87.833 341.5,87.833 C341.5,87.833 341.834,86.833 342,86.166 C342.166,85.499 342.166,80.999 343.166,80.166 C344.166,79.333 345.5,79.166 347,81.333 C348.5,83.499 350.499,85.332 351.166,87.499 C351.333,84.999 351.334,83.333 352,81.666 C352.666,79.999 353.666,78.833 354.166,78.666 C354.666,78.499 355.666,78.999 355.833,80.499" fill="#F9D8AE"/>
    <path d="M331.833,31.833 C332.552,34.278 346.166,76.666 347.666,82.333 C349.166,87.999 352.499,101.333 353.666,104.666 C354.333,104.666 355.205,103.136 355.871,102.469 C354.704,98.802 348.537,73.969 347.037,69.135 C345.537,64.302 336.037,35.136 335.204,32.469 C334.371,29.802 334.332,27.5 333.166,27 C332,26.499 331,28.999 331.833,31.833" fill="#FFFFFE"/>
    <path d="M351,109.499 C351.334,108.499 359.166,102.333 360.833,101.666 C361.667,103.166 361.166,102.666 361.833,103.666 C362.5,104.666 363.5,106.666 363.5,107.166 C362.333,108.833 354.667,115.333 353.167,116.666 L352.833,115.166 C351.667,114.999 349.333,110.833 349.333,110.166" fill="#FFFFFE"/>
    <path d="M454.5,140.166 C454.833,140.666 455,140.333 455.167,141.833 C455.334,143.333 453.167,146.333 452.5,147.499 C451.833,148.665 451,150.166 450.333,151.166 C449.666,152.166 449.333,153.833 448,156.333 C451.833,160.667 454.333,164.666 454.333,164.666 C454.333,164.666 453.667,165.333 453.167,165.499 C452.834,166.499 444.667,168.833 442.5,169.833 C440.333,170.833 424.833,173.999 423.833,173.166 C422.833,172.333 421.833,171.166 420.833,169.166 C419.833,167.166 415.167,161.999 413.833,156.999 C412.666,163.999 408,169.333 406.167,171.333 C404.334,173.333 402.167,173.333 401,172.833 C399.833,172.333 398.5,171.333 397,170.666 C395.5,169.999 393.5,169.666 392.667,169.499 C391.834,169.332 392.333,168.833 392.333,168.833 C398.166,159.833 398.167,144.166 397.833,143.166 C397.499,142.166 397.833,143.166 397.333,142.666 C396.833,142.166 395,139.666 394,138.333 C393,136.999 387,130.499 385.667,128.999 C384.334,130.332 374.667,136.499 370.5,137.833 C366.333,139.166 361,131.666 359.833,129.333 C358.666,126.999 356.333,123.166 355.667,121.499 C355.001,119.832 354.167,118.666 353.167,116.666 C354.667,115.333 362.333,108.833 363.5,107.166 C364.5,108.667 368.499,116.167 369.833,117.333 C371.167,114.5 372.001,112.833 373.167,112.833 C374.333,112.833 374.167,115 374.5,115.833 C376.167,114.333 387.833,101.834 388.833,102.167 C389.833,102.5 389.167,102.333 389.167,102.333 C391.333,99.667 397.167,94.333 398.5,93.499 C399.833,92.667 426.167,87.666 427,87.999 C427.833,88.333 437.167,93.833 439,96.166 C440,97.167 440.833,96.499 444,103.833 C447.167,111.167 453.833,132.999 454.5,140.166" fill="#64B76C"/>
    <path d="M454.5,140.166 C454.833,140.666 455,140.333 455.167,141.833 C455.334,143.333 453.167,146.333 452.5,147.499 C451.833,148.665 451,150.166 450.333,151.166 C449.666,152.166 449.333,153.833 448,156.333 C451.833,160.667 454.333,164.666 454.333,164.666 C454.333,164.666 453.667,165.333 453.167,165.499 C452.834,166.499 444.667,168.833 442.5,169.833 C440.333,170.833 424.833,173.999 423.833,173.166 C422.833,172.333 421.833,171.166 420.833,169.166 C419.833,167.166 415.167,161.999 413.833,156.999 C412.666,163.999 408,169.333 406.167,171.333 C404.334,173.333 402.167,173.333 401,172.833 C399.833,172.333 398.5,171.333 397,170.666 C395.5,169.999 393.5,169.666 392.667,169.499 C391.834,169.332 392.333,168.833 392.333,168.833 C398.166,159.833 398.167,144.166 397.833,143.166 C397.499,142.166 397.833,143.166 397.333,142.666 C396.833,142.166 395,139.666 394,138.333 C393,136.999 387,130.499 385.667,128.999 C384.334,130.332 374.667,136.499 370.5,137.833 C366.333,139.166 361,131.666 359.833,129.333 C358.666,126.999 356.333,123.166 355.667,121.499 C355.001,119.832 354.167,118.666 353.167,116.666 C354.667,115.333 362.333,108.833 363.5,107.166 C364.5,108.667 368.499,116.167 369.833,117.333 C371.167,114.5 372.001,112.833 373.167,112.833 C374.333,112.833 374.167,115 374.5,115.833 C376.167,114.333 387.833,101.834 388.833,102.167 C389.833,102.5 389.167,102.333 389.167,102.333 C391.333,99.667 397.167,94.333 398.5,93.499 C399.833,92.667 426.167,87.666 427,87.999 C427.833,88.333 437.167,93.833 439,96.166 C440,97.167 440.833,96.499 444,103.833 C447.167,111.167 453.833,132.999 454.5,140.166 z" fill-opacity="0" stroke="#15A748" stroke-width="1"/>
    <path d="M344.166,85.833 L345.833,87.666 C345.833,87.666 346.5,88.833 347.333,90.499 C348.166,92.166 348.833,91.666 349.5,91.666 C350.167,91.666 350.833,90.999 351.333,90.333 C351.833,89.666 351.333,87.999 351.166,86.999 C350.095,86.147 348.715,84.249 347.857,82.791 C347,81.333 345.396,79.658 344.725,79.658" fill="#F9D8AE"/>
    <path d="M344.166,85.833 L345.833,87.666 C345.833,87.666 346.5,88.833 347.333,90.499 C348.166,92.166 348.833,91.666 349.5,91.666 C350.167,91.666 350.833,90.999 351.333,90.333 C351.833,89.666 351.333,87.999 351.166,86.999 C350.095,86.147 348.715,84.249 347.857,82.791 C347,81.333 345.396,79.658 344.725,79.658" fill-opacity="0" stroke="#F6C395" stroke-width="1"/>
    <path d="M341.333,87.666 C342.5,87.999 346.5,90.666 347,90.999 C347.5,91.333 348.833,92.832 348.833,93.499 C348.833,94.166 348.334,94.999 347.5,95.499 C346.666,95.999 345.833,95.166 345.833,95.166" fill="#F9D8AE"/>
    <path d="M341.333,87.666 C342.5,87.999 346.5,90.666 347,90.999 C347.5,91.333 348.833,92.832 348.833,93.499 C348.833,94.166 348.334,94.999 347.5,95.499 C346.666,95.999 345.833,95.166 345.833,95.166" fill-opacity="0" stroke="#F6C395" stroke-width="1"/>
    <path d="M339.666,93.499 C340.666,93.166 342.999,93.666 343.666,93.999 C344.333,94.333 346.666,95.832 346.666,96.499 C346.666,97.166 346.499,98.332 345.666,98.999 C344.833,99.666 343.667,98.999 343,98.666" fill="#F9D8AE"/>
    <path d="M339.666,93.499 C340.666,93.166 342.999,93.666 343.666,93.999 C344.333,94.333 346.666,95.832 346.666,96.499 C346.666,97.166 346.499,98.332 345.666,98.999 C344.833,99.666 343.667,98.999 343,98.666" fill-opacity="0" stroke="#F6C395" stroke-width="1"/>
    <path d="M340,97.499 C341,97.666 344.333,99.166 344.333,99.166 C344.333,99.166 346.333,100.166 345.833,101.333 C345.333,102.499 343.667,102.5 343,102.166" fill="#F9D8AE"/>
    <path d="M340,97.499 C341,97.666 344.333,99.166 344.333,99.166 C344.333,99.166 346.333,100.166 345.833,101.333 C345.333,102.499 343.667,102.5 343,102.166" fill-opacity="0" stroke="#F6C395" stroke-width="1"/>
    <path d="M421.667,85.333 C421.667,85.333 421.667,86 422,86.833 C419.333,88.499 414.833,96 413.5,97.5 C412.167,99 407.833,102 407.667,102.5 C407.501,103 406,105.167 405.5,107.167 C405.5,107.167 403.833,105.833 403.333,106.167 C403.166,105.167 402.5,101.5 402.5,99.333 C401.833,96.833 402.333,94.5 402.333,92.833 C401.999,92.166 400.667,90.833 400,90.083 C398.333,92.333 395.166,96.5 393.833,101.167 C395,100.5 396.833,99.999 397.5,99.833 C397.5,103 400.167,118.667 404.167,122 C406.5,120.5 417.834,106.333 418.667,98.833 C420,99.667 422.833,101.666 423.5,102.833 C424.167,100.333 425.667,91.333 425.667,90.166 C425.667,89 425.167,84.833 421.667,85.333" fill="#FFFFFE"/>
    <path d="M402.667,90 C404.833,90 417.666,86 420.833,82.667 M405,95.333 L403.667,96.5" fill-opacity="0" stroke="#D8232A" stroke-width="1"/>
    <path d="M403.5,31.5 C403.166,32.167 403.166,32.5 402.666,32.333 C402.166,32.167 400.5,32.333 399.5,32.667 C396.166,33.167 384.5,39.667 381.5,46 C378.833,50.167 373.583,64.58 374.5,72.833 C374.75,75.083 376,80.833 380.75,83.583 C385.5,86.333 392.833,89.167 400,90.083 C400.667,90.833 401.999,92.166 402.333,92.833 C402.333,94.5 401.833,96.833 402.5,99.333 C402.5,101.5 403.166,105.167 403.333,106.167 C403.833,105.833 405.5,107.167 405.5,107.167 C406,105.167 407.501,103 407.667,102.5 C407.833,102 412.167,99 413.5,97.5 C414.833,96 419.333,88.499 422,86.833 C421.667,86 421.667,85.333 421.667,85.333 C420.667,86 420,85.667 420,85.667 C421,84.167 423.334,78.333 424.167,75.333 C425,72.333 425.334,53.666 422.667,49.833 C420,46 409.667,35.5 405.167,33.167 C404.167,32.5 403.833,30.5 403.833,30.5 L403.5,31.5" fill="#F9D8AE"/>
    <path d="M448,156.333 C447.333,158.166 440.5,170.334 440.5,171 C440.5,171.666 440.667,171.499 440.167,172.166 M438,96.499 C436.333,96.667 435.667,96.999 434.667,99.999 C433.667,103 429,114 429,116.833 C429,119.667 429.166,119 430.333,121.167 C431.5,123.333 431.833,122.333 431.5,123.333 C431.167,124.333 431.167,123.5 432.167,125.333 C433.167,127.167 437.667,137.167 437.167,139.333 C436.667,141.5 436.666,139.167 436.333,141.333 C436,143.5 432.833,152.5 432,155.333 C431.167,158.166 428.833,165 428.5,166 C428.167,167 427.167,167 426.667,167.333 M439.5,137.833 C439,138.667 437.333,140.166 436.833,140.5 M389.333,104 C388.667,106.333 383.499,124.5 385.833,128.833 M404.167,122 C405.5,123.167 407.166,123.667 408.333,125.167 C409.5,126.667 410.167,127.167 410.167,130.833 C410.167,134.5 410,134.333 411,138.333 C412,142.333 412.833,144.333 413,147 C413.167,149.666 414.167,154.334 413.667,157.5" fill-opacity="0" stroke="#15A748" stroke-width="1"/>
    <path d="M403.667,130.667 C404.336,129.234 406.334,128.5 407,129.333 C407.666,130.166 407.333,131.5 406.5,133 C405.667,134.5 404.667,135.333 404.167,134.833 C403.667,134.333 402.5,133.167 403.667,130.667" fill="#E27A71"/>
    <path d="M407.667,147.833 C408.524,146.976 409.834,149.5 409.167,150.833 C408.5,152.166 408,153.166 407,152.333 C406,151.5 405.667,149.833 407.667,147.833" fill="#E27A71"/>
    <path d="M405.048,113.609 C404.659,113.842 404.115,114.541 404.193,115.396 C404.271,116.251 404.581,117.027 405.514,116.717 C406.446,116.406 406.835,115.863 406.68,114.775 C406.524,113.687 406.136,113.299 405.048,113.609" fill="#E89589"/>
    <path d="M406.642,114.757 C406.491,113.706 406.116,113.331 405.064,113.631 C404.688,113.856 404.163,114.531 404.238,115.358 C404.313,116.185 404.613,116.935 405.515,116.635 C406.416,116.335 406.792,115.809 406.642,114.757" fill="#E99A8E"/>
    <path d="M406.604,114.74 C406.459,113.725 406.096,113.362 405.081,113.652 C404.718,113.87 404.21,114.522 404.283,115.32 C404.356,116.118 404.645,116.842 405.516,116.552 C406.386,116.263 406.749,115.755 406.604,114.74" fill="#EA9E92"/>
    <path d="M406.565,114.723 C406.426,113.744 406.076,113.394 405.097,113.674 C404.747,113.883 404.258,114.512 404.328,115.282 C404.398,116.051 404.677,116.75 405.517,116.47 C406.355,116.191 406.705,115.702 406.565,114.723" fill="#EBA397"/>
    <path d="M406.527,114.705 C406.394,113.762 406.057,113.426 405.113,113.695 C404.776,113.897 404.305,114.502 404.373,115.243 C404.44,115.984 404.709,116.657 405.518,116.388 C406.325,116.119 406.662,115.648 406.527,114.705" fill="#ECA79B"/>
    <path d="M406.489,114.688 C406.36,113.781 406.036,113.458 405.13,113.716 C404.806,113.911 404.353,114.493 404.418,115.205 C404.482,115.918 404.741,116.565 405.519,116.306 C406.295,116.047 406.619,115.594 406.489,114.688" fill="#EDACA0"/>
    <path d="M406.452,114.67 C406.327,113.8 406.017,113.489 405.146,113.738 C404.835,113.924 404.4,114.483 404.463,115.167 C404.525,115.851 404.772,116.472 405.519,116.224 C406.265,115.975 406.576,115.541 406.452,114.67" fill="#EEB1A5"/>
    <path d="M406.414,114.653 C406.295,113.819 405.997,113.521 405.163,113.759 C404.864,113.938 404.447,114.474 404.508,115.129 C404.567,115.785 404.805,116.38 405.52,116.142 C406.234,115.903 406.533,115.487 406.414,114.653" fill="#EFB6A9"/>
    <path d="M406.376,114.635 C406.262,113.837 405.977,113.553 405.179,113.781 C404.894,113.952 404.495,114.464 404.553,115.091 C404.609,115.718 404.837,116.287 405.521,116.06 C406.204,115.832 406.489,115.433 406.376,114.635" fill="#F0BBAE"/>
    <path d="M406.338,114.618 C406.229,113.856 405.957,113.585 405.195,113.802 C404.923,113.965 404.543,114.454 404.598,115.053 C404.652,115.651 404.868,116.195 405.521,115.977 C406.174,115.76 406.446,115.379 406.338,114.618" fill="#F1C0B2"/>
    <path d="M406.3,114.601 C406.196,113.875 405.938,113.616 405.212,113.824 C404.952,113.979 404.59,114.444 404.643,115.015 C404.694,115.585 404.9,116.102 405.522,115.895 C406.144,115.688 406.403,115.326 406.3,114.601" fill="#F2C5B7"/>
    <path d="M406.262,114.583 C406.163,113.894 405.917,113.648 405.229,113.845 C404.982,113.992 404.638,114.435 404.687,114.976 C404.736,115.518 404.933,116.01 405.523,115.813 C406.114,115.616 406.36,115.272 406.262,114.583" fill="#F4C9BC"/>
    <path d="M406.224,114.565 C406.131,113.913 405.897,113.68 405.245,113.866 C405.012,114.006 404.685,114.425 404.731,114.938 C404.778,115.451 404.965,115.917 405.524,115.731 C406.084,115.544 406.317,115.218 406.224,114.565" fill="#F5CEC1"/>
    <path d="M406.186,114.548 C406.098,113.932 405.878,113.712 405.262,113.888 C405.041,114.02 404.732,114.416 404.776,114.9 C404.821,115.385 404.996,115.825 405.525,115.648 C406.054,115.473 406.274,115.165 406.186,114.548" fill="#F6D3C6"/>
    <path d="M406.147,114.531 C406.064,113.95 405.857,113.744 405.277,113.909 C405.07,114.033 404.78,114.406 404.821,114.862 C404.863,115.318 405.028,115.732 405.526,115.566 C406.023,115.401 406.23,115.111 406.147,114.531" fill="#F8D7CB"/>
    <path d="M406.109,114.513 C406.032,113.969 405.838,113.775 405.294,113.931 C405.1,114.047 404.827,114.397 404.866,114.824 C404.905,115.252 405.061,115.64 405.527,115.484 C405.993,115.329 406.188,115.057 406.109,114.513" fill="#FADCD1"/>
    <path d="M406.072,114.496 C405.999,113.988 405.818,113.807 405.311,113.952 C405.129,114.061 404.875,114.387 404.911,114.786 C404.948,115.185 405.092,115.547 405.527,115.402 C405.963,115.257 406.145,115.003 406.072,114.496" fill="#FBE2D8"/>
    <path d="M406.034,114.479 C405.966,114.007 405.798,113.839 405.327,113.974 C405.158,114.074 404.923,114.377 404.956,114.748 C404.99,115.118 405.124,115.455 405.528,115.32 C405.933,115.185 406.102,114.95 406.034,114.479" fill="#FCE7DF"/>
    <path d="M405.996,114.461 C405.934,114.025 405.778,113.871 405.344,113.995 C405.188,114.088 404.97,114.367 405.001,114.709 C405.032,115.051 405.156,115.362 405.529,115.238 C405.902,115.113 406.059,114.896 405.996,114.461" fill="#FDEDE6"/>
    <path d="M405.958,114.443 C405.9,114.044 405.759,113.902 405.359,114.016 C405.217,114.102 405.018,114.358 405.046,114.671 C405.074,114.985 405.188,115.27 405.53,115.156 C405.872,115.042 406.015,114.842 405.958,114.443" fill="#FEF3EE"/>
    <path d="M405.92,114.426 C405.868,114.063 405.738,113.934 405.376,114.038 C405.246,114.115 405.064,114.348 405.091,114.633 C405.117,114.918 405.22,115.177 405.531,115.073 C405.842,114.97 405.972,114.789 405.92,114.426" fill="#FFF9F6"/>
    <path d="M405.393,114.059 C405.275,114.129 405.112,114.338 405.136,114.595 C405.159,114.852 405.252,115.085 405.532,114.991 C405.812,114.898 405.929,114.735 405.882,114.409 C405.835,114.082 405.719,113.966 405.393,114.059" fill="#FFFFFE"/>
    <path d="M387.333,42.833 C388,41.5 391.333,40.167 390.5,44.833 M407.5,44 C408,42.333 411.833,39.5 411.833,43.667" fill-opacity="0" stroke="#886A4A" stroke-width="1" stroke-linecap="round" stroke-linejoin="round"/>
    <path d="M396.5,61.666 C395.833,63.833 394.5,66.5 391.5,66.167 C392,67.167 394.183,69.113 394.85,69.78" fill="#F2B27D"/>
    <path d="M396.5,61.666 C395.833,63.833 394.5,66.5 391.5,66.167 C392,67.167 394.183,69.113 394.85,69.78" fill-opacity="0" stroke="#F2B27D" stroke-width="1"/>
    <path d="M396.166,73.667 C397.333,73.5 407.166,70.5 410.833,72 C414.5,73.5 405.833,78.666 403.833,79.333 C401.833,80 396.499,78.333 396.166,77 C395.833,75.667 396.166,74.667 396.166,73.667" fill="#EB9073"/>
    <path d="M396.166,73.667 C397.333,73.5 407.166,70.5 410.833,72 C414.5,73.5 405.833,78.666 403.833,79.333 C401.833,80 396.499,78.333 396.166,77 C395.833,75.667 396.166,74.667 396.166,73.667 z" fill-opacity="0" stroke="#EB9073" stroke-width="1"/>
    <path d="M410.833,72 C414.5,73.5 405.833,78.666 403.833,79.333 C401.833,80 396.499,78.333 396.166,77 C396.138,76.888 396.114,76.778 396.095,76.671" fill="#DA7259"/>
    <path d="M410.833,72 C414.5,73.5 405.833,78.666 403.833,79.333 C401.833,80 396.499,78.333 396.166,77 C396.138,76.888 396.114,76.778 396.095,76.671" fill-opacity="0" stroke="#DA7259" stroke-width="1"/>
    <path d="M410.833,72 C407.166,70.5 397.333,73.5 396.166,73.667 C396.166,74.583 395.887,75.499 396.095,76.671 C399.021,76.376 410.034,74.608 410.833,72" fill="#FFFFFE"/>
    <path d="M410.833,72 C407.166,70.5 397.333,73.5 396.166,73.667 C396.166,74.583 395.887,75.499 396.095,76.671 C399.021,76.376 410.034,74.608 410.833,72 z" fill-opacity="0" stroke="#FFFFFE" stroke-width="1" stroke-linecap="round"/>
    <path d="M398,76.5 C399.166,76.667 407.5,74.5 408.833,73.667" fill-opacity="0" stroke="#F5C4AD" stroke-width="1"/>
    <path d="M390.671,54.434 C388.871,54.434 387.67,56.833 387.27,59.833 C386.87,62.833 386.471,66.833 388.271,67.233 C390.07,67.633 391.669,63.233 392.07,60.633 C392.471,58.033 392.871,54.434 390.671,54.434" fill="#FFFFFE"/>
    <path d="M409.07,54.633 C407.464,54.487 405.471,56.233 404.67,59.833 C403.87,63.434 404.47,66.233 406.27,66.434 C408.07,66.633 410.069,63.233 410.47,60.633 C410.871,58.033 411.271,54.833 409.07,54.633" fill="#FFFFFE"/>
    <path d="M391.443,60.056 C391.275,61.627 390.676,62.851 390.104,62.79 C389.534,62.729 389.207,61.405 389.376,59.835 C389.543,58.265 390.143,57.041 390.712,57.102 C391.283,57.163 391.61,58.486 391.443,60.056" fill="#644425"/>
    <path d="M408.952,60.503 C408.785,62.074 408.186,63.298 407.614,63.237 C407.045,63.176 406.718,61.853 406.885,60.282 C407.053,58.712 407.652,57.488 408.223,57.549 C408.793,57.61 409.121,58.934 408.952,60.503" fill="#644425"/>
    <path d="M435.833,176.999 C435.833,176.999 435.5,177.333 435.333,178.499 C435.333,179.665 433.5,184.999 432.166,186.499 C432.166,187.332 432.666,189.833 432.833,190.833 C433,191.833 433.666,193.666 433.666,194.833 C433.666,196 433.5,196.333 432.5,195.999 C431.5,195.665 430.333,191.333 429.833,190.666 C429.333,189.999 428.5,189.499 428,188.499 C428,188.499 427.833,188.833 427.666,189.999 C427.499,191.165 427.5,193.833 427.5,194.666 C427.5,195.499 428,196.999 428.166,198.499 C428.332,199.999 427.833,199.166 426.666,198.833 C426.499,199.833 425.833,199.499 425,199.333 C424.167,199.167 422.333,196.833 421.5,195.666 C420.667,194.499 420.166,192.333 419.833,191.333 C419.833,192.5 419.5,194.999 420.166,196.166 C420.832,197.333 420.833,198.833 419.833,199.499 C418.833,200.165 417.333,197.499 416.666,195.833 C415.999,194.167 416,193.999 415.833,191.666 C414.5,193.333 412.666,192.666 412.5,191.833 C412.334,191 414.5,187.499 414.833,186.333 C415.166,185.167 416,184.666 417.333,183.666 C417.833,182.999 423,176.999 424.166,174.666 C426,174.333 430.666,173.832 435.833,176.999" fill="#F9D8AE"/>
    <path d="M435.833,176.999 C430.666,173.832 426,174.333 424.166,174.666 C425,172.708 427,168.958 427.25,168.333 C427.75,168.083 432.375,168.833 434,169.333 C435.625,169.833 438.875,171.458 439.5,172.083 C439.125,172.833 438.75,172.958 438.375,173.833 C438,174.708 436.875,176.833 436.625,177.208" fill="#FFFFFE"/>
    <path d="M435.833,176.999 C430.666,173.832 426,174.333 424.166,174.666 C425,172.708 427,168.958 427.25,168.333 C427.75,168.083 432.375,168.833 434,169.333 C435.625,169.833 438.875,171.458 439.5,172.083 C439.125,172.833 438.75,172.958 438.375,173.833 C438,174.708 436.875,176.833 436.625,177.208" fill-opacity="0" stroke="#FFFFFE" stroke-width="1"/>
    <path d="M417,184.999 C416.5,186.166 416.166,186 416.166,187.833 C416.166,189.666 415.833,191 415.833,191.833" fill="#F9D8AE"/>
    <path d="M420,187.666 C420,189.333 419.834,190.999 420,191.999" fill="#F9D8AE"/>
    <path d="M423.833,188.333 C423.833,190.333 424,192.665 424.333,193.999 C424.666,195.333 425.332,197.666 426.166,198.666" fill="#F9D8AE"/>
    <path d="M417,184.999 C416.5,186.166 416.166,186 416.166,187.833 C416.166,189.666 415.833,191 415.833,191.833" fill="#F9D8AE"/>
    <path d="M417,184.999 C416.5,186.166 416.166,186 416.166,187.833 C416.166,189.666 415.833,191 415.833,191.833" fill-opacity="0" stroke="#F6C395" stroke-width="1"/>
    <path d="M420,187.666 C420,189.333 419.834,190.999 420,191.999" fill="#F9D8AE"/>
    <path d="M420,187.666 C420,189.333 419.834,190.999 420,191.999" fill-opacity="0" stroke="#F6C395" stroke-width="1"/>
    <path d="M423.833,188.333 C423.833,190.333 424,192.665 424.333,193.999 C424.666,195.333 425.332,197.666 426.166,198.666" fill="#F9D8AE"/>
    <path d="M423.833,188.333 C423.833,190.333 424,192.665 424.333,193.999 C424.666,195.333 425.332,197.666 426.166,198.666 M417,184.999 C416.5,186.166 416.166,186 416.166,187.833 C416.166,189.666 415.833,191 415.833,191.833 M420,187.666 C420,189.333 419.834,190.999 420,191.999 M423.833,188.333 C423.833,190.333 424,192.665 424.333,193.999 C424.666,195.333 425.332,197.666 426.166,198.666" fill-opacity="0" stroke="#F6C395" stroke-width="1"/>
    <path d="M404.167,96.166 C403.834,95.333 402.833,93.833 402.333,92.833 C402.333,92.833 400.767,90.443 400.379,90.152 C406.199,90.249 419.295,85.981 420.944,84.914 C416.095,86.951 404.948,91.51 404.167,96.166" fill="#F6C395"/>
    <path d="M404.167,96.166 C403.834,95.333 402.833,93.833 402.333,92.833 C402.333,92.833 400.767,90.443 400.379,90.152 C406.199,90.249 419.295,85.981 420.944,84.914 C416.095,86.951 404.948,91.51 404.167,96.166 z" fill-opacity="0" stroke="#F6C395" stroke-width="1"/>
    <path d="M421.667,85.333 C420.667,86 420,85.667 420,85.667 C421,84.167 423.334,78.333 424.167,75.333 C425,72.333 425.334,53.666 422.667,49.833 C420,46 409.667,35.5 405.167,33.167 C404.167,32.5 403.833,30.5 403.833,30.5 L403.5,31.5 C403.166,32.167 403.166,32.5 402.666,32.333 C402.166,32.167 400.5,32.333 399.5,32.667 C396.166,33.167 384.5,39.667 381.5,46 C378.833,50.167 373.583,64.58 374.5,72.833 C374.75,75.083 376,80.833 380.75,83.583 C383.772,85.333 387.84,87.116 392.245,88.418 C392.5,89.833 393.999,92.333 394.833,93.166 C393.5,93.333 387.833,93.833 383.333,90 C383.5,91.333 384.667,93 385.167,93.5 C382.667,93.166 368.253,90.332 368.5,71.333 C368.667,58.5 380.132,37.559 384,32.5 C388.333,26.833 406,17.833 418.833,21.667 C420.167,21.5 423.999,20.333 429.333,23.833 C434.667,27.333 443.499,33.833 445.833,42.833 C448.167,51.833 452.166,70.999 436.833,85.833 C436.167,87.667 432.834,91 431.167,92.167 C430.5,92.167 430,89 430,88.5 C427.5,90.5 422.333,92.5 420,92.667 C421,91.333 425.667,83.667 426.167,81.167 C425,82.5 423.667,84.499 421.667,85.333" fill="#886A4A"/>
    <path d="M394.15,93.235 C394.438,93.213 394.668,93.187 394.833,93.166 C393.999,92.333 392.5,89.833 392.245,88.418 C387.84,87.116 383.772,85.333 380.75,83.583 C376,80.833 374.75,75.083 374.5,72.833 C373.583,64.58 378.833,50.167 381.5,46 C384.5,39.667 396.166,33.167 399.5,32.667 C388.061,33.455 381.337,40.01 374.613,57.827 C368.364,74.387 370.061,86.164 394.15,93.235" fill="#7C5C3B"/>
    <path d="M408.333,26.167 C410.833,26.333 419.333,26.667 425.167,36.5 C428,42.833 437.667,61.167 426,81.833 M368.667,69 C368.667,71.333 369.333,82.333 382,86.667 C380.5,85.333 378.999,83.499 378.333,81.833 M419,21.667 C416.833,21.5 408.333,24 403.833,30.5" fill-opacity="0" stroke="#A99274" stroke-width="1"/>
    <path d="M387.309,68.585 C387.309,70.839 384.699,72.666 381.48,72.666 C378.262,72.666 375.652,70.839 375.652,68.585 C375.652,66.333 378.262,64.506 381.48,64.506 C384.699,64.506 387.309,66.333 387.309,68.585" fill="#F3BAA8"/>
    <path d="M387.309,68.585 C387.309,70.839 384.699,72.666 381.48,72.666 C378.262,72.666 375.652,70.839 375.652,68.585 C375.652,66.333 378.262,64.506 381.48,64.506 C384.699,64.506 387.309,66.333 387.309,68.585" fill="#F9D8AE"/>
    <path d="M386.984,68.585 C386.984,70.714 384.521,72.439 381.48,72.439 C378.44,72.439 375.977,70.714 375.977,68.585 C375.977,66.458 378.44,64.732 381.48,64.732 C384.521,64.732 386.984,66.458 386.984,68.585" fill="#F8D3AD"/>
    <path d="M386.661,68.585 C386.661,70.588 384.342,72.212 381.48,72.212 C378.619,72.212 376.3,70.588 376.3,68.585 C376.3,66.583 378.619,64.959 381.48,64.959 C384.342,64.959 386.661,66.583 386.661,68.585" fill="#F8CFAC"/>
    <path d="M386.337,68.585 C386.337,70.463 384.163,71.985 381.48,71.985 C378.798,71.985 376.624,70.463 376.624,68.585 C376.624,66.708 378.798,65.186 381.48,65.186 C384.163,65.186 386.337,66.708 386.337,68.585" fill="#F6CAAB"/>
    <path d="M386.014,68.585 C386.014,70.338 383.984,71.759 381.48,71.759 C378.977,71.759 376.947,70.338 376.947,68.585 C376.947,66.833 378.977,65.412 381.48,65.412 C383.984,65.412 386.014,66.833 386.014,68.585" fill="#F5C6AA"/>
    <path d="M385.689,68.585 C385.689,70.213 383.805,71.532 381.48,71.532 C379.156,71.532 377.271,70.213 377.271,68.585 C377.271,66.958 379.156,65.639 381.48,65.639 C383.805,65.639 385.689,66.958 385.689,68.585" fill="#F4C2A9"/>
    <path d="M385.366,68.585 C385.366,70.088 383.626,71.306 381.48,71.306 C379.335,71.306 377.595,70.088 377.595,68.585 C377.595,67.083 379.335,65.866 381.48,65.866 C383.626,65.866 385.366,67.083 385.366,68.585" fill="#F3BDA7"/>
    <path d="M385.042,68.585 C385.042,69.963 383.447,71.079 381.48,71.079 C379.514,71.079 377.919,69.963 377.919,68.585 C377.919,67.208 379.514,66.092 381.48,66.092 C383.447,66.092 385.042,67.208 385.042,68.585" fill="#F2B8A6"/>
    <path d="M384.719,68.585 C384.719,69.837 383.269,70.852 381.48,70.852 C379.692,70.852 378.242,69.837 378.242,68.585 C378.242,67.334 379.692,66.319 381.48,66.319 C383.269,66.319 384.719,67.334 384.719,68.585" fill="#F1B4A4"/>
    <path d="M384.395,68.585 C384.395,69.712 383.09,70.625 381.48,70.625 C379.871,70.625 378.566,69.712 378.566,68.585 C378.566,67.459 379.871,66.545 381.48,66.545 C383.09,66.545 384.395,67.459 384.395,68.585" fill="#F0AFA3"/>
    <path d="M421.102,67.818 C421.102,70.071 418.492,71.898 415.273,71.898 C412.055,71.898 409.445,70.071 409.445,67.818 C409.445,65.565 412.055,63.738 415.273,63.738 C418.492,63.738 421.102,65.565 421.102,67.818" fill="#F3BAA8"/>
    <path d="M421.102,67.818 C421.102,70.071 418.492,71.898 415.273,71.898 C412.055,71.898 409.445,70.071 409.445,67.818 C409.445,65.565 412.055,63.738 415.273,63.738 C418.492,63.738 421.102,65.565 421.102,67.818" fill="#F9D8AE"/>
    <path d="M420.777,67.818 C420.777,69.946 418.313,71.671 415.273,71.671 C412.233,71.671 409.77,69.946 409.77,67.818 C409.77,65.69 412.233,63.965 415.273,63.965 C418.313,63.965 420.777,65.69 420.777,67.818" fill="#F8D3AD"/>
    <path d="M420.454,67.818 C420.454,69.821 418.135,71.445 415.273,71.445 C412.412,71.445 410.093,69.821 410.093,67.818 C410.093,65.815 412.412,64.191 415.273,64.191 C418.135,64.191 420.454,65.815 420.454,67.818" fill="#F8CFAC"/>
    <path d="M420.13,67.818 C420.13,69.696 417.956,71.218 415.273,71.218 C412.591,71.218 410.417,69.696 410.417,67.818 C410.417,65.94 412.591,64.418 415.273,64.418 C417.956,64.418 420.13,65.94 420.13,67.818" fill="#F6CAAB"/>
    <path d="M419.807,67.818 C419.807,69.571 417.777,70.991 415.273,70.991 C412.77,70.991 410.74,69.571 410.74,67.818 C410.74,66.065 412.77,64.645 415.273,64.645 C417.777,64.645 419.807,66.065 419.807,67.818" fill="#F5C6AA"/>
    <path d="M419.482,67.818 C419.482,69.445 417.598,70.765 415.273,70.765 C412.949,70.765 411.064,69.445 411.064,67.818 C411.064,66.191 412.949,64.872 415.273,64.872 C417.598,64.872 419.482,66.191 419.482,67.818" fill="#F4C2A9"/>
    <path d="M419.159,67.818 C419.159,69.32 417.419,70.538 415.273,70.538 C413.128,70.538 411.388,69.32 411.388,67.818 C411.388,66.316 413.128,65.098 415.273,65.098 C417.419,65.098 419.159,66.316 419.159,67.818" fill="#F3BDA7"/>
    <path d="M418.835,67.818 C418.835,69.195 417.24,70.311 415.273,70.311 C413.307,70.311 411.712,69.195 411.712,67.818 C411.712,66.441 413.307,65.325 415.273,65.325 C417.24,65.325 418.835,66.441 418.835,67.818" fill="#F2B8A6"/>
    <path d="M418.512,67.818 C418.512,69.07 417.062,70.085 415.273,70.085 C413.485,70.085 412.035,69.07 412.035,67.818 C412.035,66.566 413.485,65.551 415.273,65.551 C417.062,65.551 418.512,66.566 418.512,67.818" fill="#F1B4A4"/>
    <path d="M418.188,67.818 C418.188,68.945 416.883,69.858 415.273,69.858 C413.664,69.858 412.359,68.945 412.359,67.818 C412.359,66.691 413.664,65.778 415.273,65.778 C416.883,65.778 418.188,66.691 418.188,67.818" fill="#F0AFA3"/>
    <path d="M400.167,100.833 L400.5,102.667 M401.205,104.688 L401.427,106.24 M402.092,107.792 L402.313,109.566 M402.979,110.231 L403.423,111.784 M404.088,112.228 L404.31,113.558 M414.955,99.143 L414.068,101.139 M413.181,102.913 L412.294,104.244 M411.628,105.353 L410.52,106.905 M410.076,108.458 L408.745,110.01 M407.858,110.675 L405.641,112.671" fill-opacity="0" stroke="#F0B561" stroke-width="1"/>
    <path d="M411.179,23.498 C406.48,23.498 388.613,22.938 378.287,46.769 C372.47,60.194 371.127,74.514 372.917,79.884 M419.905,24.617 C423.709,26.63 453.743,49.68 430,88.5" fill-opacity="0" stroke="#A99274" stroke-width="1"/>
  </g>
</svg>
