<?xml version="1.0" encoding="UTF-8"?>
<!DOCTYPE svg PUBLIC "-//W3C//DTD SVG 1.1//EN" "http://www.w3.org/Graphics/SVG/1.1/DTD/svg11.dtd">
<svg version="1.1" xmlns="http://www.w3.org/2000/svg" xmlns:xlink="http://www.w3.org/1999/xlink" x="0" y="0" width="895.2" height="824" viewBox="0, 0, 895.2, 824">
  <defs>
    <clipPath id="Clip_1">
      <path d="M0.048,0.104 L894.584,0.104 L894.584,824 L0.048,824 z"/>
    </clipPath>
    <clipPath id="Clip_2">
      <path d="M0.048,0.104 L894.584,0.104 L894.584,824 L0.048,824 z"/>
    </clipPath>
  </defs>
  <g id="Layer_1">
    <g clip-path="url(#Clip_1)">
      <path d="M761.786,455.092 C770.186,449.722 778.874,446.389 788.64,446.27 C800.32,446.129 810.656,449.963 819.72,457.025 C825.552,461.57 831.672,465.522 838.536,468.138 C854.328,474.161 864.544,485.595 871.24,500.714 C875.664,510.7 879.52,520.892 882.56,531.369 C887.416,548.133 882.352,557.777 865.872,563.64 C864,564.304 862.12,564.927 859.8,565.724 C868,573.485 875.056,581.708 880.504,591.189 C888.312,604.769 893.024,619.174 890.776,635.035 C888.008,654.556 875.856,666.526 858.288,673.626 C847.824,677.854 837.032,680.625 825.56,678.452 C824.936,678.334 824.264,678.437 823.384,678.437 C825.96,686.851 827.344,695.233 826.136,703.801 C824.592,714.745 819.312,723.898 811.68,731.68 C799.828,743.768 786.466,753.468 769.264,756.283 C758.385,758.064 747.751,756.901 737.708,752.074 C735.695,751.106 734.759,750.946 733.73,753.478 C730.062,762.501 722.525,766.973 713.606,769.544 C707.83,771.209 701.872,772.139 695.925,772.573 C683.7,773.464 673.84,778.699 665.474,787.423 C662.17,790.87 658.449,793.942 654.75,796.98 C645.392,804.672 634.981,806.288 623.727,801.816 C617.926,799.511 612.209,796.989 606.481,794.502 C604.771,793.759 603.718,793.596 602.25,795.434 C589.127,811.848 565.281,815.08 548.111,802.968 C542.854,799.259 538.298,794.773 533.85,790.173 C532.722,789.007 532.034,788.553 530.881,790.244 C519.831,806.456 503.717,814.592 485.019,817.92 C466.51,821.224 448.397,819.656 431.31,811.072 C424.358,807.576 418.26,802.936 413.149,796.701 C407.678,803.696 401.734,809.912 394.339,814.632 C384.659,820.8 374.138,824 362.658,823.968 C345.482,823.928 328.274,824.568 311.23,821.64 C309.92,821.408 308.624,821.112 307.322,820.84 C297.138,818.744 290.962,812.76 289.994,802.24 C289.461,796.442 286.574,792.303 282.279,788.833 C277.216,784.742 271.679,781.15 268.24,775.366 C266.984,773.253 265.91,775.173 265.033,775.686 C254.846,781.645 244.147,786.386 232.397,787.99 C212.066,790.767 192.345,787.492 173.058,781.046 C163.034,777.696 153.618,773.131 145.212,766.611 C129.545,754.46 124.59,740.218 129.592,721.148 C122.97,719.842 116.352,718.508 110.322,715.267 C105.646,712.754 101.446,709.611 99.271,704.697 C98.051,701.938 96.738,701.886 94.21,702.504 C73.55,707.55 54.385,704.085 36.732,692.168 C29.604,687.356 24.819,680.773 22.111,672.753 C19.61,665.344 15.67,659.484 9.017,654.872 C-0.651,648.17 -2.65,635.053 3.531,624.07 C9.091,614.191 17.513,607.042 26.779,600.862 C31.507,597.71 36.517,594.982 41.725,591.867 C37.239,588.877 32.882,585.92 29.306,582.037 C16.57,568.208 14.622,552.134 19.829,534.769 C29.118,503.782 51.286,487.172 81.709,480.117 C93.122,477.47 104.686,477.67 116.052,479.54 C116.776,452.268 131.834,435.196 155.39,424.68 C179.042,414.121 203.698,411.404 229.083,417.594 C230.116,417.846 231.142,418.136 232.154,418.459 C238.806,420.581 238.798,420.582 241.798,414.509 C249.265,399.392 261.63,391.669 278.265,390.646 C280.678,390.498 281.46,390 281.425,387.509 C281.367,383.373 282.075,379.273 283.587,375.394 C284.122,374.023 284.231,372.99 283.309,371.722 C273.668,358.476 270.363,343.059 269.865,327.264 C267.286,245.48 303.102,185.347 373.968,145.664 C401.412,130.296 431.389,125.274 462.562,126.38 C481.822,127.063 500.59,130.602 519.168,135.6 C528.634,138.146 538.494,139.018 547.894,142.063 C570.739,149.461 591.131,161.159 609.376,176.665 C611.535,178.5 613.278,178.622 616.058,177.918 C647.856,169.874 679.498,170.75 707.357,188.785 C740.744,210.398 763.484,252.842 749.764,299.889 C748.739,303.404 747.248,306.263 743.23,306.226 C739.386,306.19 738.023,303.346 737.029,300.019 C731.375,281.102 720.007,266.22 704.42,254.378 C704.118,254.148 703.744,254.006 703.389,253.859 C703.306,253.825 703.162,253.935 702.908,254.032 C709.576,266.578 714.082,279.824 714.422,294.101 C715.056,320.808 702.976,340.206 679.546,352.61 C677.167,353.869 675.943,355.289 675.282,357.746 C672.815,366.908 669.224,375.62 664.142,383.653 C661.971,387.083 662.93,390.724 663.54,394.083 C664.076,397.031 666.942,396.974 669.7,396.566 C683.079,394.587 696.484,394.649 709.923,396.198 C728.04,398.286 740.071,409.068 749.634,423.502 C755.945,433.03 760.211,443.377 761.786,455.092" fill="#6E4100"/>
      <path d="M602.336,70.033 C602.298,58.848 607.334,49.791 617.621,43.762 C619.318,42.768 619.798,42.092 618.99,40.099 C612.098,23.125 622.232,2.317 644.159,0.232 C655.096,-0.808 666.73,4.463 672.468,17.002 C674.192,20.769 675.358,22.31 680.2,20.69 C691.103,17.039 701.898,21.563 707.726,30.384 C713.912,39.749 713.435,50.563 706.575,59.694 C704.002,63.12 700.892,65.744 696.941,67.059 C694.136,67.993 693.69,69.082 694.388,71.923 C698.149,87.235 692.023,99.97 677.818,106.787 C669.623,110.72 655.012,109.88 647.566,102.292 C645.988,100.684 644.654,100.252 642.372,100.939 C625.01,106.166 606.843,95.598 602.784,77.945 C602.257,75.65 602.492,73.179 602.336,70.033" fill="#FFECE0"/>
    </g>
    <path d="M102.51,179.734 C103.087,183.692 102.007,187.51 99.854,190.982 C98.62,192.971 99.05,194.541 99.94,196.507 C108.556,215.539 96.778,235.138 76.177,236.709 C68.539,237.291 61.466,234.55 55.941,228.945 C53.876,226.85 52.492,226.255 49.591,227.98 C39.668,233.88 25.524,231.51 18.108,223.164 C10.074,214.123 8.966,200.1 15.811,190.66 C17.818,187.894 20.264,185.331 23.345,183.603 C25.305,182.504 25.634,181.592 24.33,179.34 C17.137,166.917 21.265,153.072 33.608,147.326 C42.91,142.998 54.771,146.054 60.522,154.805 C62.254,157.441 63.344,156.91 65.436,155.878 C79.112,149.13 94.914,154.986 101.009,168.997 C102.473,172.361 102.81,175.914 102.51,179.734" fill="#FFECE0"/>
    <path d="M794.158,383.244 C787.435,383.722 781.934,381.207 777.531,376.256 C775.935,374.462 774.706,374.017 772.172,375.062 C757.802,380.992 742.933,372.94 741.898,356.37 C741.421,348.721 744.789,341.739 752.026,337.778 C754.606,336.366 755.08,335.404 753.697,332.707 C749.227,323.994 752.65,313.782 761.424,308.733 C768.907,304.426 779.638,307.024 784.575,314.574 C786.144,316.973 787.282,317.381 790.217,316.372 C805.648,311.066 819.28,322.479 818.496,335.896 C818.4,337.489 819.104,339.558 818.344,340.612 C813.672,347.07 816.352,353.949 816.944,360.625 C817.976,372.192 806.52,384.694 794.158,383.244" fill="#FFECE0"/>
    <g clip-path="url(#Clip_2)">
      <path d="M219.345,54.648 C220.233,69.188 214.811,82.369 208.874,95.591 C197.932,119.956 197.062,144.883 206.262,170.06 C206.49,170.685 206.67,171.328 206.91,171.947 C207.424,173.266 207.687,174.613 206.372,175.567 C205.094,176.495 203.905,175.904 202.717,175.098 C196.602,170.948 192.252,165.222 188.831,158.858 C181.258,144.769 179.942,129.614 181.435,113.932 C182.583,101.873 187.678,91.238 192.329,80.358 C200.102,62.174 202.882,43.423 197.611,23.981 C196.731,20.737 195.076,17.842 193.114,15.122 C192.27,13.951 191.012,12.738 192.255,11.238 C193.538,9.69 195.152,10.409 196.619,11.086 C203.356,14.194 208.432,19.158 212.362,25.354 C217.975,34.206 219.986,43.954 219.345,54.648" fill="#FFD5BA"/>
      <path d="M894.416,292.852 C894.92,306.994 891.72,319.403 885.728,331.296 C877.344,347.939 874,365.738 875.424,384.275 C876.12,393.408 878.176,402.377 881.568,410.961 C882.152,412.429 883.216,413.986 881.672,415.362 C879.928,416.918 878.424,415.559 877.072,414.521 C867.36,407.083 861.568,397.024 858.608,385.414 C853.528,365.514 855.16,346.087 864.296,327.57 C872.288,311.366 876.248,294.345 875.184,276.304 C874.728,268.679 872.84,261.332 868.144,255.018 C867.296,253.878 865.76,252.826 867.088,251.254 C868.32,249.794 869.992,250.244 871.496,250.942 C878.616,254.238 883.992,259.434 887.928,266.151 C892.896,274.648 895.264,283.788 894.416,292.852" fill="#FFD5BA"/>
    </g>
    <path d="M80.246,313.473 C80.489,326.211 77.619,338.173 71.883,349.583 C63.598,366.062 59.811,383.602 61.064,402.048 C61.676,411.065 63.518,419.91 66.713,428.421 C66.993,429.166 67.223,429.933 67.532,430.666 C68.121,432.065 68.694,433.542 67.258,434.679 C65.846,435.798 64.55,434.978 63.286,434.084 C57.167,429.755 52.686,424.011 49.307,417.441 C42.073,403.375 40.747,388.392 42.29,372.853 C43.472,360.934 48.49,350.431 53.075,339.677 C60.821,321.508 63.689,302.782 58.481,283.334 C57.611,280.086 55.949,277.207 54.067,274.437 C53.23,273.204 51.463,271.922 52.98,270.306 C54.384,268.81 56.189,269.625 57.782,270.403 C64.686,273.777 70.032,278.866 73.715,285.554 C79.207,295.526 80.257,300.486 80.246,313.473" fill="#FFD5BA"/>
    <path d="M207.33,310.049 C201.472,290.042 195.721,270.398 189.972,250.754 C188.926,247.179 187.886,243.602 186.857,240.022 C186.042,237.186 187.161,235.53 190.061,235.405 C203.323,234.829 216.204,236.336 227.621,243.78 C240.15,251.95 242.473,264.578 234.031,276.858 C231.371,280.73 228.143,284.077 224.657,287.197 C223.309,288.403 221.908,289.604 220.157,287.989 C218.621,286.572 219.443,285.128 220.359,283.712 C223.002,279.625 223.788,275.085 223.351,270.325 C222.917,265.603 220.427,262.44 215.836,261.028 C211.102,259.572 206.359,260.081 201.599,260.904 C198.508,261.438 200.002,263.485 200.396,264.854 C204.63,279.552 208.982,294.215 213.256,308.901 C214.15,311.975 215.28,314.824 217.216,317.487 C220.413,321.885 220.761,326.806 218.653,331.895 C214.891,340.975 202.606,348.934 192.801,348.572 C183.306,348.221 177.228,339.145 179.697,329.006 C182.538,317.342 194.521,308.908 207.33,310.049" fill="#FF7164"/>
    <path d="M597.106,578.354 C595.526,565.624 590.385,554.071 585.223,542.532 C582.128,535.614 579.001,528.709 575.755,521.861 C574.81,519.868 574.903,518.829 577.182,518.03 C579.678,517.155 582.014,515.826 584.441,514.744 C602.67,506.622 613.198,492.163 618.502,473.396 C618.673,472.79 618.894,472.198 619.215,471.228 C621.374,473.501 623.186,475.56 625.155,477.454 C636.544,488.412 650.475,493.256 665.966,494.312 C668.489,494.484 671.01,494.702 673.531,494.899 C674.69,498.104 672.577,500.53 671.335,503.008 C665.136,515.378 664.682,528.371 667.122,541.59 C668.535,549.245 672.342,555.794 678.266,560.981 C679.228,561.823 680.24,563.283 681.646,562.428 C683.084,561.553 682.21,559.992 681.814,558.795 C679.462,551.666 678.222,544.422 678.1,536.858 C677.917,525.499 680.716,514.95 685.72,504.946 C687.223,501.941 687.366,498.138 690.53,496.021 C703.432,497.186 716.322,497.333 729.163,495.354 C731.637,494.974 732.526,495.174 731.602,498.087 C729.704,504.079 728.84,510.276 729.381,516.599 C730.47,529.329 737.565,538.2 747.726,545.082 C757.718,551.849 769.095,555.778 779.951,560.776 C782.441,561.922 784.886,563.166 787.734,564.551 C783.602,568.161 779.798,571.436 776.401,575.154 C765.25,587.361 760.634,601.447 763.955,617.826 C764.538,620.704 764.583,622.138 760.786,622.622 C749.764,624.028 739.228,627.338 729.457,632.759 C709.835,643.644 700.99,661.041 699.428,682.777 C699.296,684.615 699.41,686.472 699.41,688.933 C691.622,684.34 683.906,680.962 675.649,678.83 C636.61,668.752 591.932,688.583 574.716,723.702 C571.854,729.541 571.862,729.501 565.288,728.112 C554.709,725.878 544.642,727.116 535.278,732.76 C533.88,733.603 532.879,734.421 531.367,732.482 C516.406,713.292 495.794,703.482 472.855,697.683 C451.128,692.191 435.089,701.281 422.002,717.761 C420.76,719.326 419.522,720.894 418.308,722.48 C416.809,724.44 415.338,726.421 413.854,728.393 C412.163,726.717 410.478,725.034 408.778,723.366 C394.244,709.113 376.297,701.854 356.634,698.531 C337.238,695.254 318.134,696.274 299.904,704.513 C297.731,705.495 297.41,704.607 296.545,702.945 C287.725,685.999 275.503,671.889 260.002,660.79 C242.714,648.413 224.396,648.345 205.61,657.27 C194.458,662.567 184.631,669.856 175.076,677.554 C174.67,677.881 174.221,678.152 173.419,678.706 C172.691,676.314 172.102,674.103 171.348,671.95 C167.771,661.751 161.958,653.721 150.666,651.278 C149.047,650.927 148.779,650.222 148.954,648.833 C151.227,630.786 142.027,617.791 130.025,606.07 C127.747,603.846 125.258,601.84 122.618,599.515 C138.181,593.109 147.436,581.032 153.323,566.066 C159.151,551.25 160.946,535.943 157.76,520.221 C157.304,517.971 156.833,516.358 160.19,516.204 C174.171,515.562 188.026,513.745 201.778,511.148 C203.162,512.975 202.078,514.73 201.541,516.444 C199.947,521.536 197.04,526.12 195.488,531.202 C190.74,546.746 190.188,562.055 198.871,576.636 C200.669,579.654 203.19,582.02 205.816,584.281 C206.51,584.878 207.388,585.483 208.31,584.723 C209.014,584.142 208.819,583.254 208.634,582.485 C208.013,579.897 206.978,577.434 206.372,574.834 C202.574,558.513 204.506,542.84 211.846,527.852 C215.542,520.305 217.728,512.49 217.471,504.032 C217.421,502.377 217.069,500.512 218.735,499.254 C218.93,501.065 219.124,502.875 219.398,505.435 C238.754,493.985 257.294,482.603 264.51,459.852 C269.712,461.92 274.83,464.146 280.079,466.003 C295.246,471.369 308.957,468.846 320.759,457.758 C323.168,455.494 323.743,456.294 325.014,458.688 C339.889,486.684 362.094,506.76 391.246,519.038 C395.114,520.668 395.297,522.084 393.862,525.57 C391.745,530.715 390.326,536.148 388.609,541.458 C386.796,541.346 386.02,539.719 384.77,538.794 C383.012,537.496 381.194,536.878 379.258,538.235 C377.266,539.631 376.835,541.659 377.442,543.918 C378.014,546.048 379.454,547.64 380.916,549.207 C388.967,557.838 399.173,563.006 410.103,566.713 C427.457,572.6 445.338,575.954 463.635,577.412 C472.829,578.144 481.996,578.031 491.178,578.07 C499.974,578.106 508.706,577.032 517.442,576.135 C521.485,575.72 521.986,576.084 521.43,579.998 C520.918,583.599 522.659,585.866 525.398,587.629 C529.366,590.182 533.732,591.854 538.338,592.755 C544.742,594.008 551.17,595.14 557.756,594.908 C567.33,594.57 576.942,595.596 586.484,594.046 C590.97,593.317 595.412,592.47 599.544,590.476 C601.858,589.359 603.962,587.967 605.218,585.624 C606.226,583.739 606.398,581.778 605.208,579.922 C604.048,578.114 602.206,577.894 600.251,578.118 C599.206,578.238 598.187,578.724 597.106,578.354" fill="#B9DEFE"/>
    <path d="M320.25,407.236 C316.181,385.136 315.839,363.083 320.817,341.044 C321.312,338.852 322.118,338.346 324.202,338.261 C382.581,335.854 436.652,319.194 486.17,288.287 C509.064,273.998 528.539,255.663 544.987,234.23 C546.861,231.789 548.122,231.683 550.646,233.176 C584.94,253.455 606.064,283.71 617.651,321.24 C625.406,346.355 628.59,371.899 624.816,398.089 C624.607,399.535 624.275,400.965 624,402.402 C621.574,401.83 621.998,399.511 621.426,397.928 C618.492,389.818 614.407,382.631 606.277,378.701 C598.55,374.964 590.62,374.976 583.306,379.37 C573.25,385.412 567.192,394.383 566.556,406.363 C566.15,414.021 569.073,420.525 575.084,425.294 C584.154,432.491 594.318,434.574 605.444,430.82 C610.094,429.251 612.763,425.194 616.169,422.067 C617.145,421.171 617.846,419.874 619.102,419.408 C620.618,418.846 620.602,419.808 620.182,420.882 C618.901,427.15 616.72,433.118 614.338,439.038 C605.592,435.119 601.697,436.874 592.674,448.86 C590.314,445.641 588.102,442.377 584.85,440.083 C580.47,436.994 575.871,434.403 570.428,436.94 C564.956,439.49 563.809,444.72 563.782,450.05 C563.765,453.63 563.346,455.035 559.274,453.702 C554.759,452.223 550.042,452.468 545.695,454.83 C538.844,458.553 537.125,465.91 541.98,471.979 C543.663,474.082 543.249,474.636 541.25,475.965 C527.69,484.975 519.061,496.886 519.714,513.97 C519.794,516.026 519.259,517.151 517.063,517.547 C475.798,524.994 435.026,524.402 395.832,507.909 C355.758,491.046 332.844,459.566 322.515,418.111 C322.42,417.728 322.439,417.317 322.404,416.918 C322.234,415.854 322.815,415.764 323.508,416.198 C324.689,416.936 325.136,418.272 325.854,419.383 C332.956,430.374 348.886,435.606 361.135,430.966 C374.096,426.057 381.662,410.175 377.117,397.158 C374.364,389.272 370.156,382.371 362.246,378.684 C352.96,374.357 344.015,375.373 335.914,381.581 C328.78,387.048 324.238,394.262 322.757,403.263 C322.488,404.897 322.526,406.826 320.25,407.236" fill="#FEF8EA"/>
    <path d="M483.282,140.254 C495.676,142.008 507.858,144.76 519.806,148.446 C524.645,149.939 529.666,149.553 534.555,150.784 C564.411,158.304 589.673,173.747 611.598,194.978 C641.876,224.298 658.91,260.568 666.228,301.57 C670.359,324.711 668.19,347.442 658.097,369.634 C654.503,365.471 650.561,362.226 645.209,361.358 C645.079,361.337 644.945,361.3 644.828,361.24 C642.637,360.115 639.296,362.257 638,359.61 C636.948,357.462 637.258,354.664 636.882,352.166 C631.605,317.064 619.965,284.606 597.097,256.854 C585.798,243.142 572.351,231.941 557.03,222.965 C555.592,222.122 553.882,221.623 553.731,219.381 C553.555,216.753 552.094,214.961 549.381,214.362 C546.386,213.702 544.179,214.876 542.526,217.283 C538.149,223.66 533.408,229.754 528.346,235.598 C503.1,264.746 472.42,286.302 436.744,300.729 C410.521,311.334 383.467,319.254 355.53,323.759 C338.829,326.452 321.998,328.298 305.25,323.483 C302.064,322.567 298.915,324.522 298.07,327.628 C297.165,330.955 298.537,333.318 301.541,334.824 C301.778,334.942 302.049,334.998 302.277,335.13 C304.386,336.343 307.988,335.154 308.782,337.92 C309.381,340.009 308.268,342.594 307.898,344.955 C307.197,349.421 306.357,353.87 305.834,358.355 C305.62,360.191 305.088,360.938 303.194,360.865 C300.362,360.757 297.523,361.262 295.086,362.638 C292.823,363.916 291.863,363.118 290.738,361.231 C286.069,353.401 284.106,344.695 282.766,335.876 C281.506,327.59 281.026,319.198 281.004,310.802 C281.002,310.178 281.302,309.554 281.461,308.93 C282.57,309.087 282.315,308.115 282.38,307.641 C285.107,287.786 292.985,269.77 302.255,252.281 C305.749,245.69 309.607,239.29 313.873,233.154 C317.097,228.518 318.194,228.226 322.988,231.037 C332.587,236.663 342.542,241.385 353.61,243.32 C363.482,245.046 373.224,244.985 382.578,240.986 C371.489,239.442 361.154,236.211 353.062,227.724 C346.694,221.045 343.808,212.914 342.426,204.064 C342.05,201.661 342.868,199.752 344.745,198.047 C372.217,173.094 403.398,154.732 439.377,145.037 C450.957,141.916 462.739,139.655 474.856,140.066 C477.676,139.716 480.458,140.973 483.282,140.254" fill="#DCBF5C"/>
    <path d="M218.529,776.962 C199.274,776.445 180.782,772.651 163.458,763.937 C157.468,760.922 151.98,757.182 147.346,752.29 C136.854,741.211 136.672,728.314 146.805,716.924 C152.152,710.914 158.4,705.937 164.861,701.22 C176.693,692.583 187.206,682.238 199.678,674.43 C205.559,670.748 211.601,667.444 218.21,665.209 C229.079,661.533 239.6,662.304 249.323,668.317 C264.975,677.996 276.435,691.69 285.438,707.571 C287.054,710.422 286.903,712.45 284.163,715.002 C271.08,727.186 262.581,741.65 263.542,760.285 C263.638,762.162 262.609,762.94 261.369,763.709 C248.248,771.844 234.362,777.513 218.529,776.962" fill="#BFCCCE"/>
    <path d="M349.346,811.984 C337.091,812.008 324.842,811.896 312.735,809.648 C303.703,807.968 302.986,807.312 301.61,798.385 C300.567,791.62 297.318,786.146 292.351,781.618 C290.289,779.738 288.168,777.87 285.85,776.331 C274.562,768.838 273.864,756.882 276.71,748.148 C283.301,727.928 297.266,715.404 317.973,711.182 C346.698,705.326 373.406,710.442 396.708,728.774 C414.106,742.461 418.113,762.462 407.71,782.033 C397.405,801.416 381.783,812.712 358.94,811.992 C355.746,811.888 352.545,811.976 349.346,811.984" fill="#BFCCCE"/>
    <path d="M608.284,778.142 C607.212,761.071 599.074,748.67 586.738,738.827 C583.456,736.208 583.031,734.256 584.778,730.656 C595.089,709.411 612.502,696.74 634.673,690.918 C659.038,684.522 681.846,688.546 701.082,705.764 C711.37,714.973 718.464,726.597 722.462,739.874 C724.863,747.847 722.082,753.188 714.354,756.54 C708.414,759.118 702.016,760.053 695.687,760.452 C678.99,761.505 665.811,769.126 654.655,781.05 C651.834,784.066 648.602,786.653 645.205,789.027 C640.361,792.413 635.11,793.194 629.654,791.097 C622.956,788.522 616.407,785.562 609.746,782.884 C606.727,781.67 608.652,779.199 608.284,778.142" fill="#BFCCCE"/>
    <path d="M99.903,490.326 C106.898,490.021 113.672,491.166 120.346,493.242 C133.903,497.459 142.382,506.594 145.394,520.258 C150.14,541.786 145.87,561.486 131.749,578.698 C126.363,585.262 119.003,588.535 110.888,590.37 C109.034,590.79 107.491,590.153 105.942,589.353 C91.381,581.833 76.247,580.694 60.599,585.278 C59.441,585.617 58.223,586.063 57.076,585.606 C45.064,580.816 34.786,574.091 30.585,560.947 C28.674,554.972 28.865,548.872 30.21,542.8 C36.211,515.721 54.115,500.41 79.786,492.919 C86.321,491.012 93.043,489.989 99.903,490.326" fill="#BFCCCE"/>
    <path d="M787.99,458.277 C797.961,458.252 805.624,461.214 812.192,466.493 C819.336,472.234 827.168,476.643 835.56,480.078 C846.216,484.44 853.608,491.926 858.512,502.24 C863.832,513.434 868.4,524.9 871.52,536.894 C873.616,544.966 871.952,548.231 864.304,551.231 C859.368,553.168 854.224,554.567 849.224,556.343 C847.928,556.802 846.952,556.54 845.832,556.025 C831.344,549.373 816.872,550.385 802.512,556.354 C800.304,557.274 798.764,557.299 796.739,555.988 C788.886,550.902 780.089,547.737 771.582,543.983 C765.006,541.08 758.543,537.994 752.657,533.778 C742.417,526.442 739.1,516.511 742.352,504.674 C747.236,486.898 756.491,472.032 772.938,462.579 C777.972,459.685 783.486,458.214 787.99,458.277" fill="#BFCCCE"/>
    <path d="M775.02,633.41 C783.121,632.322 789.571,636.887 793.914,645.625 C799.822,657.514 807.136,668.673 811.584,681.322 C817.584,698.358 814.256,712.939 801.048,725.265 C791.406,734.266 781.066,742.109 767.61,744.367 C755.91,746.33 745.159,743.83 735.434,736.974 C734.39,736.238 733.852,735.358 733.441,734.157 C729.738,723.336 724.148,713.475 716.708,704.89 C713.199,700.841 711.734,696.587 711.466,691.595 C710.309,670.05 717.826,648.894 743.59,639.459 C753.145,635.961 762.925,633.622 775.02,633.41" fill="#BFCCCE"/>
    <path d="M77.232,692.812 C65.264,692.59 54.59,689.458 44.838,683.094 C39.626,679.693 35.899,675.257 33.722,669.42 C32.097,665.063 30.438,660.714 28.098,656.656 C25.77,652.62 22.382,649.722 18.606,647.127 C11.415,642.185 10.078,635.994 14.874,628.637 C21.378,618.661 30.77,611.907 41.028,606.297 C52.798,599.859 65.108,594.884 78.754,594.576 C90.284,594.315 100.192,599.246 109.566,605.29 C118.837,611.268 126.834,618.636 132.679,628.119 C136.44,634.222 138.032,640.795 136.954,647.977 C136.527,650.817 135.386,652.45 132.489,653.722 C116.874,660.579 104.29,670.755 98.081,687.301 C97.454,688.972 96.35,689.44 94.918,689.89 C89.034,691.738 83.006,692.646 77.232,692.812" fill="#BFCCCE"/>
    <path d="M465.207,807.376 C451.768,807.04 436.759,803.304 424.621,791.443 C420.938,787.844 419.656,784.622 421.841,779.307 C426.726,767.422 426.661,755.163 421.936,743.084 C421.323,741.518 421.162,740.223 422.102,738.625 C427.356,729.706 433.769,721.799 441.633,715.032 C449.359,708.382 458.287,707.052 467.866,708.978 C485.022,712.427 500.307,719.834 513.848,730.97 C536.731,749.79 529.145,780.915 510.506,794.493 C497.837,803.72 483.538,807.384 465.207,807.376" fill="#BFCCCE"/>
    <path d="M774.958,606.652 C774.737,599.242 778.132,591.877 783.624,585.368 C794.081,572.978 806.88,564.768 823.464,563.63 C830.976,563.114 838.264,564.585 844.32,569.034 C861.84,581.905 874.496,598.322 878.584,620.162 C881.8,637.378 875.352,650.986 860.072,659.409 C847.848,666.145 834.896,669.454 820.904,665.258 C818.744,664.612 817.272,663.766 816.16,661.601 C812.032,653.554 807.616,645.654 803.296,637.708 C798.082,628.138 790.295,622.358 779.21,621.64 C777.344,621.519 776.658,620.639 776.33,619.043 C775.581,615.386 774.97,611.713 774.958,606.652" fill="#BFCCCE"/>
    <path d="M676.744,483.354 C670.076,482.037 663.212,482.432 656.552,480.883 C641.298,477.335 630.292,468.536 623.254,454.604 C622.341,452.794 622.198,451.285 623.079,449.361 C626.236,442.465 628.94,435.373 630.828,428.022 C631.443,425.628 632.541,424.944 634.935,424.834 C644.541,424.391 652.42,420.585 657.754,412.284 C658.425,411.241 659.148,410.526 660.493,410.261 C678.149,406.78 695.821,405.567 713.626,409.248 C722.818,411.149 729.292,416.864 734.862,423.87 C743.48,434.711 749.823,446.504 749.818,460.869 C749.817,464.202 749.114,467.167 746.7,469.618 C745.865,470.464 745.01,471.412 744.541,472.479 C740.475,481.722 732.245,483.231 723.535,484.052 C714.229,484.93 704.93,485.09 695.61,484.389 C694.469,484.302 693.198,483.891 692.18,484.887 C690.23,482.722 691.012,480.061 691.045,477.629 C691.169,468.51 687.744,461.039 681.05,454.969 C680.655,454.61 680.29,454.203 679.84,453.926 C678.085,452.84 676.038,450.444 674.311,451.86 C672.489,453.354 675.037,455.355 675.782,457.065 C679.211,464.936 679.545,473.053 677.918,481.35 C677.766,482.134 677.507,482.905 676.744,483.354" fill="#BFCCCE"/>
    <path d="M204.022,498.524 C197.358,499.627 190.698,500.75 184.03,501.83 C174.43,503.385 164.708,503.719 155.053,504.727 C153.218,504.919 152.175,504.394 151.235,502.746 C147.614,496.39 142.567,491.39 136.463,487.328 C128.708,482.167 126.959,476.678 129.615,467.742 C132.994,456.376 139.777,447.476 149.801,441.418 C173.93,426.834 199.834,422.77 227.263,429.642 C235.051,431.594 241.679,435.818 247.136,441.698 C253.469,448.52 254.274,455.358 249.991,463.653 C247.074,469.302 242.872,473.91 238.14,478.054 C231.917,483.504 225.199,488.266 217.917,492.211 C216.177,491.306 216.016,489.428 215.319,487.906 C212.771,482.334 209.082,477.768 203.764,474.639 C202.793,474.068 201.549,473.074 200.51,474.102 C199.48,475.122 200.414,476.354 200.997,477.355 C204.089,482.662 205.359,488.405 205.158,494.498 C205.112,495.914 205.402,497.467 204.022,498.524" fill="#BFCCCE"/>
    <path d="M740.767,260.773 C741.751,266.31 741.871,271.888 741.538,277.945 C739.586,276.488 738.856,274.483 737.763,272.814 C729.11,259.599 718.598,248.254 704.798,240.294 C698.414,236.611 691.63,233.923 684.134,233.504 C681.235,233.342 679.301,234.664 678.2,237.28 C677.133,239.814 677.817,242.057 679.722,243.825 C692.826,255.983 699.31,271.476 701.867,288.734 C704.871,309.013 697.653,325.257 681.369,337.564 C680.962,337.872 680.484,338.086 679.806,338.479 C682.407,284.533 664.232,238.049 630.516,197.008 C632.969,194.793 636.169,195.51 638.894,195.407 C662.017,194.539 684.692,197.202 704.207,210.604 C720.01,221.458 731.85,236.204 738.779,254.437 C739.216,255.306 739.64,256.182 739.666,257.184 C740.286,258.301 740.39,259.578 740.767,260.773" fill="#DCBF5C"/>
    <path d="M546.171,583.03 C539.115,570.473 537.03,556.458 534.556,542.605 C532.59,531.595 531.05,520.474 531.935,509.241 C532.977,496.026 545.85,483.407 559.103,482.63 C562.995,482.402 565.724,481.124 566.182,477.173 C566.62,473.392 564.162,471.504 560.77,470.353 C557.78,469.338 554.943,467.882 551.786,464.982 C558.306,465.042 563.159,466.955 567.15,470.676 C571.019,474.285 573.828,475.242 576.87,473.164 C579.786,471.173 579.778,468.446 577.62,463.642 C575.58,459.097 575.526,454.182 575.854,448.717 C579.067,450.562 580.882,452.924 582.418,455.536 C585.008,459.935 586.458,464.784 587.823,469.652 C588.682,472.714 590.504,474.532 593.769,474.525 C597.039,474.517 598.97,472.618 599.733,469.62 C600.52,466.531 601.117,463.388 601.657,460.244 C602.306,456.463 604.046,453.344 606.927,450.299 C608.626,455.82 608.727,460.986 607.718,466.042 C604.32,483.056 595.803,496.362 579.474,503.744 C575.114,505.715 570.737,507.647 566.367,509.597 C561.637,511.707 560.467,514.141 561.98,519.135 C564.534,527.568 568.658,535.339 572.322,543.301 C578.219,556.117 584.084,568.937 585.776,583.17 C584.741,584.598 583.166,584.889 581.585,585.084 C571.444,586.334 561.299,586.444 551.165,585.044 C549.362,584.794 547.438,584.682 546.171,583.03" fill="#FEF8EA"/>
    <path d="M474.494,140.78 C441.905,142.254 412.315,153.108 384.574,169.65 C370.572,178.001 357.578,187.718 345.505,198.697 C343.638,200.394 343.158,201.991 343.466,204.246 C346.1,223.494 359.217,236.586 378.549,239.23 C380.775,239.534 382.996,239.876 385.658,240.265 C383.008,242.546 380.05,243.268 377.177,243.97 C363.983,247.196 351.294,244.992 338.882,240.162 C332.781,237.788 326.896,234.924 321.504,231.245 C318.693,229.326 317.374,229.834 315.578,232.497 C300.016,255.588 288.248,280.293 283.008,307.835 C282.822,308.808 282.543,309.762 282.167,311.299 C281.819,310.126 281.641,309.526 281.462,308.928 C283.778,261.936 301.466,221.593 335.01,188.704 C360.52,163.691 390.512,146.362 426.308,140.466 C442.829,137.743 459.429,137.632 476.058,139.405 C476.428,140.877 474.879,140.167 474.494,140.78" fill="#FEFEFE"/>
    <path d="M397.754,549.07 C399.626,548.786 399.256,547.073 399.653,545.934 C401.748,539.919 403.806,533.89 405.748,527.824 C406.442,525.659 407.354,525.021 409.726,525.693 C445.057,535.699 480.774,536.338 516.734,529.755 C519.756,529.202 520.742,529.674 521.054,533.004 C522.038,543.453 524.288,553.717 526.394,563.992 C520.102,565.93 513.538,566.223 507.074,566.623 C493.544,567.461 480.022,567.947 466.412,567.003 C453.355,566.097 440.427,564.747 427.694,561.806 C418.596,559.705 409.726,556.839 401.466,552.363 C399.996,551.566 398.155,551.106 397.754,549.07" fill="#FEF8EA"/>
    <path d="M397.754,549.07 C411.034,556.813 425.572,560.77 440.597,563.188 C457.676,565.937 474.906,566.934 492.16,566.29 C502.583,565.9 513.071,565.526 523.371,563.514 C524.541,563.286 525.445,563.464 526.394,563.992 C527.294,567.405 528.194,570.818 529.094,574.231 C529.264,575.11 528.594,576.222 529.804,576.815 C534.202,581.671 540.282,582.099 546.171,583.03 C559.365,585.357 572.566,585.39 585.776,583.17 C589.786,582.117 594.324,582.304 597.106,578.355 C600.01,576.034 603.22,575.841 605.755,578.414 C608.302,580.997 607.909,584.199 605.75,587.14 C602.957,590.943 598.766,592.398 594.546,593.538 C588.122,595.273 581.548,596.121 574.854,596.08 C562.099,596.002 549.297,596.783 536.747,593.589 C532.857,592.598 529.146,591.16 525.635,589.208 C520.052,586.103 518.86,582.998 521.127,576.83 C514.423,577.515 507.858,578.206 501.27,578.633 C489.434,579.398 477.654,579.351 465.814,578.61 C456.646,578.035 447.581,577.001 438.593,575.215 C426.209,572.754 413.88,570.096 402.272,564.87 C393.702,561.011 385.73,556.319 379.368,549.245 C379.011,548.849 378.625,548.476 378.298,548.057 C374.947,543.754 374.968,539.666 378.342,537.216 C381.511,534.917 384.582,535.983 387.902,540.534 C388.131,540.849 388.374,541.153 388.61,541.46 C391.196,544.55 394.611,546.647 397.754,549.07" fill="#FEFEFE"/>
    <path d="M320.25,407.236 C321.563,406.054 321.461,404.428 321.781,402.866 C324.295,390.6 330.786,381.269 342.734,376.743 C354.278,372.37 366.322,376.49 373.106,386.894 C378.371,394.97 382.57,403.692 378.39,413.475 C369.55,434.163 351.741,439.343 332.393,427.825 C328.522,425.52 325.926,421.985 323.885,418.01 C323.636,417.526 323.716,416.137 322.405,416.919 C321.154,413.81 320.643,410.536 320.25,407.236" fill="#FFD5BA"/>
    <path d="M620.182,420.882 C619.882,420.595 620.194,419.172 619.122,420.322 C617.49,422.075 615.802,423.779 614.214,425.571 C605.176,435.774 594.076,435.248 582.726,431.066 C572.235,427.199 565.985,419.37 565.427,408.007 C565.068,400.674 567.768,394.034 572.062,387.998 C579.455,377.601 591.162,372.784 602.71,376.11 C612.647,378.973 618.153,386.47 621.697,395.687 C622.546,397.894 623.237,400.162 624,402.402 C623.261,408.672 622.183,414.873 620.182,420.882" fill="#FFD5BA"/>
    <path d="M571.515,798.417 C564.408,798.48 559.752,796.33 555.422,793.322 C549.266,789.045 544.233,783.522 538.888,778.341 C537.65,777.14 537.594,775.978 537.994,774.406 C540.225,765.66 540.941,756.848 538.594,747.998 C538.067,746.009 538.67,744.855 540.402,743.75 C547.27,739.359 554.694,737.743 562.515,739.955 C579.722,744.822 591.104,755.806 595.573,773.298 C597.59,781.193 594.574,788.166 587.809,792.674 C582.386,796.286 576.347,798.146 571.515,798.417" fill="#BFCCCE"/>
    <path d="M294.872,456.742 C288.155,456.436 282.201,454.146 276.298,451.67 C275.317,451.258 274.368,450.766 273.378,450.376 C267.672,448.125 262.462,445.663 260.088,439.078 C258.618,434.999 255.028,431.946 251.539,429.204 C250.186,428.141 249.36,427.257 250.136,425.239 C255.201,412.082 263.792,403.522 278.586,402.606 C281.101,402.45 282.521,402.723 283.488,405.646 C287.421,417.53 296.04,423.79 308.406,424.747 C310.947,424.943 312.1,425.704 312.775,428.139 C313.982,432.491 315.527,436.75 316.981,441.03 C317.364,442.159 317.988,443.134 316.951,444.325 C311.008,451.15 304.306,456.558 294.872,456.742" fill="#BFCCCE"/>
    <path d="M146.229,662.862 C150.846,662.642 154.469,665.502 157.131,669.833 C160.184,674.8 161.532,680.312 162.102,686.07 C162.256,687.626 161.645,688.516 160.482,689.39 C152.618,695.294 144.63,701.063 138.136,708.561 C137.34,709.48 136.378,709.685 135.281,709.574 C127.97,708.834 120.782,707.582 114.383,703.683 C109.378,700.633 107.841,696.469 109.507,691.124 C113.506,678.298 132.927,663.023 146.229,662.862" fill="#BFCCCE"/>
    <path d="M204.022,498.524 C204.566,490.721 203.892,483.19 199.214,476.519 C198.408,475.372 198.076,474.042 199.088,472.849 C200.215,471.52 201.498,472.239 202.691,472.835 C210.817,476.894 215.402,483.741 217.917,492.211 C218.19,494.557 218.462,496.902 218.735,499.25 C218.491,507.064 218.785,514.947 215.486,522.331 C213.917,525.846 212.333,529.357 210.857,532.911 C204.323,548.646 203.84,564.59 209.298,580.722 C209.51,581.352 209.638,582.022 209.929,582.61 C210.662,584.094 210.734,585.427 209.25,586.489 C207.63,587.649 206.445,586.464 205.376,585.573 C198.27,579.649 193.727,572.102 192.194,563.008 C189.916,549.486 190.825,536.328 197.319,523.855 C199.385,519.886 201.244,515.717 201.778,511.149 C203.757,507.159 203.209,502.721 204.022,498.524" fill="#FEFEFE"/>
    <path d="M676.744,483.354 C677.732,475.979 678.544,468.638 676.234,461.302 C675.46,458.849 674.381,456.646 672.979,454.538 C672.143,453.281 671.48,451.867 672.59,450.502 C673.839,448.966 675.282,449.912 676.535,450.597 C686.019,455.775 691.012,463.946 692.065,474.546 C692.404,477.964 692.158,481.44 692.18,484.888 C692.229,488.687 691.176,492.323 690.53,496.02 C687.302,505.138 682.194,513.526 680.424,523.228 C678.405,534.292 678.769,545.152 682.04,555.91 C682.427,557.182 682.862,558.44 683.31,559.691 C683.852,561.202 684.651,562.744 682.903,564 C680.923,565.422 679.671,563.801 678.426,562.737 C671.487,556.81 667.172,549.296 665.7,540.326 C663.5,526.914 664.333,513.844 670.857,501.536 C671.967,499.44 672.65,497.118 673.531,494.899 C675.305,491.246 676.144,487.333 676.744,483.354" fill="#FEFEFE"/>
    <path d="M738.585,255.178 C733.044,242.478 724.987,231.557 715.533,221.478 C703.033,208.154 687.293,201.616 669.778,198.426 C656.758,196.054 643.674,195.485 630.515,197.007 C627.974,194.34 625.431,191.672 622.505,188.602 C629.527,186.652 636.138,185.856 642.86,185.602 C655.987,185.107 668.85,186.624 681.525,190.08 C706.933,197.009 722.002,215.326 733.64,237.351 C736.425,242.623 738.488,248.267 739.427,254.234 C739.755,255.091 739.361,255.305 738.585,255.178" fill="#FEFEFE"/>
    <path d="M651.206,390.617 C650.762,394.89 650.63,399.154 648.954,403.174 C646.707,408.565 642.594,411.524 636.992,412.64 C635.422,412.953 634.515,412.963 634.939,410.731 C637.179,398.939 638.342,387.026 638.326,375.017 C638.324,373.25 638.93,372.718 640.638,372.81 C644.63,373.024 647.392,374.861 648.997,378.543 C650.686,382.421 650.761,386.563 651.206,390.617" fill="#FEF8EA"/>
    <path d="M303.239,372.838 C305.114,372.439 305.038,373.788 305.08,375.23 C305.419,387.058 306.261,398.845 308.552,410.474 C309.045,412.975 308.033,412.842 306.276,412.39 C301.671,411.205 297.926,408.867 295.972,404.383 C292.302,395.958 292.403,387.347 295.261,378.749 C296.458,375.148 299.19,373.177 303.239,372.838" fill="#FEF8EA"/>
    <path d="M474.494,140.78 C475.015,140.322 475.536,139.863 476.058,139.405 C478.466,139.688 480.873,139.97 483.282,140.254 C480.418,141.515 477.43,140.704 474.494,140.78" fill="#EBE3D0"/>
    <path d="M529.804,576.815 C527.036,576.649 527.771,575.52 529.094,574.23 C529.805,574.962 529.792,575.892 529.804,576.815" fill="#D6E9F8"/>
    <path d="M738.585,255.178 C738.866,254.863 739.146,254.549 739.427,254.234 C740.359,255.21 740.043,256.492 740.258,257.644 C739.966,257.952 739.655,257.957 739.329,257.7 C739.081,256.86 738.833,256.019 738.585,255.178" fill="#EDE5D7"/>
    <path d="M739.329,257.7 C739.638,257.682 739.948,257.662 740.258,257.644 C741.19,258.563 740.837,259.691 740.767,260.773 C740.287,259.749 739.808,258.724 739.329,257.7" fill="#CFBD90"/>
    <path d="M326.493,546.026 C326.04,538.334 328.749,531.841 333.03,525.823 C334.967,523.101 337.395,522.366 340.262,523.876 C342.844,525.236 343.73,528.96 341.666,531.534 C332.115,543.45 337.707,557.898 346.301,566.706 C354.388,574.995 363.941,580.706 374.759,584.51 C375.386,584.73 376.041,584.87 376.659,585.11 C380.379,586.553 381.87,588.962 380.785,592.115 C379.51,595.816 376.404,595.758 373.494,594.963 C368.227,593.525 363.202,591.362 358.406,588.74 C346.654,582.315 336.57,574.136 330.266,561.958 C327.645,556.894 326.087,551.622 326.493,546.026" fill="#FEFEFE"/>
    <path d="M294.568,536.738 C298.602,536.793 300.574,539.566 299.415,543.259 C298.623,545.786 297.512,548.211 296.73,550.739 C293.414,561.45 296.829,571.204 306.033,577.529 C307.346,578.431 308.819,579.166 309.945,580.259 C312.11,582.362 312.578,584.933 310.63,587.379 C308.875,589.584 306.546,590.238 303.912,588.677 C293.242,582.351 286.135,573.417 285.119,560.805 C284.518,553.342 286.258,546.055 289.986,539.378 C291.104,537.374 292.737,536.614 294.568,536.738" fill="#FEFEFE"/>
    <path d="M391.192,367.319 C391.148,362.871 391.856,359.085 393.702,355.618 C394.57,353.986 394.402,352.793 393.433,351.263 C391.47,348.162 390.726,344.629 390.671,340.98 C390.638,338.72 391.565,337.078 394.048,336.859 C396.531,336.641 397.712,338.057 398.067,340.329 C398.273,341.645 398.29,342.996 398.572,344.292 C399.077,346.604 399.723,348.676 402.986,347.986 C405.042,347.552 406.853,348.726 408.458,349.966 C417.047,356.602 418.566,371.162 411.55,379.437 C406.086,385.88 397.029,384.648 393.135,376.882 C391.553,373.725 391.014,370.317 391.192,367.319" fill="#6E4100"/>
    <path d="M552.099,367.309 C552.065,367.974 552.035,368.638 551.983,369.302 C551.316,377.779 546.298,383.684 539.804,383.641 C533.56,383.599 527.532,376.284 527.15,368.471 C526.906,363.514 527.997,358.884 530.704,354.81 C532.106,352.699 532.053,351.199 530.814,349.108 C529.682,347.197 529.014,344.963 528.422,342.795 C527.854,340.721 528.765,339.058 530.845,338.435 C532.839,337.838 534.551,338.416 535.408,340.522 C535.808,341.505 536.07,342.543 536.464,343.529 C537.447,345.99 538.28,348.146 541.831,348.278 C544.822,348.389 546.828,351.063 548.418,353.607 C550.674,357.213 552.092,362.554 552.099,367.309" fill="#6E4100"/>
    <path d="M469.022,458.546 C458.565,458.052 447.658,453.389 440.594,441.658 C439.378,439.642 438.506,437.572 440.185,435.372 C442.253,432.663 445.838,433.012 447.566,436.478 C452.778,446.937 467.302,452.399 479.71,448.933 C486.214,447.117 491.2,443.488 494.061,437.255 C495.322,434.509 497.131,432.642 500.265,434.114 C503.625,435.693 503.098,438.434 501.792,441.23 C496.695,452.141 485.486,458.614 469.022,458.546" fill="#6E4100"/>
    <path d="M543.963,264.838 C550.418,265.253 555.859,267.794 559.704,273.342 C561.201,275.502 562.058,277.877 559.593,279.663 C557.178,281.413 555.29,280.147 553.665,277.826 C549.956,272.526 544.902,271.147 538.705,273.674 C536.336,274.639 534.417,274.383 533.286,272.145 C532.122,269.838 533.238,268.074 535.408,266.917 C538.04,265.514 540.871,264.938 543.963,264.838" fill="#6E4300"/>
    <path d="M472.016,382.827 C468.648,382.81 464.212,375.986 465.677,372.959 C466.578,371.097 468.131,370.251 470.234,370.839 C472.406,371.446 476.267,377.059 476.058,379.251 C475.862,381.293 474.117,382.838 472.016,382.827" fill="#704401"/>
    <path d="M335.405,305.693 C331.075,305.881 329.085,303.977 328.478,300.971 C327.812,297.676 329.438,295.272 332.63,294.168 C341.187,291.207 349.61,287.925 357.789,284.024 C385.386,270.863 410.237,253.533 433.664,234.049 C442.473,226.722 450.994,219.074 459.136,211.002 C461.989,208.174 465.464,208.14 468.007,210.618 C470.5,213.046 470.438,216.636 467.571,219.429 C432.175,253.918 393.209,283.196 346.94,301.75 C342.883,303.377 338.825,305.078 335.405,305.693" fill="#6E4100"/>
  </g>
</svg>
