<?xml version="1.0" encoding="UTF-8" standalone="no"?>
<svg
   xmlns:dc="http://purl.org/dc/elements/1.1/"
   xmlns:cc="http://creativecommons.org/ns#"
   xmlns:rdf="http://www.w3.org/1999/02/22-rdf-syntax-ns#"
   xmlns:svg="http://www.w3.org/2000/svg"
   xmlns="http://www.w3.org/2000/svg"
   xmlns:xlink="http://www.w3.org/1999/xlink"
   id="svg7112"
   viewBox="0 0 490.30981 509.17801"
   height="509.17801"
   width="490.30981"
   y="0"
   x="0"
   version="1.1">
  <metadata
     id="metadata7116">
    <rdf:RDF>
      <cc:Work
         rdf:about="">
        <dc:format>image/svg+xml</dc:format>
        <dc:type
           rdf:resource="http://purl.org/dc/dcmitype/StillImage" />
        <dc:title></dc:title>
      </cc:Work>
    </rdf:RDF>
  </metadata>
  <defs
     id="defs6961">
    <linearGradient
       id="linearGradient7122">
      <stop
         id="stop7118"
         offset="0"
         style="stop-color:#ffaaaa;stop-opacity:1;" />
      <stop
         id="stop7120"
         offset="1"
         style="stop-color:#ffaaaa;stop-opacity:0;" />
    </linearGradient>
    <clipPath
       id="Clip_1">
      <path
         id="path6952"
         d="m 128.495,272.346 -5.914,72.828 -39.493,-107.305 c 0,0 -21.984,-2.742 -34.875,-46.883 -12.859,-44.156 32.531,-52.672 44.789,-40.226 12.258,12.445 36.727,53.398 16.414,81.875 z" />
    </clipPath>
    <clipPath
       id="Clip_2">
      <path
         id="path6955"
         d="m 424.484,484.824 c -0.867,0 -1.838,-0.239 -2.919,-0.744 -5.377,-2.511 -5.909,-12.291 -4.938,-22.822 5.016,-0.48 9.902,-1.091 14.623,-1.822 0.373,13.906 -0.749,25.388 -6.766,25.388 z" />
    </clipPath>
    <clipPath
       id="Clip_3">
      <path
         id="path6958"
         d="m 410.002,351.4 -15.554,-8.273 c -0.86,-0.461 -1.883,-0.524 -2.789,-0.18 l -17.367,6.664 c -0.391,0.141 -0.766,0.375 -1.071,0.657 -3.64,3.336 -2.43,13.781 -0.781,21.953 0.226,1.164 1.062,2.109 2.18,2.507 l 17.828,6.414 c 0.375,0.133 0.765,0.204 1.14,0.204 0.532,0 1.039,-0.141 1.532,-0.375 l 14.023,-7.141 c 1.086,-0.539 1.789,-1.633 1.836,-2.836 l 0.836,-16.453 c 0.039,-1.313 -0.648,-2.523 -1.813,-3.141 z" />
    </clipPath>
    <radialGradient
       gradientUnits="userSpaceOnUse"
       gradientTransform="matrix(1,0,0,0.93763862,0,14.817593)"
       r="28.662049"
       fy="237.60849"
       fx="398.06169"
       cy="237.60849"
       cx="398.06169"
       id="radialGradient7124"
       xlink:href="#linearGradient7122" />
    <radialGradient
       gradientUnits="userSpaceOnUse"
       gradientTransform="matrix(1,0,0,0.9377751,0,15.736516)"
       r="28.660799"
       fy="252.89739"
       fx="240.03132"
       cy="252.89739"
       cx="240.03132"
       id="radialGradient7126"
       xlink:href="#linearGradient7122" />
  </defs>
  <g
     transform="translate(-51.335204,-47.576)"
     id="Layer_1">
    <path
       style="fill:#79c091"
       id="path6963"
       d="m 362.542,312.861 c 10.796,-1.859 30.445,9.446 46.625,23.125 16.203,13.696 33.109,39.438 33.109,39.438 0,0 -2.344,40.078 -40.445,19.062 -38.102,-21.031 -60.782,-77.914 -39.289,-81.625" />
    <path
       style="fill:#79c091"
       id="path6965"
       d="m 362.542,312.861 0.572,3.321 c 0.573,-0.099 1.215,-0.153 1.921,-0.153 2.251,-0.005 5.147,0.561 8.395,1.679 4.879,1.67 10.542,4.546 16.329,8.178 5.791,3.631 11.721,8.013 17.232,12.673 3.876,3.275 7.878,7.35 11.668,11.608 5.688,6.388 10.908,13.187 14.691,18.375 1.891,2.594 3.424,4.785 4.482,6.324 0.528,0.769 0.938,1.376 1.214,1.787 0.138,0.206 0.243,0.363 0.313,0.468 l 0.1,0.152 2.817,-1.849 -3.364,-0.197 0.403,0.023 -0.403,-0.025 v 0.002 l 0.403,0.023 -0.403,-0.025 c -0.005,0.079 -0.109,1.611 -0.543,3.817 -0.324,1.655 -0.834,3.688 -1.608,5.767 -1.156,3.126 -2.915,6.311 -5.374,8.589 -1.231,1.144 -2.629,2.079 -4.276,2.745 -1.649,0.664 -3.558,1.066 -5.866,1.068 -4.359,0.006 -10.206,-1.491 -17.787,-5.675 -13.335,-7.347 -24.933,-19.513 -33.085,-32.105 -4.079,-6.29 -7.301,-12.68 -9.48,-18.564 -2.186,-5.878 -3.306,-11.267 -3.298,-15.405 0,-1.501 0.144,-2.832 0.406,-3.955 0.397,-1.695 1.038,-2.882 1.82,-3.693 0.792,-0.806 1.751,-1.353 3.294,-1.632 l -1.147,-6.641 c -1.834,0.314 -3.535,0.962 -4.999,1.931 -2.208,1.451 -3.797,3.595 -4.75,6.001 -0.963,2.415 -1.36,5.103 -1.363,7.989 0.008,5.297 1.345,11.325 3.718,17.747 3.569,9.621 9.516,20.106 17.288,29.748 7.775,9.634 17.376,18.422 28.34,24.479 8.249,4.546 15.145,6.508 21.043,6.514 2.805,0.001 5.371,-0.455 7.66,-1.28 4.017,-1.441 7.118,-3.994 9.404,-6.858 3.436,-4.311 5.191,-9.303 6.175,-13.228 0.974,-3.929 1.146,-6.82 1.156,-6.964 0.042,-0.719 -0.153,-1.444 -0.548,-2.046 -0.031,-0.047 -4.295,-6.54 -10.622,-14.785 -3.163,-4.123 -6.843,-8.684 -10.778,-13.104 -3.937,-4.42 -8.125,-8.699 -12.35,-12.272 -7.655,-6.47 -16.052,-12.415 -24.071,-16.803 -4.012,-2.193 -7.931,-3.998 -11.655,-5.276 -3.728,-1.274 -7.259,-2.038 -10.581,-2.044 -1.044,0 -2.068,0.079 -3.066,0.251 l 0.573,3.32" />
    <path
       style="fill:#f5c2a6"
       id="path6967"
       d="m 126.549,299.182 c -13.507,7.507 -21.312,21.242 -15.992,36.453 5.336,15.218 19.219,20.015 32.172,17.898 13.008,-2.133 29.766,-27.39 14.469,-41.523 -13.633,-12.571 -17.141,-20.328 -30.649,-12.828" />
    <path
       style="fill:#f5c2a6"
       id="path6969"
       d="m 126.549,299.182 -1.637,-2.946 c -5.702,3.171 -10.53,7.404 -13.964,12.472 -3.433,5.061 -5.45,10.99 -5.446,17.331 -10e-4,3.487 0.607,7.087 1.875,10.708 v 0.002 c 2.489,7.135 6.836,12.415 12.111,15.775 5.274,3.371 11.386,4.853 17.476,4.852 2.111,0 4.223,-0.178 6.307,-0.517 l 0.003,-10e-4 c 3.001,-0.499 5.864,-1.863 8.543,-3.747 4.011,-2.84 7.637,-6.898 10.349,-11.601 2.698,-4.702 4.49,-10.073 4.498,-15.579 0.001,-2.9 -0.513,-5.836 -1.682,-8.637 -1.167,-2.801 -2.992,-5.448 -5.498,-7.759 l -0.002,-0.003 c -4.869,-4.484 -8.443,-8.388 -11.936,-11.4 -1.75,-1.503 -3.499,-2.796 -5.444,-3.748 -1.936,-0.951 -4.097,-1.522 -6.377,-1.516 -1.693,-10e-4 -3.428,0.3 -5.211,0.869 -1.784,0.569 -3.625,1.402 -5.601,2.499 l 1.636,2.946 1.637,2.945 c 1.683,-0.936 3.134,-1.575 4.374,-1.969 1.243,-0.396 2.267,-0.551 3.165,-0.551 1.208,0.006 2.232,0.261 3.423,0.834 1.773,0.852 3.857,2.55 6.401,4.989 2.548,2.429 5.558,5.546 9.365,9.057 l -0.003,-0.002 c 1.831,1.694 3.054,3.5 3.852,5.405 0.794,1.905 1.161,3.926 1.162,6.041 0.002,2.668 -0.598,5.481 -1.671,8.215 -1.601,4.101 -4.275,8.003 -7.271,10.907 -1.494,1.454 -3.065,2.658 -4.582,3.534 -1.516,0.879 -2.973,1.419 -4.217,1.621 l 0.003,-0.001 c -1.74,0.284 -3.492,0.43 -5.223,0.43 -5.011,0 -9.827,-1.218 -13.845,-3.79 -4.016,-2.583 -7.322,-6.49 -9.382,-12.327 l 0.001,0.002 c -1.03,-2.946 -1.496,-5.775 -1.497,-8.483 0.004,-4.914 1.53,-9.47 4.287,-13.552 2.757,-4.075 6.769,-7.644 11.658,-10.36 l -1.637,-2.945" />
    <path
       style="fill:#f5c2a6"
       id="path6971"
       d="m 144.104,350.947 c 7.914,-0.179 24.977,18.828 29.32,24.156 l 16.118,-33.781 c 0,0 -19.368,-9.226 -26.196,-20.086 l -19.242,29.711" />
    <path
       style="fill:#f5c2a6"
       id="path6973"
       d="m 144.104,350.947 0.089,3.368 h 0.023 c 0.327,-0.009 1.077,0.132 2.042,0.55 1.699,0.716 3.992,2.199 6.382,4.093 3.603,2.841 7.49,6.583 10.789,10.025 3.299,3.439 6.04,6.6 7.384,8.249 0.732,0.899 1.861,1.355 3.013,1.217 1.151,-0.138 2.14,-0.848 2.639,-1.895 l 16.118,-33.781 c 0.387,-0.812 0.435,-1.728 0.135,-2.576 -0.301,-0.849 -0.915,-1.53 -1.727,-1.917 l -0.007,-0.003 c -0.211,-0.1 -4.971,-2.398 -10.415,-5.926 -2.721,-1.762 -5.611,-3.832 -8.172,-6.053 -2.562,-2.217 -4.785,-4.598 -6.198,-6.855 -0.612,-0.973 -1.681,-1.569 -2.83,-1.576 -1.149,-0.008 -2.227,0.573 -2.851,1.538 l -19.242,29.71 c -0.678,1.047 -0.721,2.393 -0.111,3.481 0.61,1.087 1.781,1.752 3.028,1.719 l -0.089,-3.368 2.828,1.832 19.242,-29.711 -2.828,-1.832 -2.852,1.794 c 1.978,3.136 4.688,5.941 7.626,8.479 4.409,3.795 9.359,6.969 13.236,9.232 3.876,2.259 6.675,3.594 6.736,3.623 l 1.45,-3.042 -3.042,-1.451 -16.117,33.781 3.041,1.451 2.612,-2.129 c -1.14,-1.397 -3.038,-3.604 -5.403,-6.168 -3.549,-3.844 -8.113,-8.462 -12.676,-12.218 -2.287,-1.878 -4.568,-3.545 -6.81,-4.806 -1.123,-0.63 -2.239,-1.16 -3.378,-1.553 -1.138,-0.388 -2.306,-0.65 -3.553,-0.653 l -0.201,0.003 0.089,3.368 2.828,1.832 -2.828,-1.832" />
    <path
       style="fill:#f5c2a6"
       id="path6975"
       d="m 160.979,315.338 c 0,0 0.484,-24.688 -12.586,-31.617 -13.094,-6.938 -23.906,-24.032 -29.992,-17.157 -6.086,6.899 0.367,16.094 8.406,21.883 0,0 5.102,35.274 19.195,41.383 14.094,6.078 14.977,-14.492 14.977,-14.492" />
    <path
       style="fill:#f5c2a6"
       id="path6977"
       d="m 160.979,315.338 3.369,0.063 c 0,-0.02 0.003,-0.159 0.003,-0.402 -0.005,-1.655 -0.102,-8.067 -1.828,-15.14 -0.869,-3.539 -2.144,-7.255 -4.119,-10.647 -0.989,-1.694 -2.156,-3.308 -3.55,-4.756 -1.393,-1.446 -3.016,-2.723 -4.883,-3.712 -2.462,-1.304 -4.947,-3.077 -7.369,-5.03 -3.642,-2.931 -7.117,-6.247 -10.417,-8.955 -1.657,-1.354 -3.27,-2.562 -4.946,-3.503 -0.84,-0.468 -1.699,-0.871 -2.61,-1.169 -0.91,-0.297 -1.88,-0.491 -2.906,-0.492 -1.054,-0.003 -2.168,0.221 -3.184,0.702 -1.019,0.477 -1.917,1.19 -2.662,2.035 l -0.003,0.003 c -1.083,1.226 -1.911,2.578 -2.453,3.998 -0.543,1.42 -0.795,2.899 -0.794,4.346 0.001,1.903 0.422,3.744 1.107,5.475 1.032,2.6 2.646,4.985 4.568,7.167 1.925,2.18 4.169,4.155 6.536,5.86 l 1.969,-2.734 -3.335,0.482 c 0.018,0.107 1.306,9.053 4.435,18.937 1.572,4.946 3.594,10.131 6.249,14.634 1.331,2.251 2.823,4.337 4.545,6.132 1.722,1.791 3.687,3.302 5.961,4.29 l 0.006,0.002 c 2.143,0.924 4.193,1.398 6.146,1.398 1.649,0.004 3.212,-0.349 4.573,-0.979 1.192,-0.549 2.224,-1.297 3.094,-2.137 1.524,-1.477 2.573,-3.215 3.36,-4.945 1.173,-2.6 1.765,-5.229 2.104,-7.251 0.333,-2.02 0.396,-3.429 0.4,-3.528 l 0.003,-0.081 -3.369,-0.063 -3.366,-0.145 1.042,0.045 -1.042,-0.05 v 0.005 l 1.042,0.045 -1.042,-0.05 c -0.002,0.032 -0.048,0.96 -0.25,2.297 -0.29,2.001 -0.985,4.932 -2.168,7.004 -0.584,1.041 -1.26,1.842 -1.946,2.332 -0.345,0.248 -0.693,0.429 -1.08,0.557 -0.388,0.127 -0.819,0.204 -1.355,0.205 -0.852,10e-4 -1.992,-0.207 -3.477,-0.847 l 0.006,0.002 c -1.25,-0.54 -2.527,-1.467 -3.782,-2.775 -2.201,-2.278 -4.265,-5.699 -5.992,-9.541 -2.605,-5.763 -4.492,-12.434 -5.695,-17.621 -0.603,-2.594 -1.038,-4.821 -1.322,-6.389 -0.142,-0.785 -0.246,-1.405 -0.313,-1.825 -0.034,-0.21 -0.059,-0.369 -0.075,-0.475 l -0.018,-0.116 -0.004,-0.031 c -0.131,-0.904 -0.625,-1.719 -1.366,-2.252 -2.666,-1.916 -5.13,-4.256 -6.831,-6.603 -0.852,-1.172 -1.513,-2.341 -1.944,-3.434 -0.433,-1.094 -0.635,-2.101 -0.635,-2.997 0.002,-0.686 0.112,-1.313 0.351,-1.941 0.241,-0.628 0.615,-1.267 1.21,-1.944 l -0.002,0.002 c 0.241,-0.269 0.392,-0.357 0.481,-0.4 0.092,-0.04 0.147,-0.058 0.317,-0.062 0.212,-0.002 0.629,0.063 1.226,0.312 1.045,0.423 2.548,1.395 4.23,2.734 2.54,2.006 5.52,4.791 8.796,7.588 3.284,2.798 6.874,5.624 10.84,7.73 1.175,0.623 2.227,1.439 3.186,2.434 1.677,1.736 3.057,4.041 4.127,6.606 1.612,3.844 2.513,8.236 2.975,11.87 0.466,3.636 0.509,6.516 0.509,7.391 0,0.099 -0.001,0.173 -0.001,0.22 l -10e-4,0.049 v 0.009 l 0.89,0.014 -0.89,-0.016 v 0.002 l 0.89,0.014 -0.89,-0.016 3.369,0.063 -3.366,-0.145 3.366,0.145" />
    <path
       style="fill:#ec988f"
       id="path6979"
       d="m 105.304,320.523 c 0.059,0.036 2.579,1.625 6.055,3.238 1.74,0.806 3.719,1.62 5.778,2.246 2.062,0.622 4.199,1.068 6.323,1.072 0.121,0 0.232,-0.002 0.33,-0.004 h 0.015 c 1.81,-0.044 3.297,-0.12 4.568,-0.27 0.955,-0.114 1.792,-0.265 2.575,-0.51 0.587,-0.185 1.149,-0.425 1.68,-0.772 0.396,-0.259 0.77,-0.581 1.085,-0.958 0.478,-0.564 0.795,-1.237 0.963,-1.875 0.171,-0.642 0.218,-1.251 0.219,-1.842 -0.003,-0.963 -0.124,-1.904 -0.262,-2.958 -0.139,-1.052 -0.305,-2.212 -0.436,-3.543 -0.138,-1.389 -1.375,-2.404 -2.764,-2.266 -1.389,0.137 -2.403,1.375 -2.266,2.763 0.144,1.456 0.322,2.696 0.456,3.71 0.136,1.011 0.22,1.803 0.217,2.294 0.001,0.237 -0.017,0.4 -0.034,0.482 l -0.016,0.065 -0.001,0.004 0.274,0.109 -0.231,-0.18 -0.043,0.071 0.274,0.109 -0.231,-0.18 0.181,0.141 -0.142,-0.183 -0.039,0.042 0.181,0.141 -0.142,-0.183 c -0.003,0.003 -0.097,0.071 -0.342,0.155 -0.363,0.129 -1.044,0.275 -2.02,0.375 -0.977,0.102 -2.248,0.169 -3.825,0.206 h 0.015 l -0.239,0.003 c -1.387,0.004 -3.106,-0.321 -4.855,-0.855 -2.628,-0.796 -5.322,-2.038 -7.324,-3.077 -1.002,-0.52 -1.834,-0.989 -2.41,-1.323 -0.287,-0.168 -0.511,-0.302 -0.66,-0.393 l -0.167,-0.102 -0.038,-0.024 -0.008,-0.004 c -1.181,-0.745 -2.741,-0.39 -3.485,0.791 -0.744,1.18 -0.39,2.741 0.791,3.485" />
    <path
       style="fill:#ec988f"
       id="path6981"
       d="m 123.639,296.678 0.403,-0.907 -0.41,0.904 0.007,0.003 0.403,-0.907 -0.41,0.904 c 0.019,0.007 0.909,0.419 1.893,1.127 0.994,0.701 2.034,1.713 2.502,2.688 0.619,1.251 2.135,1.763 3.386,1.144 1.25,-0.619 1.762,-2.135 1.143,-3.386 -0.546,-1.1 -1.26,-2.011 -2.001,-2.773 -1.113,-1.142 -2.292,-1.963 -3.21,-2.525 -0.917,-0.56 -1.577,-0.856 -1.651,-0.89 -1.276,-0.567 -2.769,0.007 -3.337,1.282 -0.567,1.275 0.007,2.769 1.282,3.336" />
    <g
       id="g6987"
       clip-path="url(#Clip_1)">
      <path
         style="fill:#adb2b3"
         id="path6983"
         d="m 60.315,210.893 -1.602,-5.852 -7.086,-25.609 c -0.906,-2.485 0.367,-5.227 2.86,-6.125 2.484,-0.93 5.218,0.367 6.125,2.828 l 7.828,25.351 0.023,0.047 c 1.024,2.766 4.078,4.156 6.844,3.149 2.742,-1.024 4.156,-4.079 3.164,-6.836 l -0.055,-0.047 v -0.031 L 66.487,165.314 c -0.93,-2.484 0.367,-5.242 2.851,-6.148 2.469,-0.906 5.227,0.359 6.141,2.844 l 11.922,32.468 0.054,0.063 c 0.993,2.781 4.063,4.18 6.797,3.164 2.789,-1 4.18,-4.062 3.188,-6.828 L 97.416,190.814 86.94,166.455 c -0.906,-2.484 0.367,-5.227 2.859,-6.141 2.461,-0.914 5.219,0.344 6.125,2.844 l 11.196,24.078 2.578,5.485 c 4.383,11.945 2.429,24.32 -4.024,32.226 l 0.047,-0.023 c 0,0 -3.437,4.695 -1.484,10.062 l 35.617,82.727 c 2.203,5.945 -0.859,12.531 -6.805,14.719 -5.945,2.187 -12.539,-0.852 -14.718,-6.805 L 91.838,239.564 c -1.953,-5.398 -7.664,-6.711 -7.664,-6.711 l 0.078,-0.046 C 74.198,230.994 64.721,222.822 60.315,210.893" />
      <path
         style="fill:#8e9495"
         id="path6985"
         d="m 104.979,212.166 c 1.906,5.133 -2.945,11.672 -10.82,14.578 -7.868,2.883 -15.782,1.047 -17.665,-4.094 l 28.485,-10.484" />
    </g>
    <path
       style="fill:#f5c2a6"
       id="path6989"
       d="m 109.877,283.057 c -5.335,-0.196 -10.859,6.875 -1.578,15.359 9.289,8.484 28.61,6.711 23.125,-0.93 -5.476,-7.633 -13.07,-14.14 -21.547,-14.429" />
    <path
       style="fill:#f5c2a6"
       id="path6991"
       d="m 109.877,283.057 0.126,-3.368 c -0.103,-0.003 -0.217,-0.006 -0.342,-0.006 -2.492,0.007 -4.86,0.971 -6.679,2.673 -0.907,0.853 -1.674,1.902 -2.21,3.111 -0.537,1.206 -0.837,2.571 -0.836,3.999 -0.001,1.876 0.512,3.837 1.526,5.754 1.016,1.922 2.521,3.814 4.564,5.683 2.569,2.341 5.638,3.939 8.761,4.981 3.129,1.038 6.322,1.523 9.26,1.525 1.348,0 2.645,-0.103 3.871,-0.32 1.837,-0.335 3.53,-0.881 5.03,-1.94 0.744,-0.533 1.444,-1.219 1.971,-2.107 0.529,-0.881 0.844,-1.972 0.837,-3.052 0.001,-0.828 -0.169,-1.633 -0.45,-2.376 -0.283,-0.746 -0.673,-1.435 -1.144,-2.092 -2.906,-4.045 -6.387,-7.839 -10.42,-10.741 -2.017,-1.449 -4.176,-2.673 -6.476,-3.564 -2.297,-0.89 -4.74,-1.442 -7.274,-1.528 h 0.011 l -0.126,3.368 -0.114,3.367 c 1.704,0.059 3.389,0.428 5.071,1.078 2.519,0.973 5.021,2.593 7.373,4.668 2.353,2.073 4.551,4.591 6.48,7.28 0.191,0.266 0.282,0.456 0.315,0.547 l 0.02,0.063 0.357,-0.07 h -0.362 l 0.005,0.07 0.357,-0.07 h -0.362 0.776 l -0.724,-0.274 -0.052,0.274 h 0.776 l -0.724,-0.274 0.525,0.199 -0.448,-0.344 -0.077,0.145 0.525,0.199 -0.448,-0.344 h -10e-4 c -0.022,0.025 -0.149,0.137 -0.399,0.268 -0.373,0.199 -1.013,0.427 -1.826,0.582 -0.813,0.158 -1.798,0.25 -2.873,0.249 -2.182,0.003 -4.732,-0.379 -7.133,-1.181 -2.406,-0.797 -4.651,-2.011 -6.342,-3.561 -1.584,-1.447 -2.575,-2.762 -3.15,-3.853 -0.575,-1.095 -0.745,-1.951 -0.746,-2.609 0.001,-0.504 0.098,-0.907 0.255,-1.265 0.236,-0.532 0.632,-0.977 1.131,-1.296 0.497,-0.319 1.083,-0.486 1.599,-0.483 l 0.091,0.002 h 0.011 l 0.114,-3.367" />
    <path
       style="fill:#f5c2a6"
       id="path6993"
       d="m 104.776,298.682 c -5.367,-0.18 -10.891,6.89 -1.609,15.359 9.289,8.484 29.812,14.648 28.648,-0.477 -0.836,-10.57 -18.594,-14.57 -27.039,-14.882" />
    <path
       style="fill:#f5c2a6"
       id="path6995"
       d="m 104.776,298.682 0.123,-3.368 c -0.1,-0.003 -0.208,-0.006 -0.324,-0.006 -2.5,0.008 -4.877,0.97 -6.706,2.673 -0.912,0.854 -1.683,1.905 -2.223,3.116 -0.54,1.21 -0.842,2.578 -0.841,4.01 -0.001,1.876 0.513,3.837 1.527,5.751 1.016,1.919 2.522,3.808 4.563,5.672 2.93,2.669 6.653,5.002 10.589,6.739 1.969,0.865 3.991,1.577 6.006,2.08 2.015,0.502 4.022,0.799 5.985,0.801 1.46,-10e-4 2.901,-0.166 4.293,-0.576 1.042,-0.308 2.058,-0.758 2.992,-1.385 1.404,-0.934 2.597,-2.292 3.355,-3.923 0.765,-1.632 1.117,-3.49 1.116,-5.506 0,-0.473 -0.018,-0.957 -0.056,-1.453 l -0.001,-0.008 c -0.139,-1.782 -0.649,-3.459 -1.424,-4.948 -1.363,-2.616 -3.465,-4.641 -5.831,-6.258 -3.563,-2.421 -7.8,-4.001 -11.903,-5.073 -4.107,-1.062 -8.061,-1.59 -11.116,-1.706 l -0.249,6.735 c 1.894,0.069 4.436,0.356 7.122,0.905 4.032,0.813 8.414,2.249 11.581,4.209 1.588,0.973 2.857,2.063 3.7,3.173 0.845,1.121 1.294,2.21 1.402,3.494 l -10e-4,-0.008 c 0.026,0.331 0.037,0.644 0.037,0.938 0,1.106 -0.171,1.895 -0.392,2.445 -0.168,0.415 -0.359,0.705 -0.582,0.95 -0.333,0.36 -0.763,0.649 -1.43,0.883 -0.662,0.23 -1.552,0.374 -2.613,0.373 -1.266,10e-4 -2.765,-0.203 -4.353,-0.6 -2.386,-0.594 -4.971,-1.619 -7.372,-2.9 -2.402,-1.277 -4.625,-2.815 -6.311,-4.358 -1.585,-1.445 -2.575,-2.757 -3.149,-3.845 -0.575,-1.092 -0.744,-1.945 -0.745,-2.601 0.001,-0.504 0.098,-0.907 0.257,-1.266 0.237,-0.533 0.637,-0.982 1.144,-1.304 0.504,-0.322 1.101,-0.492 1.629,-0.49 l 0.078,0.002 0.123,-3.367" />
    <path
       style="fill:#f5c2a6"
       id="path6997"
       d="m 102.495,319.564 c -5.016,1.93 -7.329,10.594 4.531,14.766 11.859,4.188 28.945,-5.008 20.937,-9.906 -8.031,-4.883 -17.593,-7.899 -25.468,-4.86" />
    <path
       style="fill:#f5c2a6"
       id="path6999"
       d="m 102.495,319.564 -1.21,-3.145 c -1.831,0.708 -3.366,1.945 -4.471,3.515 -1.102,1.568 -1.779,3.503 -1.78,5.585 0,1.188 0.225,2.414 0.692,3.598 0.7,1.78 1.936,3.44 3.637,4.85 1.706,1.415 3.871,2.6 6.544,3.542 l -0.003,-0.002 c 2.532,0.893 5.17,1.255 7.749,1.256 4.692,-0.011 9.197,-1.174 12.776,-2.954 1.79,-0.902 3.358,-1.953 4.624,-3.263 0.63,-0.658 1.189,-1.389 1.619,-2.245 0.427,-0.852 0.723,-1.854 0.723,-2.938 0.009,-1.203 -0.396,-2.447 -1.078,-3.431 -0.681,-0.995 -1.578,-1.759 -2.596,-2.383 l -0.007,-0.004 c -3.078,-1.871 -6.384,-3.497 -9.808,-4.672 -3.424,-1.172 -6.973,-1.898 -10.531,-1.899 -2.732,-10e-4 -5.475,0.434 -8.095,1.447 l 0.005,-0.002 1.21,3.145 1.214,3.143 c 1.752,-0.676 3.642,-0.994 5.666,-0.994 2.628,-0.002 5.472,0.549 8.346,1.535 2.873,0.984 5.768,2.398 8.492,4.055 l -0.007,-0.004 c 0.205,0.125 0.345,0.233 0.429,0.309 l 0.106,0.11 0.005,0.006 0.539,-0.361 h -0.63 c -0.009,0.15 0.078,0.359 0.091,0.361 l 0.539,-0.361 h -0.63 0.52 l -0.506,-0.13 -0.014,0.13 h 0.52 l -0.506,-0.13 h -10e-4 c -0.004,0.058 -0.304,0.568 -1.008,1.134 -1.039,0.865 -2.853,1.842 -4.993,2.529 -2.141,0.697 -4.612,1.13 -7.014,1.128 -1.942,10e-4 -3.835,-0.28 -5.505,-0.871 l -0.004,-0.002 c -2.769,-0.972 -4.404,-2.147 -5.281,-3.142 -0.442,-0.5 -0.705,-0.955 -0.867,-1.363 -0.16,-0.409 -0.221,-0.775 -0.222,-1.127 -0.001,-0.609 0.197,-1.201 0.556,-1.712 0.355,-0.511 0.866,-0.905 1.374,-1.098 l 0.005,-0.002 -1.214,-3.143" />
    <path
       style="fill:#f5c2a6"
       id="path7001"
       d="m 111.479,334.127 c -5.016,1.914 -7.328,10.586 4.555,14.766 11.836,4.164 23.398,-6.188 15.39,-11.079 -8.054,-4.875 -12.047,-6.734 -19.945,-3.687" />
    <path
       style="fill:#f5c2a6"
       id="path7003"
       d="m 111.479,334.127 -1.201,-3.148 c -1.833,0.702 -3.37,1.937 -4.476,3.505 -1.103,1.567 -1.78,3.502 -1.781,5.583 -0.001,1.189 0.225,2.417 0.693,3.601 0.701,1.782 1.939,3.444 3.644,4.856 1.709,1.416 3.878,2.604 6.557,3.547 2.282,0.803 4.568,1.157 6.745,1.156 4.108,-0.008 7.814,-1.227 10.663,-3.148 1.424,-0.968 2.645,-2.119 3.569,-3.484 0.916,-1.356 1.553,-2.977 1.556,-4.767 0.007,-1.351 -0.397,-2.755 -1.161,-3.943 -0.762,-1.195 -1.835,-2.171 -3.107,-2.947 l -0.011,-0.006 c -2.725,-1.647 -5.069,-3.015 -7.437,-4.025 -2.357,-1.008 -4.796,-1.637 -7.392,-1.632 -2.577,-10e-4 -5.203,0.598 -8.075,1.708 l 0.013,-0.004 1.201,3.148 1.214,3.143 c 2.367,-0.912 4.121,-1.255 5.647,-1.256 1.537,0.006 2.949,0.332 4.755,1.095 1.795,0.759 3.926,1.976 6.585,3.588 l -0.012,-0.007 c 0.577,0.353 0.831,0.651 0.934,0.815 0.101,0.171 0.1,0.209 0.107,0.323 0.003,0.139 -0.058,0.487 -0.403,0.997 -0.499,0.76 -1.618,1.747 -3.153,2.463 -1.53,0.725 -3.446,1.202 -5.493,1.2 -1.451,0 -2.97,-0.234 -4.508,-0.774 -2.778,-0.975 -4.418,-2.153 -5.298,-3.152 -0.444,-0.501 -0.709,-0.958 -0.871,-1.366 -0.16,-0.411 -0.222,-0.777 -0.223,-1.129 0,-0.608 0.198,-1.197 0.554,-1.705 0.354,-0.507 0.861,-0.897 1.366,-1.087 l 0.013,-0.005 -1.214,-3.143" />
    <path
       style="fill:#ec988f"
       id="path7005"
       d="m 102.799,300.256 c 0.078,0.094 2.232,2.8 5.716,5.571 1.745,1.385 3.825,2.789 6.186,3.871 2.357,1.079 5.013,1.843 7.861,1.844 2.927,0.009 6.036,-0.845 8.945,-2.845 1.152,-0.787 1.447,-2.36 0.66,-3.512 -0.788,-1.152 -2.36,-1.448 -3.513,-0.66 -2.121,1.44 -4.103,1.954 -6.092,1.963 -1.928,0.002 -3.884,-0.526 -5.757,-1.385 -2.807,-1.281 -5.377,-3.301 -7.198,-5.001 -0.912,-0.85 -1.641,-1.616 -2.133,-2.161 -0.246,-0.273 -0.434,-0.49 -0.556,-0.635 l -0.134,-0.16 -0.029,-0.036 -0.005,-0.006 -0.733,0.589 0.735,-0.586 -0.002,-0.003 -0.733,0.589 0.735,-0.586 c -0.87,-1.092 -2.46,-1.272 -3.551,-0.402 -1.092,0.87 -1.271,2.46 -0.402,3.552" />
    <path
       style="fill:#ec988f"
       id="path7007"
       d="m 111.227,340.118 c 0.043,0.002 0.955,0.058 2.416,0.059 1.625,-0.001 3.926,-0.069 6.48,-0.366 2.555,-0.3 5.36,-0.821 8.023,-1.774 l 0.011,-0.005 c 2.685,-0.981 4.75,-2.241 6.214,-3.855 0.729,-0.805 1.297,-1.701 1.672,-2.652 0.377,-0.95 0.558,-1.949 0.557,-2.928 -0.002,-1.711 -0.529,-3.329 -1.348,-4.786 -0.683,-1.217 -2.224,-1.649 -3.441,-0.965 -1.217,0.683 -1.649,2.224 -0.965,3.441 0.493,0.876 0.701,1.662 0.699,2.31 -10e-4,0.376 -0.063,0.716 -0.201,1.069 -0.209,0.523 -0.602,1.103 -1.377,1.739 -0.772,0.631 -1.928,1.292 -3.541,1.879 l 0.011,-0.004 c -2.138,0.77 -4.605,1.245 -6.899,1.51 -2.294,0.268 -4.416,0.333 -5.895,0.332 -0.666,0 -1.201,-0.012 -1.565,-0.025 -0.182,-0.006 -0.321,-0.013 -0.412,-0.017 l -0.099,-0.005 -0.024,-0.002 c -1.393,-0.087 -2.593,0.972 -2.68,2.365 -0.087,1.393 0.971,2.592 2.364,2.68" />
    <path
       style="fill:#ec988f"
       id="path7009"
       d="m 123.012,352.452 c 0.114,-0.012 3.1,-0.219 6.523,-1.282 1.714,-0.537 3.547,-1.285 5.212,-2.426 0.831,-0.572 1.622,-1.248 2.308,-2.063 0.686,-0.813 1.264,-1.773 1.636,-2.863 l 0.001,-0.004 c 0.325,-0.956 0.489,-1.905 0.488,-2.816 0.007,-1.7 -0.586,-3.214 -1.396,-4.345 -1.224,-1.71 -2.82,-2.697 -4.082,-3.338 -1.27,-0.633 -2.249,-0.901 -2.358,-0.932 -1.348,-0.365 -2.736,0.43 -3.101,1.778 -0.365,1.347 0.43,2.735 1.778,3.1 l 0.257,-0.949 -0.268,0.946 0.011,0.003 0.257,-0.949 -0.268,0.946 c 0.026,0.001 1.312,0.395 2.38,1.129 0.537,0.361 1.005,0.795 1.295,1.223 0.29,0.439 0.434,0.827 0.441,1.388 -0.001,0.316 -0.054,0.701 -0.22,1.191 l 0.002,-0.004 c -0.15,0.438 -0.384,0.84 -0.72,1.241 -0.583,0.699 -1.509,1.37 -2.621,1.92 -1.662,0.831 -3.692,1.378 -5.273,1.682 -0.791,0.154 -1.471,0.251 -1.943,0.309 -0.236,0.029 -0.421,0.048 -0.542,0.06 l -0.132,0.012 -0.028,0.002 c -1.392,0.1 -2.44,1.31 -2.339,2.702 0.1,1.392 1.31,2.44 2.702,2.339" />
    <path
       style="fill:#ec988f"
       id="path7011"
       d="m 107.322,322.575 c 0.065,0.029 2.197,0.999 5.294,1.977 3.104,0.974 7.155,1.977 11.21,1.984 2.225,-0.003 4.474,-0.304 6.568,-1.203 2.087,-0.887 4.003,-2.457 5.224,-4.713 0.67,-1.225 0.22,-2.76 -1.005,-3.429 -1.225,-0.67 -2.76,-0.22 -3.43,1.005 -0.68,1.221 -1.561,1.952 -2.791,2.496 -1.224,0.533 -2.811,0.793 -4.566,0.79 -3.2,0.007 -6.877,-0.857 -9.688,-1.75 -1.408,-0.444 -2.605,-0.89 -3.442,-1.222 -0.418,-0.166 -0.746,-0.303 -0.965,-0.397 -0.11,-0.047 -0.192,-0.083 -0.245,-0.107 l -0.058,-0.026 -0.011,-0.005 c -1.271,-0.578 -2.769,-0.017 -3.347,1.253 -0.579,1.271 -0.018,2.769 1.253,3.347" />
    <path
       style="fill:#79c091"
       id="path7013"
       d="m 287.323,321.135 c -10.906,0.5 -28.719,14.851 -41.602,31.703 -12.867,16.836 -22.773,46.547 -22.773,46.547 0,0 10.703,39.945 43.39,11.226 32.688,-28.734 42.789,-90.461 20.985,-89.476" />
    <path
       style="fill:#79c091"
       id="path7015"
       d="m 287.323,321.135 -0.155,-3.366 c -3.421,0.168 -6.948,1.334 -10.625,3.138 -5.505,2.72 -11.357,6.951 -17.123,12.118 -5.76,5.168 -11.413,11.276 -16.376,17.766 -3.378,4.423 -6.487,9.577 -9.285,14.841 -4.194,7.894 -7.68,16.035 -10.131,22.223 -2.45,6.188 -3.862,10.42 -3.877,10.464 -0.208,0.623 -0.228,1.303 -0.058,1.938 0.06,0.191 1.559,5.849 5.321,11.75 1.889,2.947 4.359,5.977 7.627,8.345 1.632,1.18 3.469,2.189 5.508,2.899 2.037,0.711 4.275,1.118 6.662,1.116 3.436,0.002 7.154,-0.837 11.098,-2.654 3.949,-1.819 8.142,-4.608 12.653,-8.57 10.937,-9.626 19.295,-22.573 24.988,-35.738 2.843,-6.585 5.016,-13.23 6.485,-19.571 1.467,-6.342 2.234,-12.375 2.236,-17.779 -0.001,-2.983 -0.234,-5.776 -0.736,-8.339 -0.758,-3.835 -2.094,-7.204 -4.375,-9.797 -1.139,-1.287 -2.529,-2.358 -4.122,-3.079 -1.591,-0.725 -3.365,-1.09 -5.205,-1.087 -0.224,0 -0.448,0.005 -0.673,0.016 h 0.008 l 0.155,3.366 0.162,3.365 c 0.119,-0.005 0.235,-0.008 0.348,-0.008 1.306,0.008 2.228,0.305 3.071,0.84 0.629,0.408 1.223,0.981 1.784,1.788 0.841,1.204 1.577,2.943 2.076,5.142 0.501,2.196 0.769,4.838 0.768,7.793 0.001,4.762 -0.69,10.336 -2.063,16.259 -2.056,8.888 -5.643,18.568 -10.602,27.646 -4.956,9.082 -11.285,17.559 -18.753,24.121 -4.131,3.63 -7.813,6.034 -11.023,7.51 -3.214,1.478 -5.938,2.036 -8.28,2.037 -1.631,-10e-4 -3.09,-0.27 -4.445,-0.741 -2.365,-0.823 -4.444,-2.296 -6.258,-4.151 -2.72,-2.77 -4.761,-6.38 -6.058,-9.279 -0.651,-1.448 -1.122,-2.716 -1.426,-3.605 -0.151,-0.445 -0.261,-0.795 -0.331,-1.027 -0.034,-0.115 -0.059,-0.201 -0.074,-0.254 l -0.016,-0.055 -0.002,-0.008 -1.382,0.375 1.383,-0.371 -0.001,-0.004 -1.382,0.375 1.383,-0.371 -3.254,0.873 3.196,1.065 0.025,-0.074 c 0.276,-0.819 2.821,-8.283 6.82,-17.512 1.998,-4.613 4.361,-9.667 6.973,-14.542 2.61,-4.873 5.476,-9.568 8.436,-13.438 6.263,-8.198 13.775,-15.824 20.929,-21.366 3.574,-2.772 7.059,-5.021 10.196,-6.567 3.133,-1.553 5.922,-2.368 7.954,-2.45 l 0.008,-10e-4 -0.162,-3.365" />
    <path
       style="fill:#79c091"
       id="path7017"
       d="m 236.362,367.58 c -20.055,-15.344 -56.164,-40.734 -56.164,-40.734 l -30.11,43.054 c 0,0 59.344,52.219 93.383,50.774 35.68,-1.508 12.977,-37.774 -7.109,-53.094" />
    <path
       style="fill:#79c091"
       id="path7019"
       d="m 236.362,367.58 2.047,-2.676 c -10.086,-7.717 -24.138,-17.907 -35.687,-26.184 -11.547,-8.275 -20.581,-14.627 -20.586,-14.631 -0.737,-0.517 -1.634,-0.718 -2.521,-0.562 -0.887,0.156 -1.663,0.65 -2.179,1.388 l -30.109,43.054 c -0.985,1.408 -0.755,3.326 0.535,4.461 0.066,0.056 14.575,12.826 33.482,25.66 9.457,6.417 20.011,12.852 30.481,17.729 5.236,2.438 10.453,4.488 15.529,5.94 5.075,1.451 10.012,2.311 14.709,2.313 0.521,0 1.037,-0.011 1.546,-0.031 l 0.004,-10e-4 c 3.627,-0.154 6.776,-0.644 9.51,-1.475 2.05,-0.624 3.869,-1.442 5.451,-2.465 2.374,-1.527 4.198,-3.546 5.349,-5.851 1.16,-2.303 1.65,-4.836 1.648,-7.394 -0.006,-3.694 -0.981,-7.484 -2.545,-11.288 -2.358,-5.701 -6.083,-11.466 -10.422,-16.779 -4.343,-5.308 -9.298,-10.146 -14.199,-13.887 l 0.004,0.003 -2.047,2.676 -2.044,2.679 c 5.888,4.483 12.166,11.026 16.85,17.807 2.345,3.388 4.294,6.836 5.628,10.071 1.34,3.235 2.043,6.251 2.036,8.718 0,1.526 -0.254,2.833 -0.737,3.953 -0.364,0.843 -0.855,1.592 -1.534,2.296 -1.017,1.049 -2.488,2.012 -4.654,2.77 -2.159,0.756 -4.998,1.283 -8.578,1.433 h 0.004 c -0.42,0.017 -0.843,0.026 -1.27,0.026 -3.863,0.002 -8.22,-0.725 -12.856,-2.053 -8.116,-2.318 -17.059,-6.464 -25.833,-11.397 -13.169,-7.397 -25.975,-16.547 -35.454,-23.835 -4.741,-3.643 -8.653,-6.822 -11.374,-9.085 -1.361,-1.131 -2.424,-2.034 -3.144,-2.651 -0.36,-0.309 -0.635,-0.547 -0.818,-0.706 -0.091,-0.079 -0.16,-0.139 -0.205,-0.179 l -0.065,-0.056 -2.226,2.529 2.762,1.931 30.109,-43.054 -2.761,-1.931 -1.938,2.756 c 0.001,0.001 0.561,0.395 1.586,1.118 3.587,2.531 12.836,9.073 23.375,16.655 10.538,7.581 22.371,16.208 31.093,22.881 l 0.004,0.003 2.044,-2.679" />
    <path
       style="fill:#f5c2a6"
       id="path7021"
       d="m 446.104,475.768 c 0,0 -3.969,10.89 -6.945,17.835 -2.969,6.93 -2.969,20.797 6.945,17.829 9.914,-2.969 6.938,-14.86 6.938,-14.86 0,0 5.203,20.289 15.093,19.313 9.914,-0.992 8.68,-10.399 8.68,-10.399 0,0 14.609,2.977 16.578,-8.914 2,-11.883 3.719,-26 -20.055,-34.922 -23.773,-8.914 -27.234,14.118 -27.234,14.118" />
    <path
       style="fill:#f5c2a6"
       id="path7023"
       d="m 446.104,475.768 -3.166,-1.154 c 0,0 -0.06,0.165 -0.173,0.473 -0.397,1.08 -1.433,3.887 -2.692,7.172 -1.257,3.283 -2.741,7.053 -4.011,10.017 -0.637,1.489 -1.125,3.138 -1.468,4.872 -0.34,1.733 -0.533,3.549 -0.534,5.359 10e-4,1.413 0.117,2.822 0.396,4.194 0.424,2.047 1.191,4.066 2.703,5.744 0.753,0.831 1.705,1.552 2.808,2.036 1.101,0.488 2.331,0.732 3.587,0.73 1.147,-10e-4 2.318,-0.194 3.514,-0.551 l 0.003,-10e-4 c 1.945,-0.58 3.615,-1.482 4.958,-2.608 2.025,-1.69 3.254,-3.83 3.932,-5.87 0.683,-2.048 0.867,-4.023 0.869,-5.687 -0.004,-2.664 -0.479,-4.565 -0.52,-4.74 -0.219,-0.873 -0.767,-1.612 -1.54,-2.074 -0.773,-0.462 -1.684,-0.595 -2.556,-0.374 -0.873,0.221 -1.61,0.772 -2.07,1.546 -0.459,0.774 -0.59,1.685 -0.366,2.557 0.038,0.131 1.306,5.124 3.911,10.344 1.315,2.614 2.951,5.3 5.126,7.512 1.091,1.102 2.33,2.089 3.772,2.825 1.436,0.735 3.098,1.201 4.859,1.198 0.34,0 0.678,-0.017 1.013,-0.049 l 0.012,-0.002 c 2.406,-0.238 4.469,-0.918 6.138,-1.944 1.251,-0.766 2.266,-1.717 3.042,-2.725 1.167,-1.517 1.803,-3.132 2.154,-4.549 0.351,-1.421 0.427,-2.663 0.428,-3.553 0,-0.788 -0.062,-1.301 -0.077,-1.418 l -3.341,0.438 -0.672,3.302 c 0.15,0.029 1.968,0.397 4.538,0.399 1.285,-0.001 2.76,-0.093 4.321,-0.39 2.331,-0.447 4.909,-1.357 7.149,-3.246 1.114,-0.941 2.123,-2.127 2.91,-3.546 0.789,-1.417 1.355,-3.055 1.656,-4.882 l -10e-4,0.008 c 0.544,-3.25 1.106,-6.813 1.109,-10.554 0,-2.518 -0.26,-5.125 -0.984,-7.74 -1.076,-3.923 -3.247,-7.834 -6.873,-11.288 -3.624,-3.465 -8.636,-6.497 -15.446,-9.053 -4.159,-1.56 -7.881,-2.266 -11.218,-2.266 -4.307,-0.011 -7.952,1.215 -10.77,3.08 -2.119,1.394 -3.779,3.113 -5.072,4.865 -1.938,2.634 -3.076,5.346 -3.762,7.422 -0.682,2.078 -0.906,3.53 -0.928,3.67 l 3.332,0.501 -3.166,-1.154 3.166,1.154 3.332,0.5 -0.11,-0.017 0.11,0.019 v -0.002 l -0.11,-0.017 0.11,0.019 c 0.018,-0.11 0.186,-1.082 0.623,-2.435 0.648,-2.036 1.924,-4.895 4,-7.063 1.039,-1.091 2.261,-2.022 3.748,-2.697 1.491,-0.671 3.26,-1.103 5.497,-1.106 2.38,-10e-4 5.3,0.505 8.851,1.836 4.126,1.548 7.364,3.232 9.883,4.971 3.781,2.619 5.948,5.308 7.265,8.057 1.309,2.751 1.78,5.653 1.783,8.744 0.002,3.053 -0.478,6.252 -1.016,9.436 l -10e-4,0.009 c -0.257,1.526 -0.734,2.559 -1.308,3.351 -0.434,0.593 -0.937,1.06 -1.523,1.457 -0.874,0.592 -1.953,1.01 -3.112,1.267 -1.154,0.258 -2.373,0.352 -3.445,0.351 -0.954,0 -1.791,-0.072 -2.37,-0.142 -0.289,-0.035 -0.514,-0.069 -0.657,-0.092 l -0.151,-0.027 -0.025,-0.005 -0.217,1.114 0.226,-1.112 -0.009,-0.002 -0.217,1.114 0.226,-1.112 c -1.071,-0.218 -2.17,0.092 -2.969,0.837 -0.8,0.745 -1.186,1.82 -1.044,2.903 l 2.048,-0.268 -2.052,0.241 0.004,0.027 2.048,-0.268 -2.052,0.241 10e-4,0.001 c 0.003,0.029 0.023,0.242 0.023,0.568 10e-4,0.427 -0.037,1.045 -0.174,1.689 -0.102,0.484 -0.259,0.98 -0.479,1.437 -0.337,0.689 -0.78,1.278 -1.5,1.789 -0.724,0.503 -1.783,0.97 -3.541,1.151 l 0.012,-0.001 c -0.131,0.012 -0.253,0.018 -0.366,0.018 -0.601,-0.003 -1.16,-0.142 -1.802,-0.465 -1.114,-0.552 -2.416,-1.776 -3.597,-3.425 -1.786,-2.46 -3.283,-5.756 -4.266,-8.39 -0.495,-1.318 -0.87,-2.472 -1.118,-3.287 -0.123,-0.407 -0.216,-0.729 -0.275,-0.944 -0.03,-0.108 -0.052,-0.188 -0.066,-0.24 l -0.014,-0.054 -0.003,-0.011 -0.725,0.188 0.725,-0.186 v -0.002 l -0.725,0.188 0.725,-0.186 c -0.462,-1.803 -2.287,-2.886 -4.091,-2.429 -1.804,0.457 -2.893,2.279 -2.441,4.084 l 1.369,-0.342 -1.373,0.329 0.004,0.013 1.369,-0.342 -1.373,0.329 c 0.008,0.02 0.325,1.399 0.322,3.117 0.007,1.531 -0.262,3.283 -0.971,4.615 -0.355,0.673 -0.801,1.257 -1.415,1.773 -0.617,0.513 -1.416,0.974 -2.568,1.322 l 0.003,-0.001 c -0.678,0.202 -1.203,0.269 -1.586,0.269 -0.564,-0.008 -0.813,-0.114 -1.05,-0.254 -0.175,-0.111 -0.355,-0.272 -0.555,-0.551 -0.298,-0.411 -0.611,-1.101 -0.822,-2.003 -0.214,-0.899 -0.329,-1.995 -0.328,-3.157 0,-1.324 0.146,-2.735 0.408,-4.057 0.259,-1.321 0.635,-2.558 1.049,-3.52 1.523,-3.556 3.268,-8.038 4.641,-11.652 1.373,-3.612 2.369,-6.347 2.373,-6.357 0.083,-0.229 0.13,-0.412 0.166,-0.653 l -3.332,-0.5" />
    <path
       style="fill:#79c091"
       id="path7025"
       d="m 301.206,486.564 c 0,0 -29.969,-65.89 -32.688,-121.843 -1.898,-38.625 35.687,-50.664 58.461,-49.68 29.719,1.289 50.914,29.602 54.75,58.695 5.688,43.344 16.57,118.617 16.57,118.617 0,0 -34.664,8.922 -78.242,7.93 -43.594,-1 -18.851,-13.719 -18.851,-13.719" />
    <path
       style="fill:#79c091"
       id="path7027"
       d="m 301.206,486.564 3.067,-1.395 c 0,0 -0.025,-0.055 -0.08,-0.176 -0.847,-1.884 -8.298,-18.653 -15.845,-41.639 -7.553,-22.979 -15.181,-52.204 -16.464,-78.797 -0.044,-0.892 -0.066,-1.766 -0.066,-2.622 0.006,-8.223 1.951,-14.899 5.146,-20.429 2.401,-4.145 5.527,-7.653 9.151,-10.605 5.432,-4.426 11.999,-7.584 18.726,-9.614 6.724,-2.032 13.6,-2.934 19.546,-2.932 0.835,0 1.651,0.017 2.444,0.052 6.913,0.302 13.305,2.163 19.127,5.237 8.725,4.607 16.158,11.984 21.746,20.869 5.589,8.879 9.313,19.245 10.684,29.664 5.693,43.383 16.575,118.651 16.576,118.658 l 3.335,-0.482 -0.84,-3.263 -0.074,0.019 c -1.69,0.43 -31.883,7.886 -70.52,7.881 -2.217,0 -4.462,-0.024 -6.732,-0.076 -5.023,-0.115 -9.092,-0.388 -12.333,-0.771 -2.43,-0.287 -4.394,-0.636 -5.932,-1.013 -2.31,-0.556 -3.647,-1.221 -4.129,-1.601 -0.123,-0.093 -0.195,-0.162 -0.229,-0.2 l -0.025,-0.029 -0.002,-0.003 -0.375,0.27 0.432,-0.143 -0.057,-0.127 -0.375,0.27 0.432,-0.143 -0.766,0.252 0.808,0.001 -0.042,-0.253 -0.766,0.252 0.808,0.001 h -0.464 l 0.454,0.105 0.01,-0.105 h -0.464 l 0.454,0.105 0.003,-0.009 c 0.01,-0.075 0.265,-0.54 0.758,-1.044 0.725,-0.771 1.879,-1.628 2.815,-2.226 0.47,-0.302 0.886,-0.547 1.177,-0.711 0.145,-0.082 0.259,-0.144 0.332,-0.184 l 0.078,-0.041 0.014,-0.008 -0.419,-0.807 0.416,0.809 0.003,-0.002 -0.419,-0.807 0.416,0.809 c 1.6,-0.822 2.272,-2.754 1.527,-4.392 l -3.067,1.395 -1.541,-2.997 c -0.103,0.057 -1.978,1.012 -4.004,2.558 -1.016,0.782 -2.077,1.704 -3.002,2.87 -0.461,0.586 -0.891,1.24 -1.231,2.01 -0.337,0.766 -0.585,1.669 -0.586,2.672 -0.004,0.878 0.207,1.816 0.623,2.648 0.361,0.73 0.861,1.375 1.437,1.924 1.015,0.964 2.246,1.671 3.727,2.279 2.226,0.904 5.067,1.586 8.862,2.113 3.793,0.523 8.534,0.874 14.489,1.011 2.322,0.052 4.618,0.077 6.885,0.077 40.768,-0.005 72.1,-8.072 72.274,-8.113 1.664,-0.428 2.741,-2.044 2.495,-3.745 0,-0.003 -0.17,-1.175 -0.478,-3.317 -2.16,-14.994 -11.115,-77.368 -16.086,-115.256 -2.013,-15.202 -8.502,-30.116 -18.472,-41.552 -4.987,-5.714 -10.857,-10.554 -17.492,-14.061 -6.631,-3.506 -14.033,-5.668 -21.981,-6.011 -0.894,-0.039 -1.808,-0.058 -2.738,-0.058 -5.881,0.001 -12.435,0.779 -19.024,2.521 -9.871,2.616 -19.86,7.397 -27.51,15.187 -3.818,3.892 -7.031,8.543 -9.271,13.984 -2.243,5.439 -3.505,11.654 -3.503,18.627 0,0.969 0.024,1.952 0.074,2.951 1.393,28.499 9.65,59.168 17.532,82.806 7.887,23.628 15.42,40.193 15.453,40.267 l 3.068,-1.395 -1.541,-2.997 1.541,2.997" />
    <path
       style="fill:#e4b29e"
       id="path7029"
       d="m 345.924,315.533 c 0,0 18.711,13.367 -1.351,24.516 -20.055,11.14 -57.203,-2.235 -34.313,-24.516 h 35.664" />
    <path
       style="fill:#52422b"
       id="path7031"
       d="m 300.026,60.33 c -48.477,-11.875 -98.188,17.766 -122.102,69.766 -23.867,51.992 -4.898,98.664 9.664,126.82 14.555,28.148 268.524,28.687 280.18,-66.133 C 478.815,100.994 407.846,54.471 356.995,51.26 c -37.032,-2.328 -56.969,9.07 -56.969,9.07" />
    <path
       style="fill:#52422b"
       id="path7033"
       d="m 300.026,60.33 0.802,-3.273 c -7.442,-1.823 -14.919,-2.703 -22.331,-2.703 -21.326,-10e-4 -42.066,7.286 -60.028,20.207 -17.968,12.924 -33.19,31.48 -43.606,54.127 l -0.001,0.002 c -8.415,18.323 -11.658,36.083 -11.654,52.6 0.009,31.546 11.739,58.504 21.387,77.174 0.982,1.882 2.486,3.404 4.311,4.748 3.208,2.338 7.512,4.212 12.839,5.872 7.982,2.471 18.27,4.379 30.229,5.693 11.956,1.311 25.569,2.016 40.107,2.017 40.238,-0.009 87.535,-5.384 126.066,-18.571 19.266,-6.605 36.361,-15.159 49.29,-26.164 6.46,-5.504 11.876,-11.632 15.935,-18.443 4.058,-6.807 6.744,-14.302 7.74,-22.422 0.795,-6.456 1.175,-12.704 1.175,-18.74 0.002,-19.917 -4.146,-37.535 -11.15,-52.747 C 450.632,96.88 433.749,79.503 414.99,67.562 396.219,55.62 375.57,49.064 357.207,47.897 c -3.503,-0.221 -6.858,-0.321 -10.064,-0.321 -31.4,-10e-4 -48.405,9.606 -48.79,9.829 l 1.673,2.925 0.802,-3.273 -0.802,3.273 1.672,2.925 -0.595,-1.041 0.589,1.045 0.006,-0.004 -0.595,-1.041 0.589,1.045 c 0.121,-0.065 15.913,-8.942 45.451,-8.944 3.065,0 6.279,0.096 9.64,0.307 11.389,0.717 23.944,3.709 36.319,8.992 18.569,7.922 36.711,20.985 50.161,39.1 13.449,18.125 22.275,41.27 22.285,69.74 0,5.753 -0.362,11.725 -1.124,17.918 -0.884,7.168 -3.226,13.722 -6.842,19.795 -6.318,10.617 -16.618,19.765 -29.748,27.449 -19.68,11.533 -45.628,19.7 -73.143,24.915 -27.516,5.223 -56.602,7.525 -82.61,7.524 -21.815,0.002 -41.485,-1.624 -56.162,-4.446 -7.333,-1.406 -13.421,-3.121 -17.81,-4.997 -2.193,-0.933 -3.956,-1.907 -5.217,-2.834 -1.269,-0.925 -2,-1.794 -2.311,-2.41 -9.465,-18.286 -20.643,-44.232 -20.634,-74.078 0.003,-15.641 3.046,-32.367 11.04,-49.789 l -0.001,0.002 c 9.956,-21.653 24.468,-39.283 41.417,-51.471 16.955,-12.19 36.316,-18.939 56.094,-18.939 6.878,0 13.812,0.816 20.727,2.51 0.836,0.204 1.727,0.079 2.474,-0.348 l -1.672,-2.925" />
    <path
       style="fill:#f5c2a6"
       id="path7035"
       d="m 214.823,220.064 c -7.594,-8.211 -17.696,-12.562 -27.055,-11.656 -7.101,0.672 -13.414,4.328 -18.219,10.563 -3.39,4.343 -7.687,11.078 -9.007,18.437 -1.579,8.797 0.992,17.68 7.312,24.977 8.352,9.679 22.078,15.39 34.148,14.234 12.954,-1.258 21.571,-9.984 23.68,-24.055 1.328,-11.781 -2.64,-23.632 -10.859,-32.5" />
    <path
       style="fill:#f5c2a6"
       id="path7037"
       d="m 426.51,199.58 c 5.875,-9.5 14.969,-15.719 24.305,-16.617 7.109,-0.695 14,1.68 19.922,6.867 4.156,3.617 9.68,9.406 12.375,16.367 3.25,8.336 2.39,17.555 -2.391,25.922 -6.336,11.102 -18.711,19.344 -30.789,20.516 -12.953,1.258 -23.101,-5.664 -27.859,-19.071 -3.547,-11.312 -1.922,-23.695 4.437,-33.984" />
    <path
       style="fill:#f5c2a6"
       id="path7039"
       d="m 282.104,106.057 c 30.18,-9.743 104.398,-7.954 140.852,29.312 36.476,37.25 47.828,127.391 -26.821,171.102 -74.633,43.711 -170.687,15.492 -194.062,-28.969 -23.383,-44.453 -24.516,-137.727 80.031,-171.445" />
    <path
       style="fill:url(#radialGradient7124);fill-opacity:1"
       id="path7041"
       d="m 370.667,248.221 c 19.343,34.461 68.703,7.742 53.031,-20.938 -2.625,-4.781 -6.735,-9.406 -10.633,-11.89 -19.039,-12.094 -39.422,1.312 -42.992,17.875 -1,4.57 -0.953,10.578 0.594,14.953" />
    <path
       style="fill:url(#radialGradient7126);fill-opacity:1"
       id="path7043"
       d="m 212.659,263.518 c 19.312,34.453 68.679,7.734 53.008,-20.938 -2.625,-4.805 -6.735,-9.422 -10.61,-11.906 -19.062,-12.086 -39.422,1.32 -43.023,17.898 -1,4.555 -0.93,10.563 0.625,14.946" />
    <path
       style="fill:#2d2118"
       id="path7045"
       d="m 365.917,231.596 c -11.149,0.445 -12.985,-15.805 -4.25,-20.438 8.679,-4.633 15.015,2.985 15.32,7.367 0.305,4.391 -1.188,12.68 -11.07,13.071" />
    <path
       style="fill:#2d2118"
       id="path7047"
       d="m 268.659,241.002 c -11.141,0.453 -12.977,-15.813 -4.274,-20.445 8.735,-4.625 15.047,2.984 15.344,7.375 0.305,4.382 -1.18,12.679 -11.07,13.07" />
    <path
       style="fill:#2d2118"
       id="path7049"
       d="m 311.361,244.916 c 0.686,-2.886 1.935,-9.264 5.919,-9.302 3.144,-0.03 5.877,3.995 7.262,6.317 2.501,4.193 9.057,0.382 6.546,-3.827 -3.042,-5.098 -7.618,-9.617 -13.808,-10.072 -7.973,-0.585 -11.748,8.637 -13.23,14.868 -1.13,4.754 6.18,6.771 7.311,2.016" />
    <path
       style="fill:#52422b"
       id="path7051"
       d="m 315.323,113.682 c 0,0 90.359,20.406 124.906,81.554 0,0 20.898,-21.133 -3.344,-67.625 -12.836,-24.593 -63.078,-37.773 -94.82,-33.703 -16.367,2.094 -26.742,19.774 -26.742,19.774" />
    <path
       style="fill:#52422b"
       id="path7053"
       d="m 315.323,113.682 -0.743,3.286 0.051,0.012 c 1.216,0.277 23.722,5.568 49.995,18.189 13.137,6.307 27.211,14.445 40.037,24.658 12.83,10.213 24.4,22.491 32.632,37.067 0.521,0.921 1.439,1.542 2.488,1.682 1.049,0.14 2.098,-0.218 2.842,-0.971 0.208,-0.211 2.539,-2.62 4.828,-7.396 2.29,-4.77 4.52,-11.915 4.517,-21.44 0.002,-11.054 -2.992,-25.261 -12.097,-42.716 -3.148,-6.019 -8.164,-11.212 -14.308,-15.675 -9.227,-6.687 -21.053,-11.777 -33.573,-15.256 -12.522,-3.471 -25.735,-5.311 -37.752,-5.314 -4.388,0 -8.618,0.247 -12.604,0.758 -4.643,0.594 -8.797,2.284 -12.38,4.421 -5.378,3.212 -9.522,7.421 -12.374,10.831 -2.848,3.413 -4.396,6.042 -4.465,6.158 -0.542,0.923 -0.611,2.064 -0.186,3.046 0.425,0.981 1.306,1.711 2.349,1.946 l 0.743,-3.286 2.906,1.705 -0.357,-0.21 0.356,0.212 10e-4,-0.002 -0.357,-0.21 0.356,0.212 c 0.063,-0.113 2.597,-4.333 6.926,-8.642 2.161,-2.156 4.766,-4.331 7.692,-6.054 2.929,-1.726 6.162,-2.997 9.646,-3.443 3.661,-0.469 7.613,-0.703 11.748,-0.703 15.105,-0.007 32.629,3.136 47.552,8.881 7.463,2.867 14.275,6.381 19.815,10.404 5.547,4.022 9.793,8.541 12.291,13.338 8.692,16.677 11.33,29.769 11.333,39.599 -0.003,8.476 -1.959,14.565 -3.855,18.528 -0.949,1.98 -1.886,3.424 -2.56,4.348 -0.338,0.462 -0.61,0.794 -0.784,0.997 -0.087,0.102 -0.15,0.171 -0.185,0.209 l -0.029,0.032 0.952,0.911 -0.937,-0.927 -0.015,0.016 0.952,0.911 -0.937,-0.927 2.396,2.369 2.934,-1.657 c -8.911,-15.768 -21.353,-28.813 -34.939,-39.528 -20.385,-16.071 -43.367,-26.937 -61.279,-33.833 -17.913,-6.891 -30.764,-9.796 -30.88,-9.823 l -0.742,3.287 2.906,1.705 -2.906,-1.705" />
    <path
       style="fill:#52422b"
       id="path7055"
       d="m 349.315,94.635 c 0,0 -0.094,73.101 -50.266,87.976 l -4.297,-29.672 c 0,0 -7.687,31.555 -38.515,38.829 l 3.039,-35.391 c 0,0 -31.43,48 -67.484,58.109 0,0 -9.102,-34.937 14.578,-71.64 23.679,-36.672 109.507,-67.914 142.945,-48.211" />
    <path
       style="fill:#52422b"
       id="path7057"
       d="m 349.315,94.635 -3.37,-0.005 v 0.035 c 0.002,0.909 -0.231,18.968 -6.456,38.293 -3.104,9.664 -7.699,19.621 -14.38,27.941 -6.694,8.325 -15.394,15.027 -27.018,18.482 l 0.958,3.23 3.335,-0.483 -4.297,-29.672 c -0.232,-1.6 -1.559,-2.806 -3.174,-2.882 -1.616,-0.077 -3.052,0.996 -3.434,2.568 -0.055,0.241 -2.011,7.824 -7.499,16.025 -2.742,4.103 -6.354,8.36 -11.026,11.991 -4.676,3.633 -10.399,6.654 -17.491,8.33 l 0.774,3.28 3.357,0.288 3.039,-35.391 c 0.132,-1.541 -0.795,-2.968 -2.257,-3.473 -1.461,-0.505 -3.072,0.045 -3.919,1.339 l -0.017,0.025 c -0.41,0.626 -8.318,12.526 -20.424,25.399 -6.05,6.437 -13.148,13.114 -20.837,18.745 -7.688,5.636 -15.962,10.209 -24.297,12.542 l 0.91,3.244 3.26,-0.849 -0.069,0.018 0.069,-0.018 -0.069,0.018 0.069,-0.018 c -0.049,-0.189 -1.612,-6.435 -1.61,-16.226 -0.001,-6.575 0.702,-14.745 3.022,-23.773 2.32,-9.029 6.253,-18.916 12.737,-28.966 4.346,-6.742 11.126,-13.512 19.487,-19.78 12.537,-9.413 28.603,-17.707 45.148,-23.599 16.541,-5.9 33.582,-9.392 47.968,-9.385 5.214,-0.001 10.074,0.456 14.422,1.393 4.35,0.936 8.181,2.352 11.378,4.237 l 1.711,-2.903 -3.37,-0.005 3.37,0.005 1.711,-2.903 c -3.953,-2.328 -8.467,-3.96 -13.381,-5.019 -4.915,-1.058 -10.236,-1.544 -15.841,-1.544 -10.305,0.002 -21.577,1.641 -33.029,4.534 -17.173,4.343 -34.743,11.508 -49.894,20.382 -7.575,4.439 -14.544,9.307 -20.555,14.491 -6.01,5.186 -11.068,10.685 -14.787,16.442 -6.906,10.702 -11.121,21.284 -13.602,30.943 -2.482,9.66 -3.234,18.397 -3.235,25.45 0.002,10.845 1.775,17.714 1.829,17.925 0.227,0.871 0.802,1.624 1.582,2.072 0.781,0.448 1.721,0.566 2.588,0.323 9.56,-2.686 18.604,-7.795 26.847,-13.879 12.359,-9.134 22.937,-20.502 30.478,-29.606 7.535,-9.104 12.019,-15.947 12.069,-16.023 l -2.819,-1.846 -3.357,-0.288 -3.039,35.39 c -0.093,1.077 0.336,2.132 1.154,2.839 0.819,0.706 1.924,0.977 2.976,0.729 8.21,-1.934 14.939,-5.515 20.335,-9.767 8.101,-6.386 13.228,-14.227 16.361,-20.461 3.13,-6.241 4.275,-10.904 4.32,-11.082 l -3.274,-0.798 -3.334,0.483 4.296,29.672 c 0.14,0.965 0.697,1.83 1.519,2.355 0.821,0.526 1.839,0.67 2.774,0.393 13.279,-3.928 23.312,-11.784 30.707,-21.164 5.557,-7.039 9.675,-14.934 12.754,-22.8 4.615,-11.8 6.9,-23.549 8.054,-32.382 1.151,-8.832 1.162,-14.748 1.162,-14.857 0.002,-1.193 -0.631,-2.302 -1.658,-2.907 l -1.711,2.903" />
    <path
       style="fill:#c04841"
       id="path7059"
       d="m 294.64,276.701 c 19.55,19.996 53.749,12.851 68.227,-9.371 3.149,-4.833 -4.573,-9.296 -7.698,-4.5 -11.406,17.507 -38.822,23.321 -54.226,7.566 -4.024,-4.115 -10.323,2.193 -6.303,6.305" />
    <path
       style="fill:#c04841"
       id="path7061"
       d="m 341.19,279.127 c -2.188,-4.867 -1.719,-27.477 11.883,-28.117 11.351,-0.532 10.82,14.07 10.82,14.07 l -22.703,14.047" />
    <path
       style="fill:#ec988f"
       id="path7063"
       d="m 145.095,336.784 c -2.232,-1.868 -4.069,-4.431 -5.541,-7.447 -2.211,-4.518 -3.57,-10.023 -4.34,-15.355 -0.776,-5.333 -0.977,-10.491 -0.977,-14.348 0,-2.011 0.055,-3.67 0.108,-4.818 0.027,-0.575 0.054,-1.022 0.074,-1.322 0.01,-0.15 0.018,-0.263 0.024,-0.337 l 0.006,-0.082 0.002,-0.021 c 0.062,-0.755 -0.212,-1.489 -0.755,-2.018 l -7.055,-6.875 c -1,-0.974 -2.6,-0.954 -3.574,0.046 -0.974,1 -0.953,2.6 0.047,3.574 l 7.054,6.874 1.764,-1.809 -2.518,-0.209 c -0.005,0.053 -0.231,2.793 -0.231,6.997 0.002,5.378 0.363,13.14 2.075,20.799 0.858,3.83 2.055,7.639 3.754,11.122 1.701,3.479 3.912,6.649 6.836,9.102 1.069,0.897 2.663,0.757 3.56,-0.313 0.896,-1.069 0.756,-2.663 -0.313,-3.56" />
    <path
       style="fill:#a6cae1"
       id="path7065"
       d="m 538.276,495.783 c 0,31.82 -65.735,57.602 -146.781,57.602 -81.047,0 -146.75,-25.782 -146.75,-57.602 0,-31.812 65.703,-57.601 146.75,-57.601 81.046,0 146.781,25.789 146.781,57.601" />
    <path
       style="fill:#a6cae1"
       id="path7067"
       d="m 538.276,495.783 h -3.37 c -0.003,3.393 -0.864,6.715 -2.601,10.053 -3.027,5.831 -8.845,11.66 -17.111,16.988 -12.384,8.007 -30.151,14.86 -51.388,19.644 -21.239,4.793 -45.953,7.548 -72.311,7.547 -40.161,0.008 -76.515,-6.413 -102.537,-16.635 -13.009,-5.099 -23.416,-11.16 -30.389,-17.642 -3.49,-3.239 -6.119,-6.569 -7.855,-9.901 -1.736,-3.339 -2.597,-6.661 -2.6,-10.054 0.003,-3.392 0.864,-6.713 2.6,-10.051 3.026,-5.83 8.842,-11.659 17.105,-16.987 12.379,-8.007 30.14,-14.86 51.372,-19.645 21.235,-4.794 45.945,-7.55 72.304,-7.549 40.16,-0.008 76.522,6.414 102.552,16.638 13.013,5.1 23.423,11.161 30.4,17.643 3.492,3.238 6.122,6.569 7.858,9.901 1.737,3.337 2.598,6.658 2.601,10.05 h 6.739 c 0.003,-4.561 -1.19,-9.005 -3.364,-13.167 -3.818,-7.293 -10.532,-13.776 -19.432,-19.532 -13.363,-8.62 -31.766,-15.633 -53.56,-20.558 -21.79,-4.916 -46.966,-7.713 -73.794,-7.714 -40.887,0.008 -77.907,6.48 -104.999,17.104 -13.548,5.324 -24.632,11.676 -32.511,18.976 -3.936,3.653 -7.073,7.557 -9.247,11.725 -2.173,4.161 -3.366,8.605 -3.363,13.166 -0.003,4.562 1.19,9.006 3.363,13.169 3.816,7.294 10.528,13.777 19.424,19.533 13.359,8.62 31.757,15.633 53.545,20.557 21.786,4.915 46.959,7.711 73.788,7.712 40.886,-0.008 77.914,-6.478 105.014,-17.101 13.551,-5.324 24.639,-11.675 32.521,-18.975 3.937,-3.654 7.075,-7.558 9.251,-11.726 2.174,-4.162 3.367,-8.607 3.364,-13.169 h -3.369" />
    <path
       style="fill:#85aac0"
       id="path7069"
       d="m 492.873,500.494 c -2.818,20.314 -48.878,36.796 -102.862,36.797 -53.984,-0.002 -100.038,-16.482 -102.855,-36.797 -2.821,-20.336 43.232,-36.812 102.854,-36.812 59.622,-0.003 105.683,16.476 102.863,36.812" />
    <path
       style="fill:#efb87e"
       id="path7071"
       d="m 290.472,490.58 c 2.7,20.344 47.266,36.813 99.539,36.813 52.279,0 96.867,-16.47 99.568,-36.813 0.959,-8.583 1.919,-17.167 2.879,-25.75 -68.288,0 -136.576,0 -204.864,0 0.959,8.583 1.919,17.167 2.878,25.75" />
    <path
       style="fill:#e08757"
       id="path7073"
       d="m 492.458,464.83 c -2.699,20.32 -48.577,36.805 -102.448,36.805 -53.862,-10e-4 -99.72,-16.485 -102.416,-36.805 -2.698,-20.335 43.158,-36.806 102.416,-36.805 59.268,0 105.147,16.469 102.448,36.805" />
    <path
       style="fill:#efb87e"
       id="path7075"
       d="m 286.1,451.463 c 2.697,20.321 49.222,36.796 103.91,36.797 54.697,-0.003 101.244,-16.474 103.942,-36.797 0.96,-8.586 1.92,-17.172 2.88,-25.758 -71.204,0 -142.408,0 -213.611,0 0.959,8.586 1.919,17.172 2.879,25.758" />
    <path
       style="fill:#e08757"
       id="path7077"
       d="m 496.832,425.705 c -2.699,20.32 -50.537,36.805 -106.822,36.805 -56.278,-0.002 -104.092,-16.486 -106.789,-36.805 -2.698,-20.33 45.115,-36.811 106.789,-36.812 61.682,0.001 109.52,16.482 106.822,36.812" />
    <path
       style="fill:#efb87e"
       id="path7079"
       d="m 281.727,412.346 c 2.697,20.312 51.18,36.797 108.283,36.797 57.111,0 105.617,-16.485 108.315,-36.797 0.961,-8.591 1.921,-17.183 2.881,-25.774 -74.12,0 -148.24,0 -222.36,0 0.961,8.591 1.921,17.183 2.881,25.774" />
    <path
       style="fill:#e08757"
       id="path7081"
       d="m 501.206,386.572 c -2.699,20.336 -52.495,36.813 -111.196,36.813 -58.693,0 -108.466,-16.477 -111.164,-36.813 -2.696,-20.312 47.075,-36.797 111.164,-36.797 64.097,-10e-4 113.894,16.484 111.196,36.797" />
    <g
       id="g7085"
       clip-path="url(#Clip_2)">
      <path
         style="fill:#ca7e55"
         id="path7083"
         d="m 415.656,459.436 h 15.967 v 25.388 h -15.967 z" />
    </g>
    <path
       style="fill:#c7724c"
       id="path7087"
       d="m 416.627,461.258 c 0.419,-4.536 1.117,-9.212 1.826,-13.507 4.14,-0.412 8.192,-0.912 12.131,-1.492 0.297,4.447 0.552,8.924 0.666,13.177 -4.721,0.731 -9.607,1.342 -14.623,1.822" />
    <path
       style="fill:#ca7e55"
       id="path7089"
       d="m 418.453,447.751 c 1.057,-6.393 2.14,-11.941 2.37,-14.929 0.277,-3.609 0.761,-7.321 1.066,-11.097 3.319,-0.353 6.573,-0.759 9.762,-1.216 -1.295,7.266 -1.763,15.612 -1.172,24.196 0.036,0.517 0.071,1.036 0.105,1.554 -3.939,0.58 -7.991,1.08 -12.131,1.492" />
    <path
       style="fill:#c7724c"
       id="path7091"
       d="m 361.953,450.328 c -1.035,0 -2.216,-0.369 -3.537,-1.162 -0.919,-0.551 -1.668,-1.227 -2.273,-2.011 3.084,0.371 6.224,0.693 9.415,0.964 -0.881,1.415 -2.087,2.209 -3.605,2.209" />
    <path
       style="fill:#ca7e55"
       id="path7093"
       d="m 365.558,448.119 c -3.191,-0.271 -6.331,-0.593 -9.415,-0.964 -4.122,-5.342 -1.572,-15.694 -0.789,-25.74 3.701,0.431 7.484,0.796 11.333,1.09 -0.576,3.41 -0.606,6.704 -0.099,9.575 1.249,7.082 0.862,12.997 -1.03,16.039" />
    <path
       style="fill:#c7724c"
       id="path7095"
       d="m 366.687,422.505 c -3.849,-0.294 -7.632,-0.659 -11.333,-1.09 0.032,-0.409 0.061,-0.818 0.086,-1.226 0.742,-11.882 -2.969,-15.601 -15.602,-19.32 -12.632,-3.711 -26.742,-19.312 -1.484,-31.945 12.229,-6.113 21.847,-7.526 30.565,-7.526 3.749,0 7.332,0.261 10.885,0.523 3.553,0.261 7.075,0.522 10.705,0.522 1.731,0 3.488,-0.059 5.283,-0.207 6.496,-0.534 14.536,-1.163 22.756,-1.163 14.635,0 29.842,1.996 37.931,10.085 12.633,12.625 -5.937,21.539 -14.117,26.742 -4.917,3.131 -8.756,11.637 -10.711,22.609 -3.189,0.457 -6.443,0.863 -9.762,1.216 0.511,-6.335 0.517,-12.852 -1.808,-19.372 -2.255,-6.302 -8.633,-7.961 -15.44,-7.961 -4.422,0 -9.025,0.7 -12.795,1.282 -14.923,2.294 -23.198,15.237 -25.159,26.831 M 334.12,380.569 c -0.837,0 -1.649,0.589 -2.078,1.73 -1.001,2.648 -0.376,7.429 3.343,9.656 3.711,2.234 7.797,4.461 10.766,4.461 1.601,0 2.609,-1.977 -1.852,-3.719 -2.976,-1.148 -7.429,-2.711 -7.429,-7.429 0,-3.185 -1.408,-4.699 -2.75,-4.699 m 116.648,-6.926 c -4.945,0 -2.461,5.937 -5.945,8.414 -2.551,1.829 -1.457,4.737 1.386,4.737 1.006,0 2.231,-0.364 3.59,-1.269 3.891,-2.609 4.961,-11.882 0.969,-11.882" />
    <path
       style="fill:#f9d091"
       id="path7097"
       d="m 375.502,352.744 17.368,-6.641 15.554,8.266 -0.812,16.461 -14.024,7.141 -17.851,-6.407 c 0,0 -3.227,-16.062 -0.235,-18.82" />
    <path
       style="fill:#f9d091"
       id="path7099"
       d="m 375.502,352.744 1.204,3.147 15.936,-6.093 12.311,6.542 -0.61,12.373 -10.987,5.594 -16.481,-5.914 -1.138,3.171 3.303,-0.663 -0.014,-0.07 c -0.074,-0.381 -0.437,-2.271 -0.776,-4.681 -0.341,-2.404 -0.653,-5.348 -0.65,-7.713 -0.003,-1.164 0.081,-2.188 0.214,-2.831 0.063,-0.32 0.139,-0.54 0.172,-0.61 l 0.011,-0.025 -0.884,-0.477 0.672,0.729 c 0.161,-0.15 0.21,-0.249 0.212,-0.252 l -0.884,-0.477 0.672,0.729 -2.283,-2.479 1.204,3.147 -1.204,-3.147 -2.282,-2.479 c -0.689,0.64 -1.102,1.342 -1.399,2.008 -0.438,1.007 -0.641,1.988 -0.779,3.008 -0.133,1.018 -0.18,2.072 -0.181,3.156 0.003,3.106 0.401,6.491 0.789,9.162 0.389,2.664 0.775,4.588 0.783,4.629 0.233,1.159 1.053,2.108 2.166,2.508 l 17.851,6.406 c 0.871,0.313 1.842,0.251 2.667,-0.169 l 14.024,-7.141 c 1.072,-0.546 1.777,-1.634 1.836,-2.836 l 0.813,-16.461 c 0.064,-1.309 -0.627,-2.527 -1.785,-3.141 l -15.554,-8.266 c -0.862,-0.458 -1.874,-0.52 -2.785,-0.172 l -17.367,6.641 c -0.397,0.151 -0.766,0.38 -1.079,0.668 l 2.282,2.479" />
    <g
       id="g7105"
       clip-path="url(#Clip_3)">
      <path
         style="fill:#f1ad6e"
         id="path7101"
         d="m 413.135,353.322 -17.343,8.914 0.515,21.797 17.828,-11.39 -1,-19.321" />
      <path
         style="fill:#f1ad6e"
         id="path7103"
         d="m 413.135,353.322 -1.155,-2.248 -17.344,8.915 c -0.86,0.441 -1.394,1.34 -1.371,2.307 l 0.516,21.797 c 0.021,0.91 0.534,1.742 1.338,2.171 0.804,0.428 1.781,0.389 2.549,-0.101 l 17.828,-11.391 c 0.767,-0.491 1.21,-1.351 1.163,-2.26 l -1,-19.321 c -0.045,-0.86 -0.517,-1.629 -1.263,-2.059 -0.747,-0.43 -1.65,-0.452 -2.416,-0.058 l 1.155,2.248 -2.524,0.131 0.924,17.852 -12.808,8.183 -0.372,-15.729 15.935,-8.189 -1.155,-2.248 -2.524,0.131 2.524,-0.131" />
    </g>
    <path
       style="fill:#dba381"
       id="path7107"
       d="m 446.209,386.794 c -2.843,0 -3.937,-2.908 -1.386,-4.737 3.484,-2.477 1,-8.414 5.945,-8.414 3.992,0 2.922,9.273 -0.969,11.882 -1.359,0.905 -2.584,1.269 -3.59,1.269" />
    <path
       style="fill:#dba381"
       id="path7109"
       d="m 346.151,396.416 c -2.969,0 -7.055,-2.227 -10.766,-4.461 -3.719,-2.227 -4.344,-7.008 -3.343,-9.656 0.429,-1.141 1.241,-1.73 2.078,-1.73 1.342,0 2.75,1.514 2.75,4.699 0,4.718 4.453,6.281 7.429,7.429 4.461,1.742 3.453,3.719 1.852,3.719" />
  </g>
</svg>
