<?xml version="1.0" encoding="UTF-8"?>
<!DOCTYPE svg PUBLIC "-//W3C//DTD SVG 1.1//EN" "http://www.w3.org/Graphics/SVG/1.1/DTD/svg11.dtd">
<svg version="1.1" xmlns="http://www.w3.org/2000/svg" xmlns:xlink="http://www.w3.org/1999/xlink" x="0" y="0" width="1189" height="946" viewBox="0, 0, 1189, 946">
  <defs>
    <clipPath id="Clip_1">
      <path d="M0,946 L1188.71,946 L1188.71,0.121 L0,0.121 z"/>
    </clipPath>
  </defs>
  <g id="Layer_1">
    <g>
      <path d="M513,643.124 L533,643.124 L576,604.124 L512.5,309.874 L678.65,174.48 L639.652,69.486 L519.658,163.981 L473.161,270.475 L464.161,420.468 L524.158,553.961 L524.158,612.458 L513,643.124" fill="#FFFFFF"/>
      <path d="M676.289,695.948 C659.059,717.776 641.764,739.552 624.698,761.506 C622.15,764.783 620.385,765.17 616.667,763.221 C595.914,752.339 575.192,741.41 554.707,730.026 C550.998,727.964 550.014,726.058 550.509,721.622 C554.055,689.829 542.081,664.76 516.365,646.144 C513.149,643.816 512.326,642.862 515.529,639.49 C536.435,617.477 540.61,591.6 532.29,563.08 C526.617,543.637 517.292,525.786 507.797,508.07 C484.751,465.074 472.144,419.295 471.375,370.532 C470.082,288.59 492.817,214.258 543.716,149.401 C566.12,120.854 593.72,98.378 626.602,82.655 C628.237,81.873 629.798,80.827 631.744,80.988 C620.429,89.672 608.795,97.921 598.381,107.769 C579.638,125.494 563.675,145.417 549.835,167.131 C547.662,170.541 547.386,173.632 548.631,177.443 C555.214,197.61 567.358,212.11 588.677,217.416 C597.004,219.488 605.461,219.607 613.952,218.522 C616.04,218.256 618.141,218.089 621.053,217.793 C617.186,223.51 612.176,226.415 607.025,228.921 C591.479,236.482 575.021,237.172 558.264,234.734 C546.871,233.077 535.79,230.078 525.13,225.755 C521.801,224.405 520.735,225.083 519.509,228.332 C508.126,258.482 500.388,289.476 496.586,321.511 C490.917,369.288 495.222,416.042 509.971,461.834 C510.115,462.283 510.494,462.658 510.763,463.067 C512.608,471.979 515.669,480.41 520.658,488.077 C532.528,510.039 544.359,532.039 553.629,555.253 C559.971,571.136 562.671,587.639 558.753,604.642 C555.695,617.914 548.052,628.481 538.45,637.826 C532.406,643.708 532.416,643.857 540.01,648.035 C554.438,655.974 570.141,659.342 586.383,660.664 C615.031,662.996 643.115,659.037 671.016,653.059 C672.983,652.638 674.936,652.3 676.932,652.827 C685.185,656.253 693.438,659.679 702.116,663.282 C693.371,674.342 684.821,685.138 676.289,695.948 z M1137.59,774.098 C1134.49,773.1 1133.08,772.201 1133.46,768.474 C1134.77,755.729 1135.67,742.938 1136.54,730.152 C1136.71,727.639 1137.37,726.753 1139.98,726.796 C1145.64,726.891 1151.3,726.642 1156.96,726.504 C1164.07,726.33 1167.49,722.111 1166.39,715.06 C1162.82,692.212 1159.25,669.362 1155.78,646.498 C1155.3,643.366 1154.09,641.043 1151.64,638.913 C1145.87,633.902 1140.1,628.855 1135.29,622.833 C1120.59,604.442 1121.15,584.235 1128.16,563.282 C1134.78,543.479 1145.33,525.5 1154.55,506.904 C1189.96,435.437 1197.33,360.728 1179.03,283.55 C1161.81,210.956 1125.57,148.835 1071.93,97.068 C1034.62,61.059 991.583,33.937 941.533,19.611 C890.014,4.863 837.286,0.197 783.866,5.956 C744.723,10.176 708.29,22.505 675.416,44.368 C668.34,49.074 661.094,52.4 652.876,54.215 C645.254,55.898 637.903,58.612 630.688,61.615 C578.933,83.157 539.671,119.336 509.981,166.161 C472.721,224.923 454.501,289.522 453.687,358.969 C453.061,412.295 464.624,462.881 489.262,510.36 C497.978,527.157 507.042,543.804 513.486,561.686 C523.045,588.207 520.374,612.038 498.464,631.853 C495.831,634.235 493.412,635.642 489.678,635.021 C483.232,633.949 476.724,634.599 470.255,635.246 C466.67,635.605 462.383,638.387 459.807,636.401 C457.373,634.524 456.953,629.94 455.817,626.491 C447.958,602.63 434.381,583.1 412.927,569.456 C406.733,565.517 400.181,563.039 392.71,563.771 C374.891,565.516 357.63,585.646 357.64,604.703 C357.647,617.277 363.143,627.832 370.148,637.739 C380.233,652.001 392.609,664.036 406.491,674.577 C407.905,675.651 410.163,676.244 408.6,679.111 C399.917,695.039 399.861,712.372 401.06,729.747 C401.931,742.365 405.272,754.397 413.081,764.662 C431.051,788.282 455.461,795.409 483.869,791.613 C486.779,791.224 488.826,791.681 491.181,793.284 C522.139,814.351 553.654,834.473 588.157,849.419 C596.395,852.988 604.873,855.833 613.529,858.273 C629.106,862.666 643.463,861.03 657.536,852.487 C674.965,841.907 691.111,829.759 707.014,815.441 C707.275,817.868 707.515,819.313 707.575,820.766 C709.134,858.359 710.504,895.954 708.936,933.586 C708.621,941.148 713.408,945.999 720.96,945.999 C785.446,946 849.932,946 914.418,946 C922.132,945.999 926.619,941.566 926.533,933.741 C926.397,921.26 926.277,908.774 925.791,896.303 C925.634,892.252 927.026,891.526 930.622,892.015 C936.885,892.866 943.196,893.375 949.487,894.013 C981.115,897.219 1012.74,900.429 1044.37,903.62 C1067.06,905.909 1089.75,908.224 1112.44,910.408 C1118.84,911.023 1121.97,908.351 1122.81,901.796 C1123.09,899.566 1124.05,898.312 1125.9,897.124 C1150.27,881.392 1165.95,859.13 1174.63,831.707 C1178.16,820.558 1176.39,809.944 1170.54,800.042 C1162.94,787.182 1151.73,778.66 1137.59,774.098" fill="#6E4100"/>
    </g>
    <path d="M351.961,498.325 C351.659,507.951 347.369,515.175 338.566,519.351 C306.005,534.799 273.45,550.263 240.789,565.5 C228.315,571.319 214.777,566.118 208.906,553.684 C187.559,508.478 166.236,463.262 144.956,418.025 C137.852,402.924 142.516,390.181 157.65,383.037 C188.893,368.288 220.141,353.551 251.403,338.84 C265.409,332.249 278.548,336.714 285.163,350.659 C306.729,396.126 328.155,441.66 349.602,487.183 C351.243,490.667 352.396,494.321 351.961,498.325" fill="#6E4100"/>
    <path d="M174.652,129.751 C174.776,111.098 186.8,95.226 204.135,90.257 C221.213,85.362 240.562,91.932 249.504,107.232 C263.077,130.455 276.195,153.98 288.496,177.897 C298.527,197.403 290.001,221.225 270.725,231.344 C251.097,241.647 227.07,234.886 216.176,215.573 C203.692,193.441 191.563,171.108 179.357,148.819 C176.025,142.734 174.434,136.148 174.652,129.751" fill="#6E4100"/>
    <g clip-path="url(#Clip_1)">
      <path d="M307.635,304.572 C307.378,295.931 310.113,288.205 314.948,281.175 C328.904,260.883 342.868,240.595 356.898,220.354 C370.056,201.372 394.839,196.555 413.736,209.218 C432.493,221.786 437.503,246.975 424.643,266.057 C410.601,286.894 396.295,307.558 381.879,328.14 C371.389,343.118 352.845,349.263 335.973,343.811 C318.728,338.237 307.619,322.854 307.635,304.572" fill="#6E4100"/>
      <path d="M55.855,214.254 C61.72,214.28 65.371,217.257 66.673,223.121 C69.049,233.825 71.543,244.506 73.688,255.256 C74.305,258.351 75.662,259.709 78.645,260.485 C87.321,262.74 95.876,265.46 104.553,267.711 C109.718,269.052 111.314,272.746 111.61,277.317 C111.931,282.279 109.204,285.951 104.489,287.326 C95.721,289.882 86.961,292.482 78.127,294.792 C75.437,295.495 74.347,296.811 73.802,299.421 C71.524,310.313 69.057,321.166 66.65,332.031 C65.381,337.762 61.487,340.918 55.742,340.9 C50.069,340.881 46.224,337.689 44.948,331.929 C42.578,321.226 40.086,310.546 37.92,299.802 C37.298,296.72 35.923,295.362 32.928,294.605 C24.881,292.57 16.924,290.177 8.928,287.935 C2.488,286.129 0.1,283.402 0.003,277.712 C-0.095,272.034 2.522,268.972 9.07,267.118 C17.219,264.81 25.332,262.355 33.542,260.289 C36.29,259.597 37.305,258.224 37.843,255.655 C40.124,244.766 42.553,233.907 44.96,223.045 C46.254,217.203 49.98,214.229 55.855,214.254" fill="#FFCE00"/>
      <path d="M306.134,662.129 C311.814,662.228 315.431,665.163 316.663,670.725 C319.071,681.594 321.523,692.455 323.812,703.349 C324.391,706.103 325.524,707.529 328.461,708.256 C337.002,710.369 345.436,712.918 353.908,715.309 C358.998,716.746 361.782,720.332 361.775,725.393 C361.767,730.504 359.106,733.949 353.905,735.437 C345.441,737.858 337.003,740.386 328.47,742.537 C325.595,743.262 324.387,744.604 323.804,747.406 C321.573,758.14 319.123,768.829 316.762,779.536 C315.42,785.621 312.032,788.544 306.151,788.669 C300.162,788.797 296.311,785.676 294.964,779.599 C292.59,768.893 290.098,758.21 287.926,747.462 C287.344,744.58 286.136,743.291 283.317,742.557 C274.638,740.298 266.032,737.755 257.417,735.258 C252.576,733.855 249.969,730.316 249.975,725.403 C249.982,720.457 252.52,716.96 257.408,715.538 C266.179,712.985 274.961,710.458 283.791,708.119 C286.242,707.469 287.318,706.274 287.831,703.82 C290.147,692.763 292.622,681.738 295.1,670.716 C296.367,665.081 300.368,662.029 306.134,662.129" fill="#FFCE00"/>
      <path d="M434.266,52.381 C434.195,81.048 411.219,103.637 382.185,103.586 C353.866,103.536 330.799,80.381 330.801,52.005 C330.803,23.459 354.016,0.192 382.564,0.121 C411.397,0.05 434.337,23.238 434.266,52.381" fill="#6E4100"/>
    </g>
    <path d="M631.744,80.988 C635.504,77.046 640.982,76.944 645.564,74.837 C647.002,74.176 647.521,75.691 648.335,76.421 C652.862,80.481 657.047,80.363 662.062,76.236 C679.975,61.494 699.186,48.881 720.74,39.981 C743.057,30.766 766.223,25.213 790.226,22.927 C839.645,18.222 888.343,22.813 935.951,36.299 C979.254,48.564 1017.06,71.342 1050.52,101.304 C1100.97,146.476 1135.9,201.667 1156.22,266.157 C1168.04,303.686 1172.76,342.192 1170.47,381.438 C1167.66,429.428 1153.48,474.078 1130.25,516.074 C1121.14,532.527 1113.14,549.561 1108.55,567.978 C1102.74,591.267 1105.78,612.865 1120.41,632.36 C1120.69,632.723 1120.79,633.217 1121.35,634.568 C1083.46,630.204 1046.16,625.908 1008.1,621.526 C1013.25,616.296 1017.84,611.779 1022.28,607.117 C1048.19,579.888 1065.28,547.65 1075.59,511.749 C1077.15,506.311 1079.58,504.498 1084.96,504.081 C1109.04,502.216 1124.44,487.11 1127.63,462.859 C1129.28,450.328 1128.99,437.958 1124.85,425.88 C1119.62,410.615 1108.27,402.415 1092.16,402.19 C1086.89,402.116 1086.67,401.711 1089.3,396.93 C1092.7,390.774 1088.88,382.973 1082.19,383.575 C1066.87,384.954 1052.32,381.407 1038.11,376.857 C975.445,356.789 916.026,329.742 862.823,290.641 C812.698,253.802 774.126,206.977 747.12,150.794 C744.315,144.959 740.703,142.803 735.828,144.253 C732.121,145.355 729.533,147.951 729.794,151.861 C730.043,155.615 728.168,156.525 725.236,157.586 C696.98,167.809 670.998,182.055 647.759,201.256 C616.309,227.24 593.283,259.452 576.863,296.554 C562.406,329.219 554.198,363.572 549.91,398.928 C549.651,401.064 549.282,402.239 546.765,402.226 C524.414,402.107 513.173,418.283 510.74,438.698 C509.768,446.853 510.183,454.945 510.763,463.067 C508.405,463.004 508.478,460.933 508.004,459.503 C500.853,437.913 496.272,415.791 494.363,393.117 C493.414,381.847 492.185,370.581 492.447,359.26 C493.491,314.07 501.955,270.314 518.195,228.099 C519.974,223.475 521.123,222.908 525.744,224.682 C539.682,230.033 554.079,233.672 568.953,234.405 C586.428,235.267 603.136,232.445 616.977,219.964 C612.3,220.547 607.655,220.47 603.01,220.462 C575.723,220.418 554.008,203.48 547.142,176.995 C546.047,172.773 546.947,169.109 549.202,165.595 C558.479,151.133 568.344,137.062 580.116,124.536 C591.741,112.168 603.607,99.977 617.411,89.91 C621.975,86.582 626.735,83.59 631.744,80.988" fill="#D7AA6F"/>
    <path d="M568.788,457.086 C565.674,432.677 565.584,408.327 569.729,383.99 C576.197,346.006 587.253,309.607 606.949,276.241 C636.601,226.009 679.539,192.089 734.439,172.921 C737.323,171.914 738.413,172.519 739.783,175.034 C780.609,250.015 840.209,305.48 915.806,344.36 C954.426,364.223 993.791,382.263 1035.58,394.518 C1045.81,397.517 1056.21,399.744 1066.81,400.917 C1068.82,401.139 1070.17,401.267 1070.3,403.864 C1071.32,424.013 1071.11,444.097 1067.68,464.048 C1064.9,463.919 1064.56,461.413 1063.57,459.665 C1059.19,451.982 1054.62,444.488 1047.7,438.702 C1029.99,423.881 1002.89,423.195 984.389,437.692 C968.083,450.466 958.416,466.918 957.092,487.735 C955.918,506.192 964.08,520.456 979.041,530.439 C993.501,540.089 1009.72,543.821 1027.1,540.674 C1033.56,539.504 1039.43,536.749 1044.78,532.901 C1047.54,530.919 1047.59,530.999 1049.74,532.068 C1035.95,566.36 1014.31,594.645 984.866,616.984 C983.084,618.336 981.3,618.432 979.257,618.198 C966.202,616.701 953.143,615.24 940.082,613.794 C932.203,612.922 929.02,615.404 927.929,623.259 C926.968,630.176 925.918,637.085 925.184,644.027 C924.863,647.068 923.678,648.422 920.659,649.392 C897.896,656.704 874.516,660.818 850.772,662.724 C808.512,666.116 766.687,663.504 725.657,652.134 C690.955,642.518 659.792,626.363 633.808,601.119 C614.633,582.488 599.649,560.874 589.394,536.09 C591.615,534.424 593.527,536.116 595.471,536.741 C606.154,540.176 616.932,543.038 628.294,541.251 C647.021,538.305 658.911,526.095 668.287,510.902 C680.387,491.292 675.099,472.486 664.592,454.354 C657.158,441.524 646.805,431.781 631.796,428.598 C609.091,423.782 591.1,432.063 576.434,449.249 C574.084,452.003 573.303,456.418 568.788,457.086" fill="#FEF8EA"/>
    <path d="M911.491,941.871 C849.036,941.871 786.751,941.871 724.384,941.871 C727.158,932.699 726.026,923.243 726.124,913.961 C726.514,876.672 725.942,839.388 722.973,802.184 C722.852,800.673 723.128,799.256 723.509,797.777 C724.664,793.295 723.673,789.433 719.337,787.126 C715.004,784.821 711.262,786.225 708.102,789.551 C693.368,805.06 677.132,818.787 659.32,830.629 C655.585,833.112 651.555,835.154 647.85,837.677 C638.74,843.879 629.054,844.157 618.723,841.469 C598.913,836.314 580.858,827.183 563.057,817.457 C545.385,807.802 528.344,797.099 511.602,785.917 C510.651,785.282 509.782,784.525 508.54,783.565 C524.535,775.098 535.583,762.41 542.979,746.45 C544.45,743.277 545.929,745.161 547.473,746.032 C570.486,759.02 593.838,771.367 617.5,783.127 C624.616,786.664 627.656,786.002 632.521,779.847 C660.808,744.055 689.117,708.281 717.312,672.418 C719.302,669.886 720.887,668.926 724.245,669.893 C734.85,672.949 734.786,672.757 733.375,683.791 C731.812,696.007 730.459,708.25 729.071,720.488 C728.52,725.344 730.705,728.828 735.496,730.397 C741.971,732.518 748.482,734.549 755.056,736.331 C758.161,737.172 758.892,738.154 757.47,741.335 C752.796,751.795 748.448,762.401 744.03,772.974 C741.188,779.775 742.326,783.271 748.565,787.206 C762.631,796.076 776.703,804.938 790.784,813.785 C794.343,816.021 797.999,816.307 801.534,813.806 C804.597,811.638 805.332,808.46 804.773,804.939 C804.253,801.662 801.836,799.875 799.242,798.252 C787.965,791.195 776.743,784.046 765.39,777.112 C762.904,775.593 762.445,774.345 763.639,771.61 C768.621,760.198 773.37,748.682 778.123,737.17 C781.198,729.723 779.181,725.509 771.482,723.114 C764.502,720.943 757.501,718.836 750.497,716.741 C748.611,716.177 747.297,715.563 747.613,713.042 C749.057,701.487 750.358,689.914 751.599,678.335 C751.828,676.19 752.653,676.058 754.487,676.509 C757.064,677.143 759.76,677.908 762.352,677.75 C770.187,677.272 773.045,681.254 775.255,688.423 C786.021,723.337 797.501,758.032 808.624,792.837 C810.078,797.387 812.325,800.74 817.473,800.814 C822.901,800.892 825.237,797.355 826.704,792.644 C838.017,756.337 849.441,720.064 860.728,683.749 C861.72,680.556 862.944,678.793 866.727,678.705 C871.354,678.597 875.981,677.66 880.562,676.827 C882.688,676.441 883.738,676.316 884.012,679.075 C885.11,690.168 886.424,701.241 887.839,712.299 C888.184,714.994 887.297,716.152 884.793,716.862 C877.758,718.855 870.761,720.987 863.779,723.163 C856.473,725.439 854.372,729.828 857.3,736.946 C862.037,748.464 866.8,759.976 871.802,771.381 C873.087,774.312 872.584,775.622 869.892,777.257 C858.665,784.077 847.596,791.155 836.477,798.153 C830.648,801.822 828.9,806.841 831.812,811.444 C834.752,816.09 839.945,816.749 845.798,813.089 C859.757,804.362 873.699,795.608 887.615,786.813 C893.093,783.351 894.219,779.714 891.711,773.661 C887.261,762.921 882.886,752.145 878.138,741.536 C876.609,738.12 877.563,737.115 880.724,736.264 C886.821,734.622 892.857,732.741 898.884,730.851 C905.076,728.908 907.039,725.584 906.292,719.217 C904.603,704.837 903.105,690.433 901.318,676.065 C900.991,673.441 901.728,672.607 904.133,672.067 C908.995,670.978 913.825,669.698 918.593,668.25 C921.59,667.34 921.96,668.466 921.597,671.061 C918.786,691.164 916.022,711.273 913.279,731.385 C908.738,764.684 904.222,797.986 899.697,831.288 C897.613,846.621 895.563,861.959 893.436,877.286 C892.405,884.71 895.044,888.326 902.327,889.187 C909.209,890 909.15,890.001 909.222,897.121 C909.348,909.608 909.633,922.095 909.662,934.582 C909.668,937.183 910.806,939.351 911.491,941.871" fill="#FEFEFE"/>
    <path d="M1084.78,823.226 C1085.95,811.559 1087.07,800.35 1088.2,789.142 C1089.37,777.549 1090.66,765.966 1091.67,754.359 C1092.34,746.648 1089.66,743.64 1082.1,742.867 C1044.18,738.988 1006.26,735.106 968.344,731.231 C958.09,730.183 955.579,732.117 954.488,742.447 C951.866,767.278 949.307,792.116 946.836,816.962 C945.789,827.487 948.181,829.959 958.582,830.983 C994.031,834.471 1029.46,838.118 1064.9,841.699 C1066.56,841.866 1068.24,841.861 1069.88,842.144 C1071.75,842.47 1075.12,841.744 1075.15,843.582 C1075.2,846.625 1075.71,850.29 1072.62,852.776 C1059.59,863.291 1057.93,872.655 1066.83,888.168 C1057.72,887.297 1049.1,886.51 1040.49,885.643 C1008.7,882.44 976.901,879.209 945.106,875.993 C935.004,874.972 924.906,873.906 914.793,873.002 C912.518,872.799 911.634,872.326 911.994,869.739 C916.445,837.766 920.777,805.776 925.145,773.791 C929.67,740.653 934.212,707.518 938.726,674.379 C940.5,661.354 942.28,648.328 943.913,635.285 C944.272,632.42 945.508,631.85 948.176,632.165 C986.852,636.738 1025.54,641.241 1064.22,645.732 C1087.86,648.476 1111.5,651.244 1135.16,653.801 C1138.46,654.158 1139.5,655.292 1139.95,658.537 C1142.18,674.353 1144.68,690.13 1147.21,705.901 C1147.57,708.105 1147.58,709.838 1144.88,709.099 C1142.67,708.495 1138.23,711.927 1138.56,706.116 C1138.89,700.299 1139.49,694.498 1139.79,688.681 C1140.11,682.598 1136.79,678.542 1131.53,678.292 C1126.65,678.06 1123.04,681.576 1122.54,687.514 C1120.26,714.378 1118.02,741.244 1115.97,768.124 C1115.74,771.141 1114.81,772.3 1111.91,773.018 C1094.63,777.296 1087.45,791.663 1094.11,808.376 C1095.34,811.461 1098.43,814.83 1097.8,817.357 C1097.11,820.135 1091.98,819.186 1089.2,820.996 C1087.98,821.796 1086.58,822.333 1084.78,823.226" fill="#FEFEFE"/>
    <path d="M467.704,775.186 C449.198,774.423 431.687,766.412 422.515,745.525 C417.681,734.516 417.442,722.568 418.198,710.698 C418.601,704.386 419.534,698.138 421.804,692.169 C423.18,688.551 425.039,685.322 428.075,682.743 C434.017,677.696 433.502,671.42 426.864,667.204 C411.11,657.198 397.503,644.838 386.24,629.967 C381.616,623.861 377.54,617.372 375.717,609.772 C373.295,599.671 382.256,584.27 392.171,581.451 C396.23,580.297 399.671,581.868 402.959,584.002 C417.572,593.488 428.845,605.821 435.227,622.23 C437.872,629.03 440.269,635.926 442.752,642.788 C443.427,644.654 443.678,646.47 443.445,648.582 C442.612,656.132 449.326,660.814 456.253,657.459 C463.291,654.051 470.742,652.655 478.393,652.074 C497.066,650.654 510.14,660.736 520.691,674.245 C536.417,694.379 537.932,716.5 526.892,739.375 C515.769,762.422 495.579,775.176 467.704,775.186" fill="#FEF8EA"/>
    <path d="M1049.74,532.068 C1046.01,531.863 1044.34,535.278 1041.56,536.78 C1028.94,543.611 1015.8,544.508 1002.03,541.349 C987.569,538.031 975,531.994 965.711,519.767 C954.94,505.591 953.009,490.065 958.094,473.641 C964.548,452.793 976.985,436.657 998.072,428.916 C1022.33,420.014 1048.2,430.228 1060.93,452.491 C1063.14,456.365 1065.43,460.197 1067.68,464.048 C1065.37,485.46 1059.82,506.071 1052.3,526.191 C1051.55,528.19 1050.6,530.111 1049.74,532.068" fill="#FFE3CE"/>
    <path d="M568.788,457.086 C571.779,454.609 573.297,451 575.724,448.075 C591.595,428.945 614.753,420.388 638.569,429.284 C654.515,435.241 663.953,448.049 670.6,463.114 C672.878,468.277 674.631,473.644 675.745,479.211 C679.086,495.898 672.383,509.548 662.278,521.815 C653.548,532.411 642.999,540.58 628.727,542.559 C616.505,544.253 605,541.4 593.627,537.449 C592.228,536.963 590.806,536.542 589.395,536.091 C577.988,510.939 571.549,484.492 568.788,457.086" fill="#FFD5BA"/>
    <path d="M676.932,652.827 C663.011,656.876 648.725,659.141 634.389,660.851 C615.372,663.121 596.276,663.812 577.216,661.023 C561.788,658.766 546.96,654.801 533.851,645.83 C531.049,643.913 530.844,642.863 533.598,640.48 C546.371,629.427 556.099,616.304 558.613,599.115 C560.859,583.758 557.551,569.07 552.063,554.75 C544.72,535.593 534.356,517.898 525.519,499.465 C523.736,495.746 521.367,492.262 520.659,488.078 C528.152,495.953 536.815,501.779 547.787,503.562 C547.951,503.588 548.116,503.701 548.269,503.681 C558.581,502.328 560.981,508.796 563.516,517.18 C574.324,552.909 592.407,584.627 618.817,611.207 C634.734,627.228 652.985,640.24 673.116,650.558 C674.43,651.232 675.662,652.067 676.932,652.827" fill="#D7AA6F"/>
    <path d="M1072.85,766.354 C1071.05,784.574 1069.2,802.438 1067.6,820.323 C1067.29,823.776 1065.81,824.244 1062.83,823.929 C1038.53,821.365 1014.21,818.911 989.891,816.421 C982.613,815.676 975.345,814.828 968.056,814.228 C965.659,814.031 964.663,813.6 964.966,810.793 C967.036,791.617 968.966,772.424 970.786,753.222 C971.089,750.024 972.017,749.246 975.374,749.6 C1006.63,752.893 1037.89,756.124 1069.18,758.941 C1076.21,759.573 1072.23,763.862 1072.85,766.354" fill="#FEFEFE"/>
    <path d="M1107.6,835.195 C1108.17,835.262 1109.81,835.473 1111.47,835.644 C1118.76,836.398 1123.8,830.319 1121.01,823.554 C1118.54,817.587 1115.19,811.995 1112.34,806.178 C1106.35,793.911 1109.63,788.917 1123.43,789.189 C1137.76,789.472 1153.76,801.375 1157.91,814.719 C1158.98,818.17 1159.26,821.637 1158.27,825.038 C1151.58,848.031 1138.73,866.872 1119.11,880.622 C1105.12,890.433 1091.41,888.747 1081.1,877.019 C1077.83,873.298 1077.83,870.408 1081.79,867.9 C1089.46,863.05 1092.18,855.92 1092.73,847.298 C1093.39,837.105 1095.92,835.068 1107.6,835.195" fill="#FEF8EA"/>
    <path d="M817.408,681.035 C824.71,681.035 832.017,681.193 839.312,680.965 C842.683,680.86 843.161,681.653 842.112,684.827 C838.471,695.836 835.085,706.93 831.731,718.03 C831.044,720.301 830.016,721.16 827.556,721.093 C820.748,720.908 813.929,720.902 807.123,721.097 C804.655,721.167 803.631,720.211 802.953,718.044 C799.441,706.819 795.933,695.591 792.211,684.434 C791.159,681.281 792.047,680.856 795.008,680.938 C802.47,681.145 809.942,681.007 817.411,681.007 C817.41,681.017 817.409,681.026 817.408,681.035" fill="#FEF8EA"/>
    <path d="M1081.96,486.927 C1086.34,465.521 1088.04,444.249 1088.48,422.865 C1088.53,420.306 1089.56,419.924 1091.75,419.857 C1099.19,419.628 1105.04,422.701 1107.5,429.64 C1112.56,443.915 1112.73,458.435 1106.52,472.372 C1102.02,482.48 1093.02,486.279 1081.96,486.927" fill="#FEF8EA"/>
    <path d="M545.414,419.897 C547.843,419.404 548.98,420.254 549.02,423.528 C549.267,443.33 550.809,463.03 554.701,482.486 C555.372,485.843 555.105,487.18 550.92,486.32 C540.248,484.127 533.294,477.983 530.183,467.761 C526.669,456.213 526.669,444.448 529.918,432.832 C532.304,424.3 537.483,420.127 545.414,419.897" fill="#FEF8EA"/>
    <path d="M231.505,550.18 C226.876,550.272 225.34,547.362 223.872,544.239 C209.877,514.467 195.852,484.71 181.835,454.949 C174.825,440.065 167.795,425.191 160.811,410.295 C158.047,404.401 158.863,401.892 164.667,399.152 C196.069,384.327 227.49,369.542 258.925,354.787 C264.483,352.179 267.009,353.161 269.617,358.696 C290.722,403.488 311.819,448.285 332.91,493.084 C335.835,499.297 335.026,501.744 328.984,504.593 C297.727,519.332 266.459,534.045 235.187,548.751 C233.846,549.381 232.576,550.287 231.505,550.18" fill="#B1EBFE"/>
    <path d="M210.783,169.525 C204.986,158.92 199.137,149.064 194.118,138.802 C188.979,128.294 193.571,115.288 203.733,109.415 C213.835,103.576 227.175,105.69 233.598,115.367 C240.098,125.158 245.279,135.82 251.146,146.038 C252.312,148.068 250.906,148.231 249.716,148.677 C245.991,150.075 242.221,151.359 238.522,152.824 C228.575,156.767 219.277,161.83 210.783,169.525" fill="#B1EBFE"/>
    <path d="M274.972,193.951 C274.865,205.647 267.919,214.78 258.056,217.68 C248.306,220.546 237.417,216.588 232.012,207.756 C228.031,201.25 224.704,194.345 220.802,187.788 C219.253,185.185 220.977,184.2 222.335,182.896 C230.308,175.243 240.165,170.879 250.316,167.091 C260.636,163.24 260.658,163.3 266.02,173.102 C268.17,177.032 270.379,180.932 272.455,184.901 C274.174,188.188 275.062,191.714 274.972,193.951" fill="#FEFEFE"/>
    <path d="M414.251,241.328 C414.081,248.004 412.763,252.383 410.031,256.333 C404.36,264.532 398.654,272.71 393.119,281.001 C391.565,283.33 390.604,283.828 388.377,281.6 C378.697,271.919 368.328,263.119 355.467,257.82 C353.559,257.034 353.52,256.147 354.672,254.515 C360.802,245.826 366.563,236.863 372.964,228.383 C378.983,220.41 389.768,217.776 399.064,221.233 C408.023,224.564 414.322,233.701 414.251,241.328" fill="#B1EBFE"/>
    <path d="M348.049,328.108 C331.049,327.975 319.594,309.798 327.53,294.762 C331.459,287.318 336.907,280.683 341.517,273.585 C343.076,271.184 344.757,272.557 346.291,273.101 C356.377,276.671 364.516,283.235 372.216,290.384 C380.975,298.516 380.922,298.569 374.05,308.534 C371.787,311.816 369.64,315.184 367.261,318.381 C362.49,324.79 356.069,328.071 348.049,328.108" fill="#FEFEFE"/>
    <path d="M416.788,52.022 C416.776,71.01 401.543,86.124 382.433,86.109 C363.619,86.093 348.079,70.381 348.336,51.634 C348.592,33.008 363.996,17.727 382.587,17.658 C401.423,17.587 416.8,33.037 416.788,52.022" fill="#FEFEFE"/>
    <path d="M1064.18,337.197 C1062.17,337.467 1060.19,336.544 1058.23,335.63 C1004.78,310.684 956.054,278.96 915.732,235.419 C895.609,213.689 878.318,189.907 866.455,162.536 C864.937,159.034 863.591,155.432 862.5,151.776 C861.068,146.983 863.508,142.562 868.061,141.103 C872.645,139.635 877.163,141.714 878.938,146.365 C894.371,186.787 921.341,218.773 952.991,247.24 C986.705,277.563 1025.07,300.746 1066.05,319.793 C1070,321.631 1072.83,323.935 1072.83,328.635 C1072.82,333.662 1069.48,337.096 1064.18,337.197" fill="#6E4100"/>
    <path d="M864.254,533.079 C863.278,548.122 860.963,562.852 853.786,576.374 C845.528,591.935 831.952,599.353 815.762,597.116 C805.122,595.646 797.599,589.31 791.741,580.798 C783.056,568.177 779.105,553.76 776.946,538.867 C776.364,534.849 774.93,533.355 771.247,533.229 C768.09,533.121 765.267,532.222 763.847,529.092 C761.323,523.53 765.527,518.274 771.986,519.222 C785.84,521.257 799.747,522.353 813.746,522.579 C826.252,522.78 838.689,522.151 850.987,519.827 C862.685,517.618 864.47,519.048 864.255,531.08 C864.243,531.746 864.254,532.413 864.254,533.079" fill="#6E4100"/>
    <path d="M673.229,414.717 C673.364,410.195 673.952,405.702 675.931,401.631 C677.172,399.08 676.493,397.874 674.365,396.427 C668.817,392.654 665.318,387.215 662.836,381.104 C661.061,376.733 662.334,372.647 665.975,371.469 C670.086,370.139 673.061,371.661 674.786,375.714 C676.287,379.243 678.064,382.599 681.084,385.169 C683.633,387.34 685.593,387.78 688.773,385.503 C698.988,378.191 710.224,375.903 722.229,380.897 C732.21,385.049 737.823,393.045 740.657,403.099 C742.15,408.393 739.575,412.821 734.872,414.186 C730.255,415.526 725.947,413.319 724.029,408.631 C719.747,398.165 715.172,394.786 707.084,396.119 C697.926,397.628 691.181,405.619 690.753,415.466 C690.464,422.128 686.75,425.774 680.857,425.182 C675.933,424.687 673.162,420.883 673.229,414.717" fill="#6E4100"/>
    <path d="M976.24,414.962 C976.178,421.491 972.828,425.216 967.383,425.228 C962.09,425.241 958.986,421.91 958.727,415.838 C958.341,406.753 953.942,400.426 945.529,397.113 C937.351,393.893 930.297,396.951 926.665,404.975 C926.391,405.58 926.125,406.191 925.892,406.813 C923.411,413.419 919.295,415.922 913.956,414.063 C909.087,412.367 907.232,407.502 909.404,401.198 C910.279,398.659 910.088,397.174 907.772,395.428 C902.744,391.637 899.575,386.356 897.378,380.493 C895.96,376.71 896.625,373.569 900.428,371.668 C903.965,369.9 907.472,371.401 909.419,375.333 C910.228,376.967 910.876,378.69 911.793,380.258 C915.49,386.578 916.88,386.899 922.949,383.035 C943.136,370.182 972.625,385.196 975.748,409.926 C975.977,411.738 976.105,413.562 976.24,414.962" fill="#6E4100"/>
    <path d="M721.757,251.373 C721.683,256.898 717.058,259.5 712.823,257.32 C701.491,251.486 689.947,254.431 683.295,264.855 C680.434,269.338 677.35,270.652 674.085,268.781 C670.751,266.871 670.365,262.821 673.087,258.286 C680.819,245.402 700.238,237.969 712.935,243.272 C716.997,244.969 721.308,246.863 721.757,251.373" fill="#6E4100"/>
    <path d="M820.392,434.238 C818.466,434.44 816.725,433.632 815.504,431.85 C813.822,429.395 812.108,426.951 810.609,424.384 C808.82,421.321 809.6,418.523 812.347,416.518 C815.191,414.442 818.146,414.964 820.298,417.599 C822.377,420.146 824.277,422.926 825.755,425.857 C827.826,429.967 825.138,434.111 820.392,434.238" fill="#6F4400"/>
    <path d="M815.86,845.183 C822.382,845.281 827.806,850.98 827.571,857.489 C827.341,863.857 821.88,869.051 815.536,868.935 C808.877,868.814 803.728,863.386 803.903,856.67 C804.068,850.307 809.501,845.087 815.86,845.183" fill="#6E4300"/>
    <path d="M815.521,937.002 C809.025,936.943 803.867,931.689 803.903,925.17 C803.942,918.3 809.165,913.301 816.106,913.489 C822.483,913.663 827.482,918.676 827.569,924.985 C827.661,931.621 822.206,937.062 815.521,937.002" fill="#6E4100"/>
    <path d="M955.096,681.044 C973.363,682.854 990.894,684.576 1008.42,686.334 C1027.43,688.24 1046.44,690.208 1065.46,692.09 C1072.34,692.771 1076.41,696.849 1075.53,702.398 C1074.74,707.374 1070.6,710.36 1064.88,709.795 C1048.01,708.129 1031.15,706.362 1014.29,704.649 C995.773,702.768 977.255,700.905 958.739,699.026 C957.086,698.858 955.419,698.737 953.792,698.42 C948.375,697.364 945.578,693.627 946.289,688.525 C946.957,683.737 950.548,680.931 955.096,681.044" fill="#6E4100"/>
    <path d="M482.262,720.695 C479.707,729.81 475.351,737.177 465.995,740.296 C463.741,741.048 464.437,742.957 464.217,744.482 C462.629,755.5 454.34,761.866 443.433,760.405 C438.463,759.739 434.877,755.941 435.004,751.478 C435.135,746.886 438.608,743.258 443.783,743.133 C446.762,743.062 447.203,741.799 446.696,739.525 C446.045,736.608 445.068,733.761 444.47,730.835 C443.744,727.279 444.781,724.187 447.79,722.033 C450.921,719.792 454.548,719.29 457.546,721.71 C461.819,725.16 463.098,722.02 464.264,719.059 C467.539,710.747 459.404,697.26 450.465,695.913 C443.866,694.92 440.313,691.169 441.111,686.041 C441.989,680.402 446.559,677.637 453.079,678.551 C462.611,679.886 469.512,685.283 475.266,692.786 C482.198,681.366 493.649,678.357 505.389,676.125 C510.02,675.245 514.06,678.487 514.931,682.932 C515.86,687.668 513.696,691.563 509.043,693.071 C505.097,694.35 501.042,695.29 497.089,696.551 C495.695,696.996 494.413,697.87 493.169,698.685 C491.383,699.854 490.239,701.615 490.463,703.72 C490.711,706.045 493.063,706.225 494.705,706.498 C498.962,707.204 503.274,707.631 507.58,707.971 C514.121,708.488 517.404,711.822 516.922,717.702 C516.489,722.975 512.56,725.587 506.19,725.331 C498.002,725.001 489.926,724.289 482.262,720.695" fill="#6E4100"/>
    <path d="M211.879,437.934 C215.345,437.833 218.837,437.408 222.271,437.691 C234.073,438.665 242.928,445.989 246.122,457.085 C249.353,468.307 245.316,479.01 234.845,486.986 C234.397,490.482 231.282,490.094 229.039,490.984 C227.543,491.319 226.073,490.029 224.564,490.916 C208.391,491.364 197.527,483.939 194.414,469.961 C192.446,461.122 194.656,453.208 200.648,446.346 C201.787,445.042 203.862,444.353 203.723,442.106 C205.64,439.147 208.838,438.695 211.879,437.934" fill="#6E4100"/>
    <path d="M287.792,462.066 C289.983,462.615 292.07,461.762 294.206,461.582 C307.367,460.475 319.201,469.049 322.365,482.011 C325.418,494.517 318.794,507.677 306.87,512.797 C295.046,517.873 280.843,513.523 273.918,502.704 C266.858,491.673 268.9,476.721 278.61,468.155 C279.701,467.193 281.239,466.668 281.734,465.093 C283.116,462.809 285.15,461.828 287.792,462.066" fill="#6E4100"/>
    <path d="M228.832,490.052 C230.736,488.833 233.39,489.086 234.845,486.986 C238.826,487.513 242.682,485.954 246.746,486.582 C259.045,488.481 268.723,497.852 269.863,509.381 C271.189,522.782 264.525,533.867 252.525,538.224 C240.998,542.409 228.154,538.213 221.273,528.015 C214.36,517.768 215.452,504.144 223.956,494.81 C224.848,493.831 225.84,492.943 226.785,492.012 C227.218,491.098 228.069,490.621 228.832,490.052" fill="#6E4100"/>
    <path d="M211.879,437.934 C209.744,440.466 206.389,440.612 203.723,442.106 C199.113,441.705 194.469,442.469 189.866,441.102 C177.708,437.493 169.913,426.091 170.831,412.858 C171.634,401.287 181.417,390.783 192.945,389.113 C206.033,387.217 217.924,394.048 222.475,406.076 C226.88,417.719 222.592,430.656 212.078,437.483 C211.962,437.558 211.943,437.78 211.879,437.934" fill="#6E4100"/>
    <path d="M287.792,462.066 C285.773,463.075 283.753,464.084 281.734,465.093 C276.642,465.947 271.604,466.553 266.445,465.153 C246.862,459.842 240.04,435.616 254.069,420.956 C254.987,419.997 255.895,419.029 256.807,418.066 C257.355,416.836 258.328,415.99 259.376,415.206 C261.186,414.396 262.8,413.108 264.873,412.938 C268.662,412.926 272.482,412.593 276.234,412.96 C287.787,414.088 296.56,421.886 299.323,433.121 C301.986,443.946 297.738,454.732 288.262,461.263 C288.031,461.422 287.946,461.793 287.792,462.066" fill="#6E4100"/>
    <path d="M264.873,412.938 C263.661,414.825 261.429,415.114 259.722,416.224 C258.447,416.928 256.955,416.445 255.647,416.969 C247.257,417.707 239.379,416.539 232.827,410.671 C220.991,400.071 220.529,382.07 231.786,371.259 C243.099,360.394 261.249,361.556 271.142,373.779 C281.079,386.056 278.286,403.502 264.873,412.938" fill="#6E4100"/>
    <path d="M228.832,490.052 C228.635,491.212 227.786,491.691 226.785,492.012 C226.045,491.647 225.305,491.281 224.564,490.916 C225.86,490.001 227.313,489.863 228.832,490.052" fill="#A8D3DF"/>
    <path d="M255.647,416.969 C256.866,415.956 258.244,415.821 259.722,416.224 C258.75,416.838 257.779,417.452 256.807,418.066 C256.42,417.7 256.034,417.334 255.647,416.969" fill="#A9D8E5"/>
    <path d="M372.169,36.901 C381.415,41.461 392.401,45.769 401.549,53.227 C404.558,55.68 403.971,60.016 401.671,63.344 C399.461,66.543 395.966,68.057 392.497,66.601 C383.017,62.621 373.953,57.701 365.19,52.339 C361.787,50.258 361.076,46.386 362.556,42.553 C363.947,38.949 366.707,37.072 372.169,36.901" fill="#6E4100"/>
    <path d="M815.437,535.874 C825.903,536.561 836.368,536.266 846.759,534.808 C848.379,534.58 850.137,533.719 849.856,536.694 C848.597,550.043 846.422,563.157 838.362,574.363 C833.164,581.592 825.923,584.674 817.01,583.066 C810.623,581.913 806.511,577.477 803.121,572.466 C796.178,562.205 793.213,550.441 790.902,538.471 C790.466,536.217 791.18,535.729 793.494,535.796 C800.803,536.007 808.122,535.874 815.437,535.874" fill="#FEFEFE"/>
    <path d="M220.665,473.409 C215.612,473.545 211.351,469.41 211.34,464.359 C211.328,459.453 215.144,455.363 219.987,455.092 C224.928,454.816 229.395,458.904 229.636,463.921 C229.871,468.838 225.677,473.274 220.665,473.409" fill="#FDFDFD"/>
    <path d="M296.562,479.06 C301.612,479.172 305.806,483.522 305.622,488.456 C305.436,493.47 301.084,497.427 295.987,497.217 C290.964,497.009 287.289,493.154 287.329,488.132 C287.369,482.972 291.466,478.947 296.562,479.06" fill="#FDFDFD"/>
    <path d="M252.638,513.132 C252.627,518.162 248.396,522.295 243.341,522.213 C238.415,522.133 234.428,518.218 234.322,513.356 C234.212,508.301 238.329,504.055 243.364,504.03 C248.485,504.004 252.649,508.092 252.638,513.132" fill="#FDFDFD"/>
    <path d="M206.643,415.557 C206.569,420.493 202.171,424.672 197.193,424.538 C192.34,424.407 188.386,420.391 188.338,415.542 C188.289,410.57 192.584,406.19 197.461,406.24 C202.344,406.29 206.716,410.726 206.643,415.557" fill="#FDFDFD"/>
    <path d="M282.617,439.559 C282.448,444.375 277.886,448.664 273.115,448.493 C268.142,448.315 263.962,443.923 264.167,439.092 C264.376,434.173 268.824,429.935 273.598,430.107 C278.412,430.281 282.781,434.86 282.617,439.559" fill="#FDFDFD"/>
    <path d="M259.603,390.212 C259.765,395.126 255.507,399.494 250.479,399.571 C245.425,399.65 241.023,395.429 241.025,390.507 C241.028,385.985 245.358,381.491 249.945,381.249 C254.66,381.001 259.445,385.441 259.603,390.212" fill="#FDFDFD"/>
  </g>
</svg>
