<?xml version="1.0" encoding="UTF-8"?>
<!DOCTYPE svg PUBLIC "-//W3C//DTD SVG 1.1//EN" "http://www.w3.org/Graphics/SVG/1.1/DTD/svg11.dtd">
<svg version="1.1" xmlns="http://www.w3.org/2000/svg" xmlns:xlink="http://www.w3.org/1999/xlink" x="0" y="0" width="680" height="768" viewBox="0, 0, 680, 768">
  <g id="Layer_1">
    <g>
      <path d="M78.004,647.62 C78.004,647.62 18.004,631.62 10.004,640.62 C2.004,649.62 -0.996,665.62 10.004,675.62 C21.004,685.62 106.004,736.62 117.004,725.62 C128.004,714.62 145.004,692.62 145.004,692.62 L78.004,647.62" fill="#FFFFFE"/>
      <path d="M78.004,647.62 C78.004,647.62 18.004,631.62 10.004,640.62 C2.004,649.62 -0.996,665.62 10.004,675.62 C21.004,685.62 106.004,736.62 117.004,725.62 C128.004,714.62 145.004,692.62 145.004,692.62 L78.004,647.62 z" fill-opacity="0" stroke="#636463" stroke-width="5.668" stroke-linecap="round" stroke-linejoin="round"/>
    </g>
    <path d="M518.004,534.62 C518.004,534.62 508.004,584.62 425.004,591.62 C342.004,598.62 308.004,585.62 296.004,593.62 C284.004,601.62 157.004,713.62 157.004,713.62 C157.004,713.62 117.004,706.62 103.004,689.62 C89.004,672.62 78.004,649.62 78.004,649.62 C78.004,649.62 229.004,530.62 244.004,522.62 C259.004,514.62 287.004,498.62 306.004,497.62 C325.004,496.62 441.004,484.62 441.004,484.62 L518.004,534.62" fill="#5B7D98"/>
    <path d="M518.004,534.62 C518.004,534.62 508.004,584.62 425.004,591.62 C342.004,598.62 308.004,585.62 296.004,593.62 C284.004,601.62 157.004,713.62 157.004,713.62 C157.004,713.62 117.004,706.62 103.004,689.62 C89.004,672.62 78.004,649.62 78.004,649.62 C78.004,649.62 229.004,530.62 244.004,522.62 C259.004,514.62 287.004,498.62 306.004,497.62 C325.004,496.62 441.004,484.62 441.004,484.62 L518.004,534.62 z" fill-opacity="0" stroke="#636463" stroke-width="5.668" stroke-linecap="round" stroke-linejoin="round"/>
    <g>
      <path d="M121.004,685.62 C121.004,685.62 61.004,669.62 53.004,678.62 C45.004,687.62 42.004,703.62 53.004,713.62 C64.004,723.62 149.004,774.62 160.004,763.62 C171.004,752.62 188.004,730.62 188.004,730.62 L121.004,685.62" fill="#FFFFFE"/>
      <path d="M121.004,685.62 C121.004,685.62 61.004,669.62 53.004,678.62 C45.004,687.62 42.004,703.62 53.004,713.62 C64.004,723.62 149.004,774.62 160.004,763.62 C171.004,752.62 188.004,730.62 188.004,730.62 L121.004,685.62 z" fill-opacity="0" stroke="#636463" stroke-width="5.668" stroke-linecap="round" stroke-linejoin="round"/>
    </g>
    <path d="M566.004,550.62 C566.004,550.62 563.004,605.62 480.004,612.62 C397.004,619.62 358.004,608.62 346.004,616.62 C334.004,624.62 189.004,741.62 189.004,741.62 C189.004,741.62 149.004,734.62 135.004,717.62 C121.004,700.62 110.004,677.62 110.004,677.62 C110.004,677.62 261.004,558.62 276.004,550.62 C291.004,542.62 319.004,526.62 338.004,525.62 C357.004,524.62 473.004,512.62 473.004,512.62 L566.004,550.62" fill="#5B7D98"/>
    <path d="M566.004,550.62 C566.004,550.62 563.004,605.62 480.004,612.62 C397.004,619.62 358.004,608.62 346.004,616.62 C334.004,624.62 189.004,741.62 189.004,741.62 C189.004,741.62 149.004,734.62 135.004,717.62 C121.004,700.62 110.004,677.62 110.004,677.62 C110.004,677.62 261.004,558.62 276.004,550.62 C291.004,542.62 319.004,526.62 338.004,525.62 C357.004,524.62 473.004,512.62 473.004,512.62 L566.004,550.62 z" fill-opacity="0" stroke="#636463" stroke-width="5.668" stroke-linecap="round" stroke-linejoin="round"/>
    <path d="M313.468,487.156 C313.468,487.156 282.636,490.944 273.936,493.916 C265.24,496.884 214.464,526.524 214.464,526.524 C214.464,526.524 189.412,493.608 181.416,501.932 C173.424,510.268 190.348,564.26 198.656,568.9 C206.96,573.536 226.572,564.232 232.132,559.724 C237.696,555.212 280.036,534.792 287.4,532.284 C294.76,529.768 321.812,529.136 321.812,529.136 L313.468,487.156" fill="#F9D8AE"/>
    <path d="M313.468,487.156 C313.468,487.156 282.636,490.944 273.936,493.916 C265.24,496.884 214.464,526.524 214.464,526.524 C214.464,526.524 189.412,493.608 181.416,501.932 C173.424,510.268 190.348,564.26 198.656,568.9 C206.96,573.536 226.572,564.232 232.132,559.724 C237.696,555.212 280.036,534.792 287.4,532.284 C294.76,529.768 321.812,529.136 321.812,529.136 L313.468,487.156 z" fill-opacity="0" stroke="#636463" stroke-width="5.668" stroke-linecap="round" stroke-linejoin="round"/>
    <path d="M232.132,559.724 C235.136,557.284 248.88,550.204 262.044,543.812 L243.676,509.788 C228.884,518.108 214.464,526.524 214.464,526.524 C214.464,526.524 189.412,493.608 181.416,501.932 C173.424,510.268 190.348,564.26 198.656,568.9 C206.96,573.536 226.572,564.232 232.132,559.724" fill="#FFFFFE"/>
    <path d="M232.132,559.724 C235.136,557.284 248.88,550.204 262.044,543.812 L243.676,509.788 C228.884,518.108 214.464,526.524 214.464,526.524 C214.464,526.524 189.412,493.608 181.416,501.932 C173.424,510.268 190.348,564.26 198.656,568.9 C206.96,573.536 226.572,564.232 232.132,559.724 z" fill-opacity="0" stroke="#636463" stroke-width="5.668" stroke-linecap="round" stroke-linejoin="round"/>
    <path d="M316.504,525.12 C316.504,525.12 290.504,542.12 284.004,548.62 C277.504,555.12 245.004,604.12 245.004,604.12 C245.004,604.12 208.004,585.62 204.504,596.62 C201.004,607.62 240.004,648.62 249.504,649.12 C259.004,649.62 272.504,632.62 275.504,626.12 C278.504,619.62 307.504,582.62 313.004,577.12 C318.504,571.62 342.504,559.12 342.504,559.12 L316.504,525.12" fill="#F9D8AE"/>
    <path d="M316.504,525.12 C316.504,525.12 290.504,542.12 284.004,548.62 C277.504,555.12 245.004,604.12 245.004,604.12 C245.004,604.12 208.004,585.62 204.504,596.62 C201.004,607.62 240.004,648.62 249.504,649.12 C259.004,649.62 272.504,632.62 275.504,626.12 C278.504,619.62 307.504,582.62 313.004,577.12 C318.504,571.62 342.504,559.12 342.504,559.12 L316.504,525.12 z" fill-opacity="0" stroke="#636463" stroke-width="5.668" stroke-linecap="round" stroke-linejoin="round"/>
    <path d="M275.504,626.12 C277.124,622.608 286.34,610.192 295.332,598.652 L263.844,576.212 C254.236,590.196 245.004,604.12 245.004,604.12 C245.004,604.12 208.004,585.62 204.504,596.62 C201.004,607.62 240.004,648.62 249.504,649.12 C259.004,649.62 272.504,632.62 275.504,626.12" fill="#FFFFFE"/>
    <path d="M275.504,626.12 C277.124,622.608 286.34,610.192 295.332,598.652 L263.844,576.212 C254.236,590.196 245.004,604.12 245.004,604.12 C245.004,604.12 208.004,585.62 204.504,596.62 C201.004,607.62 240.004,648.62 249.504,649.12 C259.004,649.62 272.504,632.62 275.504,626.12 z" fill-opacity="0" stroke="#636463" stroke-width="5.668" stroke-linecap="round" stroke-linejoin="round"/>
    <path d="M360.504,462.62 C360.504,462.62 337.004,476.12 333.004,477.12 C329.004,478.12 293.504,487.12 293.504,487.12 C293.504,487.12 308.004,522.62 313.504,527.12 C319.004,531.62 344.504,570.12 353.004,574.12 C361.504,578.12 382.004,583.12 382.004,583.12 C382.004,583.12 410.004,559.12 415.004,548.12 C420.004,537.12 425.504,512.62 425.504,512.62 L360.504,462.62" fill="#EA9180"/>
    <path d="M360.504,462.62 C360.504,462.62 337.004,476.12 333.004,477.12 C329.004,478.12 293.504,487.12 293.504,487.12 C293.504,487.12 308.004,522.62 313.504,527.12 C319.004,531.62 344.504,570.12 353.004,574.12 C361.504,578.12 382.004,583.12 382.004,583.12 C382.004,583.12 410.004,559.12 415.004,548.12 C420.004,537.12 425.504,512.62 425.504,512.62 L360.504,462.62 z" fill-opacity="0" stroke="#636463" stroke-width="5.412" stroke-linecap="round" stroke-linejoin="round"/>
    <path d="M304.504,511.12 C304.504,511.12 338.504,499.62 347.004,493.62 C355.504,487.62 365.504,481.12 365.504,481.12 M323.504,536.62 C331.944,535.448 343.12,525.756 350.028,521.088 C358.588,515.308 366.248,507.984 374.004,501.62 M339.004,563.62 C349.38,558.928 357.732,551.592 365.124,543.012 C372.168,534.836 381.528,526.836 385.504,516.62 M362.504,576.62 C371.8,576.176 381.328,561.984 386.512,555.532 C393.24,547.172 398.592,537.564 402.504,527.62" fill-opacity="0" stroke="#636463" stroke-width="5.668" stroke-linecap="round" stroke-linejoin="round"/>
    <path d="M325.504,251.12 C325.504,251.12 312.004,240.62 298.504,247.12 C285.004,253.62 275.504,270.62 277.504,286.62 C279.504,302.62 286.504,319.62 287.004,331.12 C287.504,342.62 287.004,360.12 282.504,367.62 C278.004,375.12 268.504,381.62 264.504,376.12 C264.504,376.12 273.348,384.048 288.504,374.12 C303.004,364.62 308.504,352.62 313.004,339.12 C317.504,325.62 325.504,251.12 325.504,251.12" fill="#977B67"/>
    <path d="M325.504,251.12 C325.504,251.12 312.004,240.62 298.504,247.12 C285.004,253.62 275.504,270.62 277.504,286.62 C279.504,302.62 286.504,319.62 287.004,331.12 C287.504,342.62 287.004,360.12 282.504,367.62 C278.004,375.12 268.504,381.62 264.504,376.12 C264.504,376.12 273.348,384.048 288.504,374.12 C303.004,364.62 308.504,352.62 313.004,339.12 C317.504,325.62 325.504,251.12 325.504,251.12 z" fill-opacity="0" stroke="#636463" stroke-width="5.668" stroke-linecap="round" stroke-linejoin="round"/>
    <path d="M331.504,386.12 C331.504,386.12 333.504,359.62 328.504,359.12 C323.504,358.62 321.504,374.12 321.504,374.12 C321.504,374.12 311.504,346.62 307.504,348.62 C303.504,350.62 309.004,365.62 309.004,365.62 C309.004,365.62 298.004,348.62 293.004,350.12 C288.004,351.62 299.004,369.62 299.004,369.62 C299.004,369.62 285.004,354.62 281.004,357.62 C277.004,360.62 289.004,377.12 289.004,377.12 C289.004,377.12 276.004,372.62 273.504,377.12 C271.004,381.62 289.004,388.62 290.504,390.12 C292.004,391.62 307.004,405.12 311.004,405.62 C315.004,406.12 332.004,398.62 331.504,386.12" fill="#F9D8AE"/>
    <path d="M331.504,386.12 C331.504,386.12 333.504,359.62 328.504,359.12 C323.504,358.62 321.504,374.12 321.504,374.12 C321.504,374.12 311.504,346.62 307.504,348.62 C303.504,350.62 309.004,365.62 309.004,365.62 C309.004,365.62 298.004,348.62 293.004,350.12 C288.004,351.62 299.004,369.62 299.004,369.62 C299.004,369.62 285.004,354.62 281.004,357.62 C277.004,360.62 289.004,377.12 289.004,377.12 C289.004,377.12 276.004,372.62 273.504,377.12 C271.004,381.62 289.004,388.62 290.504,390.12 C292.004,391.62 307.004,405.12 311.004,405.62 C315.004,406.12 332.004,398.62 331.504,386.12 z" fill-opacity="0" stroke="#636463" stroke-width="5.668" stroke-linecap="round" stroke-linejoin="round"/>
    <path d="M415.504,225.12 C415.504,225.12 425.004,191.12 421.504,174.62 C418.004,158.12 396.004,97.62 390.004,95.62 C384.004,93.62 377.004,101.12 380.004,109.62 C383.004,118.12 391.504,157.12 391.504,157.12 C391.504,157.12 381.504,151.62 372.504,154.62 C363.504,157.62 358.504,168.12 358.504,168.12 C358.504,168.12 350.004,161.12 344.004,162.62 C338.004,164.12 336.504,173.62 336.504,173.62 C336.504,173.62 326.004,170.12 322.504,173.12 C319.004,176.12 315.86,191.332 321.504,202.62 C325.504,210.62 335.504,217.12 339.504,217.12 C339.504,217.12 342.504,227.62 352.504,231.62 C362.504,235.62 370.504,234.62 373.004,234.62 C375.504,234.62 415.504,225.12 415.504,225.12" fill="#F9D8AE"/>
    <path d="M415.504,225.12 C415.504,225.12 425.004,191.12 421.504,174.62 C418.004,158.12 396.004,97.62 390.004,95.62 C384.004,93.62 377.004,101.12 380.004,109.62 C383.004,118.12 391.504,157.12 391.504,157.12 C391.504,157.12 381.504,151.62 372.504,154.62 C363.504,157.62 358.504,168.12 358.504,168.12 C358.504,168.12 350.004,161.12 344.004,162.62 C338.004,164.12 336.504,173.62 336.504,173.62 C336.504,173.62 326.004,170.12 322.504,173.12 C319.004,176.12 315.86,191.332 321.504,202.62 C325.504,210.62 335.504,217.12 339.504,217.12 C339.504,217.12 342.504,227.62 352.504,231.62 C362.504,235.62 370.504,234.62 373.004,234.62 C375.504,234.62 415.504,225.12 415.504,225.12 z M336.504,173.12 C332.504,183.496 336.952,196.696 344.016,204.12 C349.152,209.516 357.44,211.376 361.004,203.12 M359.504,166.62 C356.284,169.612 357.012,181.104 357.004,185.696 C357,190.384 358.064,194.72 360.6,198.632 C363.792,203.544 370.38,208.304 374.604,203.592 C378.284,199.492 376.6,192.512 377.528,187.136 C378.26,182.908 379.324,173.312 383.004,170.62" fill-opacity="0" stroke="#636463" stroke-width="5.668" stroke-linecap="round" stroke-linejoin="round"/>
    <path d="M407.004,193.12 C403.472,185.74 400.388,180.208 392.504,177.972 C383.784,175.496 370.648,172.54 364.644,181.084 C354.448,195.58 381.124,195.284 385.504,204.62" fill="#F9D8AE"/>
    <path d="M407.004,193.12 C403.472,185.74 400.388,180.208 392.504,177.972 C383.784,175.496 370.648,172.54 364.644,181.084 C354.448,195.58 381.124,195.284 385.504,204.62 M339.004,216.12 C342.716,216.592 346.34,213.972 346.504,210.12" fill-opacity="0" stroke="#636463" stroke-width="5.668" stroke-linecap="round" stroke-linejoin="round"/>
    <path d="M531.004,232.62 C531.004,232.62 515.004,242.62 510.004,251.62 C505.004,260.62 455.504,335.62 455.504,335.62 L418.004,225.62 L360.004,230.62 C360.004,230.62 397.004,380.62 417.004,388.62 C437.004,396.62 481.004,377.62 481.004,377.62 L396.004,502.62 C396.004,502.62 452.004,562.62 495.004,577.62 C538.004,592.62 562.004,592.62 562.004,592.62 C562.004,592.62 645.004,392.62 647.004,352.62 C649.004,312.62 643.004,258.62 626.004,243.62 C609.004,228.62 599.004,230.62 599.004,230.62 L531.004,232.62" fill="#77A6CD"/>
    <path d="M531.004,232.62 C531.004,232.62 515.004,242.62 510.004,251.62 C505.004,260.62 455.504,335.62 455.504,335.62 L418.004,225.62 L360.004,230.62 C360.004,230.62 397.004,380.62 417.004,388.62 C437.004,396.62 481.004,377.62 481.004,377.62 L396.004,502.62 C396.004,502.62 452.004,562.62 495.004,577.62 C538.004,592.62 562.004,592.62 562.004,592.62 C562.004,592.62 645.004,392.62 647.004,352.62 C649.004,312.62 643.004,258.62 626.004,243.62 C609.004,228.62 599.004,230.62 599.004,230.62 L531.004,232.62 z" fill-opacity="0" stroke="#636463" stroke-width="5.668" stroke-linecap="round" stroke-linejoin="round"/>
    <path d="M536.004,234.62 C536.004,234.62 538.536,241.208 541.004,248.62 C544.004,257.62 574.004,264.62 588.004,251.62 C603.552,237.184 599.004,230.62 599.004,230.62 L536.004,234.62" fill="#F9D8AE"/>
    <path d="M536.004,234.62 C536.004,234.62 538.536,241.208 541.004,248.62 C544.004,257.62 574.004,264.62 588.004,251.62 C603.552,237.184 599.004,230.62 599.004,230.62 L536.004,234.62 z M481.004,377.62 C481.004,377.62 504.004,332.62 508.004,321.62 C512.004,310.62 515.004,288.62 515.004,288.62" fill-opacity="0" stroke="#636463" stroke-width="5.668" stroke-linecap="round" stroke-linejoin="round"/>
    <path d="M406.004,358.62 C406.004,358.62 394.004,371.62 390.504,377.62 C387.004,383.62 361.504,409.12 361.504,409.12 L332.504,383.12 L306.504,408.62 C306.504,408.62 342.504,446.62 353.504,445.62 C364.504,444.62 387.004,422.62 387.004,422.62 L360.504,462.62 C360.504,462.62 376.004,485.12 385.504,488.62 C395.004,492.12 429.504,498.12 429.504,498.12 C429.504,498.12 470.004,444.62 472.004,420.62 C474.004,396.62 477.504,374.62 470.504,358.62 C463.504,342.62 455.504,335.62 455.504,335.62 L406.004,358.62" fill="#FFFFFE"/>
    <path d="M406.004,358.62 C406.004,358.62 394.004,371.62 390.504,377.62 C387.004,383.62 361.504,409.12 361.504,409.12 L332.504,383.12 L306.504,408.62 C306.504,408.62 342.504,446.62 353.504,445.62 C364.504,444.62 387.004,422.62 387.004,422.62 L360.504,462.62 C360.504,462.62 376.004,485.12 385.504,488.62 C395.004,492.12 429.504,498.12 429.504,498.12 C429.504,498.12 470.004,444.62 472.004,420.62 C474.004,396.62 477.504,374.62 470.504,358.62 C463.504,342.62 455.504,335.62 455.504,335.62 L406.004,358.62 z" fill-opacity="0" stroke="#636463" stroke-width="5.668" stroke-linecap="round" stroke-linejoin="round"/>
    <path d="M387.004,422.62 L400.504,383.62" fill="#FFFFFE"/>
    <path d="M387.004,422.62 L400.504,383.62" fill-opacity="0" stroke="#636463" stroke-width="5.668" stroke-linecap="round" stroke-linejoin="round"/>
    <path d="M449.004,479.62 C449.004,479.62 423.504,462.12 416.504,459.62 C409.504,457.12 382.504,443.62 380.004,448.62 C377.504,453.62 377.504,456.12 381.504,460.12 C385.504,464.12 399.004,475.12 399.004,475.12 C399.004,475.12 369.504,480.62 361.504,474.62 C353.504,468.62 342.504,453.12 337.504,450.62 C332.504,448.12 326.504,457.62 330.004,463.62 C333.504,469.62 338.004,480.12 338.004,480.12 C338.004,480.12 333.004,484.12 336.004,491.12 C339.004,498.12 344.004,505.12 344.004,505.12 C344.004,505.12 340.504,509.62 344.504,515.12 C348.504,520.62 367.504,530.62 367.504,530.62 C367.504,530.62 366.004,534.62 370.004,537.62 C374.004,540.62 398.504,549.62 411.504,546.62 C424.504,543.62 466.504,524.62 466.504,524.62" fill="#F9D8AE"/>
    <path d="M449.004,479.62 C449.004,479.62 423.504,462.12 416.504,459.62 C409.504,457.12 382.504,443.62 380.004,448.62 C377.504,453.62 377.504,456.12 381.504,460.12 C385.504,464.12 399.004,475.12 399.004,475.12 C399.004,475.12 369.504,480.62 361.504,474.62 C353.504,468.62 342.504,453.12 337.504,450.62 C332.504,448.12 326.504,457.62 330.004,463.62 C333.504,469.62 338.004,480.12 338.004,480.12 C338.004,480.12 333.004,484.12 336.004,491.12 C339.004,498.12 344.004,505.12 344.004,505.12 C344.004,505.12 340.504,509.62 344.504,515.12 C348.504,520.62 367.504,530.62 367.504,530.62 C367.504,530.62 366.004,534.62 370.004,537.62 C374.004,540.62 398.504,549.62 411.504,546.62 C424.504,543.62 466.504,524.62 466.504,524.62 M336.504,477.62 C337.072,482.728 344.796,487.456 348.88,490.12 C355.58,494.488 362.324,497.676 370.004,499.12 M344.004,505.12 C351.504,513.12 361.42,513.04 370.004,513.12 M367.004,530.12 C369.472,531.216 378.16,533.716 379.504,531.62" fill-opacity="0" stroke="#636463" stroke-width="5.668" stroke-linecap="round" stroke-linejoin="round"/>
    <path d="M597.004,323.62 C597.004,323.62 566.004,407.62 558.004,415.62 C550.004,423.62 494.252,455.844 475.004,461.62 C455.004,467.62 443.004,467.62 443.004,467.62 C443.004,467.62 439.004,495.62 445.004,506.62 C451.004,517.62 464.004,529.62 468.004,529.62 C472.004,529.62 523.128,511.188 542.004,500.62 C567.004,486.62 614.004,464.62 623.004,443.62 C632.004,422.62 659.004,352.62 656.004,322.62 C653.004,292.62 640.004,261.62 631.004,250.62 C622.004,239.62 607.004,228.62 607.004,228.62" fill="#77A6CD"/>
    <path d="M597.004,323.62 C597.004,323.62 566.004,407.62 558.004,415.62 C550.004,423.62 494.252,455.844 475.004,461.62 C455.004,467.62 443.004,467.62 443.004,467.62 C443.004,467.62 439.004,495.62 445.004,506.62 C451.004,517.62 464.004,529.62 468.004,529.62 C472.004,529.62 523.128,511.188 542.004,500.62 C567.004,486.62 614.004,464.62 623.004,443.62 C632.004,422.62 659.004,352.62 656.004,322.62 C653.004,292.62 640.004,261.62 631.004,250.62 C622.004,239.62 607.004,228.62 607.004,228.62" fill-opacity="0" stroke="#636463" stroke-width="5.668" stroke-linecap="round" stroke-linejoin="round"/>
    <path d="M416.004,482.62 C416.004,482.62 390.004,495.62 393.504,499.62 C397.004,503.62 407.504,499.12 407.504,499.12 C407.504,499.12 402.504,517.62 400.004,521.12 C397.504,524.62 394.504,529.12 397.004,529.12 C399.504,529.12 407.004,528.12 410.004,521.62 C413.004,515.12 415.004,512.62 415.004,512.62 C415.004,512.62 404.504,532.62 408.504,532.62 C412.504,532.62 422.004,518.12 422.004,518.12 C422.004,518.12 417.504,534.12 419.504,533.12 C421.504,532.12 431.504,518.12 431.504,518.12 C431.504,518.12 429.504,527.62 432.004,527.62 C434.504,527.62 443.504,501.12 443.504,493.12 C443.504,485.12 416.004,482.62 416.004,482.62" fill="#F9D8AE"/>
    <path d="M416.004,482.62 C416.004,482.62 390.004,495.62 393.504,499.62 C397.004,503.62 407.504,499.12 407.504,499.12 C407.504,499.12 402.504,517.62 400.004,521.12 C397.504,524.62 394.504,529.12 397.004,529.12 C399.504,529.12 407.004,528.12 410.004,521.62 C413.004,515.12 415.004,512.62 415.004,512.62 C415.004,512.62 404.504,532.62 408.504,532.62 C412.504,532.62 422.004,518.12 422.004,518.12 C422.004,518.12 417.504,534.12 419.504,533.12 C421.504,532.12 431.504,518.12 431.504,518.12 C431.504,518.12 429.504,527.62 432.004,527.62 C434.504,527.62 443.504,501.12 443.504,493.12 C443.504,485.12 416.004,482.62 416.004,482.62 z" fill-opacity="0" stroke="#636463" stroke-width="5.668" stroke-linecap="round" stroke-linejoin="round"/>
    <path d="M444.004,386.62 C444.004,386.62 430.504,441.12 426.504,448.12 C422.504,455.12 413.504,482.12 413.504,482.12 C413.504,482.12 428.504,491.12 435.004,492.12 C441.504,493.12 449.004,492.12 449.004,492.12 C449.004,492.12 481.848,431.24 481.004,396.62 C480.004,355.62 458.004,341.62 458.004,341.62" fill="#FFFFFE"/>
    <path d="M444.004,386.62 C444.004,386.62 430.504,441.12 426.504,448.12 C422.504,455.12 413.504,482.12 413.504,482.12 C413.504,482.12 428.504,491.12 435.004,492.12 C441.504,493.12 449.004,492.12 449.004,492.12 C449.004,492.12 481.848,431.24 481.004,396.62 C480.004,355.62 458.004,341.62 458.004,341.62" fill-opacity="0" stroke="#636463" stroke-width="5.668" stroke-linecap="round" stroke-linejoin="round"/>
    <path d="M672.9,155.332 C670.012,167.024 658.396,174.116 646.948,171.176 C635.512,168.22 628.568,156.348 631.448,144.656 C634.34,132.96 645.956,125.856 657.396,128.812 C668.84,131.756 675.776,143.632 672.9,155.332" fill="#F9D8AE"/>
    <path d="M672.9,155.332 C670.012,167.024 658.396,174.116 646.948,171.176 C635.512,168.22 628.568,156.348 631.448,144.656 C634.34,132.96 645.956,125.856 657.396,128.812 C668.84,131.756 675.776,143.632 672.9,155.332 z" fill-opacity="0" stroke="#636463" stroke-width="5.668" stroke-linecap="round" stroke-linejoin="round"/>
    <path d="M652.584,133.112 C646.08,224.408 603.24,244.168 552.396,240.38 C501.552,236.592 461.664,214.852 468.464,119.416 C475.192,25.012 517.808,8.364 568.652,12.156 C619.492,15.936 659.16,40.784 652.584,133.112" fill="#F9D8AE"/>
    <g>
      <path d="M652.584,133.112 C646.08,224.408 603.24,244.168 552.396,240.38 C501.552,236.592 461.664,214.852 468.464,119.416 C475.192,25.012 517.808,8.364 568.652,12.156 C619.492,15.936 659.16,40.784 652.584,133.112 z" fill-opacity="0" stroke="#636463" stroke-width="5.668" stroke-linecap="round" stroke-linejoin="round"/>
      <path d="M580.376,7.06 C627.996,13.964 637.864,35.992 643.752,43.692 C661.216,66.504 654.176,125.56 652.584,133.112 C647.34,126.568 625.432,58.824 615.168,49.3 C611.824,62.316 607.48,75.176 603.216,87.952 C598.396,75.056 596.812,58.52 590.736,45.232 C584.316,58.78 573.776,71.388 564.372,83.412 C560.956,67.812 572.536,51.872 574.756,36.98 C559.62,38.776 531.8,64.96 527.924,79.264 C531.736,64.224 536.844,50.352 541.656,35.864 C523.924,43.216 500.668,66.216 491.424,83.636 C493.872,68.352 498.7,53.548 508.132,41.164 C493.84,48.8 484.22,65.536 469.816,72.748 C474.896,49.016 485.192,31.548 505.328,17.768 C524.38,4.724 553.26,2.496 574.444,9.832 L580.376,7.06" fill="#977B67"/>
      <path d="M580.376,7.06 C627.996,13.964 637.864,35.992 643.752,43.692 C661.216,66.504 654.176,125.56 652.584,133.112 C647.34,126.568 625.432,58.824 615.168,49.3 C611.824,62.316 607.48,75.176 603.216,87.952 C598.396,75.056 596.812,58.52 590.736,45.232 C584.316,58.78 573.776,71.388 564.372,83.412 C560.956,67.812 572.536,51.872 574.756,36.98 C559.62,38.776 531.8,64.96 527.924,79.264 C531.736,64.224 536.844,50.352 541.656,35.864 C523.924,43.216 500.668,66.216 491.424,83.636 C493.872,68.352 498.7,53.548 508.132,41.164 C493.84,48.8 484.22,65.536 469.816,72.748 C474.896,49.016 485.192,31.548 505.328,17.768 C524.38,4.724 553.26,2.496 574.444,9.832 L580.376,7.06 z" fill-opacity="0" stroke="#636463" stroke-width="5.668" stroke-linecap="round" stroke-linejoin="round"/>
    </g>
    <path d="M497.184,148.676 C499.504,131.528 514.828,128.188 521.38,144.184 M603.864,151.156 C601.268,134.04 582.944,130.012 579.596,147.06 M543.316,161.64 C542.568,164.664 541.824,167.684 541.076,170.712" fill-opacity="0" stroke="#636463" stroke-width="5.412" stroke-linecap="round" stroke-linejoin="round"/>
    <path d="M530.916,190.628 L575.096,190.204 C575.096,190.204 572.576,217.448 554.808,217.16 C537.044,216.868 530.916,190.628 530.916,190.628" fill="#EA9180"/>
    <path d="M530.916,190.628 L575.096,190.204 C575.096,190.204 572.576,217.448 554.808,217.16 C537.044,216.868 530.916,190.628 530.916,190.628 z M494.776,115.876 C497.732,95.684 516.776,99.012 523.416,110.38 M582.152,113.352 C586.096,100.304 605.632,103.516 610.776,113.584" fill-opacity="0" stroke="#636463" stroke-width="5.412" stroke-linecap="round" stroke-linejoin="round"/>
    <path d="M484.116,276.02 C490.512,317.924 456.812,353.788 409.584,360.996 C362.356,368.196 319.492,344.02 313.096,302.12 C306.704,260.216 339.2,216.452 386.424,209.248 C433.652,202.044 477.724,234.124 484.116,276.02" fill="#F9D8AE"/>
    <path d="M484.116,276.02 C490.512,317.924 456.812,353.788 409.584,360.996 C362.356,368.196 319.492,344.02 313.096,302.12 C306.704,260.216 339.2,216.452 386.424,209.248 C433.652,202.044 477.724,234.124 484.116,276.02 z" fill-opacity="0" stroke="#636463" stroke-width="5.668" stroke-linecap="round" stroke-linejoin="round"/>
    <path d="M396.352,267.924 C397.868,275.08 396.028,281.532 392.248,282.332 C388.464,283.128 384.168,277.972 382.656,270.816 C381.14,263.66 382.984,257.204 386.764,256.404 C390.548,255.604 394.84,260.76 396.352,267.924" fill="#636463"/>
    <path d="M448.352,247.924 C449.868,255.08 448.028,261.532 444.248,262.332 C440.464,263.128 436.168,257.972 434.656,250.816 C433.14,243.66 434.984,237.204 438.764,236.404 C442.548,235.604 446.84,240.76 448.352,247.924" fill="#636463"/>
    <path d="M437.004,272.12 C438.636,272.432 439.724,273.568 440.004,275.12 M430.504,235.12 C430.248,230.32 438.504,220.892 442.004,228.12" fill-opacity="0" stroke="#636463" stroke-width="5.668" stroke-linecap="round" stroke-linejoin="round"/>
    <path d="M415.528,209.668 C406.184,207.976 396.38,207.728 386.424,209.248 C339.2,216.452 306.704,260.216 313.096,302.12 C313.16,302.52 313.276,302.884 313.344,303.28 C328.308,292.236 336.348,275.144 347.628,260.144 C355.34,249.892 363.116,237.168 366.52,224.684 C367.22,234.664 358.104,244.4 359.152,254.056 C371.844,249.424 382.588,242.212 390.96,231.572 C395.144,226.252 397.964,219.972 401.912,214.628 C402.492,224.424 400.948,234.296 401.564,244.096 C410,234.896 417.792,222.48 415.528,209.668" fill="#977B67"/>
    <path d="M415.528,209.668 C406.184,207.976 396.38,207.728 386.424,209.248 C339.2,216.452 306.704,260.216 313.096,302.12 C313.16,302.52 313.276,302.884 313.344,303.28 C328.308,292.236 336.348,275.144 347.628,260.144 C355.34,249.892 363.116,237.168 366.52,224.684 C367.22,234.664 358.104,244.4 359.152,254.056 C371.844,249.424 382.588,242.212 390.96,231.572 C395.144,226.252 397.964,219.972 401.912,214.628 C402.492,224.424 400.948,234.296 401.564,244.096 C410,234.896 417.792,222.48 415.528,209.668 z" fill-opacity="0" stroke="#636463" stroke-width="5.668" stroke-linecap="round" stroke-linejoin="round"/>
    <path d="M441.504,287.62 L406.504,293.62 C406.504,293.62 411.504,323.62 427.504,319.62 C443.504,315.62 441.504,287.62 441.504,287.62" fill="#EA9180"/>
    <path d="M441.504,287.62 L406.504,293.62 C406.504,293.62 411.504,323.62 427.504,319.62 C443.504,315.62 441.504,287.62 441.504,287.62 z" fill-opacity="0" stroke="#636463" stroke-width="5.412" stroke-linecap="round" stroke-linejoin="round"/>
    <path d="M329.504,317.12 C325.732,314.916 318.236,313.652 313.972,314.108 C306.836,314.876 304.064,323.588 303.996,330.048 C303.8,348.548 331.82,357.164 342.504,342.62" fill="#F9D8AE"/>
    <path d="M329.504,317.12 C325.732,314.916 318.236,313.652 313.972,314.108 C306.836,314.876 304.064,323.588 303.996,330.048 C303.8,348.548 331.82,357.164 342.504,342.62 M386.004,246.62 C378.652,241.664 373.26,249.752 373.004,256.12" fill-opacity="0" stroke="#636463" stroke-width="5.668" stroke-linecap="round" stroke-linejoin="round"/>
    <path d="M377.408,297.116 C378.736,301.76 373.136,307.436 364.904,309.784 C356.672,312.136 348.924,310.268 347.596,305.624 C346.272,300.98 351.872,295.304 360.104,292.956 C368.336,290.608 376.084,292.472 377.408,297.116" fill="#EEA497"/>
    <path d="M478.044,267.836 C479.168,271.768 474.464,276.568 467.544,278.54 C460.612,280.52 454.088,278.924 452.964,274.992 C451.848,271.052 456.548,266.256 463.472,264.28 C470.396,262.308 476.916,263.896 478.044,267.836" fill="#EEA497"/>
  </g>
</svg>
