<?xml version="1.0" encoding="UTF-8"?>
<!DOCTYPE svg PUBLIC "-//W3C//DTD SVG 1.1//EN" "http://www.w3.org/Graphics/SVG/1.1/DTD/svg11.dtd">
<svg version="1.1" xmlns="http://www.w3.org/2000/svg" xmlns:xlink="http://www.w3.org/1999/xlink" x="0" y="0" width="1070" height="845" viewBox="0, 0, 1070, 845">
  <g id="Layer_1">
    <path d="M70,783.33 C64.17,785.83 50.83,808.33 55,814.165 C59.17,820 105.83,828.33 127.5,829.165 C149.17,830 205,815 156.67,805 C152.5,802.5 139.165,795 135.83,794.165 C132.5,793.33 76.67,780.83 70,783.33" fill="#B7B9C3"/>
    <path d="M70,783.33 C64.17,785.83 50.83,808.33 55,814.165 C59.17,820 105.83,828.33 127.5,829.165 C149.17,830 205,815 156.67,805 C152.5,802.5 139.165,795 135.83,794.165 C132.5,793.33 76.67,780.83 70,783.33 z" fill-opacity="0" stroke="#6E5E4E" stroke-width="5"/>
    <path d="M135,600 C133.33,620.83 123.33,660 117.5,676.665 L188.335,696.665 C199.165,683.33 214.165,667.5 225,606.665 L135,600" fill="#F9D8B2"/>
    <path d="M135,600 C133.33,620.83 123.33,660 117.5,676.665 L188.335,696.665 C199.165,683.33 214.165,667.5 225,606.665 L135,600 z" fill-opacity="0" stroke="#6E5E4E" stroke-width="5"/>
    <path d="M188.335,696.665 L117.5,676.665 C110,687.5 74.17,764.16 69.17,785.83 C68.33,789.165 116.665,798.33 133.33,798.33 L188.335,696.665" fill="#FFFFFE"/>
    <path d="M188.335,696.665 L117.5,676.665 C110,687.5 74.17,764.16 69.17,785.83 C68.33,789.165 116.665,798.33 133.33,798.33 L188.335,696.665 z" fill-opacity="0" stroke="#6E5E4E" stroke-width="5"/>
    <path d="M210.835,612.5 C211.665,620 213.33,675 209.165,691.665 C215.835,699.165 251.665,704.16 274.165,695.83 C280.02,682.675 288.41,609.065 287.675,600.685 C284.395,602.505 215.625,613.02 210.835,612.5" fill="#F9D8B2"/>
    <path d="M210.835,612.5 C211.665,620 213.33,675 209.165,691.665 C215.835,699.165 251.665,704.16 274.165,695.83 C280.02,682.675 288.41,609.065 287.675,600.685 C284.395,602.505 215.625,613.02 210.835,612.5 z" fill-opacity="0" stroke="#6E5E4E" stroke-width="5"/>
    <path d="M274.165,695.83 C252.01,704.035 216.935,699.315 209.49,692.01 C209.375,691.9 209.27,691.78 209.165,691.665 C204.95,703.445 192.925,759.935 195.11,797.105 C205.315,795.645 257.065,790.18 261.8,790.91 C262.165,789.45 273.09,701.265 274.915,696.525" fill="#FFFFFE"/>
    <path d="M274.165,695.83 C252.01,704.035 216.935,699.315 209.49,692.01 C209.375,691.9 209.27,691.78 209.165,691.665 C204.95,703.445 192.925,759.935 195.11,797.105 C205.315,795.645 257.065,790.18 261.8,790.91 C262.165,789.45 273.09,701.265 274.915,696.525" fill-opacity="0" stroke="#6E5E4E" stroke-width="5"/>
    <path d="M261.8,790.91 C257.065,790.18 205.315,795.645 195.11,797.105 C191.25,805.415 177.085,843.33 195,841.665 C212.915,840 230,833.33 248.75,833.33 C267.5,833.33 300.835,827.08 315,808.33 C329.165,789.58 272.495,793.75 263.33,795 L261.8,790.91" fill="#B7B9C3"/>
    <path d="M261.8,790.91 C257.065,790.18 205.315,795.645 195.11,797.105 C191.25,805.415 177.085,843.33 195,841.665 C212.915,840 230,833.33 248.75,833.33 C267.5,833.33 300.835,827.08 315,808.33 C329.165,789.58 272.495,793.75 263.33,795 L261.8,790.91 z" fill-opacity="0" stroke="#6E5E4E" stroke-width="5"/>
    <path d="M80,495.83 C80,495.83 39.165,563.325 37.5,567.495 C47.5,579.995 69.165,595 95,601.665 C105.835,608.33 154.165,613.335 169.17,609.165 C175,614.165 226.67,619.995 239.17,617.495 C243.335,620.83 276.665,612.5 285,609.165 C292.5,611.665 334.165,602.5 342.5,594.165 C341.67,591.665 312.505,510 309.17,501.665 C305,504.995 84.17,489.165 84.17,489.165 C84.17,489.165 82.5,492.495 80,495.83" fill="#D7856D"/>
    <path d="M80,495.83 C80,495.83 39.165,563.325 37.5,567.495 C47.5,579.995 69.165,595 95,601.665 C105.835,608.33 154.165,613.335 169.17,609.165 C175,614.165 226.67,619.995 239.17,617.495 C243.335,620.83 276.665,612.5 285,609.165 C292.5,611.665 334.165,602.5 342.5,594.165 C341.67,591.665 312.505,510 309.17,501.665 C305,504.995 84.17,489.165 84.17,489.165 C84.17,489.165 82.5,492.495 80,495.83 z" fill-opacity="0" stroke="#6E5E4E" stroke-width="5"/>
    <path d="M120,528.33 C120,530.83 95,594.995 90,599.995" fill="#FFFFFE"/>
    <path d="M120,528.33 C120,530.83 95,594.995 90,599.995" fill-opacity="0" stroke="#6E5E4E" stroke-width="5"/>
    <path d="M188.335,545.83 C187.5,549.995 171.67,606.665 169.17,609.165" fill="#FFFFFE"/>
    <path d="M188.335,545.83 C187.5,549.995 171.67,606.665 169.17,609.165" fill-opacity="0" stroke="#6E5E4E" stroke-width="5"/>
    <path d="M238.335,554.995 C238.335,559.995 238.33,612.495 237.5,617.495" fill="#FFFFFE"/>
    <path d="M238.335,554.995 C238.335,559.995 238.33,612.495 237.5,617.495" fill-opacity="0" stroke="#6E5E4E" stroke-width="5"/>
    <path d="M275,553.33 C275,558.33 285.83,606.66 290,609.995" fill="#FFFFFE"/>
    <path d="M275,553.33 C275,558.33 285.83,606.66 290,609.995" fill-opacity="0" stroke="#6E5E4E" stroke-width="5"/>
    <path d="M578.335,638.33 C575,642.5 565.835,677.5 563.335,685 C567.5,687.5 600.835,695 615,694.165 L615.835,630.83 L578.335,638.33" fill="#F9D8B2"/>
    <path d="M578.335,638.33 C575,642.5 565.835,677.5 563.335,685 C567.5,687.5 600.835,695 615,694.165 L615.835,630.83 L578.335,638.33 z" fill-opacity="0" stroke="#6E5E4E" stroke-width="5"/>
    <path d="M615,694.165 C600.835,695 567.5,687.5 563.335,685 C559.165,697.5 554.995,728.335 554.165,742.5 C555,748.33 590,771.67 607.5,760 C610,755 618.335,721.665 615,694.165" fill="#FFFFFE"/>
    <path d="M615,694.165 C600.835,695 567.5,687.5 563.335,685 C559.165,697.5 554.995,728.335 554.165,742.5 C555,748.33 590,771.67 607.5,760 C610,755 618.335,721.665 615,694.165 z" fill-opacity="0" stroke="#6E5E4E" stroke-width="5"/>
    <path d="M607.5,760 C590,771.67 555,748.33 554.165,742.5 C548.335,738.33 499.995,709.16 494.165,718.33 C488.335,727.5 499.17,756.665 535,771.665 C570.83,786.665 613.335,795 607.5,760" fill="#EDA09C"/>
    <path d="M607.5,760 C590,771.67 555,748.33 554.165,742.5 C548.335,738.33 499.995,709.16 494.165,718.33 C488.335,727.5 499.17,756.665 535,771.665 C570.83,786.665 613.335,795 607.5,760 z" fill-opacity="0" stroke="#6E5E4E" stroke-width="5"/>
    <path d="M600.835,637.5 C601.665,643.33 604.995,682.495 614.165,700.83 C619.165,702.5 660.835,691.66 670.835,680.83 C670,678.33 664.165,637.5 663.335,620 C661.67,620.835 604.17,638.335 600.835,637.5" fill="#F9D8B2"/>
    <path d="M600.835,637.5 C601.665,643.33 604.995,682.495 614.165,700.83 C619.165,702.5 660.835,691.66 670.835,680.83 C670,678.33 664.165,637.5 663.335,620 C661.67,620.835 604.17,638.335 600.835,637.5 z" fill-opacity="0" stroke="#6E5E4E" stroke-width="5"/>
    <path d="M700.835,768.33 C692.505,762.495 673.335,693.33 670.835,680.83 C660.835,691.66 619.165,702.5 614.165,700.83 C616.665,713.33 634.17,760.83 645.835,785.83 L649.165,794.165 L677.5,795.83 L696.665,784.165 L700.835,768.33" fill="#FFFFFE"/>
    <path d="M700.835,768.33 C692.505,762.495 673.335,693.33 670.835,680.83 C660.835,691.66 619.165,702.5 614.165,700.83 C616.665,713.33 634.17,760.83 645.835,785.83 L649.165,794.165 L677.5,795.83 L696.665,784.165 L700.835,768.33 z" fill-opacity="0" stroke="#6E5E4E" stroke-width="5"/>
    <path d="M604.165,816.665 C600,819.165 589.17,830.835 595.835,837.5 C602.5,844.165 714.995,816.67 719.165,797.5 C723.335,778.33 705.005,768.33 700.835,768.33 C698.335,771.665 663.335,788.33 655.835,790.83 C655.835,790.83 609.995,807.5 604.165,816.665" fill="#EDA09C"/>
    <path d="M604.165,816.665 C600,819.165 589.17,830.835 595.835,837.5 C602.5,844.165 714.995,816.67 719.165,797.5 C723.335,778.33 705.005,768.33 700.835,768.33 C698.335,771.665 663.335,788.33 655.835,790.83 C655.835,790.83 609.995,807.5 604.165,816.665 z" fill-opacity="0" stroke="#6E5E4E" stroke-width="5"/>
    <path d="M642.5,781.665 L638.335,792.5 C638.335,792.5 596.15,816.855 600,819.165 C604.165,821.665 652.5,804.17 655,797.5 L655.835,786.665 L642.5,781.665" fill="#E2B3B4"/>
    <path d="M642.5,781.665 L638.335,792.5 C638.335,792.5 596.15,816.855 600,819.165 C604.165,821.665 652.5,804.17 655,797.5 L655.835,786.665 L642.5,781.665 z" fill-opacity="0" stroke="#6E5E4E" stroke-width="5"/>
    <path d="M550.835,728.33 L546.665,735 C546.665,735 503.335,713.33 500,716.665 C496.665,720 541.665,758.33 560,753.33 C563.335,750 565.835,742.5 565.835,742.5 L550.835,728.33" fill="#E2B3B4"/>
    <path d="M550.835,728.33 L546.665,735 C546.665,735 503.335,713.33 500,716.665 C496.665,720 541.665,758.33 560,753.33 C563.335,750 565.835,742.5 565.835,742.5 L550.835,728.33 z" fill-opacity="0" stroke="#6E5E4E" stroke-width="5"/>
    <path d="M650,30.83 C642.5,24.995 618.335,8.325 587.5,21.665 C556.665,34.995 506.67,59.165 500,74.995 C493.33,90.83 492.495,106.665 508.33,135.83 C524.165,164.995 580.83,243.325 581.665,261.665 C582.5,279.995 607.5,271.665 614.165,269.165 C620.83,266.665 645.835,254.995 677.5,254.995 C709.165,254.995 765.835,256.665 767.5,228.33 C769.165,199.995 730,54.165 697.5,38.33 C675.725,27.72 658.335,29.165 650,30.83" fill="#967A5F"/>
    <path d="M650,30.83 C642.5,24.995 618.335,8.325 587.5,21.665 C556.665,34.995 506.67,59.165 500,74.995 C493.33,90.83 492.495,106.665 508.33,135.83 C524.165,164.995 580.83,243.325 581.665,261.665 C582.5,279.995 607.5,271.665 614.165,269.165 C620.83,266.665 645.835,254.995 677.5,254.995 C709.165,254.995 765.835,256.665 767.5,228.33 C769.165,199.995 730,54.165 697.5,38.33 C675.725,27.72 658.335,29.165 650,30.83 z" fill-opacity="0" stroke="#6E5E4E" stroke-width="5"/>
    <path d="M748.75,247.915 C763.805,244.35 766.77,240.71 767.5,228.33 C769.165,199.995 730,54.165 697.5,38.33 C675.725,27.72 658.335,29.165 650,30.83 C646.355,28 638.795,22.61 628.44,19.35 C636.845,23.49 649.99,37.475 651.39,41.305 C664.97,33.255 694.98,42.185 700.315,51.085 C705.655,59.98 702.1,70.65 698.54,74.215 C694.98,77.77 685.195,81.33 679.86,84 C674.52,86.665 662.07,87.555 658.51,88.445 C666.25,114.165 706.135,105.58 721.25,102.915 C727.475,107.365 743.75,154.165 755,237.915 L748.75,247.915" fill="#CFBFAD"/>
    <path d="M650,30.83 C642.5,24.995 618.335,8.325 587.5,21.665 C556.665,34.995 506.67,59.165 500,74.995 C493.33,90.83 492.495,106.665 508.33,135.83 C524.165,164.995 580.83,243.325 581.665,261.665 C582.5,279.995 607.5,271.665 614.165,269.165 C620.83,266.665 645.835,254.995 677.5,254.995 C709.165,254.995 765.835,256.665 767.5,228.33 C769.165,199.995 730,54.165 697.5,38.33 C675.725,27.72 658.335,29.165 650,30.83 z" fill-opacity="0" stroke="#6E5E4E" stroke-width="5"/>
    <path d="M345,324.995 C340.835,329.165 309.165,339.165 294.165,343.33 C293.335,371.665 309.165,422.495 309.165,428.33 C309.165,434.165 312.495,505 314.165,514.165 C295.835,524.995 208.33,543.325 98.33,492.495 C101.68,482.45 82.125,493.6 165,262.915 C165,262.915 277.5,234.995 320,270.83 C335,282.495 343.335,317.495 345,324.995" fill="#FFFFFE"/>
    <path d="M345,324.995 C340.835,329.165 309.165,339.165 294.165,343.33 C293.335,371.665 309.165,422.495 309.165,428.33 C309.165,434.165 312.495,505 314.165,514.165 C295.835,524.995 208.33,543.325 98.33,492.495 C101.68,482.45 82.125,493.6 165,262.915 C165,262.915 277.5,234.995 320,270.83 C335,282.495 343.335,317.495 345,324.995 z" fill-opacity="0" stroke="#6E5E4E" stroke-width="5"/>
    <path d="M581.665,615.83 C581.585,616.065 581.445,616.475 581.25,617.025 C579.345,622.355 572.5,640.83 572.5,640.83 C572.5,640.83 589.165,644.995 597.5,643.33 C605.835,641.665 589.165,616.665 589.165,616.665 L581.665,615.83" fill="#97CB93"/>
    <path d="M581.665,615.83 C581.585,616.065 581.445,616.475 581.25,617.025 C579.345,622.355 572.5,640.83 572.5,640.83 C572.5,640.83 589.165,644.995 597.5,643.33 C605.835,641.665 589.165,616.665 589.165,616.665 L581.665,615.83 z" fill-opacity="0" stroke="#6E5E4E" stroke-width="5"/>
    <path d="M207.5,54.165 C223.33,32.495 259.17,12.5 275.835,10.835 C292.5,9.165 365,18.33 347.5,94.995 C330,171.665 209.165,307.495 165,274.995 C157.775,269.68 110.855,250.32 127.5,158.335 C143.33,70.835 183.335,55.835 207.5,54.165" fill="#967A5F"/>
    <path d="M207.5,54.165 C223.33,32.495 259.17,12.5 275.835,10.835 C292.5,9.165 365,18.33 347.5,94.995 C330,171.665 209.165,307.495 165,274.995 C157.775,269.68 110.855,250.32 127.5,158.335 C143.33,70.835 183.335,55.835 207.5,54.165 z" fill-opacity="0" stroke="#6E5E4E" stroke-width="5"/>
    <path d="M336.89,125.115 C341.735,114.475 345.375,104.3 347.5,94.995 C365,18.33 292.5,9.165 275.835,10.835 C269.875,11.43 261.45,14.37 252.37,18.9 C262.5,19.165 281.25,21.665 281.25,21.665 C286.25,20.415 358.78,32.31 336.89,125.115" fill="#CFBFAD"/>
    <path d="M207.5,54.165 C223.33,32.495 259.17,12.5 275.835,10.835 C292.5,9.165 365,18.33 347.5,94.995 C330,171.665 209.165,307.495 165,274.995 C157.775,269.68 110.855,250.32 127.5,158.335 C143.33,70.835 183.335,55.835 207.5,54.165 z" fill-opacity="0" stroke="#6E5E4E" stroke-width="5"/>
    <path d="M307.5,269.165 C317.5,272.495 365.83,250.83 371.665,225.83 C364.165,227.495 333.45,212.855 351.665,182.495 C353.87,178.82 362.25,178.71 371.135,181.605 C382.38,185.265 394.44,193.725 395.835,205.83 C406.665,192.495 415.835,163.325 398.335,154.165 C404.165,148.33 420,114.995 385,133.33 C385,129.995 352.5,90.825 322.5,89.165 C292.5,87.495 235,82.495 206.665,140.83 C178.33,199.165 192.5,248.325 230,264.165" fill="#F9D8B2"/>
    <path d="M307.5,269.165 C317.5,272.495 365.83,250.83 371.665,225.83 C364.165,227.495 333.45,212.855 351.665,182.495 C353.87,178.82 362.25,178.71 371.135,181.605 C382.38,185.265 394.44,193.725 395.835,205.83 C406.665,192.495 415.835,163.325 398.335,154.165 C404.165,148.33 420,114.995 385,133.33 C385,129.995 352.5,90.825 322.5,89.165 C292.5,87.495 235,82.495 206.665,140.83 C178.33,199.165 192.5,248.325 230,264.165" fill-opacity="0" stroke="#6E5E4E" stroke-width="5" stroke-linejoin="bevel"/>
    <path d="M186.665,255.835 C199.16,275.835 238.335,276.665 250.835,276.665 C263.335,276.665 271.665,274.995 270.835,268.335 C277.505,270.835 295.835,272.495 301.665,262.495 C301.665,262.495 284.165,249.995 281.665,241.665 C286.665,249.995 310.835,249.995 312.5,247.495 C305,241.665 302.5,209.995 306.665,189.995 C310.83,169.995 308.335,162.495 306.665,159.995 C306.665,159.995 314.165,165.835 316.665,171.665 C334.165,132.495 329.165,98.335 326.665,91.665 C329.165,91.665 347.5,97.495 347.5,97.495 C345,90.83 331.665,77.495 326.665,74.995 C326.665,74.995 263.335,51.665 255,53.335 C246.665,54.995 165,90 158.33,108.335 C151.665,126.665 161.665,173.335 163.33,193.335 C165,213.335 175,236.665 175,236.665 L186.665,255.835" fill="#967A5F"/>
    <path d="M313.335,443.33 C309.17,453.33 292.505,489.165 256.67,489.165 L267.5,497.495 C289.83,495.715 308.065,504.585 339.17,445.83 L313.335,443.33" fill="#D55441"/>
    <path d="M313.335,443.33 C309.17,453.33 292.505,489.165 256.67,489.165 L267.5,497.495 C289.83,495.715 308.065,504.585 339.17,445.83 L313.335,443.33 z" fill-opacity="0" stroke="#6E5E4E" stroke-width="5"/>
    <path d="M345,324.995 C340.835,329.165 309.165,339.165 294.165,343.33 C293.335,359.995 303.335,429.995 310,443.33 C316.665,456.665 355.83,479.995 439.165,494.995 C440.835,499.995 464.165,499.165 464.165,499.165 C464.165,499.165 464.995,504.995 469.165,503.33 C473.335,501.665 486.665,490.83 484.165,473.33 C481.665,455.83 457.505,449.165 433.335,445.83 C409.165,442.495 368.33,417.495 364.165,410.83 C360,404.165 345.835,327.495 345,324.995" fill="#F9D8B2"/>
    <path d="M345,324.995 C340.835,329.165 309.165,339.165 294.165,343.33 C293.335,359.995 303.335,429.995 310,443.33 C316.665,456.665 355.83,479.995 439.165,494.995 C440.835,499.995 464.165,499.165 464.165,499.165 C464.165,499.165 464.995,504.995 469.165,503.33 C473.335,501.665 486.665,490.83 484.165,473.33 C481.665,455.83 457.505,449.165 433.335,445.83 C409.165,442.495 368.33,417.495 364.165,410.83 C360,404.165 345.835,327.495 345,324.995 z" fill-opacity="0" stroke="#6E5E4E" stroke-width="5"/>
    <path d="M324.165,275.83 C315.835,279.165 300.835,288.33 287.5,318.33 C281.665,315.83 256.67,298.33 253.335,295.83 C260.835,287.495 284.165,263.335 304.165,259.995 C307.5,260.83 319.995,269.995 324.165,275.83" fill="#D55441"/>
    <path d="M324.165,275.83 C315.835,279.165 300.835,288.33 287.5,318.33 C281.665,315.83 256.67,298.33 253.335,295.83 C260.835,287.495 284.165,263.335 304.165,259.995 C307.5,260.83 319.995,269.995 324.165,275.83 z" fill-opacity="0" stroke="#6E5E4E" stroke-width="5" stroke-linejoin="bevel"/>
    <path d="M345,324.995 C340.835,329.165 309.165,339.165 294.165,343.33" fill="#FFFFFE"/>
    <path d="M345,324.995 C340.835,329.165 309.165,339.165 294.165,343.33" fill-opacity="0" stroke="#6E5E4E" stroke-width="5"/>
    <path d="M296.67,471.665 L311.67,483.33 L300,493.33 L286.67,481.665 L296.67,471.665" fill="#D55441"/>
    <path d="M296.67,471.665 L311.67,483.33 L300,493.33 L286.67,481.665 L296.67,471.665 z" fill-opacity="0" stroke="#6E5E4E" stroke-width="5" stroke-linejoin="bevel"/>
    <path d="M240.835,296.665 C250.455,298.04 280.835,290.83 283.335,294.995 C285.835,299.165 289.165,299.165 290,308.335 C290.835,317.495 289.165,321.665 289.165,321.665 L234.165,338.33 C234.165,338.33 220,348.335 222.5,328.335 C225,308.335 235.005,295.835 240.835,296.665" fill="#9C9691"/>
    <path d="M300,493.33 C300,493.33 261.67,515.825 256.67,514.995 L286.67,481.665 L300,493.33" fill="#D55441"/>
    <path d="M300,493.33 C300,493.33 261.67,515.825 256.67,514.995 L286.67,481.665 L300,493.33 z" fill-opacity="0" stroke="#6E5E4E" stroke-width="5" stroke-linejoin="bevel"/>
    <path d="M292.74,316.195 C289.385,316.93 241.705,322.14 236.55,326.985 C235.51,333.62 211.71,484.63 211.43,493.79 C226.375,495.915 270.7,491.43 276.63,488.285 C280.21,480.06 296.32,335.485 292.74,316.195" fill="#D55441"/>
    <path d="M292.74,316.195 C289.385,316.93 241.705,322.14 236.55,326.985 C235.51,333.62 211.71,484.63 211.43,493.79 C226.375,495.915 270.7,491.43 276.63,488.285 C280.21,480.06 296.32,335.485 292.74,316.195 z" fill-opacity="0" stroke="#6E5E4E" stroke-width="5" stroke-linejoin="bevel"/>
    <path d="M131.67,487.495 L181.67,320.83 L234.17,327.495 C233.335,334.165 214.17,485.825 214.17,494.995 C219.17,494.165 213.335,498.33 213.335,498.33 L211.67,495.83 L131.67,487.495" fill="#D55441"/>
    <path d="M131.67,487.495 L181.67,320.83 L234.17,327.495 C233.335,334.165 214.17,485.825 214.17,494.995 C219.17,494.165 213.335,498.33 213.335,498.33 L211.67,495.83 L131.67,487.495 z" fill-opacity="0" stroke="#6E5E4E" stroke-width="5" stroke-linejoin="bevel"/>
    <path d="M232.5,340.83 C235,340.83 285,335.83 292.5,333.33 L291.67,345.83 C281.67,349.165 241.665,355.835 232.5,356.665 L232.5,340.83" fill="#D55441"/>
    <path d="M232.5,340.83 C235,340.83 285,335.83 292.5,333.33 L291.67,345.83 C281.67,349.165 241.665,355.835 232.5,356.665 L232.5,340.83 z" fill-opacity="0" stroke="#6E5E4E" stroke-width="5" stroke-linejoin="bevel"/>
    <path d="M289.17,299.165 C284.875,292.6 280,284.165 270,280.83 C257.96,276.815 145.835,265.83 111.67,271.665 C96.67,280.83 33.33,305.825 12.5,479.995 C24.17,489.165 110.84,498.33 186.67,505.83 C187.5,494.995 228.5,314.06 245,304.165 C261.67,294.165 279.17,291.665 289.17,299.165" fill="#D55441"/>
    <path d="M289.17,299.165 C284.875,292.6 280,284.165 270,280.83 C257.96,276.815 145.835,265.83 111.67,271.665 C96.67,280.83 33.33,305.825 12.5,479.995 C24.17,489.165 110.84,498.33 186.67,505.83 C187.5,494.995 228.5,314.06 245,304.165 C261.67,294.165 279.17,291.665 289.17,299.165 z" fill-opacity="0" stroke="#6E5E4E" stroke-width="5" stroke-linejoin="bevel"/>
    <path d="M289.17,299.165 C290,301.665 290.83,309.165 290,318.33" fill="#FFFFFE"/>
    <path d="M289.17,299.165 C290,301.665 290.83,309.165 290,318.33 M326.665,74.995 C331.665,77.495 345,90.83 347.5,97.495 C347.5,97.495 329.165,91.665 326.665,91.665 C329.165,98.335 334.165,132.495 316.665,171.665 C314.165,165.835 306.665,159.995 306.665,159.995 C308.335,162.495 310.83,169.995 306.665,189.995 C302.5,209.995 305,241.665 312.5,247.495 C310.835,249.995 286.665,249.995 281.665,241.665 C284.165,249.995 301.665,262.495 301.665,262.495 C295.835,272.495 277.505,270.835 270.835,268.335 C271.665,274.995 263.335,276.665 250.835,276.665 C238.335,276.665 199.16,275.835 186.665,255.835" fill-opacity="0" stroke="#6E5E4E" stroke-width="5"/>
    <path d="M185.835,272.495 C180.835,270.83 161.67,248.335 161.67,243.335" fill-opacity="0" stroke="#6E5E4E" stroke-width="5" stroke-linejoin="bevel"/>
    <path d="M570.835,496.665 C570,505.83 564.995,604.16 591.665,643.33 C600,645.83 638.335,646.66 685.835,623.33 C687.5,618.33 679.17,591.67 680.835,582.5 C684.165,578.33 693.335,554.165 693.335,554.165 C716.665,546.665 747.5,511.665 737.5,489.165 C727.5,466.665 732.5,475.83 732.5,475.83 C730,479.165 575.835,496.665 570.835,496.665" fill="#97CB93"/>
    <path d="M570.835,496.665 C570,505.83 564.995,604.16 591.665,643.33 C600,645.83 638.335,646.66 685.835,623.33 C687.5,618.33 679.17,591.67 680.835,582.5 C684.165,578.33 693.335,554.165 693.335,554.165 C716.665,546.665 747.5,511.665 737.5,489.165 C727.5,466.665 732.5,475.83 732.5,475.83 C730,479.165 575.835,496.665 570.835,496.665 z M710.835,506.665 C709.165,514.165 694.17,547.495 678.335,555.83 C678.335,555.83 680.835,576.67 680.835,582.5" fill-opacity="0" stroke="#6E5E4E" stroke-width="5"/>
    <path d="M823.335,420.83 C838.335,423.335 855.835,433.33 858.335,434.165 C857.505,441.665 868.335,458.33 872.5,460.83 C876.665,463.33 895,485.83 900.835,488.33 C906.67,490.83 908.33,481.66 904.165,474.995 C909.165,474.165 920.005,469.16 918.335,464.995 C925.835,461.665 928.33,449.165 926.665,446.665 C930.835,445.83 934.165,438.33 932.5,433.33 C935,432.495 937.505,420.83 933.335,417.495 C929.165,414.16 886.665,384.995 867.5,402.495 C864.165,400.83 824.165,380.83 824.165,380.83 L823.335,420.83" fill="#F9D8B2"/>
    <path d="M823.335,420.83 C838.335,423.335 855.835,433.33 858.335,434.165 C857.505,441.665 868.335,458.33 872.5,460.83 C876.665,463.33 895,485.83 900.835,488.33 C906.67,490.83 908.33,481.66 904.165,474.995 C909.165,474.165 920.005,469.16 918.335,464.995 C925.835,461.665 928.33,449.165 926.665,446.665 C930.835,445.83 934.165,438.33 932.5,433.33 C935,432.495 937.505,420.83 933.335,417.495 C929.165,414.16 886.665,384.995 867.5,402.495 C864.165,400.83 824.165,380.83 824.165,380.83 L823.335,420.83 z" fill-opacity="0" stroke="#6E5E4E" stroke-width="5"/>
    <path d="M879.165,516.665 C871.665,467.5 892.5,454.995 895.835,451.665 L900,455.83 C897.5,459.165 881.665,490.825 894.165,512.495 C905.835,508.33 967.495,468.335 971.665,461.665 C975,450.83 973.33,394.165 929.165,413.33 L922.5,418.33 L917.5,414.165 C927.5,404.995 943.33,393.325 961.665,399.995 C980,406.665 990,431.665 990,448.33 C996.665,445.83 1010.005,444.995 1020.835,470.83 C1031.665,496.665 1058.335,498.335 1063.335,521.665 C1068.335,544.995 1065.83,579.995 1004.165,619.995 C942.5,659.995 895.83,648.33 881.665,623.33 C867.5,598.33 873.335,579.16 868.335,562.495 C863.335,545.83 852.5,539.165 859.165,530.83 C865.83,522.495 879.165,516.665 879.165,516.665" fill="#FCD360"/>
    <path d="M879.165,516.665 C871.665,467.5 892.5,454.995 895.835,451.665 L900,455.83 C897.5,459.165 881.665,490.825 894.165,512.495 C905.835,508.33 967.495,468.335 971.665,461.665 C975,450.83 973.33,394.165 929.165,413.33 L922.5,418.33 L917.5,414.165 C927.5,404.995 943.33,393.325 961.665,399.995 C980,406.665 990,431.665 990,448.33 C996.665,445.83 1010.005,444.995 1020.835,470.83 C1031.665,496.665 1058.335,498.335 1063.335,521.665 C1068.335,544.995 1065.83,579.995 1004.165,619.995 C942.5,659.995 895.83,648.33 881.665,623.33 C867.5,598.33 873.335,579.16 868.335,562.495 C863.335,545.83 852.5,539.165 859.165,530.83 C865.83,522.495 879.165,516.665 879.165,516.665 z" fill-opacity="0" stroke="#6E5E4E" stroke-width="5"/>
    <path d="M904.165,474.995 C909.165,474.165 920.005,469.16 918.335,464.995 C925.835,461.665 928.33,449.165 926.665,446.665 C930.835,445.83 934.165,438.33 932.5,433.33 C935,432.495 937.505,420.83 933.335,417.495 C933.335,417.495 909.165,405.825 906.665,409.995 C904.165,414.165 909.165,419.165 911.665,421.665 C905,419.995 899.165,425.83 901.665,430.83 C904.165,435.83 913.335,442.495 913.335,442.495 C910,440.83 899.995,437.495 896.665,438.33 C893.335,439.165 891.665,444.165 901.665,451.665 C898.335,450.83 895.005,446.66 890.835,449.995 C886.665,453.33 886.665,469.16 904.165,474.995" fill="#F9D8B2"/>
    <path d="M904.165,474.995 C909.165,474.165 920.005,469.16 918.335,464.995 C925.835,461.665 928.33,449.165 926.665,446.665 C930.835,445.83 934.165,438.33 932.5,433.33 C935,432.495 937.505,420.83 933.335,417.495 C933.335,417.495 909.165,405.825 906.665,409.995 C904.165,414.165 909.165,419.165 911.665,421.665 C905,419.995 899.165,425.83 901.665,430.83 C904.165,435.83 913.335,442.495 913.335,442.495 C910,440.83 899.995,437.495 896.665,438.33 C893.335,439.165 891.665,444.165 901.665,451.665 C898.335,450.83 895.005,446.66 890.835,449.995 C886.665,453.33 886.665,469.16 904.165,474.995 z" fill-opacity="0" stroke="#6E5E4E" stroke-width="5"/>
    <path d="M900.205,450.995 C900.205,450.995 914.17,464.16 918.335,464.995" fill="#FFFFFE"/>
    <path d="M900.205,450.995 C900.205,450.995 914.17,464.16 918.335,464.995" fill-opacity="0" stroke="#6E5E4E" stroke-width="5"/>
    <path d="M913.335,442.495 C917.5,444.995 924.995,445.835 926.665,446.665" fill="#FFFFFE"/>
    <path d="M913.335,442.495 C917.5,444.995 924.995,445.835 926.665,446.665" fill-opacity="0" stroke="#6E5E4E" stroke-width="5"/>
    <path d="M912.815,422.255 C912.815,422.255 927.96,431.39 931.295,432.225" fill="#FFFFFE"/>
    <path d="M912.815,422.255 C912.815,422.255 927.96,431.39 931.295,432.225" fill-opacity="0" stroke="#6E5E4E" stroke-width="5"/>
    <path d="M885,429.165 C887.5,429.995 893.215,438.62 894.05,442.785" fill="#FFFFFE"/>
    <path d="M885,429.165 C887.5,429.995 893.215,438.62 894.05,442.785" fill-opacity="0" stroke="#6E5E4E" stroke-width="5"/>
    <path d="M486.665,169.995 C483.33,166.665 466.665,156.665 481.665,180.83" fill="#F9D8B2"/>
    <path d="M486.665,169.995 C483.33,166.665 466.665,156.665 481.665,180.83" fill-opacity="0" stroke="#6E5E4E" stroke-width="5"/>
    <path d="M554.165,259.995 C565,254.165 620,233.33 630,237.495 C640,241.665 726.665,321.66 731.665,347.495 C736.665,373.33 755.835,466.665 760,475.83 C764.165,484.995 764.995,484.995 753.33,489.995 C741.665,494.995 592.5,505 565,501.665 C560,493.33 550,404.16 550,382.495 C550,360.83 554.165,259.995 554.165,259.995" fill="#F5C4AD"/>
    <path d="M554.165,259.995 C565,254.165 620,233.33 630,237.495 C640,241.665 726.665,321.66 731.665,347.495 C736.665,373.33 755.835,466.665 760,475.83 C764.165,484.995 764.995,484.995 753.33,489.995 C741.665,494.995 592.5,505 565,501.665 C560,493.33 550,404.16 550,382.495 C550,360.83 554.165,259.995 554.165,259.995 z" fill-opacity="0" stroke="#6E5E4E" stroke-width="5"/>
    <path d="M570.835,361.665 C575,380.83 592.495,430 601.665,441.665 C601.665,441.665 617.5,461.66 627.5,462.495 C626.665,468.33 597.505,484.165 580.835,469.165 C564.165,454.165 548.33,410.83 546.665,395.83 L570.835,361.665" fill="#D55441"/>
    <path d="M570.835,361.665 C575,380.83 592.495,430 601.665,441.665 C601.665,441.665 617.5,461.66 627.5,462.495 C626.665,468.33 597.505,484.165 580.835,469.165 C564.165,454.165 548.33,410.83 546.665,395.83 L570.835,361.665 z" fill-opacity="0" stroke="#6E5E4E" stroke-width="5"/>
    <path d="M518.33,336.665 C516.665,339.995 493.33,385.83 493.33,385.83 C493.33,385.83 447.5,429.165 444.165,431.665 C439.165,434.165 412.5,431.665 410,436.665 C407.5,441.665 415.835,446.665 422.5,451.665 C421.665,455.83 394.165,487.495 394.165,487.495 C394.165,487.495 389.37,506.275 416.87,492.945 C416.04,498.78 420.23,512.4 437.73,497.405 C434.34,504.89 442.185,512.735 451.635,501.86 C451.78,501.69 454.305,498.64 454.13,499.185 C451.28,508.1 460.55,512.02 469.165,494.995 C473.33,491.665 480,474.165 480,474.165 C494.165,469.165 543.33,425.83 548.33,415.83 C553.33,405.83 568.33,363.325 570.83,352.495 L518.33,336.665" fill="#F9D8B2"/>
    <path d="M518.33,336.665 C516.665,339.995 493.33,385.83 493.33,385.83 C493.33,385.83 447.5,429.165 444.165,431.665 C439.165,434.165 412.5,431.665 410,436.665 C407.5,441.665 415.835,446.665 422.5,451.665 C421.665,455.83 394.165,487.495 394.165,487.495 C394.165,487.495 389.37,506.275 416.87,492.945 C416.04,498.78 420.23,512.4 437.73,497.405 C434.34,504.89 442.185,512.735 451.635,501.86 C451.78,501.69 454.305,498.64 454.13,499.185 C451.28,508.1 460.55,512.02 469.165,494.995 C473.33,491.665 480,474.165 480,474.165 C494.165,469.165 543.33,425.83 548.33,415.83 C553.33,405.83 568.33,363.325 570.83,352.495 L518.33,336.665 z" fill-opacity="0" stroke="#6E5E4E" stroke-width="5" stroke-linejoin="bevel"/>
    <path d="M518.33,106.665 C508.33,118.33 474.995,186.665 478.33,197.495 C481.665,208.33 491.665,219.165 491.665,219.165 C499.165,217.495 507.495,207.495 513.33,200.83 C519.165,194.165 525,204.165 517.5,218.33 C510,232.495 506.665,233.33 506.665,233.33 C509.165,240.83 530,254.995 565,240.83 L573.125,266.245 L605.625,242.08 C605.625,242.08 600.83,155.835 603.33,134.995 C605.83,114.165 537.495,92.495 518.33,106.665" fill="#F9D8B2"/>
    <path d="M518.33,106.665 C508.33,118.33 474.995,186.665 478.33,197.495 C481.665,208.33 491.665,219.165 491.665,219.165 C499.165,217.495 507.495,207.495 513.33,200.83 C519.165,194.165 525,204.165 517.5,218.33 C510,232.495 506.665,233.33 506.665,233.33 C509.165,240.83 530,254.995 565,240.83 L573.125,266.245 L605.625,242.08 C605.625,242.08 600.83,155.835 603.33,134.995 C605.83,114.165 537.495,92.495 518.33,106.665 z" fill-opacity="0" stroke="#6E5E4E" stroke-width="5"/>
    <path d="M588.75,263.54 C583.75,259.375 546.66,255.83 523.33,288.33 C500,320.83 496.665,338.33 496.665,338.33 C506.665,338.33 558.335,354.995 570,368.33 C572.5,364.165 582.495,341.665 583.33,336.665" fill="#F5C4AD"/>
    <path d="M588.75,263.54 C583.75,259.375 546.66,255.83 523.33,288.33 C500,320.83 496.665,338.33 496.665,338.33 C506.665,338.33 558.335,354.995 570,368.33 C572.5,364.165 582.495,341.665 583.33,336.665" fill-opacity="0" stroke="#6E5E4E" stroke-width="5"/>
    <path d="M530.83,279.165 C545.83,275.83 569.995,265.83 590.83,313.33 C591.665,310.83 598.33,286.665 598.33,286.665 C592.5,277.495 554.16,239.995 530.83,279.165" fill="#D55441"/>
    <path d="M530.83,279.165 C545.83,275.83 569.995,265.83 590.83,313.33 C591.665,310.83 598.33,286.665 598.33,286.665 C592.5,277.495 554.16,239.995 530.83,279.165 z" fill-opacity="0" stroke="#6E5E4E" stroke-width="5"/>
    <path d="M600.835,451.665 C604.165,458.33 624.165,484.165 630,488.33 C631.665,492.495 621.665,496.665 612.5,491.665 C603.335,486.665 584.165,461.665 584.165,461.665 L597.5,447.495 L600.835,451.665" fill="#D55441"/>
    <path d="M600.835,451.665 C604.165,458.33 624.165,484.165 630,488.33 C631.665,492.495 621.665,496.665 612.5,491.665 C603.335,486.665 584.165,461.665 584.165,461.665 L597.5,447.495 L600.835,451.665 z" fill-opacity="0" stroke="#6E5E4E" stroke-width="5"/>
    <path d="M599.165,438.33 L575.835,464.165 L580.835,469.165 L605,446.665 L600.835,438.33" fill="#D55441"/>
    <path d="M599.165,438.33 L575.835,464.165 L580.835,469.165 L605,446.665 L600.835,438.33" fill-opacity="0" stroke="#6E5E4E" stroke-width="5"/>
    <path d="M362.585,138.11 C363.985,144.88 363.645,150.66 361.84,151.025 C360.035,151.395 357.445,146.215 356.06,139.46 C354.665,132.69 355,126.91 356.805,126.54 C358.605,126.165 361.195,131.355 362.585,138.11" fill="#6E5E4E"/>
    <path d="M515.425,148.505 C513.925,155.25 511.24,160.375 509.45,159.975 C507.645,159.57 507.415,153.785 508.93,147.05 C510.435,140.31 513.115,135.175 514.91,135.58 C516.705,135.98 516.94,141.775 515.425,148.505" fill="#6E5E4E"/>
    <path d="M539.165,52.495 C535,51.665 515,70.825 511.665,76.665" fill-opacity="0" stroke="#6E5E4E" stroke-width="5"/>
    <path d="M596.665,282.495 C581.665,259.995 569.165,214.995 566.665,203.33 C560,241.665 523.33,277.495 514.165,286.665 C518.33,279.995 535.83,234.165 543.33,214.995 C550.83,195.835 551.665,169.995 550,164.995 C548.335,159.995 515,109.995 510.83,98.33 L570,63.335 L651.665,96.665 L646.665,139.995 L698.33,201.665 L690,249.995 L596.665,282.495" fill="#967A5F"/>
    <path d="M510.83,98.33 C515,109.995 548.335,159.995 550,164.995 C551.665,169.995 550.83,195.835 543.33,214.995 C535.83,234.165 518.33,279.995 514.165,286.665 C523.33,277.495 560,241.665 566.665,203.33 C569.165,214.995 581.665,259.995 596.665,282.495 M593.33,124.995 C596.665,130.83 620.83,225.825 618.33,244.165 M664.165,165.83 C666.665,173.33 665.83,232.495 663.33,236.665 M708.33,115.83 C714.165,125.83 725,218.335 720,234.995" fill-opacity="0" stroke="#6E5E4E" stroke-width="5"/>
    <path d="M631.995,238.355 C629.11,240.045 605.48,258.72 602.635,262.51 C599.795,266.3 596.49,275.3 596.96,277.66 C597.425,280.035 687.405,288.08 687.88,286.66 C688.355,285.24 685.985,260.615 683.145,257.3 C680.305,253.985 637.675,235.045 631.995,238.355" fill="#9C9691"/>
    <path d="M671.665,455.83 C671.69,455.71 671.695,455.45 671.685,455.065 C671.29,442.435 651.765,292.64 655,269.995 C655,269.995 688.335,268.33 690.835,268.33 C693.335,268.33 718.335,452.495 718.335,452.495 L671.69,455.71" fill="#D55441"/>
    <path d="M671.665,455.83 C671.69,455.71 671.695,455.45 671.685,455.065 C671.29,442.435 651.765,292.64 655,269.995 C655,269.995 688.335,268.33 690.835,268.33 C693.335,268.33 718.335,452.495 718.335,452.495 L671.69,455.71" fill-opacity="0" stroke="#6E5E4E" stroke-width="5"/>
    <path d="M599.165,276.665 C602.5,266.665 614.86,246.635 631.525,248.305 C648.19,249.965 664.995,251.665 669.165,279.995 C673.335,308.33 690.835,374.995 687.5,467.495 C695.835,474.995 826.665,465.83 842.5,460.83 C845.835,441.665 824.17,240.825 795.835,231.665 C767.5,222.495 635.025,227.535 616.665,241.665 C605.835,249.995 596.665,264.165 590.835,278.33 L599.165,276.665" fill="#D55441"/>
    <path d="M599.165,276.665 C602.5,266.665 614.86,246.635 631.525,248.305 C648.19,249.965 664.995,251.665 669.165,279.995 C673.335,308.33 690.835,374.995 687.5,467.495 C695.835,474.995 826.665,465.83 842.5,460.83 C845.835,441.665 824.17,240.825 795.835,231.665 C767.5,222.495 635.025,227.535 616.665,241.665 C605.835,249.995 596.665,264.165 590.835,278.33 L599.165,276.665 z" fill-opacity="0" stroke="#6E5E4E" stroke-width="5" stroke-linejoin="bevel"/>
    <path d="M598.335,274.165 C590.835,274.165 586.665,289.995 591.665,355.83 C596.665,421.665 602.5,463.33 602.5,463.33 C607.5,464.995 671.665,455.83 671.665,455.83 C672.5,451.665 651.665,293.335 655,269.995 C655,269.995 600.835,274.995 598.335,274.165" fill="#D55441"/>
    <path d="M598.335,274.165 C590.835,274.165 586.665,289.995 591.665,355.83 C596.665,421.665 602.5,463.33 602.5,463.33 C607.5,464.995 671.665,455.83 671.665,455.83 C672.5,451.665 651.665,293.335 655,269.995 C655,269.995 600.835,274.995 598.335,274.165 z M1005,499.165 C1005,499.165 972.5,554.165 957.5,569.165" fill-opacity="0" stroke="#6E5E4E" stroke-width="5"/>
    <path d="M374.36,165.06 C374.36,171.295 367.52,176.355 359.08,176.355 C350.65,176.355 343.81,171.295 343.81,165.06 C343.81,158.825 350.65,153.765 359.08,153.765 C367.52,153.765 374.36,158.825 374.36,165.06" fill="#F3BCAA"/>
    <path d="M528.45,177.015 C528.45,183.245 521.61,188.305 513.175,188.305 C504.74,188.305 497.9,183.245 497.9,177.015 C497.9,170.775 504.74,165.725 513.175,165.725 C521.61,165.725 528.45,170.775 528.45,177.015" fill="#F3BCAA"/>
    <path d="M588.535,297.455 L655.585,295.3 L670.73,290.97 L673.975,308.275 L656.67,309.355 L587.45,312.605 L588.535,297.455" fill="#D55441"/>
    <path d="M588.535,297.455 L655.585,295.3 L670.73,290.97 L673.975,308.275 L656.67,309.355 L587.45,312.605 L588.535,297.455 z" fill-opacity="0" stroke="#6E5E4E" stroke-width="5" stroke-linejoin="bevel"/>
    <path d="M658.83,294.215 L659.91,308.275" fill="#D55441"/>
    <path d="M658.83,294.215 L659.91,308.275" fill-opacity="0" stroke="#6E5E4E" stroke-width="5" stroke-linejoin="bevel"/>
  </g>
<script xmlns=""/></svg>