<?xml version="1.0" encoding="UTF-8"?>
<!DOCTYPE svg PUBLIC "-//W3C//DTD SVG 1.1//EN" "http://www.w3.org/Graphics/SVG/1.1/DTD/svg11.dtd">
<svg version="1.1" xmlns="http://www.w3.org/2000/svg" xmlns:xlink="http://www.w3.org/1999/xlink" x="0" y="0" width="580" height="500" viewBox="0, 0, 580, 500">
  <g id="Layer_1">
    <path d="M500.391,218.25 C506.437,203.586 509.055,186.711 507.055,167.305 C493.469,35.641 343.906,30.063 307.766,28.977 C271.633,27.898 53.352,25.828 51.172,178.484 C50.953,194.289 51.688,203.258 55.984,215.664 L112.672,284 L135.984,294.828 C135.984,294.828 199.734,317.328 281.828,315.664 C363.922,314 474.367,275.422 500.391,218.25" fill="#FFFFFE"/>
    <path d="M93.5,441.492 C93.5,441.492 0.164,198.992 27.672,199.828 C55.172,200.664 129.328,304.828 129.328,317.328 C129.328,329.828 82.672,343.992 82.672,343.992 L112.672,429.828 L93.5,441.492" fill="#C2C3C0"/>
    <path d="M455.172,430.664 C483.07,437.148 497.672,445.476 497.672,454.414 C497.672,475.359 406.062,492.328 293.078,492.328 C180.094,492.328 88.5,475.359 88.5,454.414 C88.5,444.664 108.359,435.773 141.008,429.055" fill="#FFFFFE"/>
    <path d="M141,385.664 C119.328,362.328 151,321.5 151,321.5 L419.75,306.914 C419.75,306.914 443.078,353.586 443.5,361.5 C443.922,369.414 433.5,384.836 433.5,384.836 C433.5,384.836 368.078,346.492 295.172,348.164 C222.25,349.836 141,385.664 141,385.664" fill="#FFFFFE"/>
    <path d="M417.672,305.664 C417.672,305.664 438.5,329 441.828,360.664" fill="#FFFFFE"/>
    <path d="M235.383,157.984 C235.383,191.227 207.883,218.172 173.969,218.172 C140.047,218.172 112.562,191.227 112.562,157.984 C112.562,124.734 140.047,97.789 173.969,97.789 C207.883,97.789 235.383,124.734 235.383,157.984" fill="#EFB5C6"/>
    <path d="M225.609,149.031 C225.609,171.945 206.5,190.516 182.906,190.516 C159.328,190.516 140.203,171.945 140.203,149.031 C140.203,126.125 159.328,107.547 182.906,107.547 C206.5,107.547 225.609,126.125 225.609,149.031" fill="#E98EA8"/>
    <path d="M169.086,122.906 C169.086,130.148 163.219,136.016 155.969,136.016 C148.719,136.016 142.852,130.148 142.852,122.906 C142.852,115.656 148.719,109.781 155.969,109.781 C163.219,109.781 169.086,115.656 169.086,122.906" fill="#FFFFFE"/>
    <path d="M469.555,157.984 C469.555,191.227 442.047,218.172 408.141,218.172 C374.211,218.172 346.734,191.227 346.734,157.984 C346.734,124.734 374.211,97.789 408.141,97.789 C442.047,97.789 469.555,124.734 469.555,157.984" fill="#EFB5C6"/>
    <path d="M459.781,149.031 C459.781,171.945 440.656,190.516 417.078,190.516 C393.484,190.516 374.367,171.945 374.367,149.031 C374.367,126.125 393.484,107.547 417.078,107.547 C440.656,107.547 459.781,126.125 459.781,149.031" fill="#E98EA8"/>
    <path d="M403.25,122.906 C403.25,130.148 397.375,136.016 390.148,136.016 C382.891,136.016 377.023,130.148 377.023,122.906 C377.023,115.656 382.891,109.781 390.148,109.781 C397.375,109.781 403.25,115.656 403.25,122.906" fill="#FFFFFE"/>
    <path d="M209.328,183.164 C209.328,183.164 178.078,280.039 293.703,281.289 C409.328,282.539 371.828,179.414 371.828,179.414 C371.828,179.414 278.078,221.289 209.328,183.164" fill="#E0566E"/>
    <path d="M132.672,294.836 C132.672,294.836 181.828,360.672 198.484,362.336 C198.484,362.336 242.672,347.336 280.172,349 C317.672,350.664 368.484,355.664 368.484,355.664 C368.484,355.664 415.984,308.992 424.328,288.164 C424.328,288.164 251.828,342.336 132.672,294.836" fill="#E9C94B"/>
    <path d="M138.5,396.5 C138.5,396.5 173.5,349 298.5,350.664 C423.5,352.328 454.328,400.664 454.328,400.664 C452.672,403.164 454.328,436.5 454.328,436.5 C454.328,436.5 326,484.828 142.672,437.328 L138.5,396.5" fill="#A16740"/>
    <path d="M463.5,306.492 C463.5,306.492 388.484,275.664 450.172,200.664 L465.172,240.664 L499.328,205.664 L501.828,246.492 L547.672,219.828 C547.672,219.828 560.172,305.664 491,309.828 L461.828,433.992 L436,428.992 L463.5,306.492" fill="#C2C3C0"/>
    <path d="M431.734,282.961 C366.242,314.102 282.203,315.625 282.203,315.625 C282.203,315.625 181.375,322.328 112.937,283.531 M56.828,218.164 C52.531,205.758 50.953,194.289 51.172,178.484 C53.352,25.828 271.633,27.898 307.766,28.977 C343.906,30.063 493.469,35.641 507.055,167.305 C509.055,186.711 506.437,203.586 500.391,218.25 M293.398,122.109 L294.328,196.492" fill-opacity="0" stroke="#523B25" stroke-width="10" stroke-linecap="round" stroke-linejoin="round"/>
    <path d="M93.148,82.258 C93.148,82.258 61.477,79.75 64.266,41.422 C67.078,3.094 125.656,-5.195 146.609,13.437 C167.547,32.078 157.625,51.164 157.625,51.164 C157.625,51.164 95.641,77.125 93.148,82.258" fill="#523B25"/>
    <path d="M476.477,91.406 C476.477,91.406 508.039,94.891 512.5,56.719 C516.945,18.555 460.953,-0.602 436.891,13.781 C412.805,28.141 418.977,48.742 418.977,48.742 C418.976,48.742 474.992,85.898 476.477,91.406" fill="#523B25"/>
    <path d="M256.984,114 C256.828,130.031 247.414,142.953 235.969,142.844 C224.5,142.727 215.336,129.648 215.484,113.609 C215.648,97.57 225.047,84.656 236.516,84.766 C247.984,84.875 257.141,97.961 256.984,114" fill="#523B25"/>
    <path d="M365.734,111.234 C365.578,127.266 356.187,140.18 344.727,140.07 C333.273,139.969 324.109,126.875 324.266,110.836 C324.422,94.812 333.82,81.891 345.281,82 C356.734,82.109 365.891,95.203 365.734,111.234" fill="#523B25"/>
    <path d="M307.602,116.633 C307.547,121.359 301.203,125.133 293.43,125.07 C285.617,124.984 279.344,121.086 279.406,116.359 C279.437,111.617 285.797,107.844 293.586,107.922 C301.375,108 307.641,111.891 307.602,116.633" fill="#523B25"/>
    <path d="M196.008,175.352 C196.008,175.352 217.422,199.047 296.828,198.164 C371.828,197.328 383.148,168.992 383.148,168.992 M209.328,191.492 C209.328,191.492 174.758,283.367 298.5,281.492 C408.5,279.828 374.328,186.492 374.328,186.492 M93.5,441.492 C93.5,441.492 0.164,198.992 27.672,199.828 C55.172,200.664 129.328,304.828 129.328,317.328 C129.328,329.828 82.672,343.992 82.672,343.992 L112.672,429.828 L93.5,441.492 z M463.5,306.492 C463.5,306.492 388.484,275.664 450.172,200.664 L465.172,240.664 L499.328,205.664 L501.828,246.492 L547.672,219.828 C547.672,219.828 560.172,305.664 491,309.828 L461.828,433.992 L436,428.992 L463.5,306.492 z M138.5,396.5 C138.5,396.5 173.5,349 298.5,350.664 C423.5,352.328 454.328,400.664 454.328,400.664 C452.672,403.164 454.328,436.5 454.328,436.5 C454.328,436.5 326,484.828 142.672,437.328 L138.5,396.5 z M154.328,404.828 C154.328,404.828 293.5,447.336 436,403.164 M455.172,430.664 C483.07,437.148 497.672,445.476 497.672,454.414 C497.672,475.359 406.062,492.328 293.078,492.328 C180.094,492.328 88.5,475.359 88.5,454.414 C88.5,444.664 108.359,435.773 141.008,429.055 M202.672,373.164 L251,406.5 M266.828,363.164 L320.172,404 M337.672,365.664 L389.328,399.828 M183.5,393.164 L353.5,362.328 M239.328,408.164 L396,380.664 M136,296.5 C136,296.5 155.984,339.828 196.828,360.664 M424.328,286.5 C424.328,286.5 408.5,330.664 368.5,354.828 M216,315.664 C216,315.664 238.5,339.836 271,342.336 C271,342.336 310.172,329.836 313.5,325.664 M375.172,303.164 C375.172,303.164 368.5,324 322.672,342.336 M446.828,386.5 L572.672,386.5 M6.828,386.5 L149.328,386.5" fill-opacity="0" stroke="#523B25" stroke-width="10" stroke-linecap="round" stroke-linejoin="round"/>
    <path d="M127.234,386.078 C127.234,408.172 108.953,426.078 86.422,426.078 C63.859,426.078 45.578,408.172 45.578,386.078 C45.578,363.984 63.859,346.078 86.422,346.078 C108.953,346.078 127.234,363.984 127.234,386.078" fill="#523B25"/>
    <path d="M510.578,386.078 C510.578,408.172 492.297,426.078 469.75,426.078 C447.203,426.078 428.922,408.172 428.922,386.078 C428.922,363.984 447.203,346.078 469.75,346.078 C492.297,346.078 510.578,363.984 510.578,386.078" fill="#523B25"/>
    <path d="M151,321.5 C151,321.5 119.328,362.328 141,385.664 M417.672,305.664 C417.672,305.664 438.5,329 441.828,360.664" fill-opacity="0" stroke="#523B25" stroke-width="10" stroke-linecap="round" stroke-linejoin="round"/>
  </g>
</svg>
