<?xml version="1.0" encoding="UTF-8"?>
<!DOCTYPE svg PUBLIC "-//W3C//DTD SVG 1.1//EN" "http://www.w3.org/Graphics/SVG/1.1/DTD/svg11.dtd">
<svg version="1.1" xmlns="http://www.w3.org/2000/svg" xmlns:xlink="http://www.w3.org/1999/xlink" x="0" y="0" width="740" height="977" viewBox="0, 0, 740, 977">
  <defs>
    <clipPath id="Clip_1">
      <path d="M0.06,0.844 L739.072,0.844 L739.072,976.94 L0.06,976.94 z"/>
    </clipPath>
  </defs>
  <g id="Layer_1">
    <g clip-path="url(#Clip_1)">
      <path d="M291.49,954.99 C290.785,959.422 288.59,962.55 283.781,962.622 C278.907,962.695 276.858,959.389 275.86,955.124 C271.041,934.537 267.872,913.645 264.501,892.798 C259.004,858.81 253.789,824.777 248.499,790.755 C248.212,788.906 248.215,786.624 246.297,786.108 C244.445,785.608 243.898,787.984 242.985,789.214 C228.905,808.196 215.134,827.38 198.587,844.43 C184.788,858.649 169.212,862.03 150.852,855.159 C132.979,848.469 117.748,837.569 102.997,825.861 C100.762,824.087 98.939,823.118 95.889,824.008 C91.627,825.252 88.53,823.252 86.822,819.084 C85.32,815.414 84.837,811.185 82.169,808.165 C78.571,804.095 74.481,801.447 68.528,800.236 C47.107,795.877 30.748,783.132 18.591,765.456 C-0.197,738.135 -6.168,708.774 7.305,677.166 C10.809,668.947 15.799,661.671 22.777,656.017 C25.052,654.173 25.082,652.557 24.372,650.076 C21,638.284 19.368,626.315 21.439,614.068 C21.785,612.021 21.345,610.18 20.609,608.251 C17.113,599.096 13.725,589.899 10.35,580.698 C8.024,574.355 9.505,571.238 15.895,568.748 C16.668,568.447 17.414,568.025 18.215,567.852 C21.966,567.044 23.401,565.527 22.607,561.076 C21.107,552.655 22.83,544.434 27.628,537.214 C29.37,534.593 29.105,532.693 27.827,530.039 C23.997,522.083 20.703,513.902 20.371,504.882 C19.981,494.252 24.237,487.341 33.172,484.083 C42.036,480.85 50.013,483.369 56.483,491.622 C62.035,498.703 64.774,507.112 67.175,515.595 C67.919,518.226 68.772,519.79 71.676,520.61 C80.692,523.155 87.693,528.608 92.392,536.751 C93.658,538.944 94.773,539.225 97.132,538.408 C110.078,533.929 110.599,534.243 115.414,547.215 C116.512,550.174 117.636,553.124 118.678,556.102 C121.959,565.479 125.73,574.137 133.539,581.296 C143.457,590.388 148.722,602.935 153.402,615.488 C162.28,639.299 171.212,663.089 180.139,686.881 C180.407,687.595 180.25,688.579 181.805,689.126 C183.789,685.721 185.828,682.208 187.881,678.704 C200.823,656.611 213.754,634.512 226.732,612.44 C228.057,610.188 229.519,608.631 225.748,606.85 C169.61,580.338 132.707,536.736 112.318,478.579 C110.725,474.035 109.345,469.417 107.827,464.847 C106.339,460.365 103.459,457.766 98.532,457.226 C74.465,454.587 59.651,439.468 57.378,415.328 C56.957,410.861 56.652,406.367 56.641,401.884 C56.634,399.293 56.099,397.08 54.827,394.821 C34.048,357.91 22.731,318.229 24.805,275.913 C29.574,178.626 71.891,103.27 157.656,54.1 C186.891,37.339 218.583,28.005 251.226,21.013 C257.554,19.657 263.098,15.724 269.516,13.992 C314.361,1.894 359.831,-1.883 406.045,2.776 C462.023,8.421 514.339,25.099 562.045,55.134 C619.906,91.563 661.638,141.304 683.844,206.411 C692.976,233.188 696.576,261.076 697.56,289.33 C698.539,317.443 696.632,345.195 688.354,372.255 C684.887,383.586 680.224,394.391 673.951,404.478 C670.541,409.96 671.526,416.286 676.248,420.456 C709.451,449.774 731.693,485.494 737.51,529.881 C742.913,571.114 734.566,609.171 708.308,642.592 C693.885,660.949 677.868,677.889 662.893,695.742 C650.989,709.933 640.081,724.785 631.978,741.547 C630.817,743.948 630.273,745.466 632.839,747.761 C640.253,754.389 640.429,763.433 639.119,772.317 C637.286,784.75 632.848,795.891 620.282,801.493 C617.894,802.558 618.373,804.438 618.403,806.074 C618.6,816.891 618.947,827.705 619.241,838.521 C619.282,840.019 619.454,841.535 619.291,843.013 C618.824,847.248 616.418,849.659 612.119,849.832 C607.753,850.008 605.354,847.522 604.446,843.489 C604.121,842.046 604.21,840.509 604.11,839.015 C602.21,833.122 602.591,826.955 602.035,820.91 C601.687,817.133 602.024,813.299 601.943,809.492 C601.895,807.218 602.241,804.626 599.185,803.837 C597.276,803.344 596.072,804.5 595.067,805.928 C593.413,808.278 594.849,809.865 596.327,811.571 C601.261,817.262 602.69,823.742 600.616,831.026 C600.052,833.007 599.341,834.776 597.504,835.887 C592.763,845.385 586.001,853.327 578.351,860.557 C576.754,862.067 575.51,863.366 575.411,865.892 C574.877,879.507 568.75,890.352 558.244,898.788 C556.283,900.364 555.387,901.499 556.062,904.413 C558.293,914.047 555.767,923.198 551.837,931.973 C546.55,943.779 539.419,954.375 529.719,962.992 C517.68,973.688 503.372,978.298 487.414,976.686 C480.167,975.955 476.622,970.197 474.238,963.839 C471.538,960.835 472.613,957.504 473.753,954.411 C474.872,951.375 474.857,949.047 472.935,946.103 C467.054,937.092 470.332,924.373 479.854,919.312 C483.942,917.139 486.238,914.747 487.36,909.916 C490.17,897.819 499.592,891.673 510.45,887.713 C520.672,883.985 531.194,882.897 541.761,886.603 C544.402,887.53 546.641,887.183 548.62,885.177 C551.303,882.456 554.273,879.993 556.047,876.485 C557.078,874.445 557.353,872.879 554.249,873.126 C541.777,874.122 530.602,870.277 520.095,863.97 C517.897,862.651 515.671,862.985 513.331,863.446 C500.402,865.991 487.363,867.827 474.165,867.121 C435.328,865.044 398.44,856.036 365.265,834.922 C348.16,824.036 334.331,809.736 323.827,792.321 C322.366,789.898 320.936,787.442 320.439,784.677 C320.029,786.841 318.069,787.639 316.472,788.684 C308.79,793.713 300.854,798.226 291.984,800.923 C287.521,802.28 287.371,802.719 289.965,806.744 C299.624,821.734 310.026,836.133 322.082,849.364 C333.725,862.142 346.446,873.395 361.68,881.731 C366.759,884.51 368.097,888.094 366.981,893.94 C363.139,914.055 359.112,934.135 355.491,954.293 C355.191,955.962 354.701,957.527 353.463,958.763 C351.225,964.192 348.107,966.528 344.11,965.507 C338.545,964.085 337.954,959.757 338.252,954.997 C336.959,952.695 338.035,950.424 338.444,948.194 C341.363,932.317 344.426,916.466 347.598,900.638 C348.39,896.686 347.638,894.305 344.043,891.966 C320.645,876.742 302.736,856.039 286.593,833.621 C279.521,823.8 272.918,813.686 267.049,802.763 C272.459,838.235 277.823,873.395 283.746,908.465 C286.1,922.407 288.193,936.41 291.564,950.167 C291.954,951.761 292.548,953.4 291.49,954.99" fill="#6E4100"/>
    </g>
    <path d="M353.463,958.763 C357.28,938.352 361.095,917.941 364.917,897.532 C365.285,895.571 365.771,893.629 366.071,891.658 C366.599,888.184 365.442,885.336 362.322,883.643 C330.653,866.464 309.672,838.881 290.299,809.732 C288.736,807.38 287.31,804.935 285.844,802.519 C285.685,802.256 285.684,801.897 285.521,801.208 C291.897,799.674 298.282,798.038 303.989,794.656 C309.561,791.355 315.068,787.946 320.955,784.371 C326.495,794.835 333.157,804.626 341.389,813.317 C360.549,833.547 384.279,846.187 410.461,854.479 C437.802,863.138 465.771,867.501 494.563,864.901 C501.368,864.287 508.092,863.2 514.743,861.69 C516.599,861.268 518.108,861.178 519.913,862.144 C537.811,871.715 538.711,871.889 559.373,871.383 C557.613,878.821 552.783,883.928 547.063,888.394 C545.479,889.63 544.035,888.778 542.412,888.246 C525.294,882.634 509.847,886.384 496.262,897.56 C491.12,901.79 487.325,907.506 488.248,914.915 C488.574,917.526 486.413,917.269 485.077,917.86 C475.482,922.108 470.853,928.758 471.36,937.711 C471.388,938.209 471.462,938.707 471.46,939.205 C471.438,943.927 477.598,946.848 476.375,950.88 C475.054,955.238 473.645,959.28 474.238,963.839 C449.052,962.814 423.856,961.993 398.685,960.687 C383.614,959.905 368.55,959.102 353.463,958.763" fill="#FEFC9F"/>
    <path d="M291.49,954.99 C285.922,934.063 283.034,912.622 279.511,891.315 C274.709,862.283 270.339,833.179 265.781,804.107 C265.704,803.615 265.468,803.117 265.514,802.642 C265.613,801.617 264.531,800.108 266.157,799.683 C267.462,799.342 267.822,800.575 268.43,801.688 C286.98,835.622 309.779,866.125 341.775,888.563 C348.325,893.156 350.328,896.897 348.448,904.691 C344.438,921.311 341.581,938.21 338.252,954.995 C322.665,954.994 307.078,954.992 291.49,954.99" fill="#FFC6A5"/>
    <path d="M597.504,835.887 C601.511,826.366 602.125,817.443 592.915,810.309 C592.038,809.629 591.229,808.949 592.135,807.936 C593.938,805.919 594.159,802.007 597.478,801.979 C600.363,801.955 603.575,802.118 603.481,807.085 C603.28,817.721 603.854,828.371 604.11,839.016 C601.908,837.973 599.706,836.93 597.504,835.887" fill="#D6A960"/>
    <path d="M112.553,410.968 C105.024,334.759 123.353,265.338 168.991,203.879 C195.961,167.558 232.35,143.189 274.723,127.589 C278.424,126.226 279.182,127.492 280.131,130.512 C291.765,167.567 310.399,200.569 337.377,228.68 C351.878,243.791 368.355,256.35 386.611,266.604 C389.886,268.443 393.137,269.307 396.392,266.893 C399.876,264.31 400.011,260.818 398.576,257.058 C400.544,255.262 402.693,256.323 404.73,256.768 C423.364,260.836 442.305,261.948 461.281,262.344 C468.751,262.5 476.21,261.291 483.608,260.052 C487.049,259.475 490.458,258.588 493.983,258.688 C498.452,259.289 501.829,262.19 505.553,264.328 C512.642,268.4 514.546,268.097 519.26,261.725 C521.064,259.868 523.001,260.769 524.773,261.623 C540.895,269.393 558.132,271.343 575.721,271.476 C581.04,271.517 586.359,271.432 591.678,271.512 C593.636,271.541 595.722,271.297 597.261,272.993 C606.213,297.941 612.479,323.56 615.89,349.831 C618.343,368.723 617.695,387.684 615.812,406.596 C615.17,413.042 614.086,419.444 613.203,425.865 C610.202,425.245 610.486,422.416 609.701,420.424 C605.023,408.554 598.323,398.31 587.396,391.182 C568.794,379.049 548.121,381.029 533.298,397.565 C523.696,408.276 517.912,420.941 517.497,435.936 C517.115,449.712 523.332,460.245 531.826,469.954 C542.301,481.927 555.329,486.918 571.195,483.627 C580.721,481.65 589.926,479.032 597.537,472.479 C600.306,470.095 600.58,470.276 601.421,472.935 C589.429,508.937 569.381,539.567 540.653,564.483 C538.081,566.715 536.291,565.556 534.004,564.514 C484.682,542.018 435.986,543.331 388.326,569.174 C369.146,579.574 353.764,594.639 341.491,612.604 C338.204,617.417 335.062,618.698 329.435,618.167 C297.776,615.178 266.985,608.817 237.764,595.927 C184.858,572.587 149.143,533.089 128.524,479.453 C128.35,478.999 128.368,478.471 128.296,477.977 C130.146,476.912 130.141,476.925 132.485,477.988 C139.975,481.386 147.789,483.784 155.974,484.515 C170.923,485.85 182.303,479.091 191.718,468.146 C199.205,459.443 204.299,449.611 204.785,438.001 C205.162,429.01 202.255,420.566 198.567,412.493 C194.559,403.72 188.921,395.988 180.867,390.586 C164.578,379.661 146.759,381.502 131.266,393.551 C125.707,397.875 121.045,403.088 117.57,409.284 C116.917,410.448 116.208,411.596 115.132,412.424 C113.176,413.929 113.059,412.084 112.553,410.968" fill="#FEF7E9"/>
    <path d="M495.368,259.659 C484.383,261.293 473.477,263.637 462.302,263.636 C440.837,263.633 419.561,261.742 398.576,257.058 C396.558,253.906 393.009,252.928 390.044,251.173 C348.914,226.837 321.079,191.24 302.467,147.846 C297.149,135.449 292.831,122.705 290.055,109.473 C289.155,105.185 287.168,101.878 282.198,102.008 C277.601,102.128 275.203,105.039 274.789,109.296 C274.521,112.043 272.681,112.328 270.846,112.994 C243.402,122.963 218.098,136.724 195.385,155.188 C164.839,180.022 142.008,210.746 125.488,246.304 C110.073,279.482 101.424,314.554 96.589,350.671 C96.413,351.987 96.354,353.332 96.385,354.661 C96.436,356.864 95.689,357.793 93.242,357.984 C75.393,359.382 73.655,360.373 61.656,375.056 C58.195,367.709 54.526,360.724 52.362,353.066 C51.602,351.107 51.848,348.909 50.915,346.992 C44.599,310.213 48.332,274.052 57.802,238.287 C62.245,221.506 68.398,205.324 75.736,189.59 C78.383,183.914 79.766,183.559 85.101,187.318 C96.419,195.291 108.341,201.658 122.689,201.891 C130.519,202.018 137.922,200.858 144.565,195.897 C143.243,194.428 141.489,194.621 139.982,194.309 C116.997,189.54 104.624,172.085 100.363,151.621 C99.646,148.174 100.69,145.042 102.683,142.182 C126.739,107.655 155.864,78.81 193.646,59.2 C208.176,51.659 222.828,44.71 238.543,40.105 C240.441,39.602 242.346,39.121 244.316,38.973 C244.663,38.639 245.01,38.306 245.357,37.972 C247.111,38.453 248.634,37.001 250.375,37.37 C251.765,35.889 253.923,37.094 255.402,35.927 C257.806,34.451 260.617,35.138 263.192,34.465 C266.108,33.702 268.618,32.872 270.871,30.408 C273.888,27.108 278.749,27.195 282.852,26.18 C315.669,18.059 349.03,14.508 382.784,16.131 C456.907,19.694 524.532,41.897 582.989,88.561 C624.741,121.89 654.5,163.965 670.824,215.069 C676.811,233.814 679.694,253.218 681.513,272.808 C682.965,288.444 682.967,304.089 682.23,319.711 C681.326,338.885 677.927,357.674 671.251,375.767 C670.85,376.852 670.332,377.898 669.799,378.925 C669.673,379.168 669.264,379.264 668.725,379.581 C664.441,368.668 657.04,361.198 645.334,358.503 C642.021,357.74 638.704,357.884 635.394,357.972 C632.69,358.043 631.638,357.169 631.366,354.339 C628.831,327.918 622.891,302.232 614.614,277.038 C613.385,273.298 612.113,271.434 607.708,272.488 C604.376,273.284 600.754,272.868 597.261,272.993 C578.294,273.106 559.296,273.697 540.667,268.968 C534.668,267.446 528.887,265.391 523.485,262.364 C521.932,261.494 520.592,260.699 519.577,262.927 C518.062,255.844 511.887,253.537 506.635,250.261 C476.007,231.156 452.287,205.521 434.574,174.164 C423.444,154.46 414.924,133.744 409.75,111.685 C409.408,110.227 409.11,108.737 408.437,107.39 C407.03,104.576 404.823,102.904 401.588,103.677 C398.448,104.427 396.882,106.753 396.837,109.921 C396.799,112.599 397.542,115.199 398.206,117.777 C407.581,154.151 424.099,186.916 447.959,215.945 C460.415,231.099 474.957,243.983 490.996,255.228 C492.693,256.418 495.017,257.098 495.368,259.659" fill="#D7AA61"/>
    <path d="M599.051,658.941 C609.504,695.219 609.736,731.219 596.126,766.844 C593.758,767.03 593.131,765.029 592.194,763.568 C586.377,754.501 577.605,750.067 567.417,748.439 C553.196,746.167 536.766,759.906 535.678,774.547 C535.519,776.685 535.831,778.912 534.347,780.761 C526.527,785.644 521.929,793.132 518.178,801.189 C516.867,804.005 515.912,804.679 512.86,803.101 C505.699,799.399 498.013,796.962 490.883,802.837 C483.598,808.841 484.003,817.188 485.774,825.395 C487.394,832.902 491.552,839.143 496.929,844.543 C498.081,845.7 499.581,846.51 500.599,848.13 C492.156,850.269 484.003,850.958 475.822,850.649 C444.016,849.448 413.585,842.54 385.276,827.664 C363.541,816.242 346.253,800.139 334.718,778.169 C333.019,774.935 332.915,772.69 335.589,769.916 C337.847,767.573 339.325,764.479 341.148,761.718 C342.424,760.801 343.884,760.6 345.407,760.577 C355.128,760.426 362.411,755.343 368.601,748.564 C374.954,741.607 375.87,733.35 373.851,724.307 C370.254,708.194 359.754,699.331 344.467,700.251 C337.953,700.643 332.285,703.322 327.277,707.446 C326.252,708.289 325.326,709.316 324.043,709.743 C322.047,710.407 321.637,709.468 322.198,707.719 C324.428,668.386 340.32,634.862 366.312,605.938 C382.46,587.969 402.611,576.009 425.919,569.472 C432.027,567.758 431.953,567.75 433.259,574.189 C438.013,597.627 450.808,615.128 472.025,626.32 C477.863,629.399 480.88,628.506 484.517,622.913 C485.944,621.72 487.384,622.493 488.679,623.06 C496.768,626.602 504.565,626.749 511.964,621.313 C515.888,621.725 517.628,625.119 520.121,627.419 C534.335,640.529 551.189,648.161 570.033,651.745 C578.025,653.613 585.853,656.203 594.09,656.959 C595.889,657.124 597.638,657.681 599.051,658.941" fill="#FEF8EA"/>
    <path d="M634.388,707.036 C630.314,713.808 626.241,720.579 622.168,727.351 C621.89,727.301 621.612,727.252 621.334,727.202 C621.334,719.216 621.512,711.225 621.304,703.244 C620.381,667.852 610.71,635.418 588.571,607.236 C579.548,595.749 568.827,586.108 556.908,577.743 C555.444,576.715 553.965,575.709 552.144,574.452 C564.987,563.293 575.955,551.068 585.514,537.579 C601.66,514.795 613.069,489.779 620.461,462.919 C621.507,459.12 623.032,457.608 627.175,457.557 C638.301,457.422 648.349,453.751 657.134,446.819 C661.763,447.751 664.352,451.453 667.218,454.582 C687.62,476.86 696.886,503.692 699.728,533.33 C702.922,566.642 693.746,597.192 679.827,626.759 C669.321,649.077 655.883,669.758 643.537,691.049 C640.459,696.358 637.123,701.528 634.388,707.036" fill="#D7AA61"/>
    <path d="M115.924,816.868 C129.888,811.653 143.091,806.725 156.293,801.793 C172.649,795.684 189.013,789.596 205.356,783.452 C212.602,780.727 213.966,777.643 211.25,770.37 C204.096,751.21 197.005,732.027 189.671,712.936 C188.462,709.788 188.724,707.424 190.379,704.605 C207.317,675.76 224.181,646.869 240.96,617.93 C242.466,615.331 243.676,614.568 246.766,615.714 C272.034,625.085 298.244,630.33 325.026,632.783 C328.257,633.079 328.088,634.008 326.916,636.333 C321.368,647.333 316.29,658.537 313.083,670.483 C312.467,672.775 311.318,673.126 309.106,672.774 C296.429,670.759 288.458,675.105 283.075,686.786 C281.184,690.889 279.171,695.279 279.511,699.654 C280.174,708.203 274.527,714.301 272.236,721.654 C271.511,723.982 270.103,722.327 269.078,721.935 C266.102,720.798 263.103,719.75 259.871,720.11 C253.494,720.821 249.298,725.569 248.264,733.159 C247.996,735.125 248.201,736.821 245.145,737.133 C232.371,738.436 226.196,748.036 229.764,760.612 C230.767,764.148 232.299,767.486 234.383,770.523 C235.561,772.239 235.699,773.596 234.351,775.427 C220.727,793.932 207.561,812.789 191.866,829.672 C176.959,845.707 168.993,847.328 149.156,838.162 C137.452,832.754 126.956,825.436 115.924,816.868" fill="#FFC6A5"/>
    <path d="M84.441,673.643 C79.041,671.901 73.648,673.004 67.929,674.038 C68.349,671.085 68.812,668.529 69.062,665.952 C69.958,656.722 64.119,648.73 55.06,646.971 C52.47,646.469 49.764,646.354 47.117,646.394 C38.661,646.524 38.588,646.599 36.934,638.043 C35.602,631.153 35.078,624.247 36.147,617.201 C36.635,613.982 37.801,612.28 40.901,611.139 C64.278,602.531 87.615,593.81 110.897,584.948 C113.726,583.871 115.435,584.55 117.513,586.329 C127.559,594.934 133.731,606.092 138.278,618.182 C156.986,667.922 175.506,717.733 194.191,767.481 C195.241,770.275 194.901,771.369 191.986,772.444 C161.913,783.529 131.883,794.733 101.888,806.026 C99.27,807.012 97.823,806.963 97.321,803.972 C97.267,803.65 97.14,803.323 96.974,803.041 C93.99,797.973 94.169,793.511 99.44,790.008 C101.777,792.352 104.256,792.853 107.523,791.604 C131.167,782.561 154.958,773.909 178.66,765.02 C182.514,763.574 183.407,761.864 181.95,758.006 C171.121,729.34 160.283,700.676 149.809,671.878 C148.662,668.726 147.005,667.619 143.486,667.955 C127.423,669.486 111.382,671.227 95.343,672.978 C91.71,673.374 88.032,672.768 84.441,673.643" fill="#E8F4F1"/>
    <path d="M84.441,673.643 C85.426,671.904 87.089,671.976 88.792,671.864 C104.804,670.81 120.744,669.018 136.663,667.024 C140.108,666.592 143.602,667.119 147.052,666.062 C149.387,665.346 149.522,667.861 150.054,669.249 C154.806,681.654 159.493,694.084 164.144,706.528 C170.887,724.569 177.534,742.646 184.361,760.655 C185.288,763.1 185.046,764.089 182.477,765.037 C157.087,774.409 131.722,783.852 106.41,793.433 C102.459,794.928 100.026,794.7 99.44,790.008 C107.802,773.523 105.59,763.08 89.957,745.353 C97.565,740.497 103.82,734.712 102.757,724.604 C101.826,715.751 95.21,712.308 87.476,709.524 C90.931,703.527 94.234,697.524 94.436,690.381 C94.657,682.595 91.768,676.838 84.441,673.643" fill="#FEFEFE"/>
    <path d="M601.421,472.935 C600.568,469.975 599.599,472.4 598.853,472.949 C583.307,484.389 566.455,489.606 547.492,483.006 C537.668,479.587 531.294,471.82 525.22,463.778 C511.87,446.104 513.841,424.402 526.211,404.573 C531.716,395.749 538.806,388.662 548.718,384.977 C564.04,379.281 578.006,382.43 590.849,391.956 C600.51,399.122 606.625,408.842 610.851,419.909 C611.613,421.903 612.418,423.88 613.203,425.865 C610.819,441.942 607.162,457.699 601.421,472.935" fill="#FFD5BA"/>
    <path d="M112.553,410.968 C115.23,413.905 115.521,410.157 115.962,409.371 C119.243,403.513 123.553,398.621 128.538,394.159 C150.041,374.912 180.547,379.512 195.559,404.198 C201.263,413.577 205.207,423.619 206.112,434.441 C206.949,444.446 203.622,453.746 197.881,462.038 C190.041,473.362 180.797,482.899 166.416,485.34 C153.941,487.457 142.477,483.757 131.254,478.857 C130.333,478.455 129.709,476.782 128.296,477.977 C119.742,456.417 115.109,433.937 112.553,410.968" fill="#FFD5BA"/>
    <path d="M239.244,40.792 C197.063,55.067 159.884,77.232 129.629,110.309 C120.068,120.761 111.427,131.936 103.319,143.548 C101.312,146.423 101.029,149.159 101.801,152.446 C107.678,177.47 122.256,190.815 148.573,194.37 C143.099,199.688 136.982,202.076 130.218,203.017 C119.139,204.558 108.797,201.99 98.869,197.168 C92.11,193.886 85.973,189.63 79.617,184.977 C73.238,197.662 67.862,210.501 63.509,223.761 C52.446,257.459 47.725,292.033 49.597,327.46 C49.939,333.924 50.891,340.357 51.562,346.804 C51.899,347.834 51.436,348.087 50.508,347.888 C41.663,322.071 38.275,295.472 39.987,268.319 C43.976,205.027 67.991,150.379 112.873,105.559 C145.006,73.471 184.39,53.663 228.028,41.991 C231.068,41.178 234.162,40.567 237.231,39.863 C238.176,39.58 239.327,38.849 239.244,40.792" fill="#FEFEFE"/>
    <path d="M634.388,707.036 C632.8,705.793 634.524,705.009 634.917,704.221 C643.591,686.782 654.554,670.665 664.128,653.743 C677.835,629.514 690.239,604.712 695.767,577.146 C703.505,538.555 698.109,502.127 676.757,468.617 C671.459,460.302 664.505,453.339 657.134,446.818 C660.294,443.187 663.69,439.697 665.711,435.262 C666.901,432.652 667.966,433.246 669.609,434.763 C695.721,458.874 713.814,487.654 721.304,522.734 C731.125,568.729 718.295,608.37 688.329,643.585 C672.799,661.836 656.161,679.135 641.519,698.149 C639.205,701.154 637.391,704.58 634.388,707.036" fill="#FEFEFE"/>
    <path d="M512.34,621.884 C505.682,628.595 497.998,627.851 490.021,624.95 C488.183,624.281 486.352,623.593 484.517,622.914 C485.426,618.125 483.42,615.114 479.13,612.936 C461.406,603.938 451.444,589.147 447.668,569.917 C447.215,567.607 446.158,565.08 450.475,564.764 C507.955,560.557 553.307,581.666 585.72,629.568 C591.783,638.528 595.97,648.531 599.051,658.942 C588.824,658.108 578.912,655.764 569.15,652.698 C569.141,651.545 570.041,651.005 570.725,650.295 C575.55,645.282 574.325,640.538 567.392,638.53 C560.171,636.439 553.213,633.835 546.514,630.4 C530.059,621.961 517.446,610.088 511.237,592.192 C509.658,587.64 506.557,585.867 502.995,586.953 C499.457,588.031 498.004,591.352 499.254,595.971 C501.238,603.305 505.145,609.674 509.369,615.896 C510.612,617.726 512.861,619.148 512.34,621.884" fill="#F1D7AC"/>
    <path d="M15.2,710.294 C15.306,695.324 19.504,681.774 29.481,670.361 C34.517,664.6 40.826,661.204 48.72,661.411 C53.815,661.544 54.592,662.474 53.637,667.384 C52.273,674.394 48.81,680.438 44.706,686.123 C41.991,689.885 40.785,693.709 44.292,697.386 C47.816,701.082 51.679,700.022 55.544,697.431 C61.354,693.536 67.499,690.226 74.254,688.24 C75.794,687.787 77.762,686.961 78.967,688.316 C80.101,689.59 79.436,691.505 78.816,693.038 C75.92,700.19 72.518,706.52 63.318,707.105 C59.241,707.364 56.959,710.639 57.29,714.931 C57.619,719.2 60.212,721.55 64.424,721.843 C70.394,722.259 76.387,722.48 82.226,723.899 C84.228,724.386 87.078,724.503 87.455,726.903 C87.833,729.309 85.169,730.324 83.421,731.489 C79.522,734.085 75.159,735.738 70.765,737.268 C66.871,738.624 63.815,740.67 63.913,745.314 C64.011,749.941 67.054,751.749 71.068,753.017 C79.978,755.833 86.795,760.97 88.7,770.792 C90.419,779.655 85.324,785.98 76.364,786.007 C66.036,786.038 57.471,781.19 49.385,775.522 C28.855,761.131 15.249,734.931 15.2,710.294" fill="#FEF8EA"/>
    <path d="M542.188,794.374 C542.188,798.735 542.116,802.345 542.208,805.95 C542.302,809.626 543.419,812.908 546.91,814.719 C550.557,816.611 553.634,815.057 556.52,812.759 C559.346,810.509 562.155,808.215 565.89,806.525 C566.099,810.687 565.077,814.17 564.008,817.569 C562.945,820.948 563.352,823.787 565.904,826.243 C568.544,828.784 571.675,828.618 574.744,827.421 C577.205,826.461 579.482,825.036 581.873,823.886 C582.716,823.481 583.609,822.473 584.58,823.267 C585.62,824.117 585.316,825.353 584.935,826.499 C583.93,829.519 582.443,832.3 580.685,834.932 C576.78,840.78 572.158,846.065 566.849,850.616 C558.271,857.971 548.277,858.632 538.255,854.577 C525.802,849.539 514.889,841.956 505.83,831.912 C502.52,828.241 500.479,823.913 499.915,818.978 C499.531,815.619 500.306,813.501 504.221,815.677 C507.553,817.53 510.876,819.402 514.166,821.33 C520.451,825.015 524.789,823.589 527.609,816.894 C529.995,811.229 532.338,805.535 535.825,800.422 C537.305,798.251 538.693,795.954 542.188,794.374" fill="#FEF8EA"/>
    <path d="M262.615,736.817 C266.94,736.924 269.238,739.834 271.947,741.857 C279.625,747.591 285.618,745.22 286.83,735.61 C287.295,731.925 286.906,728.133 286.906,723.645 C292.014,726.847 294.176,731.125 296.304,735.341 C298.247,739.19 299.886,743.194 301.61,747.151 C304.051,752.75 308.311,754.324 313.735,751.413 C317.392,749.45 320.87,747.146 324.562,745.257 C325.718,744.664 327.273,743.376 328.649,744.723 C329.824,745.873 329.536,747.617 329.151,749.007 C328.402,751.712 327.928,754.783 326.302,756.909 C314.737,772.029 300.246,782.937 281.028,786.146 C275.522,787.065 269.91,785.789 265.347,782.416 C256.679,776.008 249.691,768.039 244.989,758.236 C244.22,756.633 242.939,754.563 244.348,753.133 C246.104,751.35 247.461,753.955 249.029,754.504 C250.273,754.939 251.416,755.659 252.614,756.233 C256.079,757.892 259.574,758.788 262.899,756.01 C266.27,753.194 265.822,749.688 264.684,745.958 C263.827,743.15 263.368,740.221 262.615,736.817" fill="#FEF8EA"/>
    <path d="M322.198,707.719 C323.886,711.245 324.797,707.681 325.462,707.125 C334.509,699.553 344.59,696.568 356.045,700.271 C368.135,704.179 373.436,713.94 375.201,725.392 C378.526,746.967 363.384,762.733 341.147,761.718 C343.395,754.906 345.59,748.118 343.442,740.791 C340.916,732.173 334.578,727.703 325.774,729.299 C322.386,729.914 321.599,728.91 321.627,726.072 C321.688,719.951 320.953,713.803 322.198,707.719" fill="#FFD5BA"/>
    <path d="M534.347,780.761 C534.358,763.23 542.134,752.403 558.582,747.715 C568.556,744.873 576.994,749.219 585.233,754.219 C590.286,757.285 592.473,762.66 596.126,766.843 C592.042,778.069 586.811,788.703 579.992,798.644 C573.834,790.161 569.715,788.927 559.85,792.561 C558.405,793.093 557.424,793.845 556.538,791.59 C551.87,779.703 546.132,776.98 534.347,780.761" fill="#FFD5BA"/>
    <path d="M505.556,929.327 C506.87,929.426 508.527,929.661 510.182,929.654 C514.111,929.637 516.995,927.852 517.957,923.968 C518.91,920.117 517.33,917.123 513.833,915.251 C512.228,914.391 510.513,913.74 508.875,912.939 C503.945,910.528 503.847,909.966 508.616,906.834 C515.64,902.222 523.429,900.111 531.823,900.91 C539.175,901.609 542.405,905.719 541.788,913.047 C539.945,934.931 517.672,958.927 495.939,962.429 C495.123,962.56 494.288,962.673 493.466,962.655 C491.787,962.62 489.84,962.59 489.432,960.565 C489.046,958.646 490.928,958.205 492.265,957.682 C493.643,957.142 495.098,956.762 496.548,956.447 C501.812,955.304 504.63,952.436 504.128,948.269 C503.559,943.547 500.606,941.398 495.941,941.304 C493.426,941.254 490.977,940.786 488.818,939.367 C485.512,937.196 485.447,935.056 488.839,932.919 C493.834,929.771 499.588,929.809 505.556,929.327" fill="#FEF8EA"/>
    <path d="M657.319,403.346 C657.451,410.689 656.755,416.942 654.67,422.988 C650.753,434.344 642.725,440.47 630.889,442.177 C626.678,442.785 625.596,441.785 626.464,437.634 C630.081,420.338 631.631,402.797 632.244,385.161 C632.331,382.668 632.604,380.129 632.267,377.684 C631.685,373.453 633.652,372.759 637.332,372.847 C646.031,373.055 651.32,376.519 654.39,384.719 C655.145,386.735 655.804,388.817 656.211,390.926 C657.064,395.342 657.674,399.799 657.319,403.346" fill="#FEF7E9"/>
    <path d="M71.452,404.549 C71.863,397.214 72.257,390.727 74.654,384.609 C76.32,380.355 78.768,376.667 83.115,374.582 C86.862,372.786 91.222,371.759 94.621,373.435 C96.71,374.466 95.478,378.924 95.544,381.846 C95.959,400.146 97.611,418.315 101.111,436.298 C102.37,442.762 102.072,443.053 95.521,441.772 C83.071,439.337 74.979,430.377 72.609,416.104 C71.931,412.018 71.77,407.847 71.452,404.549" fill="#FEF7E9"/>
    <path d="M33.9,597.719 C33.172,597.706 32.645,597.441 32.407,596.691 C32.257,596.218 31.986,595.784 31.821,595.314 C30.176,590.632 26.367,585.284 27.534,581.455 C28.639,577.828 35.675,577.477 40.134,575.789 C59.255,568.553 78.435,561.473 97.544,554.209 C100.392,553.126 101.971,553.087 102.875,556.521 C104.05,560.984 108.254,565.782 106.789,569.472 C105.287,573.255 98.888,573.383 94.608,575.007 C75.651,582.204 56.639,589.253 37.646,596.353 C36.401,596.819 35.15,597.269 33.9,597.719" fill="#FFE100"/>
    <path d="M37.179,555.882 C37.492,550.05 39.398,545.353 43.187,541.56 C46.763,537.98 47.163,534.322 44.652,529.892 C40.885,523.246 37.719,516.289 36.008,508.79 C35.534,506.715 35.51,504.527 35.377,502.385 C35.246,500.266 36.456,499.031 38.308,498.243 C40.275,497.405 41.868,498.035 43.297,499.394 C45.51,501.498 46.917,504.159 48.133,506.883 C50.982,513.263 53.101,519.894 54.46,526.754 C55.347,531.232 57.824,533.631 62.577,533.989 C68.813,534.46 73.943,537.34 77.988,542.161 C79.581,544.06 79.446,545.023 76.924,545.94 C64.772,550.358 52.672,554.921 40.571,559.479 C35.281,561.472 38.28,556.823 37.179,555.882" fill="#FEF7E9"/>
    <path d="M624.526,767.291 C624.359,772.078 623.164,777.39 620.294,782.184 C617.208,787.341 611.465,789.707 606.294,788.393 C604.437,787.921 603.817,787.419 604.749,785.43 C608.762,776.862 612.115,768.034 614.697,758.923 C615.082,757.563 615.665,756.528 617.418,756.697 C619.841,756.93 621.97,757.612 623.381,759.747 C624.758,761.833 624.444,764.207 624.526,767.291" fill="#FEF8E9"/>
    <path d="M306.416,722.145 C302.602,717.152 299.553,713.016 294.854,710.609 C293.72,710.028 293.471,708.797 293.547,707.564 C293.918,701.53 294.977,695.671 298.257,690.454 C299.781,688.03 301.929,686.61 304.962,687.108 C307.692,687.555 309.251,688.295 308.652,691.931 C307.072,701.524 306.475,711.251 306.416,722.145" fill="#FEF7E9"/>
    <path d="M239.244,40.792 C238.573,40.482 237.902,40.172 237.231,39.863 C239.505,38.863 241.748,37.619 244.316,38.973 C242.937,40.448 240.943,40.21 239.244,40.792" fill="#EADFD2"/>
    <path d="M50.508,347.888 C50.859,347.527 51.21,347.166 51.561,346.804 C52.943,348.749 52.407,350.939 52.362,353.066 C50.893,351.645 50.934,349.683 50.508,347.888" fill="#E9E1D6"/>
    <path d="M255.402,35.927 C254.151,37.602 251.86,36.691 250.431,37.924 C249.83,37.611 249.807,37.259 250.36,36.868 C251.851,35.539 253.662,35.925 255.402,35.927" fill="#CAB290"/>
    <path d="M250.36,36.868 C250.383,37.221 250.407,37.573 250.431,37.925 C248.735,37.371 247.066,39.872 245.357,37.972 C246.887,36.982 248.587,36.758 250.36,36.868" fill="#E0CFBA"/>
    <path d="M440.358,916.198 C440.247,920.711 436.757,924.006 432.259,923.844 C428.016,923.691 424.8,920.312 424.825,916.032 C424.85,911.58 428.418,907.949 432.687,908.031 C437.096,908.116 440.469,911.706 440.358,916.198" fill="#6F4300"/>
    <path d="M430.853,882.457 C430.93,877.987 434.417,874.625 438.881,874.715 C443.305,874.804 446.639,878.356 446.486,882.817 C446.335,887.252 442.726,890.563 438.271,890.353 C434.138,890.158 430.782,886.586 430.853,882.457" fill="#6F4300"/>
    <path d="M495.368,259.659 C442.392,224.216 410.973,174.137 395.879,113.005 C394.349,106.808 397.224,102.121 402.484,102.028 C406.987,101.949 409.369,104.55 410.362,108.849 C418.786,145.294 434.77,178.055 458.625,206.882 C474.058,225.532 492.232,241.033 513.45,252.767 C517.751,255.145 520.166,257.949 519.576,262.929 C516.829,268.45 513.276,269.841 508.116,267.087 C503.78,264.773 499.611,262.147 495.368,259.659" fill="#6E4100"/>
    <path d="M355.675,479.759 C370.298,478.862 384.902,478.393 399.412,476.268 C403.268,475.704 406.377,478.363 406.112,482.428 C404.969,499.971 402.298,517.234 391.821,532.009 C379.528,549.344 358.883,549.836 345.481,533.274 C336.86,522.621 332.282,509.957 328.546,496.979 C327.648,493.858 327.201,491.242 322.718,491.516 C319.336,491.724 317.284,488.836 317.494,485.462 C317.717,481.874 319.969,479.763 323.778,479.761 C334.41,479.755 345.043,479.759 355.675,479.759" fill="#6E4100"/>
    <path d="M250.253,368.921 C240.851,368.891 231.94,376.434 230.255,385.907 C229.936,387.702 229.773,389.531 229.624,391.351 C229.264,395.737 226.668,398.077 222.527,398.24 C218.362,398.403 215.566,396.139 214.912,391.893 C214.268,387.719 214.918,383.559 216.322,379.65 C217.417,376.604 217.275,374.791 214.269,372.743 C208.927,369.102 205.673,363.629 203.352,357.622 C201.927,353.934 202.759,350.827 206.368,349.328 C209.919,347.854 212.811,349.246 214.476,352.904 C215.436,355.015 216.433,357.141 217.691,359.08 C221.451,364.876 223.616,365.224 229.032,361.157 C247.862,347.016 271.989,354.041 279.247,375.776 C281.182,381.57 279.658,385.61 274.937,387.203 C270.366,388.746 267.24,386.752 265.032,380.887 C262.007,372.853 257.178,368.943 250.253,368.921" fill="#6E4100"/>
    <path d="M517.28,389.182 C517.346,394.549 514.639,398.018 510.173,398.29 C505.461,398.577 502.512,395.413 502.244,389.601 C501.866,381.424 498.052,375.335 490.984,371.41 C480.957,365.842 471.39,369.474 467.267,380.218 C467.089,380.683 466.882,381.137 466.701,381.601 C464.747,386.616 461.448,388.6 457.248,387.284 C452.75,385.876 450.302,381.771 452.572,376.961 C455.191,371.411 454.594,367.488 450.224,363.311 C447.624,360.826 446.208,357.242 445.219,353.679 C444.295,350.35 445.212,347.511 448.459,346.247 C451.796,344.948 454.715,346.018 456.343,349.446 C457.769,352.45 459.15,355.455 461.231,358.099 C462.474,359.678 463.507,360.007 465.33,358.749 C484.761,345.342 516.52,360.345 517.28,389.182" fill="#6E4100"/>
    <path d="M251.232,193.585 C259.865,193.412 267.369,198.131 270.655,205.809 C272.184,209.381 272.353,212.897 268.392,214.783 C264.67,216.556 261.797,215.083 259.822,211.329 C256.95,205.87 252.933,204.346 246.423,206.247 C241.241,207.76 236.56,210.265 233.599,215.066 C231.32,218.761 228.085,219.519 224.705,217.329 C221.346,215.153 221.569,211.791 223.428,208.514 C228.135,200.215 240.068,193.809 251.232,193.585" fill="#6E4100"/>
    <path d="M372.585,399.618 C372.702,402.49 371.364,404.56 368.87,405.577 C366.266,406.639 363.461,406.49 361.578,404.154 C359.404,401.456 357.25,398.619 355.779,395.515 C354.335,392.467 354.823,389.189 358.008,387.192 C361.086,385.262 364.286,385.66 366.458,388.539 C368.998,391.907 372.143,395.065 372.585,399.618" fill="#6F4300"/>
    <path d="M512.34,621.884 C506.442,614.212 500.992,606.29 498.196,596.861 C496.426,590.894 497.971,587.037 502.783,585.534 C507.281,584.129 510.413,586.405 512.488,592.207 C519.742,612.487 535.033,624.611 554.117,632.714 C558.537,634.591 563.185,635.997 567.821,637.285 C571.704,638.364 574.699,640.25 575.071,644.454 C575.443,648.661 572.86,651.192 569.15,652.698 C549.609,649.299 532.587,640.803 518.01,627.383 C516.074,625.6 514.228,623.72 512.34,621.884" fill="#6E4100"/>
    <path d="M542.432,732.903 C542.465,746.325 532.157,754.875 520.881,750.775 C513.142,747.962 508.911,739.983 510.867,731.949 C511.788,728.167 513.479,724.762 515.998,721.825 C519.965,717.198 524.599,713.875 531.148,715.54 C537.193,717.077 541.38,722.411 542.257,729.419 C542.401,730.57 542.379,731.741 542.432,732.903" fill="#6E4100"/>
    <path d="M410.567,703.847 C410.466,711.52 407.841,717.852 400.558,721.331 C395.096,723.939 388.19,722.418 383.529,717.986 C378.514,713.219 377.17,706.631 380.104,699.702 C383.149,692.515 387.544,686.476 396.138,685.956 C404.621,685.442 410.545,693.073 410.567,703.847" fill="#6E4100"/>
    <path d="M467.19,792.11 C466.976,803.07 459.489,810.845 449.289,810.701 C439.041,810.555 430.706,801.111 430.87,789.83 C431.021,779.37 439.27,771.753 450.144,772.033 C460.124,772.291 467.41,780.872 467.19,792.11" fill="#6E4100"/>
    <path d="M460.528,717.362 C464.227,717.356 469.002,720.87 470.322,725.403 C471.155,728.266 470.74,730.74 467.827,732.159 C465.157,733.459 462.672,732.701 461.37,730.229 C459.714,727.085 458.346,727.392 456.28,729.703 C454.008,732.245 451.253,732.423 448.854,730.056 C446.428,727.662 446.943,724.927 448.998,722.444 C451.696,719.185 455.167,717.462 460.528,717.362" fill="#6F4300"/>
    <path d="M367.238,533.089 C364.194,533.406 361.202,531.886 358.747,529.577 C348.395,519.842 344.18,506.873 340.225,493.794 C339.374,490.982 341.624,491.778 342.819,491.732 C351.613,491.392 360.414,491.236 369.206,490.848 C376.337,490.533 383.467,490.078 390.578,489.47 C392.797,489.28 393.669,489.674 393.274,492.01 C391.441,502.847 389.292,513.603 383.335,523.086 C379.762,528.773 375.193,533.207 367.238,533.089" fill="#FEFEFE"/>
    <path d="M449.502,782.039 C453.953,782.05 457.288,786.302 457.187,791.837 C457.094,796.941 453.947,800.658 449.692,800.692 C445.168,800.727 440.944,795.756 440.923,790.37 C440.903,785.524 444.506,782.026 449.502,782.039" fill="#FDFDFD"/>
  </g>
<script xmlns=""/></svg>