<?xml version="1.0" encoding="UTF-8"?>
<!DOCTYPE svg PUBLIC "-//W3C//DTD SVG 1.1//EN" "http://www.w3.org/Graphics/SVG/1.1/DTD/svg11.dtd">
<svg version="1.1" xmlns="http://www.w3.org/2000/svg" xmlns:xlink="http://www.w3.org/1999/xlink" x="0" y="0" width="443" height="291" viewBox="0, 0, 443, 291">
  <defs>
    <clipPath id="Clip_1">
      <path d="M-0,0.629 L442.203,0.629 L442.203,290 L-0,290 z"/>
    </clipPath>
    <clipPath id="Clip_2">
      <path d="M-0,0.629 L442.203,0.629 L442.203,290 L-0,290 z"/>
    </clipPath>
    <clipPath id="Clip_3">
      <path d="M-0,0.629 L442.203,0.629 L442.203,290 L-0,290 z"/>
    </clipPath>
  </defs>
  <g id="Layer_1">
    <path d="M268.707,98.891 L283.906,101.293 L267.109,113.293 L282.309,117.293 M290.375,71.18 L310.234,75.129 L287.52,90.031 L307.297,96.082 M290.785,32.984 L317.078,34.246 L290.738,57.77 L317.324,61.75" fill-opacity="0" stroke="#CBCDDE" stroke-width="4.5" stroke-linecap="round" stroke-linejoin="round"/>
    <path d="M39.555,5.734 L121.91,5.734 L121.91,133.234 L39.555,133.234 z" fill="#E3E3EB"/>
    <path d="M129.703,5.734 L212.058,5.734 L212.058,133.234 L129.703,133.234 z" fill="#E3E3EB"/>
    <path d="M146.82,48.203 L139.082,52.27 L140.559,43.652 L134.301,37.551 L142.953,36.293 L146.82,28.453 L150.691,36.293 L159.344,37.551 L153.082,43.652 L154.559,52.27 z M146.82,48.203" fill="#FFF6A7"/>
    <g clip-path="url(#Clip_1)">
      <path d="M181.648,19.524 C183.359,23.438 184.309,27.762 184.309,32.305 C184.309,49.953 170.004,64.258 152.359,64.258 C151.848,64.258 151.344,64.246 150.84,64.223 C155.887,69.5 162.996,72.789 170.875,72.789 C186.184,72.789 198.594,60.379 198.594,45.07 C198.594,33.582 191.605,23.727 181.648,19.524" fill="#FFF6A7"/>
      <path d="M491.098,273.488 L491.094,273.484 C489.633,272.07 485.84,267.359 483.273,266.426 C460.652,250.399 435.184,246.051 419.375,245.031 C432.637,231.699 434.621,216.59 428.84,209.293 C436.336,189.332 428.543,169.922 413.309,154.184 C398.078,138.441 383.402,131.602 360.434,130.063 C341.09,128.762 316.832,134.824 305.332,138.125 C301.777,139.09 299.809,139.785 299.809,139.789 C299.086,140.02 296.898,140.652 296.898,140.652 C296.898,140.652 296.918,140.715 296.973,140.828 C288.117,143.141 279.883,148.406 270.047,151.164 C233.461,161.414 244.32,177.219 234.613,180.817 C224.902,184.414 220.805,178.008 219.121,192.07 C218.305,198.902 216.711,201.477 214.762,202.414 C203.906,198.559 189.559,196.883 169.441,197.82 C76.16,202.168 26.344,233.258 -12.285,248.379 C-68.996,270.574 -167.441,362.738 -167.441,362.738 L69.559,404.738 C69.559,404.738 373.535,338.328 367.309,328.238 C366.617,327.117 365.844,326.063 365.012,325.067 C379.254,328.895 383.027,330.106 405.312,324.496 C442.559,315.133 493.676,292.223 493.676,279.277 C493.676,277.043 492.773,275.109 491.098,273.488" fill="#8C8C8C"/>
      <path d="M491.098,273.488 L491.094,273.484 C489.633,272.07 485.84,267.359 483.273,266.426 C460.652,250.399 435.184,246.051 419.375,245.031 C432.637,231.699 434.621,216.59 428.84,209.293 C436.336,189.332 428.543,169.922 413.309,154.184 C398.078,138.441 383.402,131.602 360.434,130.063 C341.09,128.762 316.832,134.824 305.332,138.125 C301.777,139.09 299.809,139.785 299.809,139.789 C299.086,140.02 296.898,140.652 296.898,140.652 C296.898,140.652 296.918,140.715 296.973,140.828 C288.117,143.141 279.883,148.406 270.047,151.164 C233.461,161.414 244.32,177.219 234.613,180.817 C224.902,184.414 220.805,178.008 219.121,192.07 C218.305,198.902 216.711,201.477 214.762,202.414 C203.906,198.559 189.559,196.883 169.441,197.82 C76.16,202.168 26.344,233.258 -12.285,248.379 C-68.996,270.574 -167.441,362.738 -167.441,362.738 L69.559,404.738 C69.559,404.738 373.535,338.328 367.309,328.238 C366.617,327.117 365.844,326.063 365.012,325.067 C379.254,328.895 383.027,330.106 405.312,324.496 C442.559,315.133 493.676,292.223 493.676,279.277 C493.676,277.043 492.773,275.109 491.098,273.488 z M491.098,273.488" fill-opacity="0" stroke="#8C8C8C" stroke-width="6" stroke-linecap="round" stroke-linejoin="round"/>
      <path d="M491.098,273.488 L491.094,273.484 C489.633,272.07 485.84,267.359 483.273,266.426 C447.273,240.926 404.059,244.988 404.059,244.988 L250.398,279.176 C275.887,296.059 338.957,318.391 358.773,323.426 C378.59,328.461 380.086,330.844 405.312,324.496 C442.559,315.133 493.676,292.223 493.676,279.277 C493.676,277.043 492.773,275.109 491.098,273.488" fill="#F7F4EF"/>
      <path d="M491.098,273.488 L491.094,273.484 C489.633,272.07 485.84,267.359 483.273,266.426 C447.273,240.926 404.059,244.988 404.059,244.988 L250.398,279.176 C275.887,296.059 338.957,318.391 358.773,323.426 C378.59,328.461 380.086,330.844 405.312,324.496 C442.559,315.133 493.676,292.223 493.676,279.277 C493.676,277.043 492.773,275.109 491.098,273.488 z M491.098,273.488" fill-opacity="0" stroke="#8C8C8C" stroke-width="3" stroke-linecap="round" stroke-linejoin="round"/>
      <path d="M317.059,263.738 C328.523,260.524 334.25,271.836 344.059,267.488 C355.652,261.535 363.316,268.395 369.996,259.848 C382.438,245.055 386.309,225.957 378.539,197.676 L378.547,197.672 C378.512,197.551 378.477,197.434 378.441,197.313 C378.406,197.191 378.379,197.07 378.344,196.949 L378.34,196.953 C370.281,168.754 357.047,154.445 338.734,148.27 C328.586,144.438 314.434,138.996 301.434,139.938 C290.797,141.317 281.512,147.949 270.047,151.164 C233.461,161.414 244.32,177.219 234.613,180.817 C224.898,184.414 220.805,178.008 219.121,192.07 C217.188,208.227 210.93,200.617 205.836,203.688 C200.297,207.027 199.145,228.441 194.109,226.59 C190.172,225.141 189.922,243.164 191.336,249.348 L191.32,249.352 C191.348,249.461 191.387,249.59 191.426,249.711 C191.457,249.84 191.492,249.969 191.523,250.078 L191.539,250.07 C193.543,256.09 203.121,271.359 205.734,268.078 C209.074,263.875 221.18,281.574 227.652,281.551 C233.598,281.531 234.992,271.774 245.035,284.574 C253.781,295.715 243.695,258.891 253.863,256.918 C264.027,254.949 280.469,273.988 317.055,263.738" fill="#BCA796"/>
      <path d="M317.059,263.738 C328.523,260.524 334.25,271.836 344.059,267.488 C355.652,261.535 363.316,268.395 369.996,259.848 C382.438,245.055 386.309,225.957 378.539,197.676 L378.547,197.672 C378.512,197.551 378.477,197.434 378.441,197.313 C378.406,197.191 378.379,197.07 378.344,196.949 L378.34,196.953 C370.281,168.754 357.047,154.445 338.734,148.27 C328.586,144.438 314.434,138.996 301.434,139.938 C290.797,141.317 281.512,147.949 270.047,151.164 C233.461,161.414 244.32,177.219 234.613,180.817 C224.898,184.414 220.805,178.008 219.121,192.07 C217.188,208.227 210.93,200.617 205.836,203.688 C200.297,207.027 199.145,228.441 194.109,226.59 C190.172,225.141 189.922,243.164 191.336,249.348 L191.32,249.352 C191.348,249.461 191.387,249.59 191.426,249.711 C191.457,249.84 191.492,249.969 191.523,250.078 L191.539,250.07 C193.543,256.09 203.121,271.359 205.734,268.078 C209.074,263.875 221.18,281.574 227.652,281.551 C233.598,281.531 234.992,271.774 245.035,284.574 C253.781,295.715 243.695,258.891 253.863,256.918 C264.027,254.949 280.469,273.988 317.055,263.738 z M317.059,263.738" fill-opacity="0" stroke="#8C8C8C" stroke-width="3" stroke-linecap="round" stroke-linejoin="round"/>
    </g>
    <path d="M209.887,224.242 L220.449,261.945 L244.516,256.649 L257.891,254.191 L261.895,240.395 L250.676,233.145 L255.918,219.078 C255.918,219.078 263.266,216.484 259.855,213.961 C240.184,199.426 209.887,224.242 209.887,224.242" fill="#FFF9FC"/>
    <path d="M209.887,224.242 L220.449,261.945 L244.516,256.649 L257.891,254.191 L261.895,240.395 L250.676,233.145 L255.918,219.078 C255.918,219.078 263.266,216.484 259.855,213.961 C240.184,199.426 209.887,224.242 209.887,224.242 z M209.887,224.242" fill-opacity="0" stroke="#8C8C8C" stroke-width="3" stroke-linecap="round" stroke-linejoin="round"/>
    <path d="M262.344,239.457 L263.305,235.719 L273.41,231.828 L275.145,226.285 L270.785,222.453 L260.125,224.379 L257.367,221.684 C251.25,223.399 245.977,227.156 247.871,233.926 C249.77,240.699 256.09,241.207 262.344,239.457" fill="#FFF2E0"/>
    <path d="M262.344,239.457 L263.305,235.719 L273.41,231.828 L275.145,226.285 L270.785,222.453 L260.125,224.379 L257.367,221.684 C251.25,223.399 245.977,227.156 247.871,233.926 C249.77,240.699 256.09,241.207 262.344,239.457 z M262.344,239.457" fill-opacity="0" stroke="#8C8C8C" stroke-width="3" stroke-linecap="round" stroke-linejoin="round"/>
    <path d="M321.039,157.981 C321.039,157.981 319.539,136.481 301.164,141.629 C290.355,144.656 287.41,153.031 291.234,167.473" fill="#FFF2E0"/>
    <path d="M321.039,157.981 C321.039,157.981 319.539,136.481 301.164,141.629 C290.355,144.656 287.41,153.031 291.234,167.473" fill-opacity="0" stroke="#8C8C8C" stroke-width="3" stroke-linecap="round" stroke-linejoin="round"/>
    <path d="M302.34,149.652 C302.34,149.652 304.316,151.973 305.016,154.516" fill="#FFF2E0"/>
    <path d="M302.34,149.652 C302.34,149.652 304.316,151.973 305.016,154.516" fill-opacity="0" stroke="#8C8C8C" stroke-width="3" stroke-linecap="round" stroke-linejoin="round"/>
    <g>
      <path d="M264.969,229.078 C240.531,141.867 385.129,110.453 407.199,189.227 C429.273,268 289.402,316.289 264.969,229.078" fill="#FFF2E0"/>
      <path d="M264.969,229.078 C240.531,141.867 385.129,110.453 407.199,189.227 C429.273,268 289.402,316.289 264.969,229.078 z M264.969,229.078" fill-opacity="0" stroke="#8C8C8C" stroke-width="3" stroke-linecap="round" stroke-linejoin="round"/>
    </g>
    <path d="M407.297,254.527 C431.18,239.727 436.062,218.41 428.84,209.293 C436.336,189.332 428.543,169.922 413.309,154.184 C398.078,138.441 383.402,131.602 360.434,130.063 C341.09,128.762 316.832,134.824 305.332,138.125 C301.777,139.09 299.809,139.785 299.809,139.789 C299.086,140.02 296.898,140.652 296.898,140.652 C296.898,140.652 299.359,149.363 348.617,162.152 C399.043,175.242 406.383,211.172 406.383,211.172 C406.383,211.172 403.277,238.281 367.543,259.277 C331.809,280.274 369.559,264.113 369.559,264.113 C369.559,264.113 400.289,258.871 407.297,254.527" fill="#BCA796"/>
    <path d="M407.297,254.527 C431.18,239.727 436.062,218.41 428.84,209.293 C436.336,189.332 428.543,169.922 413.309,154.184 C398.078,138.441 383.402,131.602 360.434,130.063 C341.09,128.762 316.832,134.824 305.332,138.125 C301.777,139.09 299.809,139.785 299.809,139.789 C299.086,140.02 296.898,140.652 296.898,140.652 C296.898,140.652 299.359,149.363 348.617,162.152 C399.043,175.242 406.383,211.172 406.383,211.172 C406.383,211.172 403.277,238.281 367.543,259.277 C331.809,280.274 369.559,264.113 369.559,264.113 C369.559,264.113 400.289,258.871 407.297,254.527 z M407.297,254.527" fill-opacity="0" stroke="#8C8C8C" stroke-width="3" stroke-linecap="round" stroke-linejoin="round"/>
    <path d="M336.973,229.801 C336.973,229.801 333.324,231.602 335.012,237.621 C336.695,243.637 341.297,244.297 341.297,244.297" fill="#FFF2E0"/>
    <path d="M336.973,229.801 C336.973,229.801 333.324,231.602 335.012,237.621 C336.695,243.637 341.297,244.297 341.297,244.297" fill-opacity="0" stroke="#8C8C8C" stroke-width="3" stroke-linecap="round" stroke-linejoin="round"/>
    <path d="M326.117,191.043 C326.117,191.043 322.062,191.402 320.375,185.383 C318.691,179.363 322.277,176.414 322.277,176.414" fill="#FFF2E0"/>
    <g clip-path="url(#Clip_2)">
      <path d="M326.117,191.043 C326.117,191.043 322.062,191.402 320.375,185.383 C318.691,179.363 322.277,176.414 322.277,176.414 M309.465,219.66 C309.465,219.66 305.402,221.836 304.582,217.977" fill-opacity="0" stroke="#8C8C8C" stroke-width="3" stroke-linecap="round" stroke-linejoin="round"/>
      <path d="M299.434,263.754 C292.188,263.395 287.656,262.652 287.656,262.652 C287.656,262.652 272.031,254.641 265.605,259.91 C263.461,261.668 261.59,263.242 260.043,264.563 L259.812,263.617 C259.812,263.617 222.996,272.555 218.266,278.297 C215.406,281.766 215.664,292.652 228.07,289.817 C233.887,288.492 260.211,277.227 262.668,276.172 C266.867,277.613 279.445,281.777 287.191,282.777 C296.602,283.992 309.871,281.121 312.906,272.332 C315.004,266.25 306.676,264.117 299.434,263.754" fill="#FFF2E0"/>
      <path d="M299.434,263.754 C292.188,263.395 287.656,262.652 287.656,262.652 C287.656,262.652 272.031,254.641 265.605,259.91 C263.461,261.668 261.59,263.242 260.043,264.563 L259.812,263.617 C259.812,263.617 222.996,272.555 218.266,278.297 C215.406,281.766 215.664,292.652 228.07,289.817 C233.887,288.492 260.211,277.227 262.668,276.172 C266.867,277.613 279.445,281.777 287.191,282.777 C296.602,283.992 309.871,281.121 312.906,272.332 C315.004,266.25 306.676,264.117 299.434,263.754 z M299.434,263.754" fill-opacity="0" stroke="#8C8C8C" stroke-width="3" stroke-linecap="round" stroke-linejoin="round"/>
    </g>
    <path d="M309.34,265.742 C309.34,265.742 306.34,268.672 301.246,270.09 C296.148,271.512 290.172,271.473 290.172,271.473" fill="#FFF2E0"/>
    <path d="M309.34,265.742 C309.34,265.742 306.34,268.672 301.246,270.09 C296.148,271.512 290.172,271.473 290.172,271.473" fill-opacity="0" stroke="#8C8C8C" stroke-width="3" stroke-linecap="round" stroke-linejoin="round"/>
    <path d="M313.219,270.836 C313.219,270.836 309.52,275.324 302.859,276.625 C297.168,277.738 295.418,278.07 295.418,278.07" fill="#FFF2E0"/>
    <path d="M313.219,270.836 C313.219,270.836 309.52,275.324 302.859,276.625 C297.168,277.738 295.418,278.07 295.418,278.07" fill-opacity="0" stroke="#8C8C8C" stroke-width="3" stroke-linecap="round" stroke-linejoin="round"/>
    <path d="M291.801,245.543 C284.234,244.262 268.297,245.563 262.488,246.109 L262.488,246.106 L233.668,239.934 L241.922,235.391 C241.922,235.391 261.508,226.684 259.488,219.953 C257.578,213.609 250.961,211.129 238.684,217.84 C229.012,223.133 204.797,236.313 207.203,244.906 C209.551,253.289 259.453,259.039 259.453,259.039 C263.145,266.481 286.359,264.926 286.359,264.926 C286.359,264.926 290.91,265.547 297.945,267.317 C304.98,269.086 313.562,269.484 313.336,263.055 C313.004,253.766 301.152,247.133 291.801,245.543" fill="#FFF2E0"/>
    <path d="M291.801,245.543 C284.234,244.262 268.297,245.563 262.488,246.109 L262.488,246.106 L233.668,239.934 L241.922,235.391 C241.922,235.391 261.508,226.684 259.488,219.953 C257.578,213.609 250.961,211.129 238.684,217.84 C229.012,223.133 204.797,236.313 207.203,244.906 C209.551,253.289 259.453,259.039 259.453,259.039 C263.145,266.481 286.359,264.926 286.359,264.926 C286.359,264.926 290.91,265.547 297.945,267.317 C304.98,269.086 313.562,269.484 313.336,263.055 C313.004,253.766 301.152,247.133 291.801,245.543 z M291.801,245.543" fill-opacity="0" stroke="#8C8C8C" stroke-width="3" stroke-linecap="round" stroke-linejoin="round"/>
    <path d="M307.996,268.313 C307.996,268.313 305.988,264.637 301.531,261.785 C297.074,258.938 291.348,257.227 291.348,257.227" fill="#FFF2E0"/>
    <path d="M307.996,268.313 C307.996,268.313 305.988,264.637 301.531,261.785 C297.074,258.938 291.348,257.227 291.348,257.227" fill-opacity="0" stroke="#8C8C8C" stroke-width="3" stroke-linecap="round" stroke-linejoin="round"/>
    <path d="M313.199,264.578 C313.199,264.578 310.973,259.203 304.984,256.012 C299.867,253.281 298.293,252.457 298.293,252.457" fill="#FFF2E0"/>
    <path d="M313.199,264.578 C313.199,264.578 310.973,259.203 304.984,256.012 C299.867,253.281 298.293,252.457 298.293,252.457" fill-opacity="0" stroke="#8C8C8C" stroke-width="3" stroke-linecap="round" stroke-linejoin="round"/>
    <path d="M260.738,213.121 C257.902,208.063 252.211,207.07 246.352,209.59 C233.207,215.231 221.293,224.656 221.293,224.656 L235.062,240.656 C235.062,240.656 242.5,236.918 246.402,234.777 C252.152,231.629 266.34,223.109 260.738,213.121" fill="#FFF9FC"/>
    <path d="M260.738,213.121 C257.902,208.063 252.211,207.07 246.352,209.59 C233.207,215.231 221.293,224.656 221.293,224.656 L235.062,240.656 C235.062,240.656 242.5,236.918 246.402,234.777 C252.152,231.629 266.34,223.109 260.738,213.121 z M260.738,213.121 M368.191,221.406 C368.191,221.406 372.426,222.625 373.887,227.832 C374.934,231.578 371.316,236.731 371.316,236.731 M357.148,182 C357.148,182 360.137,178.758 358.676,173.547 C357.625,169.801 351.859,167.281 351.859,167.281" fill-opacity="0" stroke="#8C8C8C" stroke-width="3" stroke-linecap="round" stroke-linejoin="round"/>
    <path d="M291.895,221.801 C292.973,225.656 280.453,230.082 279,224.895 C277.547,219.711 290.816,217.953 291.895,221.801" fill="#F8BCB5"/>
    <path d="M291.895,221.801 C292.973,225.656 280.453,230.082 279,224.895 C277.547,219.711 290.816,217.953 291.895,221.801 z M291.895,221.801" fill-opacity="0" stroke="#8C8C8C" stroke-width="3" stroke-linecap="round" stroke-linejoin="round"/>
    <g clip-path="url(#Clip_3)">
      <path d="M-12.285,248.379 C26.344,233.258 76.16,202.168 169.441,197.82 C245.086,194.297 239.168,227.691 272.695,275.297 C297.105,309.953 351.559,302.738 367.309,328.238 C373.535,338.328 69.559,404.738 69.559,404.738 L-167.441,362.738 C-167.441,362.738 -68.996,270.574 -12.285,248.379" fill="#F7F4EF"/>
      <path d="M-12.285,248.379 C26.344,233.258 76.16,202.168 169.441,197.82 C245.086,194.297 239.168,227.691 272.695,275.297 C297.105,309.953 351.559,302.738 367.309,328.238 C373.535,338.328 69.559,404.738 69.559,404.738 L-167.441,362.738 C-167.441,362.738 -68.996,270.574 -12.285,248.379 z M-12.285,248.379" fill-opacity="0" stroke="#8C8C8C" stroke-width="3" stroke-linecap="round" stroke-linejoin="round"/>
    </g>
    <path d="M309.293,288.461 C321.387,280.992 336.887,273.723 353.949,267.938 C378.613,259.578 400.805,256.258 414.566,258.024" fill="#F7F4EF"/>
    <path d="M309.293,288.461 C321.387,280.992 336.887,273.723 353.949,267.938 C378.613,259.578 400.805,256.258 414.566,258.024" fill-opacity="0" stroke="#8C8C8C" stroke-width="3" stroke-linecap="round" stroke-linejoin="round"/>
  </g>
<script xmlns=""/></svg>