<?xml version="1.0" encoding="UTF-8"?>
<!DOCTYPE svg PUBLIC "-//W3C//DTD SVG 1.1//EN" "http://www.w3.org/Graphics/SVG/1.1/DTD/svg11.dtd">
<svg version="1.1" xmlns="http://www.w3.org/2000/svg" xmlns:xlink="http://www.w3.org/1999/xlink" x="0" y="0" width="1572" height="1050" viewBox="0, 0, 1572, 1050">
  <g id="Layer_1">
    <path d="M693.509,637.3 C677.581,635.093 474.448,551.999 474.448,551.999 L362.499,289.899 L286.823,295.171 C286.823,295.171 376.712,563.207 426.373,603.787 C476.977,645.139 705.661,746.206 705.661,746.206 L693.509,637.3" fill="#F7CEB9"/>
    <path d="M693.509,637.3 C677.581,635.093 474.448,551.999 474.448,551.999 L362.499,289.899 L286.823,295.171 C286.823,295.171 376.712,563.207 426.373,603.787 C476.977,645.139 705.661,746.206 705.661,746.206 L693.509,637.3 z" fill-opacity="0" stroke="#1A1919" stroke-width="15.729" stroke-linecap="round" stroke-linejoin="round"/>
    <path d="M706.895,643.246 C706.895,643.246 510.838,554.464 489.877,533.503 C468.913,512.54 401.971,297.628 395.367,271.297 C261.76,275.794 247.4,306.62 247.4,306.62 C247.4,306.62 353.934,581.204 427.604,624.132 C508.019,670.989 693.331,755.454 693.331,755.454 L706.895,643.246" fill="#FFF47A"/>
    <path d="M706.895,643.246 C706.895,643.246 510.838,554.464 489.877,533.503 C468.913,512.54 401.971,297.628 395.367,271.297 C261.76,275.794 247.4,306.62 247.4,306.62 C247.4,306.62 353.934,581.204 427.604,624.132 C508.019,670.989 693.331,755.454 693.331,755.454 L706.895,643.246 z" fill-opacity="0" stroke="#1A1919" stroke-width="15.729" stroke-linecap="round" stroke-linejoin="round"/>
    <path d="M980.976,628.448 C994.54,637.08 1170.87,836.836 1170.87,836.836 L1308.97,697.5 L1363.22,750.521 C1363.22,750.521 1234.99,920.682 1170.87,919.45 C1105.53,918.193 983.442,754.837 983.442,754.837 L980.976,628.448" fill="#F7CEB9"/>
    <path d="M980.976,628.448 C994.54,637.08 1170.87,836.836 1170.87,836.836 L1308.97,697.5 L1363.22,750.521 C1363.22,750.521 1234.99,920.682 1170.87,919.45 C1105.53,918.193 983.442,754.837 983.442,754.837 L980.976,628.448 z" fill-opacity="0" stroke="#1A1919" stroke-width="15.729" stroke-linecap="round" stroke-linejoin="round"/>
    <path d="M988.374,629.065 C988.374,629.065 1154.52,823.888 1169.63,823.888 C1184.74,823.888 1299.05,664.381 1299.05,664.381 L1402.68,763.777 C1402.68,763.777 1252.87,942.261 1160.39,929.314 C1069.62,916.608 948.297,709.83 948.297,709.83 L988.374,629.065" fill="#FFF47A"/>
    <path d="M988.374,629.065 C988.374,629.065 1154.52,823.888 1169.63,823.888 C1184.74,823.888 1299.05,664.381 1299.05,664.381 L1402.68,763.777 C1402.68,763.777 1252.87,942.261 1160.39,929.314 C1069.62,916.608 948.297,709.83 948.297,709.83 L988.374,629.065 z" fill-opacity="0" stroke="#1A1919" stroke-width="15.729" stroke-linecap="round" stroke-linejoin="round"/>
    <g>
      <path d="M1527.84,730.792 C1558.67,723.393 1546.29,693.083 1534,696.266 C1521.72,699.451 1524.42,701.715 1494,708.621 C1522.97,700.624 1545.33,690.916 1553.63,688.063 C1571.93,681.783 1561.55,656.667 1546.81,660.215 C1536.95,662.59 1477.83,684.962 1469.63,685.148 C1495.3,676.96 1538.11,659.65 1550.63,653.664 C1563.19,647.657 1552,615.167 1526.88,627.726 C1513.46,634.433 1446.17,662.542 1446.17,662.542 C1446.17,662.542 1496.57,638.647 1506.95,634.005 C1515.12,630.348 1508.04,605.065 1495.48,608.615 C1483.93,611.88 1474.21,617.448 1443.61,629.637 C1416.26,640.526 1382.72,652.529 1384.27,643.835 C1385.82,635.14 1433.61,613.01 1410.73,593.594 C1392.28,577.94 1384.95,605.949 1354.87,612.175 C1319.32,619.529 1292.1,638.758 1284.93,675.303 C1277.74,711.85 1308.82,775.798 1378.72,771.543 C1419.47,770.935 1517.02,733.387 1527.84,730.792" fill="#F7CEB9"/>
      <path d="M1527.84,730.792 C1558.67,723.393 1546.29,693.083 1534,696.266 C1521.72,699.451 1524.42,701.715 1494,708.621 C1522.97,700.624 1545.33,690.916 1553.63,688.063 C1571.93,681.783 1561.55,656.667 1546.81,660.215 C1536.95,662.59 1477.83,684.962 1469.63,685.148 C1495.3,676.96 1538.11,659.65 1550.63,653.664 C1563.19,647.657 1552,615.167 1526.88,627.726 C1513.46,634.433 1446.17,662.542 1446.17,662.542 C1446.17,662.542 1496.57,638.647 1506.95,634.005 C1515.12,630.348 1508.04,605.065 1495.48,608.615 C1483.93,611.88 1474.21,617.448 1443.61,629.637 C1416.26,640.526 1382.72,652.529 1384.27,643.835 C1385.82,635.14 1433.61,613.01 1410.73,593.594 C1392.28,577.94 1384.95,605.949 1354.87,612.175 C1319.32,619.529 1292.1,638.758 1284.93,675.303 C1277.74,711.85 1308.82,775.798 1378.72,771.543 C1419.47,770.935 1517.02,733.387 1527.84,730.792 z M1390.91,714.001 C1399.1,709.906 1444.42,703.079 1462.72,711.817" fill-opacity="0" stroke="#1A1919" stroke-width="15.729" stroke-linecap="round" stroke-linejoin="round"/>
    </g>
    <path d="M335.021,193.788 C338.432,185.64 320.321,136.901 350.074,132.975 C374.059,129.808 366.568,160.448 383.793,185.876 C404.937,217.091 410.064,236.208 401.906,259.021 C391.814,287.24 347.245,315.849 304.131,305.03 C261.02,294.212 200.688,249.964 216.601,161.168 L335.021,193.788" fill="#F7CEB9"/>
    <path d="M335.021,193.788 C338.432,185.64 320.321,136.901 350.074,132.975 C374.059,129.808 366.568,160.448 383.793,185.876 C404.937,217.091 410.064,236.208 401.906,259.021 C391.814,287.24 347.245,315.849 304.131,305.03 C261.02,294.212 200.688,249.964 216.601,161.168 L335.021,193.788 z M335.906,256.596 C329.892,249.689 290.591,226.113 270.347,227.223" fill-opacity="0" stroke="#1A1919" stroke-width="15.729" stroke-linecap="round" stroke-linejoin="round"/>
    <path d="M836.418,564.51 L866.949,564.51 L869.706,603.261 L944.452,628.874 L944.452,690.918 L728.35,690.918 L728.35,628.874 L803.095,603.261 L805.852,564.51 L836.418,564.51" fill="#F7D0BA"/>
    <path d="M836.418,564.51 L866.949,564.51 L869.706,603.261 L944.452,628.874 L944.452,690.918 L728.35,690.918 L728.35,628.874 L803.095,603.261 L805.852,564.51 L836.418,564.51 z" fill-opacity="0" stroke="#1A1919" stroke-width="15.729" stroke-linecap="round" stroke-linejoin="round"/>
    <path d="M1164.93,439.816 C1220.71,536.43 1139.89,635.416 1211.78,718.92 C1132.59,726.343 1010.94,619.616 993.489,538.799 C981.95,485.364 982.377,430.919 1029.72,403.586 C1077.06,376.253 1137.6,392.474 1164.93,439.816" fill="#865B37"/>
    <path d="M1164.93,439.816 C1220.71,536.43 1139.89,635.416 1211.78,718.92 C1132.59,726.343 1010.94,619.616 993.489,538.799 C981.95,485.364 982.377,430.919 1029.72,403.586 C1077.06,376.253 1137.6,392.474 1164.93,439.816 z" fill-opacity="0" stroke="#1A1919" stroke-width="15.729" stroke-linecap="round" stroke-linejoin="round"/>
    <path d="M1121.29,288.792 C1121.29,443.572 978.866,555.412 834.248,555.412 C689.625,555.412 547.2,443.572 547.2,288.792 C547.2,134.01 675.717,8.534 834.248,8.534 C992.777,8.534 1121.29,134.01 1121.29,288.792" fill="#865B37"/>
    <path d="M1121.29,288.792 C1121.29,443.572 978.866,555.412 834.248,555.412 C689.625,555.412 547.2,443.572 547.2,288.792 C547.2,134.01 675.717,8.534 834.248,8.534 C992.777,8.534 1121.29,134.01 1121.29,288.792 z" fill-opacity="0" stroke="#1A1919" stroke-width="15.729" stroke-linecap="round" stroke-linejoin="round"/>
    <path d="M1048.52,367.157 C1065.03,353.562 1096.43,336.083 1116.49,368.451 C1136.56,400.82 1078.62,475.912 1043.34,438.366 C1016.34,409.63 1048.52,367.157 1048.52,367.157" fill="#F7CEB9"/>
    <path d="M1048.52,367.157 C1065.03,353.562 1096.43,336.083 1116.49,368.451 C1136.56,400.82 1078.62,475.912 1043.34,438.366 C1016.34,409.63 1048.52,367.157 1048.52,367.157 z" fill-opacity="0" stroke="#1A1919" stroke-width="15.729" stroke-linecap="round" stroke-linejoin="round"/>
    <path d="M619.973,367.157 C603.464,353.562 572.066,336.083 551.999,368.451 C531.932,400.82 589.87,475.912 625.149,438.366 C652.153,409.63 619.973,367.157 619.973,367.157" fill="#F7CEB9"/>
    <path d="M619.973,367.157 C603.464,353.562 572.066,336.083 551.999,368.451 C531.932,400.82 589.87,475.912 625.149,438.366 C652.153,409.63 619.973,367.157 619.973,367.157 z" fill-opacity="0" stroke="#1A1919" stroke-width="15.729" stroke-linecap="round" stroke-linejoin="round"/>
    <path d="M1071.95,320.861 C1071.95,464.569 967.85,581.068 834.248,581.068 C700.643,581.068 596.542,464.569 596.542,320.861 C596.542,177.153 702.966,60.654 834.248,60.654 C965.525,60.654 1071.95,177.153 1071.95,320.861" fill="#F7CEB9"/>
    <path d="M1071.95,320.861 C1071.95,464.569 967.85,581.068 834.248,581.068 C700.643,581.068 596.542,464.569 596.542,320.861 C596.542,177.153 702.966,60.654 834.248,60.654 C965.525,60.654 1071.95,177.153 1071.95,320.861 z M834.248,416.018 C834.248,416.018 831.819,429.127 824.049,441.344 L834.677,445.027" fill-opacity="0" stroke="#1A1919" stroke-width="15.729" stroke-linecap="round" stroke-linejoin="round"/>
    <path d="M1004.18,465.09 C1004.18,487.963 985.649,506.51 962.762,506.51 C939.904,506.51 921.341,487.963 921.341,465.09 C921.341,442.216 939.904,423.67 962.762,423.67 C985.649,423.67 1004.18,442.216 1004.18,465.09" fill="#F1AF9C"/>
    <path d="M664.309,465.09 C664.309,487.963 682.841,506.51 705.729,506.51 C728.586,506.51 747.15,487.963 747.15,465.09 C747.15,442.216 728.586,423.67 705.729,423.67 C682.841,423.67 664.309,442.216 664.309,465.09" fill="#F1AF9C"/>
    <path d="M768.785,380.826 C768.785,401.512 754.715,418.303 737.328,418.303 C719.974,418.303 705.874,401.512 705.874,380.826 C705.874,360.124 719.974,343.35 737.328,343.35 C754.715,343.35 768.785,360.124 768.785,380.826" fill="#1A1919"/>
    <path d="M962.617,380.826 C962.617,401.512 948.551,418.303 931.163,418.303 C913.809,418.303 899.709,401.512 899.709,380.826 C899.709,360.124 913.809,343.35 931.163,343.35 C948.551,343.35 962.617,360.124 962.617,380.826" fill="#1A1919"/>
    <path d="M969.637,318.674 C969.637,318.674 955.334,302.081 937.446,302.081 C919.558,302.081 913.047,312.309 913.047,312.309 C913.047,312.309 925.226,305.797 937.605,305.797 C949.985,305.797 969.637,318.674 969.637,318.674" fill="#1A1919"/>
    <path d="M969.637,318.674 C969.637,318.674 955.334,302.081 937.446,302.081 C919.558,302.081 913.047,312.309 913.047,312.309 C913.047,312.309 925.226,305.797 937.605,305.797 C949.985,305.797 969.637,318.674 969.637,318.674 z" fill-opacity="0" stroke="#1A1919" stroke-width="5.243" stroke-linecap="round" stroke-linejoin="round"/>
    <path d="M884.439,482.973 C884.439,510.692 859.282,533.164 834.248,533.164 C809.209,533.164 784.052,510.692 784.052,482.973 L884.439,482.973" fill="#E0564C"/>
    <path d="M884.439,482.973 C884.439,510.692 859.282,533.164 834.248,533.164 C809.209,533.164 784.052,510.692 784.052,482.973 L884.439,482.973 z" fill-opacity="0" stroke="#1A1919" stroke-width="15.729" stroke-linecap="round" stroke-linejoin="round"/>
    <path d="M1049.17,181.042 C1097.72,270.377 1097.72,364.567 1036.55,522.845 C1029.31,514.704 1020.39,348.137 1019.2,325.403 C1019.12,323.735 1019.07,322.813 1019.07,322.813 L1019.09,322.705 C972.085,306.756 956.508,261.826 944.945,208.879 C888.463,277.376 731.613,307.946 649.324,322.339 L649.426,322.813 L649.292,325.403 C648.104,348.137 639.185,514.704 631.944,522.845 C570.771,364.567 570.771,270.377 619.323,181.042 C619.323,181.042 651.629,32.464 833.243,32.464 C1014.86,32.464 1005.73,146.65 1049.17,181.042" fill="#865B37"/>
    <path d="M1049.17,181.042 C1097.72,270.377 1097.72,364.567 1036.55,522.845 C1029.31,514.704 1020.39,348.137 1019.2,325.403 C1019.12,323.735 1019.07,322.813 1019.07,322.813 L1019.09,322.705 C972.085,306.756 956.508,261.826 944.945,208.879 C888.463,277.376 731.613,307.946 649.324,322.339 L649.426,322.813 L649.292,325.403 C648.104,348.137 639.185,514.704 631.944,522.845 C570.771,364.567 570.771,270.377 619.323,181.042" fill-opacity="0" stroke="#1A1919" stroke-width="15.729" stroke-linecap="round" stroke-linejoin="round"/>
    <path d="M998.054,96.435 C999.108,100.509 998.939,104.997 998.058,109.323 C997.132,113.649 995.52,117.856 993.467,121.793 C989.373,129.713 983.729,136.65 977.565,142.891 C971.363,149.116 964.512,154.595 957.32,159.497 C950.125,164.4 942.563,168.706 934.771,172.496 C919.182,180.085 902.673,185.617 885.779,189.321 C877.331,191.183 868.776,192.547 860.173,193.483 C855.871,193.954 851.554,194.271 847.232,194.526 C845.071,194.652 842.908,194.714 840.744,194.779 L837.498,194.846 L834.18,194.879 C832.252,194.878 829.875,194.839 827.758,194.784 C825.594,194.724 823.431,194.648 821.269,194.541 C816.947,194.292 812.631,193.959 808.327,193.507 C799.723,192.572 791.166,191.213 782.716,189.358 C765.82,185.655 749.303,180.138 733.712,172.545 C725.916,168.759 718.355,164.445 711.157,159.543 C703.964,154.64 697.112,149.155 690.908,142.927 C684.746,136.68 679.103,129.738 675.012,121.81 C672.962,117.869 671.352,113.659 670.429,109.33 C669.553,105 669.387,100.51 670.448,96.435 C671.514,100.494 673.313,104.041 675.557,107.19 C677.771,110.354 680.416,113.128 683.211,115.691 C686.057,118.217 689.029,120.569 692.189,122.688 C695.332,124.821 698.558,126.827 701.912,128.636 C715.261,135.969 729.656,141.339 744.264,145.645 C758.908,149.893 773.852,153.002 788.898,155.07 C796.425,156.094 803.974,156.891 811.539,157.395 C815.32,157.664 819.104,157.868 822.892,157.981 C824.784,158.058 826.677,158.106 828.57,158.142 L834.321,158.185 C864.454,158.17 894.969,154.163 924.257,145.694 C938.87,141.39 953.267,136.012 966.618,128.673 C973.284,125.001 979.651,120.789 985.313,115.708 C988.106,113.141 990.75,110.364 992.96,107.196 C995.199,104.044 996.995,100.494 998.054,96.435" fill="#956949"/>
    <path d="M310.807,273.783 L272.103,330.814 L233.398,273.783 L310.807,273.783" fill="#FFFFFE"/>
    <path d="M310.807,273.783 L272.103,330.814 L233.398,273.783 L310.807,273.783 z" fill-opacity="0" stroke="#343534" stroke-width="15.729" stroke-linecap="round" stroke-linejoin="round"/>
    <path d="M95.69,403.982 L272.096,278.63 L449.464,403.982 L95.69,403.982 z M500.896,405.558 L284.385,255.869 L284.385,229.942 C316.061,224.285 340.248,196.48 340.248,163.152 C340.248,125.79 309.802,95.373 272.409,95.373 C249.152,95.373 227.828,107.076 215.282,126.704 C211.682,132.256 213.333,139.654 218.87,143.225 C224.467,146.736 231.834,145.146 235.406,139.549 C243.51,126.854 257.344,119.261 272.409,119.261 C296.66,119.261 316.301,138.978 316.301,163.152 C316.301,187.402 296.66,207.074 272.409,207.074 C265.839,207.074 260.467,212.401 260.467,219.032 L260.467,255.457 L43.662,405.926 C38.765,408.971 36.482,414.892 38.065,420.436 C39.647,425.978 44.715,429.8 50.479,429.8 L494.67,429.8 C494.682,429.8 494.692,429.8 494.706,429.8 C501.836,429.8 507.616,424.021 507.616,416.891 C507.616,412.004 504.901,407.751 500.896,405.558" fill="#00A3DA"/>
    <path d="M95.69,403.982 L272.096,278.63 L449.464,403.982 L95.69,403.982 z M500.896,405.558 L284.385,255.869 L284.385,229.942 C316.061,224.285 340.248,196.48 340.248,163.152 C340.248,125.79 309.802,95.373 272.409,95.373 C249.152,95.373 227.828,107.076 215.282,126.704 C211.682,132.256 213.333,139.654 218.87,143.225 C224.467,146.736 231.834,145.146 235.406,139.549 C243.51,126.854 257.344,119.261 272.409,119.261 C296.66,119.261 316.301,138.978 316.301,163.152 C316.301,187.402 296.66,207.074 272.409,207.074 C265.839,207.074 260.467,212.401 260.467,219.032 L260.467,255.457 L43.662,405.926 C38.765,408.971 36.482,414.892 38.065,420.436 C39.647,425.978 44.715,429.8 50.479,429.8 L494.67,429.8 C494.682,429.8 494.692,429.8 494.706,429.8 C501.836,429.8 507.616,424.021 507.616,416.891 C507.616,412.004 504.901,407.751 500.896,405.558 z" fill-opacity="0" stroke="#1A1919" stroke-width="15.729" stroke-linecap="round" stroke-linejoin="round"/>
    <path d="M365.594,306.945 C365.594,306.945 535.218,377.05 536.342,443.975 L536.342,873.42 L7.864,873.42 L7.864,443.975 C8.987,377.05 178.58,306.945 178.58,306.945 L273.58,318.304 L328.786,300.448 L365.594,306.945" fill="#FFFFFE"/>
    <path d="M365.594,306.945 C365.594,306.945 535.218,377.05 536.342,443.975 L536.342,873.42 L7.864,873.42 L7.864,443.975 C8.987,377.05 178.58,306.945 178.58,306.945 L273.58,318.304 L328.786,300.448 L365.594,306.945 z" fill-opacity="0" stroke="#343534" stroke-width="15.729" stroke-linecap="round" stroke-linejoin="round"/>
    <path d="M7.864,820.826 L536.342,820.826" fill="#FFFFFE"/>
    <path d="M7.864,820.826 L536.342,820.826" fill-opacity="0" stroke="#343534" stroke-width="15.729" stroke-linecap="round" stroke-linejoin="round"/>
    <path d="M61.776,433.607 L61.776,937.795 C128.687,971.783 195.597,1000.099 238.633,1000.099 L305.572,1000.099 C348.593,1000.099 415.518,971.783 482.428,937.795 L482.428,433.607" fill="#FFFFFE"/>
    <path d="M61.776,433.607 L61.776,937.795 C128.687,971.783 195.597,1000.099 238.633,1000.099 L305.572,1000.099 C348.593,1000.099 415.518,971.783 482.428,937.795 L482.428,433.607" fill-opacity="0" stroke="#343534" stroke-width="15.729" stroke-linecap="round" stroke-linejoin="round"/>
    <path d="M321.987,273.482 L273.58,318.304 L308.229,382.227 L377.553,304.559 L321.987,273.482" fill="#FFFFFE"/>
    <path d="M321.987,273.482 L273.58,318.304 L308.229,382.227 L377.553,304.559 L321.987,273.482 z" fill-opacity="0" stroke="#343534" stroke-width="15.729" stroke-linecap="round" stroke-linejoin="round"/>
    <path d="M222.216,273.482 L270.625,318.304 L235.976,382.227 L166.65,304.559 L222.216,273.482" fill="#FFFFFE"/>
    <path d="M222.216,273.482 L270.625,318.304 L235.976,382.227 L166.65,304.559 L222.216,273.482 z M272.096,371.483 L272.096,994.485 M430.986,537.865 C430.986,537.865 401.713,567.47 380.809,567.47 C359.862,567.47 330.602,537.865 330.602,537.865 L330.602,465.628 L430.986,465.628 L430.986,537.865 z" fill-opacity="0" stroke="#343534" stroke-width="15.729" stroke-linecap="round" stroke-linejoin="round"/>
    <path d="M836.342,720.162 C923.323,720.162 927.947,691.892 927.947,691.892 L930.608,618.245 L929.25,617.805 C929.25,660.487 887.325,685.959 836.408,685.959 C785.493,685.959 744.869,660.487 744.869,617.805 L742.212,618.813 L744.853,691.892 C744.853,691.892 749.354,720.162 836.342,720.162" fill="#FFF47A"/>
    <path d="M836.342,720.162 C923.323,720.162 927.947,691.892 927.947,691.892 L930.608,618.245 L929.25,617.805 C929.25,660.487 887.325,685.959 836.408,685.959 C785.493,685.959 744.869,660.487 744.869,617.805 L742.212,618.813 L744.853,691.892 C744.853,691.892 749.354,720.162 836.342,720.162 z" fill-opacity="0" stroke="#1A1919" stroke-width="15.729" stroke-linecap="round" stroke-linejoin="round"/>
    <path d="M1030.07,1042.14 C1008.12,887.768 988.834,739.553 986.574,712.166 C981.069,645.45 988.077,623.589 988.077,623.589 L930.917,609.706 L927.947,691.892 C927.947,691.892 923.323,720.162 836.342,720.162 C749.354,720.162 744.853,691.892 744.853,691.892 L741.884,609.706 L684.727,623.589 C684.727,623.589 691.734,645.45 686.228,712.166 C683.967,739.553 664.681,887.768 642.728,1042.14 L1030.07,1042.14" fill="#E05541"/>
    <path d="M1030.07,1042.14 C1008.12,887.768 988.834,739.553 986.574,712.166 C981.069,645.45 988.077,623.589 988.077,623.589 L930.917,609.706 L927.947,691.892 C927.947,691.892 923.323,720.162 836.342,720.162 C749.354,720.162 744.853,691.892 744.853,691.892 L741.884,609.706 L684.727,623.589 C684.727,623.589 691.734,645.45 686.228,712.166 C683.967,739.553 664.681,887.768 642.728,1042.14 L1030.07,1042.14 z" fill-opacity="0" stroke="#1A1919" stroke-width="15.729" stroke-linecap="round" stroke-linejoin="round"/>
    <path d="M280.437,150.485 C315.033,161.736 338.909,149.066 331.401,120.971 C325.343,98.289 283.269,106.56 265.535,114.962 C259.027,118.045 247.213,127.502 236.305,140.793" fill="#F7CEB9"/>
    <path d="M280.437,150.485 C315.033,161.736 338.909,149.066 331.401,120.971 C325.343,98.289 283.269,106.56 265.535,114.962 C259.027,118.045 247.213,127.502 236.305,140.793" fill-opacity="0" stroke="#1A1919" stroke-width="15.729" stroke-linecap="round" stroke-linejoin="round"/>
    <path d="M233.12,163.624 C268.327,171.838 326.767,185.242 325.689,148.801 C324.772,117.767 239.592,123.199 226.95,134.323 C219.884,140.543 202.635,183.135 219.973,198.365" fill="#F7CEB9"/>
    <path d="M233.12,163.624 C268.327,171.838 326.767,185.242 325.689,148.801 C324.772,117.767 239.592,123.199 226.95,134.323 C219.884,140.543 202.635,183.135 219.973,198.365" fill-opacity="0" stroke="#1A1919" stroke-width="15.729" stroke-linecap="round" stroke-linejoin="round"/>
    <path d="M247.265,186.904 C269.133,196.028 320.274,205.905 318.104,176.703 C315.933,147.503 244.59,149.754 229.721,151.055 C209.677,152.809 221.546,191.916 224.882,196.807" fill="#F7CEB9"/>
    <path d="M247.265,186.904 C269.133,196.028 320.274,205.905 318.104,176.703 C315.933,147.503 244.59,149.754 229.721,151.055 C209.677,152.809 221.546,191.916 224.882,196.807" fill-opacity="0" stroke="#1A1919" stroke-width="15.729" stroke-linecap="round" stroke-linejoin="round"/>
    <path d="M246.595,208.544 C261.319,212.574 299.662,217.397 298.972,197.035 C298.372,179.341 242.951,168.897 228.894,184.254 C214.834,199.611 216.896,216.283 222.817,222.211" fill="#F7CEB9"/>
    <path d="M246.595,208.544 C261.319,212.574 299.662,217.397 298.972,197.035 C298.372,179.341 242.951,168.897 228.894,184.254 C214.834,199.611 216.896,216.283 222.817,222.211" fill-opacity="0" stroke="#1A1919" stroke-width="15.729" stroke-linecap="round" stroke-linejoin="round"/>
  </g>
</svg>
