<?xml version="1.0" encoding="UTF-8"?>
<!DOCTYPE svg PUBLIC "-//W3C//DTD SVG 1.1//EN" "http://www.w3.org/Graphics/SVG/1.1/DTD/svg11.dtd">
<svg version="1.1" xmlns="http://www.w3.org/2000/svg" xmlns:xlink="http://www.w3.org/1999/xlink" x="0" y="0" width="568" height="410" viewBox="0, 0, 568, 410">
  <defs>
    <clipPath id="Clip_1">
      <path d="M146.061,191 L36.254,191 L36.254,21 L146.061,21 z"/>
    </clipPath>
    <clipPath id="Clip_2">
      <path d="M568.653,-1 L568.653,410.445 L-0.841,410.445 L-0.841,-1 L568.653,-1 z"/>
    </clipPath>
  </defs>
  <g id="Layer_1">
    <g clip-path="url(#Clip_2)">
      <path d="M-59.629,-45.204 L730.92,-45.204 L730.92,485.503 L-59.629,485.503 L-59.629,-45.204 z" fill="#EEEEEE"/>
      <path d="M146.061,191 L36.254,191 L36.254,21 L146.061,21 z" fill="#EFFAFF"/>
      <path d="M266.255,191 L156.448,191 L156.448,21 L266.255,21 z" fill="#EFFAFF"/>
      <path d="M466.683,108.404 L460.786,86.023 L454.888,108.404 L460.786,130.788 z" fill="#FFE373"/>
      <path d="M460.786,100.859 L443.299,108.404 L460.786,115.956 L478.273,108.404 z" fill="#FFE373"/>
      <path d="M204.949,257.569 L199.051,235.187 L193.154,257.569 L199.051,279.952 z" fill="#FFE373"/>
      <path d="M199.051,250.023 L181.564,257.569 L199.051,265.12 L216.539,257.569 z" fill="#FFE373"/>
      <path d="M638.307,378.001 L638.306,377.999 C636.356,376.114 631.3,369.833 627.878,368.585 C598.239,347.591 472.247,317.008 380.134,317.489 C383.458,315.106 386.069,312.698 386.716,310.356 C388.826,302.712 376.803,297.415 396.848,289.124 C414.301,281.901 404.6,278.946 405.725,265.184 C406.642,253.987 422.835,257.368 428.836,231.721 L491.614,188.851 L491.772,189.016 C508.165,192.389 515.791,184.84 516.456,184.584 C516.456,184.584 528.446,183.278 531.477,182.899 C538.31,182.047 537.223,177.195 532.61,176.344 C529.311,175.735 519.8,174.694 519.8,174.694 C519.8,174.694 528.135,170.516 534.805,166.221 C541.475,161.928 536.616,156.877 531.608,158.82 C527.85,160.278 514.723,164.819 514.723,164.819 C514.723,164.819 523.75,155.83 528.916,149.037 C533.426,143.106 527.339,139.637 522.019,143.848 C518.958,146.272 507.404,155.678 507.404,155.678 C507.404,155.678 511.831,148.449 516.196,139.674 C520.464,131.092 512.35,129.399 508.969,133.475 C505.778,137.324 491.874,156.83 491.874,156.83 C491.874,156.83 491.432,154.774 490.567,148.893 C489.499,141.619 481.522,139.49 480.828,149.981 C479.844,164.828 480.297,173.693 480.487,176.358 L480.14,176.057 L431.212,204.153 C431.97,191.569 435.247,179.913 434.541,168.44 C434.764,168.354 434.883,168.278 434.883,168.278 C434.883,168.278 437.363,118.535 425.629,85.384 C413.129,50.068 380.62,20.067 366.319,26.062 C343.388,9.255 315.665,12.279 289.975,26.173 C264.286,40.067 250.225,56.45 239.985,85.384 C231.36,109.749 230.415,143.076 230.518,159.031 C230.477,163.936 230.659,166.721 230.668,166.72 C230.703,167.729 230.73,170.766 230.73,170.766 C230.73,170.766 230.813,170.765 230.979,170.733 C230.793,181.365 233.64,192.195 234.383,203.814 L186.046,176.057 L185.699,176.358 C185.889,173.693 186.342,164.828 185.358,149.981 C184.663,139.49 176.688,141.619 175.618,148.893 C174.755,154.774 174.311,156.83 174.311,156.83 C174.311,156.83 160.409,137.324 157.217,133.475 C153.836,129.399 145.723,131.092 149.99,139.674 C154.356,148.449 158.781,155.678 158.781,155.678 C158.781,155.678 147.227,146.272 144.167,143.848 C138.846,139.637 132.758,143.106 137.27,149.037 C142.436,155.83 151.463,164.819 151.463,164.819 C151.463,164.819 138.336,160.278 134.577,158.82 C129.57,156.877 124.711,161.928 131.382,166.221 C138.051,170.516 146.385,174.694 146.385,174.694 C146.385,174.694 136.875,175.735 133.577,176.344 C128.962,177.195 127.876,182.047 134.708,182.899 C137.74,183.278 149.731,184.584 149.731,184.584 C150.395,184.84 158.02,192.389 174.415,189.016 L174.571,188.851 L236.675,231.26 C242.591,257.403 258.967,253.92 259.889,265.184 C261.014,278.946 251.313,281.901 268.766,289.124 C288.811,297.415 276.789,302.712 278.899,310.356 C280.398,315.782 292.444,321.575 299.473,326.557 C299.124,328.237 298.766,329.923 298.401,331.612 C296.864,332.19 295.339,332.78 293.833,333.385 C266.038,321.827 234.458,319.321 179.255,321.893 C54.877,327.688 8.76,348.733 -42.745,368.893 C-118.358,398.489 -239.745,497.001 -239.745,497.001 L76.255,553.001 C76.255,553.001 481.562,464.454 473.255,451.001 C472.351,449.538 471.394,448.165 470.413,446.831 C489.223,451.891 494.326,453.462 523.928,446.016 C573.589,433.528 641.745,402.981 641.745,385.721 C641.745,382.745 640.546,380.165 638.307,378.001" fill="#797979"/>
      <path d="M638.307,378.001 L638.306,377.999 C636.356,376.114 631.3,369.833 627.878,368.585 C598.239,347.591 472.247,317.008 380.134,317.489 C383.458,315.106 386.069,312.698 386.716,310.356 C388.826,302.712 376.803,297.415 396.848,289.124 C414.301,281.901 404.6,278.946 405.725,265.184 C406.642,253.987 422.835,257.368 428.836,231.721 L491.614,188.851 L491.772,189.016 C508.165,192.389 515.791,184.84 516.456,184.584 C516.456,184.584 528.446,183.278 531.477,182.899 C538.31,182.047 537.223,177.195 532.61,176.344 C529.311,175.735 519.8,174.694 519.8,174.694 C519.8,174.694 528.135,170.516 534.805,166.221 C541.475,161.928 536.616,156.877 531.608,158.82 C527.85,160.278 514.723,164.819 514.723,164.819 C514.723,164.819 523.75,155.83 528.916,149.037 C533.426,143.106 527.339,139.637 522.019,143.848 C518.958,146.272 507.404,155.678 507.404,155.678 C507.404,155.678 511.831,148.449 516.196,139.674 C520.464,131.092 512.35,129.399 508.969,133.475 C505.778,137.324 491.874,156.83 491.874,156.83 C491.874,156.83 491.432,154.774 490.567,148.893 C489.499,141.619 481.522,139.49 480.828,149.981 C479.844,164.828 480.297,173.693 480.487,176.358 L480.14,176.057 L431.212,204.153 C431.97,191.569 435.247,179.913 434.541,168.44 C434.764,168.354 434.883,168.278 434.883,168.278 C434.883,168.278 437.363,118.535 425.629,85.384 C413.129,50.068 380.62,20.067 366.319,26.062 C343.388,9.255 315.665,12.279 289.975,26.173 C264.286,40.067 250.225,56.45 239.985,85.384 C231.36,109.749 230.415,143.076 230.518,159.031 C230.477,163.936 230.659,166.721 230.668,166.72 C230.703,167.729 230.73,170.766 230.73,170.766 C230.73,170.766 230.813,170.765 230.979,170.733 C230.793,181.365 233.64,192.195 234.383,203.814 L186.046,176.057 L185.699,176.358 C185.889,173.693 186.342,164.828 185.358,149.981 C184.663,139.49 176.688,141.619 175.618,148.893 C174.755,154.774 174.311,156.83 174.311,156.83 C174.311,156.83 160.409,137.324 157.217,133.475 C153.836,129.399 145.723,131.092 149.99,139.674 C154.356,148.449 158.781,155.678 158.781,155.678 C158.781,155.678 147.227,146.272 144.167,143.848 C138.846,139.637 132.758,143.106 137.27,149.037 C142.436,155.83 151.463,164.819 151.463,164.819 C151.463,164.819 138.336,160.278 134.577,158.82 C129.57,156.877 124.711,161.928 131.382,166.221 C138.051,170.516 146.385,174.694 146.385,174.694 C146.385,174.694 136.875,175.735 133.577,176.344 C128.962,177.195 127.876,182.047 134.708,182.899 C137.74,183.278 149.731,184.584 149.731,184.584 C150.395,184.84 158.02,192.389 174.415,189.016 L174.571,188.851 L236.675,231.26 C242.591,257.403 258.967,253.92 259.889,265.184 C261.014,278.946 251.313,281.901 268.766,289.124 C288.811,297.415 276.789,302.712 278.899,310.356 C280.398,315.782 292.444,321.575 299.473,326.557 C299.124,328.237 298.766,329.923 298.401,331.612 C296.864,332.19 295.339,332.78 293.833,333.385 C266.038,321.827 234.458,319.321 179.255,321.893 C54.877,327.688 8.76,348.733 -42.745,368.893 C-118.358,398.489 -239.745,497.001 -239.745,497.001 L76.255,553.001 C76.255,553.001 481.562,464.454 473.255,451.001 C472.351,449.538 471.394,448.165 470.413,446.831 C489.223,451.891 494.326,453.462 523.928,446.016 C573.589,433.528 641.745,402.981 641.745,385.721 C641.745,382.745 640.546,380.165 638.307,378.001 z" fill-opacity="0" stroke="#797979" stroke-width="8" stroke-linecap="round" stroke-linejoin="round"/>
      <path d="M638.307,378.001 L638.306,377.999 C636.356,376.114 631.3,369.833 627.878,368.585 C596.02,346.018 452.835,312.368 360.065,318.13 C267.255,323.893 205.255,392.893 205.255,392.893 L388.255,445.893 L412.813,428.649 C433.543,436.174 451.858,442.04 461.878,444.585 C488.298,451.298 490.296,454.475 523.928,446.016 C573.589,433.528 641.745,402.981 641.745,385.721 C641.745,382.745 640.546,380.165 638.307,378.001" fill="#FFFDF5"/>
      <path d="M638.307,378.001 L638.306,377.999 C636.356,376.114 631.3,369.833 627.878,368.585 C596.02,346.018 452.835,312.368 360.065,318.13 C267.255,323.893 205.255,392.893 205.255,392.893 L388.255,445.893 L412.813,428.649 C433.543,436.174 451.858,442.04 461.878,444.585 C488.298,451.298 490.296,454.475 523.928,446.016 C573.589,433.528 641.745,402.981 641.745,385.721 C641.745,382.745 640.546,380.165 638.307,378.001 z" fill-opacity="0" stroke="#797979" stroke-width="4" stroke-linecap="round" stroke-linejoin="round"/>
      <path d="M431.05,209.022 C431.05,193.145 436.229,178.841 434.175,164.685 C430.706,147.656 418.628,131.443 410.059,119.794 C395.543,98.501 372.411,86.659 333.307,86.46 L333.307,86.45 C333.138,86.45 332.975,86.454 332.807,86.455 C332.639,86.454 332.476,86.45 332.307,86.45 L332.307,86.46 C293.204,86.659 270.072,98.501 255.555,119.794 C246.987,131.443 234.909,147.656 231.44,164.685 C229.385,178.841 234.564,193.145 234.564,209.022 C234.564,259.685 258.762,251.423 259.889,265.184 C261.014,278.946 251.313,281.901 268.766,289.124 C288.811,297.415 276.789,302.712 278.899,310.356 C281.196,318.671 308.274,327.85 304.085,333.649 C300.807,338.186 323.859,344.989 332.307,345.397 L332.307,345.419 C332.455,345.423 332.633,345.419 332.807,345.415 C332.982,345.419 333.16,345.423 333.307,345.419 L333.307,345.397 C341.756,344.989 364.807,338.186 361.53,333.649 C357.341,327.85 384.419,318.671 386.716,310.356 C388.826,302.712 376.803,297.415 396.848,289.124 C414.301,281.901 404.6,278.946 405.725,265.184 C406.852,251.423 431.05,259.685 431.05,209.022" fill="#AE9684"/>
      <path d="M431.05,209.022 C431.05,193.145 436.229,178.841 434.175,164.685 C430.706,147.656 418.628,131.443 410.059,119.794 C395.543,98.501 372.411,86.659 333.307,86.46 L333.307,86.45 C333.138,86.45 332.975,86.454 332.807,86.455 C332.639,86.454 332.476,86.45 332.307,86.45 L332.307,86.46 C293.204,86.659 270.072,98.501 255.555,119.794 C246.987,131.443 234.909,147.656 231.44,164.685 C229.385,178.841 234.564,193.145 234.564,209.022 C234.564,259.685 258.762,251.423 259.889,265.184 C261.014,278.946 251.313,281.901 268.766,289.124 C288.811,297.415 276.789,302.712 278.899,310.356 C281.196,318.671 308.274,327.85 304.085,333.649 C300.807,338.186 323.859,344.989 332.307,345.397 L332.307,345.419 C332.455,345.423 332.633,345.419 332.807,345.415 C332.982,345.419 333.16,345.423 333.307,345.419 L333.307,345.397 C341.756,344.989 364.807,338.186 361.53,333.649 C357.341,327.85 384.419,318.671 386.716,310.356 C388.826,302.712 376.803,297.415 396.848,289.124 C414.301,281.901 404.6,278.946 405.725,265.184 C406.852,251.423 431.05,259.685 431.05,209.022 z" fill-opacity="0" stroke="#797979" stroke-width="4" stroke-linecap="round" stroke-linejoin="round"/>
      <path d="M362.508,245.081 C356.392,245.081 349.293,246.684 343.59,248.402 L340.944,248.557 L339.583,234.177 L333.092,229.957 L326.601,234.177 L325.241,248.557 L322.608,248.403 C316.905,246.685 309.804,245.081 303.688,245.081 C295.646,245.081 307.04,282.508 307.04,282.508 L359.245,282.508 C359.245,282.508 370.55,245.081 362.508,245.081" fill="#FFEFD9"/>
      <path d="M362.508,245.081 C356.392,245.081 349.293,246.684 343.59,248.402 L340.944,248.557 L339.583,234.177 L333.092,229.957 L326.601,234.177 L325.241,248.557 L322.608,248.403 C316.905,246.685 309.804,245.081 303.688,245.081 C295.646,245.081 307.04,282.508 307.04,282.508 L359.245,282.508 C359.245,282.508 370.55,245.081 362.508,245.081 z" fill-opacity="0" stroke="#797979" stroke-width="4" stroke-linecap="round" stroke-linejoin="round"/>
      <path d="M306.8,313.008 L359.003,313.008 L358.026,285.876 L369.112,244.029 L351.915,246.888 L332.901,263.901 L313.887,246.888 L296.69,244.029 L307.776,285.876 z" fill="#FFF7FB"/>
      <path d="M306.8,313.008 L359.003,313.008 L358.026,285.876 L369.112,244.029 L351.915,246.888 L332.901,263.901 L313.887,246.888 L296.69,244.029 L307.776,285.876 L306.8,313.008 z" fill-opacity="0" stroke="#797979" stroke-width="4" stroke-linecap="round" stroke-linejoin="round"/>
      <path d="M357.352,246.567 L480.14,176.057 L480.487,176.358 C480.297,173.693 479.844,164.828 480.828,149.981 C481.522,139.49 489.499,141.619 490.567,148.893 C491.432,154.774 491.874,156.83 491.874,156.83 C491.874,156.83 505.778,137.324 508.969,133.475 C512.35,129.399 520.464,131.092 516.196,139.674 C511.831,148.449 507.404,155.678 507.404,155.678 C507.404,155.678 518.958,146.272 522.019,143.848 C527.339,139.637 533.426,143.106 528.916,149.037 C523.75,155.83 514.723,164.819 514.723,164.819 C514.723,164.819 527.85,160.278 531.608,158.82 C536.616,156.877 541.475,161.928 534.805,166.221 C528.135,170.516 519.8,174.694 519.8,174.694 C519.8,174.694 529.311,175.735 532.61,176.344 C537.223,177.195 538.31,182.047 531.477,182.899 C528.446,183.278 516.456,184.584 516.456,184.584 C515.791,184.84 508.165,192.389 491.772,189.016 L491.614,188.851 L358.505,279.747" fill="#FFEFD9"/>
      <path d="M357.352,246.567 L480.14,176.057 L480.487,176.358 C480.297,173.693 479.844,164.828 480.828,149.981 C481.522,139.49 489.499,141.619 490.567,148.893 C491.432,154.774 491.874,156.83 491.874,156.83 C491.874,156.83 505.778,137.324 508.969,133.475 C512.35,129.399 520.464,131.092 516.196,139.674 C511.831,148.449 507.404,155.678 507.404,155.678 C507.404,155.678 518.958,146.272 522.019,143.848 C527.339,139.637 533.426,143.106 528.916,149.037 C523.75,155.83 514.723,164.819 514.723,164.819 C514.723,164.819 527.85,160.278 531.608,158.82 C536.616,156.877 541.475,161.928 534.805,166.221 C528.135,170.516 519.8,174.694 519.8,174.694 C519.8,174.694 529.311,175.735 532.61,176.344 C537.223,177.195 538.31,182.047 531.477,182.899 C528.446,183.278 516.456,184.584 516.456,184.584 C515.791,184.84 508.165,192.389 491.772,189.016 L491.614,188.851 L358.505,279.747" fill-opacity="0" stroke="#797979" stroke-width="4" stroke-linecap="round" stroke-linejoin="round"/>
      <path d="M308.834,246.567 L186.046,176.057 L185.699,176.358 C185.889,173.693 186.342,164.828 185.358,149.981 C184.663,139.49 176.688,141.619 175.618,148.893 C174.755,154.774 174.311,156.83 174.311,156.83 C174.311,156.83 160.409,137.324 157.217,133.475 C153.836,129.399 145.723,131.092 149.99,139.674 C154.356,148.449 158.781,155.678 158.781,155.678 C158.781,155.678 147.227,146.272 144.167,143.848 C138.846,139.637 132.758,143.106 137.27,149.037 C142.436,155.83 151.463,164.819 151.463,164.819 C151.463,164.819 138.336,160.278 134.577,158.82 C129.57,156.877 124.711,161.928 131.382,166.221 C138.051,170.516 146.385,174.694 146.385,174.694 C146.385,174.694 136.875,175.735 133.577,176.344 C128.962,177.195 127.876,182.047 134.708,182.899 C137.74,183.278 149.731,184.584 149.731,184.584 C150.395,184.84 158.02,192.389 174.415,189.016 L174.571,188.851 L307.682,279.747" fill="#FFEFD9"/>
      <path d="M308.834,246.567 L186.046,176.057 L185.699,176.358 C185.889,173.693 186.342,164.828 185.358,149.981 C184.663,139.49 176.688,141.619 175.618,148.893 C174.755,154.774 174.311,156.83 174.311,156.83 C174.311,156.83 160.409,137.324 157.217,133.475 C153.836,129.399 145.723,131.092 149.99,139.674 C154.356,148.449 158.781,155.678 158.781,155.678 C158.781,155.678 147.227,146.272 144.167,143.848 C138.846,139.637 132.758,143.106 137.27,149.037 C142.436,155.83 151.463,164.819 151.463,164.819 C151.463,164.819 138.336,160.278 134.577,158.82 C129.57,156.877 124.711,161.928 131.382,166.221 C138.051,170.516 146.385,174.694 146.385,174.694 C146.385,174.694 136.875,175.735 133.577,176.344 C128.962,177.195 127.876,182.047 134.708,182.899 C137.74,183.278 149.731,184.584 149.731,184.584 C150.395,184.84 158.02,192.389 174.415,189.016 L174.571,188.851 L307.682,279.747" fill-opacity="0" stroke="#797979" stroke-width="4" stroke-linecap="round" stroke-linejoin="round"/>
      <path d="M347.025,248.343 C347.025,248.343 356.8,244.329 363.561,240.275 C366.645,238.425 389.403,228.161 389.403,228.161 L398.514,252.426 L356.012,285.948" fill="#FFF7FB"/>
      <path d="M347.025,248.343 C347.025,248.343 356.8,244.329 363.561,240.275 C366.645,238.425 389.403,228.161 389.403,228.161 L398.514,252.426 L356.012,285.948" fill-opacity="0" stroke="#797979" stroke-width="4" stroke-linecap="round" stroke-linejoin="round"/>
      <path d="M319.16,248.343 C319.16,248.343 309.385,244.329 302.624,240.275 C299.54,238.425 276.782,228.161 276.782,228.161 L267.671,252.426 L310.173,285.948" fill="#FFF7FB"/>
      <path d="M319.16,248.343 C319.16,248.343 309.385,244.329 302.624,240.275 C299.54,238.425 276.782,228.161 276.782,228.161 L267.671,252.426 L310.173,285.948" fill-opacity="0" stroke="#797979" stroke-width="4" stroke-linecap="round" stroke-linejoin="round"/>
      <path d="M308.024,279.348 C308.024,279.348 303.809,307.124 297.811,334.317 C294.048,351.385 288.091,368.005 286.676,378.061 C282.26,398.188 277.455,421.469 288.478,421.469 L302.978,421.469 L368.728,421.469 L377.73,421.469 C388.754,421.469 383.948,398.188 379.532,378.061 C378.118,368.005 372.161,351.385 368.397,334.317 C362.399,307.124 358.184,279.348 358.184,279.348" fill="#FFF7FB"/>
      <path d="M308.024,279.348 C308.024,279.348 303.809,307.124 297.811,334.317 C294.048,351.385 288.091,368.005 286.676,378.061 C282.26,398.188 277.455,421.469 288.478,421.469 L302.978,421.469 L368.728,421.469 L377.73,421.469 C388.754,421.469 383.948,398.188 379.532,378.061 C378.118,368.005 372.161,351.385 368.397,334.317 C362.399,307.124 358.184,279.348 358.184,279.348" fill-opacity="0" stroke="#797979" stroke-width="4" stroke-linecap="round" stroke-linejoin="round"/>
      <path d="M347.855,247.15 L332.694,261.695 C332.694,261.695 345.508,282.456 353.947,270.127 C362.387,257.798 352.467,246.549 352.467,246.549 z" fill="#FFF7FB"/>
      <path d="M347.855,247.15 L332.694,261.695 C332.694,261.695 345.508,282.456 353.947,270.127 C362.387,257.798 352.467,246.549 352.467,246.549 L347.855,247.15 z" fill-opacity="0" stroke="#797979" stroke-width="4" stroke-linecap="round" stroke-linejoin="round"/>
      <path d="M317.533,247.15 L332.694,261.695 C332.694,261.695 319.882,282.456 311.441,270.127 C303.001,257.798 312.921,246.549 312.921,246.549 z" fill="#FFF7FB"/>
      <path d="M317.533,247.15 L332.694,261.695 C332.694,261.695 319.882,282.456 311.441,270.127 C303.001,257.798 312.921,246.549 312.921,246.549 L317.533,247.15 z" fill-opacity="0" stroke="#797979" stroke-width="4" stroke-linecap="round" stroke-linejoin="round"/>
      <path d="M261.983,144.244 C261.983,144.244 233.841,138.436 233.841,163.88 C233.841,178.847 243.529,185.643 263.447,185.928" fill="#FFEFD9"/>
      <path d="M261.983,144.244 C261.983,144.244 233.841,138.436 233.841,163.88 C233.841,178.847 243.529,185.643 263.447,185.928" fill-opacity="0" stroke="#797979" stroke-width="4" stroke-linecap="round" stroke-linejoin="round"/>
      <path d="M244.565,165.257 C244.565,165.257 248.255,163.553 251.77,163.574" fill="#FFEFD9"/>
      <path d="M244.565,165.257 C244.565,165.257 248.255,163.553 251.77,163.574" fill-opacity="0" stroke="#797979" stroke-width="4" stroke-linecap="round" stroke-linejoin="round"/>
      <path d="M404.202,144.244 C404.202,144.244 432.344,138.436 432.344,163.88 C432.344,178.847 422.656,185.643 402.738,185.928" fill="#FFEFD9"/>
      <path d="M404.202,144.244 C404.202,144.244 432.344,138.436 432.344,163.88 C432.344,178.847 422.656,185.643 402.738,185.928" fill-opacity="0" stroke="#797979" stroke-width="4" stroke-linecap="round" stroke-linejoin="round"/>
      <path d="M421.622,165.257 C421.622,165.257 417.932,163.553 414.416,163.574" fill="#FFEFD9"/>
      <path d="M421.622,165.257 C421.622,165.257 417.932,163.553 414.416,163.574" fill-opacity="0" stroke="#797979" stroke-width="4" stroke-linecap="round" stroke-linejoin="round"/>
      <path d="M333.092,243.57 C212.333,243.57 224.016,46.623 333.092,46.623 C442.169,46.623 453.852,243.57 333.092,243.57" fill="#FFEFD9"/>
      <path d="M333.092,243.57 C212.333,243.57 224.016,46.623 333.092,46.623 C442.169,46.623 453.852,243.57 333.092,243.57 z" fill-opacity="0" stroke="#797979" stroke-width="4" stroke-linecap="round" stroke-linejoin="round"/>
      <path d="M425.629,85.384 C413.129,50.068 380.62,20.067 366.319,26.062 C343.388,9.255 315.665,12.279 289.975,26.173 C264.286,40.067 250.225,56.45 239.985,85.384 C231.36,109.749 230.415,143.076 230.518,159.031 C230.477,163.936 230.659,166.721 230.668,166.72 C230.703,167.729 230.73,170.766 230.73,170.766 C230.73,170.766 242.796,170.739 276.934,112.098 C311.882,52.068 360.65,55.567 360.65,55.567 C360.65,55.567 394.341,69.306 408.442,122.737 C422.545,176.169 434.883,168.278 434.883,168.278 C434.883,168.278 437.363,118.535 425.629,85.384" fill="#AE9684"/>
      <path d="M425.629,85.384 C413.129,50.068 380.62,20.067 366.319,26.062 C343.388,9.255 315.665,12.279 289.975,26.173 C264.286,40.067 250.225,56.45 239.985,85.384 C231.36,109.749 230.415,143.076 230.518,159.031 C230.477,163.936 230.659,166.721 230.668,166.72 C230.703,167.729 230.73,170.766 230.73,170.766 C230.73,170.766 242.796,170.739 276.934,112.098 C311.882,52.068 360.65,55.567 360.65,55.567 C360.65,55.567 394.341,69.306 408.442,122.737 C422.545,176.169 434.883,168.278 434.883,168.278 C434.883,168.278 437.363,118.535 425.629,85.384 z" fill-opacity="0" stroke="#797979" stroke-width="4" stroke-linecap="round" stroke-linejoin="round"/>
      <path d="M329.175,181.29 C329.175,181.29 327.841,187.29 333.092,186.957" fill-opacity="0" stroke="#797979" stroke-width="4" stroke-linecap="round" stroke-linejoin="round"/>
      <path d="M333.092,193.428 C319.571,193.428 310.69,189.773 310.69,189.773 C312.085,209.29 316.085,229.957 333.092,229.957 C350.102,229.957 354.102,209.29 355.495,189.773 C355.495,189.773 346.614,193.428 333.092,193.428" fill="#F4ACA6"/>
      <path d="M333.092,193.428 C319.571,193.428 310.69,189.773 310.69,189.773 C312.085,209.29 316.085,229.957 333.092,229.957 C350.102,229.957 354.102,209.29 355.495,189.773 C355.495,189.773 346.614,193.428 333.092,193.428 z" fill-opacity="0" stroke="#797979" stroke-width="4" stroke-linecap="round" stroke-linejoin="round"/>
      <path d="M360.375,106.524 C360.375,106.524 363.464,101.524 370.676,101.524 C375.862,101.524 381.176,108.024 381.176,108.024" fill-opacity="0" stroke="#797979" stroke-width="4" stroke-linecap="round" stroke-linejoin="round"/>
      <path d="M305.811,106.524 C305.811,106.524 302.723,101.524 295.51,101.524 C290.323,101.524 285.01,108.024 285.01,108.024" fill-opacity="0" stroke="#797979" stroke-width="4" stroke-linecap="round" stroke-linejoin="round"/>
      <path d="M286.592,153.188 C286.592,153.188 289.217,141.188 297.092,141.188 C304.967,141.188 306.092,152.688 306.092,152.688" fill-opacity="0" stroke="#797979" stroke-width="4" stroke-linecap="round" stroke-linejoin="round"/>
      <path d="M379.592,153.188 C379.592,153.188 376.967,141.188 369.092,141.188 C361.217,141.188 360.092,152.688 360.092,152.688" fill-opacity="0" stroke="#797979" stroke-width="4" stroke-linecap="round" stroke-linejoin="round"/>
      <path d="M-42.745,368.893 C8.76,348.733 54.877,327.688 179.255,321.893 C280.114,317.194 302.115,329.44 366.255,382.893 C409.673,419.079 452.255,417.001 473.255,451.001 C481.562,464.454 76.255,553.001 76.255,553.001 L-239.745,497.001 C-239.745,497.001 -118.358,398.489 -42.745,368.893" fill="#FFFDF5"/>
      <path d="M-42.745,368.893 C8.76,348.733 54.877,327.688 179.255,321.893 C280.114,317.194 302.115,329.44 366.255,382.893 C409.673,419.079 452.255,417.001 473.255,451.001 C481.562,464.454 76.255,553.001 76.255,553.001 L-239.745,497.001 C-239.745,497.001 -118.358,398.489 -42.745,368.893 z" fill-opacity="0" stroke="#797979" stroke-width="4" stroke-linecap="round" stroke-linejoin="round"/>
      <g clip-path="url(#Clip_1)">
        <path d="M101.755,150.394 C101.755,164.2 90.561,175.394 76.755,175.394 C62.948,175.394 51.755,164.2 51.755,150.394 C51.755,136.587 62.948,125.394 76.755,125.394 C90.561,125.394 101.755,136.587 101.755,150.394" fill="#FFF697"/>
        <path d="M79.255,201.894 L74.255,201.894 L74.255,186.894 L79.255,186.894 z" fill="#FFF697"/>
        <path d="M114.938,185.041 L111.403,188.577 L100.798,177.971 L104.332,174.435 z" fill="#FFF697"/>
        <path d="M128.255,152.893 L113.255,152.893 L113.255,147.893 L128.255,147.893 z" fill="#FFF697"/>
        <path d="M111.401,112.209 L114.937,115.744 L104.331,126.351 L100.795,122.816 z" fill="#FFF697"/>
        <path d="M74.253,98.894 L79.253,98.893 L79.253,113.893 L74.253,113.894 z" fill="#FFF697"/>
        <path d="M38.569,115.746 L42.104,112.21 L52.711,122.817 L49.176,126.353 z" fill="#FFF697"/>
        <path d="M25.255,152.895 L25.255,147.895 L40.253,147.895 L40.255,152.895 z" fill="#FFF697"/>
        <path d="M42.106,188.578 L38.571,185.043 L49.176,174.437 L52.714,177.971 z" fill="#FFF697"/>
      </g>
    </g>
  </g>
<script xmlns=""/></svg>