<?xml version="1.0" encoding="UTF-8" standalone="no"?>
<svg
   xmlns:dc="http://purl.org/dc/elements/1.1/"
   xmlns:cc="http://creativecommons.org/ns#"
   xmlns:rdf="http://www.w3.org/1999/02/22-rdf-syntax-ns#"
   xmlns:svg="http://www.w3.org/2000/svg"
   xmlns="http://www.w3.org/2000/svg"
   id="svg8282"
   version="1.1"
   viewBox="0 0 77.785355 98.258232"
   height="98.258232mm"
   width="77.785355mm">
  <defs
     id="defs8276">
    <clipPath
       id="Clip_1">
      <path
         d="m 460.451,141.278 v 378.5 H 134.825 v -378.5 z"
         id="path9049" />
    </clipPath>
  </defs>
  <metadata
     id="metadata8279">
    <rdf:RDF>
      <cc:Work
         rdf:about="">
        <dc:format>image/svg+xml</dc:format>
        <dc:type
           rdf:resource="http://purl.org/dc/dcmitype/StillImage" />
        <dc:title></dc:title>
      </cc:Work>
    </rdf:RDF>
  </metadata>
  <g
     transform="translate(66.106961,-99.704216)"
     id="layer1">
    <g
       transform="matrix(0.26458333,0,0,0.26458333,-106.04555,60.437857)"
       id="Layer_1">
      <g
         clip-path="url(#Clip_1)"
         id="g9224">
        <path
           style="fill:#797979"
           d="m 279.39,687.493 c -0.378,0.492 -0.708,0.959 -1.009,1.408 v -8.381 c 0,0 -0.023,-0.002 -0.063,-0.008 l -0.809,-81.914 h 1.482 l 10.967,82.715 c -4.03,0.988 -7.996,2.826 -10.568,6.18 M 261.523,421.559 c 2.02,1.144 4.118,1.99 6.239,2.594 1.544,1.222 2.589,2.351 3.255,3.416 -0.422,0.65 -0.845,1.302 -1.279,1.972 z M 436.699,232.083 c -9.097,-36.342 -38.617,-69.288 -53.422,-64.675 -21.236,-18.903 -49.121,-18.519 -76.011,-7.122 -26.891,11.397 -42.44,26.375 -55.376,54.208 -10.894,23.438 -14.993,56.526 -16.401,72.42 -0.506,4.878 -0.589,7.668 -0.58,7.668 -0.061,1.007 -0.321,4.033 -0.321,4.033 0,0 0.082,0.007 0.252,-0.01 -1.371,12.131 1.231,24.898 -0.06,38.457 -4.8,50.436 20.073,44.503 19.89,58.309 -0.054,4.061 -0.951,7.1 -1.767,9.596 -3.073,-2.334 -6.575,-5.434 -10.107,-8.722 0.72,-5.257 0.07,-11.342 -1.742,-17.478 -0.048,-0.16 -0.126,-0.309 -0.221,-0.452 -4.233,-8.611 -18.647,-18.263 -20.147,-6.25 -3.406,-2.58 -7.831,-3.153 -12.424,-2.168 -13.478,-5.552 -28.082,-8.706 -28.082,-8.706 l -0.004,7.196 c 0,0 9.355,1.366 19.846,4.856 -0.576,0.345 -1.147,0.705 -1.709,1.092 -10.841,7.449 -1.642,30.649 4.483,34.8 5.997,4.065 6.124,3.734 16.919,2.447 1.572,0.208 3.241,0.35 5.044,0.396 1.596,0.04 3.075,-0.065 4.447,-0.296 12.855,17.568 32.689,46.398 40.17,46.467 2.101,0.017 5.287,-2.83 8.32,-6.203 7.729,6.183 17.534,12.297 14.484,15.771 -1.162,1.322 0.255,3.117 2.999,4.994 -0.445,1.987 -0.917,3.967 -1.409,5.93 h -73.537 l 16.667,29.811 h -33.315 l 5.67,-55.813 h -40.667 l 5.67,55.813 h -19.309 v 16.835 h 126.416 c -1.663,4.112 -2.691,4.885 -1.698,7.543 -1.122,4.739 -0.082,5.641 6.348,5.641 h 0.367 c -17.659,2.955 -29.642,7.811 -29.642,7.811 -8.022,1.968 -10.467,9.431 -9.939,17.964 l 5.978,34.352 h 0.033 l 10.967,82.715 c -4.029,0.988 -7.995,2.826 -10.568,6.18 -1.725,2.248 -2.597,4.029 -2.988,5.427 l -0.006,0.004 c -2.994,5.432 -0.711,7.688 -0.711,7.688 l 26.002,-0.225 c 0.103,0.149 0.177,0.225 0.177,0.225 l 28.876,-0.25 V 680.52 c 0,0 -0.026,-0.002 -0.065,-0.008 l -0.808,-81.914 h 0.146 l -0.211,-6.58 -0.158,-16.022 40.098,-0.302 c 0.386,-0.002 0.765,-0.039 1.146,-0.061 h 13.057 c 9.121,0 18.947,-6.078 19.699,-17.715 0.461,-7.113 0.066,-13.732 -0.69,-19.47 5.073,-0.159 5.868,-1.28 4.84,-5.618 0.992,-2.658 -0.035,-3.431 -1.697,-7.543 h 42.031 c 1.656,0 3,-1.343 3,-3 v -10.835 c 0,-1.657 -1.344,-3 -3,-3 h -30.49 c 13.904,0 16.014,-23.383 16.014,-23.383 h -38.282 c -1.154,-4.266 -2.279,-8.664 -3.257,-13.096 -0.748,-3.391 -1.467,-6.787 -2.155,-10.141 1.563,-0.783 3.112,-1.58 4.571,-2.392 5.851,3.666 11.808,-1.99 13.025,-6.867 0.744,-2.983 -0.002,-9.188 -1.473,-16.629 1.942,-1.262 4.762,-2.514 8.844,-3.766 18.059,-5.535 8.68,-9.396 11.106,-22.99 2.423,-13.592 25.73,-3.075 30.531,-53.51 1.371,-14.411 6.887,-27.112 7.318,-40.069 0.233,-0.064 0.358,-0.128 0.358,-0.128 0,0 7.181,-49.285 -1.36,-83.398"
           id="path9054" />
        <path
           style="fill-opacity:0;stroke:#797979;stroke-width:8;stroke-linecap:round;stroke-linejoin:round"
           d="m 279.39,687.493 c -0.378,0.492 -0.708,0.959 -1.009,1.408 v -8.381 c 0,0 -0.023,-0.002 -0.063,-0.008 l -0.809,-81.914 h 1.482 l 10.967,82.715 c -4.03,0.988 -7.996,2.826 -10.568,6.18 z M 261.523,421.559 c 2.02,1.144 4.118,1.99 6.239,2.594 1.544,1.222 2.589,2.351 3.255,3.416 -0.422,0.65 -0.845,1.302 -1.279,1.972 z M 436.699,232.083 c -9.097,-36.342 -38.617,-69.288 -53.422,-64.675 -21.236,-18.903 -49.121,-18.519 -76.011,-7.122 -26.891,11.397 -42.44,26.375 -55.376,54.208 -10.894,23.438 -14.993,56.526 -16.401,72.42 -0.506,4.878 -0.589,7.668 -0.58,7.668 -0.061,1.007 -0.321,4.033 -0.321,4.033 0,0 0.082,0.007 0.252,-0.01 -1.371,12.131 1.231,24.898 -0.06,38.457 -4.8,50.436 20.073,44.503 19.89,58.309 -0.054,4.061 -0.951,7.1 -1.767,9.596 -3.073,-2.334 -6.575,-5.434 -10.107,-8.722 0.72,-5.257 0.07,-11.342 -1.742,-17.478 -0.048,-0.16 -0.126,-0.309 -0.221,-0.452 -4.233,-8.611 -18.647,-18.263 -20.147,-6.25 -3.406,-2.58 -7.831,-3.153 -12.424,-2.168 -13.478,-5.552 -28.082,-8.706 -28.082,-8.706 l -0.004,7.196 c 0,0 9.355,1.366 19.846,4.856 -0.576,0.345 -1.147,0.705 -1.709,1.092 -10.841,7.449 -1.642,30.649 4.483,34.8 5.997,4.065 6.124,3.734 16.919,2.447 1.572,0.208 3.241,0.35 5.044,0.396 1.596,0.04 3.075,-0.065 4.447,-0.296 12.855,17.568 32.689,46.398 40.17,46.467 2.101,0.017 5.287,-2.83 8.32,-6.203 7.729,6.183 17.534,12.297 14.484,15.771 -1.162,1.322 0.255,3.117 2.999,4.994 -0.445,1.987 -0.917,3.967 -1.409,5.93 h -73.537 l 16.667,29.811 h -33.315 l 5.67,-55.813 h -40.667 l 5.67,55.813 h -19.309 v 16.835 h 126.416 c -1.663,4.112 -2.691,4.885 -1.698,7.543 -1.122,4.739 -0.082,5.641 6.348,5.641 h 0.367 c -17.659,2.955 -29.642,7.811 -29.642,7.811 -8.022,1.968 -10.467,9.431 -9.939,17.964 l 5.978,34.352 h 0.033 l 10.967,82.715 c -4.029,0.988 -7.995,2.826 -10.568,6.18 -1.725,2.248 -2.597,4.029 -2.988,5.427 l -0.006,0.004 c -2.994,5.432 -0.711,7.688 -0.711,7.688 l 26.002,-0.225 c 0.103,0.149 0.177,0.225 0.177,0.225 l 28.876,-0.25 V 680.52 c 0,0 -0.026,-0.002 -0.065,-0.008 l -0.808,-81.914 h 0.146 l -0.211,-6.58 -0.158,-16.022 40.098,-0.302 c 0.386,-0.002 0.765,-0.039 1.146,-0.061 h 13.057 c 9.121,0 18.947,-6.078 19.699,-17.715 0.461,-7.113 0.066,-13.732 -0.69,-19.47 5.073,-0.159 5.868,-1.28 4.84,-5.618 0.992,-2.658 -0.035,-3.431 -1.697,-7.543 h 42.031 c 1.656,0 3,-1.343 3,-3 v -10.835 c 0,-1.657 -1.344,-3 -3,-3 h -30.49 c 13.904,0 16.014,-23.383 16.014,-23.383 h -38.282 c -1.154,-4.266 -2.279,-8.664 -3.257,-13.096 -0.748,-3.391 -1.467,-6.787 -2.155,-10.141 1.563,-0.783 3.112,-1.58 4.571,-2.392 5.851,3.666 11.808,-1.99 13.025,-6.867 0.744,-2.983 -0.002,-9.188 -1.473,-16.629 1.942,-1.262 4.762,-2.514 8.844,-3.766 18.059,-5.535 8.68,-9.396 11.106,-22.99 2.423,-13.592 25.73,-3.075 30.531,-53.51 1.371,-14.411 6.887,-27.112 7.318,-40.069 0.233,-0.064 0.358,-0.128 0.358,-0.128 0,0 7.181,-49.285 -1.36,-83.398 z"
           id="path9056" />
        <path
           style="fill:#ae9684"
           d="m 430.383,355.678 c 1.504,-15.806 8.015,-29.554 7.31,-43.841 -1.839,-17.28 -12.326,-34.566 -19.754,-46.974 C 405.506,242.291 383.6,228.31 344.691,224.407 v -0.01 c -0.168,-0.015 -0.33,-0.027 -0.498,-0.042 -0.166,-0.017 -0.328,-0.036 -0.496,-0.052 l -0.002,0.009 c -38.947,-3.505 -63.096,6.091 -79.565,25.912 -9.633,10.785 -23.192,25.782 -28.258,42.405 -3.387,13.898 0.413,28.628 -1.092,44.433 -4.8,50.436 20.073,44.503 19.89,58.309 -0.183,13.808 -10.121,15.83 6.569,24.673 19.169,10.154 6.699,14.288 8.077,22.097 1.497,8.496 27.585,20.199 22.864,25.576 -3.691,4.205 18.611,13.162 26.982,14.369 l -0.002,0.02 c 0.147,0.017 0.324,0.031 0.498,0.045 0.174,0.019 0.352,0.039 0.498,0.049 l 0.002,-0.02 c 8.449,0.395 32.041,-4.195 29.209,-9.021 -3.621,-6.17 24.205,-12.743 27.279,-20.803 2.825,-7.41 -8.64,-13.822 12.1,-20.178 18.059,-5.535 8.68,-9.396 11.106,-22.99 2.423,-13.592 25.73,-3.075 30.531,-53.51"
           id="path9058" />
        <path
           style="fill-opacity:0;stroke:#797979;stroke-width:4;stroke-linecap:round;stroke-linejoin:round"
           d="m 430.383,355.678 c 1.504,-15.806 8.015,-29.554 7.31,-43.841 -1.839,-17.28 -12.326,-34.566 -19.754,-46.974 C 405.506,242.291 383.6,228.31 344.691,224.407 v -0.01 c -0.168,-0.015 -0.33,-0.027 -0.498,-0.042 -0.166,-0.017 -0.328,-0.036 -0.496,-0.052 l -0.002,0.009 c -38.947,-3.505 -63.096,6.091 -79.565,25.912 -9.633,10.785 -23.192,25.782 -28.258,42.405 -3.387,13.898 0.413,28.628 -1.092,44.433 -4.8,50.436 20.073,44.503 19.89,58.309 -0.183,13.808 -10.121,15.83 6.569,24.673 19.169,10.154 6.699,14.288 8.077,22.097 1.497,8.496 27.585,20.199 22.864,25.576 -3.691,4.205 18.611,13.162 26.982,14.369 l -0.002,0.02 c 0.147,0.017 0.324,0.031 0.498,0.045 0.174,0.019 0.352,0.039 0.498,0.049 l 0.002,-0.02 c 8.449,0.395 32.041,-4.195 29.209,-9.021 -3.621,-6.17 24.205,-12.743 27.279,-20.803 2.825,-7.41 -8.64,-13.822 12.1,-20.178 18.059,-5.535 8.68,-9.396 11.106,-22.99 2.423,-13.592 25.73,-3.075 30.531,-53.51 z"
           id="path9060" />
        <path
           style="fill:#ffefd9"
           d="m 365.512,391.102 c -3.875,-2.102 -14.148,-2.891 -22.537,-3.178 l -4.444,-2.57 -1.361,-14.38 -6.49,-4.219 -6.491,4.219 -1.361,14.38 -4.443,2.57 c -8.389,0.287 -18.653,1.077 -22.526,3.178 -0.343,0.187 -1.421,2.487 -1.421,2.487 -0.064,6.707 11.13,31.2 11.13,31.2 h 50.235 c 0,0 11.195,-24.493 11.131,-31.2 0,0 -1.079,-2.3 -1.422,-2.487"
           id="path9062" />
        <path
           style="fill-opacity:0;stroke:#797979;stroke-width:4;stroke-linecap:round;stroke-linejoin:round"
           d="m 365.512,391.102 c -3.875,-2.102 -14.148,-2.891 -22.537,-3.178 l -4.444,-2.57 -1.361,-14.38 -6.49,-4.219 -6.491,4.219 -1.361,14.38 -4.443,2.57 c -8.389,0.287 -18.653,1.077 -22.526,3.178 -0.343,0.187 -1.421,2.487 -1.421,2.487 -0.064,6.707 11.13,31.2 11.13,31.2 h 50.235 c 0,0 11.195,-24.493 11.131,-31.2 0,0 -1.079,-2.3 -1.422,-2.487 z"
           id="path9064" />
        <path
           style="fill:#ffefd9"
           d="m 365.473,391.102 c -3.875,-2.102 -14.148,-2.891 -22.537,-3.178 l -4.444,-2.57 -1.361,-14.38 -6.49,-4.219 -6.491,4.219 -1.361,14.38 -4.443,2.57 c -8.389,0.287 -18.653,1.077 -22.525,3.178 -0.344,0.187 -1.422,2.487 -1.422,2.487 -0.065,6.707 11.13,31.2 11.13,31.2 h 50.235 c 0,0 11.195,-24.493 11.131,-31.2 0,0 -1.079,-2.3 -1.422,-2.487"
           id="path9066" />
        <path
           style="fill-opacity:0;stroke:#797979;stroke-width:4;stroke-linecap:round;stroke-linejoin:round"
           d="m 365.473,391.102 c -3.875,-2.102 -14.148,-2.891 -22.537,-3.178 l -4.444,-2.57 -1.361,-14.38 -6.49,-4.219 -6.491,4.219 -1.361,14.38 -4.443,2.57 c -8.389,0.287 -18.653,1.077 -22.525,3.178 -0.344,0.187 -1.422,2.487 -1.422,2.487 -0.065,6.707 11.13,31.2 11.13,31.2 h 50.235 c 0,0 11.195,-24.493 11.131,-31.2 0,0 -1.079,-2.3 -1.422,-2.487 z"
           id="path9068" />
        <path
           style="fill:#ffffff"
           d="m 330.641,440.434 c 10.166,0.01 20.345,-24.086 20.045,-31.503 0,0 -5.918,5.87 -20.045,5.87 -14.125,0 -19.957,-5.87 -19.957,-5.87 -0.301,7.395 9.82,31.491 19.957,31.503"
           id="path9070" />
        <path
           style="fill-opacity:0;stroke:#797979;stroke-width:4;stroke-linecap:round;stroke-linejoin:round"
           d="m 330.641,440.434 c 10.166,0.01 20.345,-24.086 20.045,-31.503 0,0 -5.918,5.87 -20.045,5.87 -14.125,0 -19.957,-5.87 -19.957,-5.87 -0.301,7.395 9.82,31.491 19.957,31.503 z"
           id="path9072" />
        <path
           style="fill:#e2f1c9"
           d="m 304.584,449.805 h 52.203 l 1.858,-32.801 2.582,-28.181 -5.86,0.024 -24.681,48.706 -24.684,-48.706 -5.857,-0.024 2.582,28.181 z"
           id="path9074" />
        <path
           style="fill-opacity:0;stroke:#797979;stroke-width:4;stroke-linecap:round;stroke-linejoin:round"
           d="m 304.584,449.805 h 52.203 l 1.858,-32.801 2.582,-28.181 -5.86,0.024 -24.681,48.706 -24.684,-48.706 -5.857,-0.024 2.582,28.181 z"
           id="path9076" />
        <path
           style="fill:#ffefd9"
           d="m 305.381,416.721 c -22.309,28.805 -22.328,28.789 -28.024,34.94 -3.843,4.15 -6.332,3.574 -11.949,0.978 -4.483,-2.072 -4.649,-8.43 -3.337,-11.332 21.94,-33.522 31.004,-48.68 33.75,-50.205 l 1.505,-0.646"
           id="path9078" />
        <path
           style="fill-opacity:0;stroke:#797979;stroke-width:4;stroke-linecap:round;stroke-linejoin:round"
           d="m 305.381,416.721 c -22.309,28.805 -22.328,28.789 -28.024,34.94 -3.843,4.15 -6.332,3.574 -11.949,0.978 -4.483,-2.072 -4.649,-8.43 -3.337,-11.332 21.94,-33.522 31.004,-48.68 33.75,-50.205 l 1.505,-0.646"
           id="path9080" />
        <path
           style="fill:#e2f1c9"
           d="m 302.889,388.823 c 0,0 -14.121,-2.648 -16.998,2.279 -7.124,12.204 -14.838,36.41 -14.838,36.41 l 31.299,14.793 5.953,-22.466"
           id="path9082" />
        <path
           style="fill-opacity:0;stroke:#797979;stroke-width:4;stroke-linecap:round;stroke-linejoin:round"
           d="m 302.889,388.823 c 0,0 -14.121,-2.648 -16.998,2.279 -7.124,12.204 -14.838,36.41 -14.838,36.41 l 31.299,14.793 5.953,-22.466"
           id="path9084" />
        <path
           style="fill:#e2f1c9"
           d="m 358.393,388.823 c 0,0 14.121,-2.648 16.998,2.279 7.125,12.204 7.226,42.975 7.226,42.975 l -23.685,8.228 -5.955,-22.466"
           id="path9086" />
        <path
           style="fill-opacity:0;stroke:#797979;stroke-width:4;stroke-linecap:round;stroke-linejoin:round"
           d="m 358.393,388.823 c 0,0 14.121,-2.648 16.998,2.279 7.125,12.204 7.226,42.975 7.226,42.975 l -23.685,8.228 -5.955,-22.466"
           id="path9088" />
        <path
           style="fill:#797979"
           d="m 371.717,517.543 h -41.076 -41.076 l -0.044,20.43 c -19.364,2.871 -32.781,8.309 -32.781,8.309 -8.022,1.968 -10.467,9.431 -9.939,17.964 l 5.978,34.352 h 36.555 14.5 l -0.727,-22.6 40.456,-0.304 c 0.386,-0.002 0.765,-0.039 1.146,-0.061 h 13.057 c 9.121,0 18.947,-6.078 19.699,-17.715 1.467,-22.697 -5.748,-40.375 -5.748,-40.375"
           id="path9090" />
        <path
           style="fill-opacity:0;stroke:#797979;stroke-width:4;stroke-linecap:round;stroke-linejoin:round"
           d="m 371.717,517.543 h -41.076 -41.076 l -0.044,20.43 c -19.364,2.871 -32.781,8.309 -32.781,8.309 -8.022,1.968 -10.467,9.431 -9.939,17.964 l 5.978,34.352 h 36.555 14.5 l -0.727,-22.6 40.456,-0.304 c 0.386,-0.002 0.765,-0.039 1.146,-0.061 h 13.057 c 9.121,0 18.947,-6.078 19.699,-17.715 1.467,-22.697 -5.748,-40.375 -5.748,-40.375 z"
           id="path9092" />
        <path
           style="fill:#e2f1c9"
           d="m 377.068,515.717 c -1.414,-10.056 -7.371,-26.676 -11.134,-43.744 -5.998,-27.193 -10.213,-54.969 -10.213,-54.969 H 345.08 l -14.439,26.301 -14.44,-26.301 h -10.64 c 0,0 -4.215,27.776 -10.213,54.969 -3.764,17.068 -9.721,33.688 -11.135,43.744 -3.438,15.674 -7.111,12.602 -3.363,19.617 -0.078,1.994 1.839,3.137 5.165,3.137 h 89.253 c 3.326,0 5.242,-1.143 5.164,-3.137 3.748,-7.015 0.076,-3.943 -3.364,-19.617"
           id="path9094" />
        <path
           style="fill-opacity:0;stroke:#797979;stroke-width:4;stroke-linecap:round;stroke-linejoin:round"
           d="m 305.561,417.004 c 0,0 -4.215,27.776 -10.213,54.969 -3.764,17.068 -9.721,33.688 -11.135,43.744 -4.416,20.127 -9.221,22.754 1.802,22.754 h 14.501 65.75 9.002 c 11.023,0 6.216,-2.627 1.8,-22.754 -1.414,-10.056 -7.371,-26.676 -11.134,-43.744 -5.998,-27.193 -10.213,-54.969 -10.213,-54.969"
           id="path9096" />
        <path
           style="fill-opacity:0;stroke:#797979;stroke-width:4;stroke-linecap:round;stroke-linejoin:round"
           d="m 313.355,388.28 c 0,0 -8.191,96.4 16.141,104.775"
           id="path9098" />
        <path
           style="fill:#ffffff"
           d="m 322.178,476.938 c 0,2.33 -1.889,4.219 -4.219,4.219 -2.33,0 -4.219,-1.889 -4.219,-4.219 0,-2.33 1.889,-4.219 4.219,-4.219 2.33,0 4.219,1.889 4.219,4.219"
           id="path9100" />
        <path
           style="fill-opacity:0;stroke:#797979;stroke-width:4;stroke-linecap:round;stroke-linejoin:round"
           d="m 322.178,476.938 c 0,2.33 -1.889,4.219 -4.219,4.219 -2.33,0 -4.219,-1.889 -4.219,-4.219 0,-2.33 1.889,-4.219 4.219,-4.219 2.33,0 4.219,1.889 4.219,4.219 z"
           id="path9102" />
        <path
           style="fill:#ffffff"
           d="m 317.076,455.2 c 0,2.33 -1.887,4.218 -4.217,4.218 -2.332,0 -4.218,-1.888 -4.218,-4.218 0,-2.331 1.886,-4.219 4.218,-4.219 2.33,0 4.217,1.888 4.217,4.219"
           id="path9104" />
        <path
           style="fill-opacity:0;stroke:#797979;stroke-width:4;stroke-linecap:round;stroke-linejoin:round"
           d="m 317.076,455.2 c 0,2.33 -1.887,4.218 -4.217,4.218 -2.332,0 -4.218,-1.888 -4.218,-4.218 0,-2.331 1.886,-4.219 4.218,-4.219 2.33,0 4.217,1.888 4.217,4.219 z"
           id="path9106" />
        <path
           style="fill:#ffffff"
           d="m 316.295,433.854 c 0,2.33 -1.889,4.219 -4.219,4.219 -2.33,0 -4.219,-1.889 -4.219,-4.219 0,-2.33 1.889,-4.219 4.219,-4.219 2.33,0 4.219,1.889 4.219,4.219"
           id="path9108" />
        <path
           style="fill-opacity:0;stroke:#797979;stroke-width:4;stroke-linecap:round;stroke-linejoin:round"
           d="m 316.295,433.854 c 0,2.33 -1.889,4.219 -4.219,4.219 -2.33,0 -4.219,-1.889 -4.219,-4.219 0,-2.33 1.889,-4.219 4.219,-4.219 2.33,0 4.219,1.889 4.219,4.219 z"
           id="path9110" />
        <path
           style="fill-opacity:0;stroke:#797979;stroke-width:4;stroke-linecap:round;stroke-linejoin:round"
           d="m 347.928,388.28 c 0,0 8.191,96.4 -16.143,104.775"
           id="path9112" />
        <path
           style="fill:#ffffff"
           d="m 338.518,476.938 c 0,2.33 1.888,4.219 4.218,4.219 2.33,0 4.219,-1.889 4.219,-4.219 0,-2.33 -1.889,-4.219 -4.219,-4.219 -2.33,0 -4.218,1.889 -4.218,4.219"
           id="path9114" />
        <path
           style="fill-opacity:0;stroke:#797979;stroke-width:4;stroke-linecap:round;stroke-linejoin:round"
           d="m 338.518,476.938 c 0,2.33 1.888,4.219 4.218,4.219 2.33,0 4.219,-1.889 4.219,-4.219 0,-2.33 -1.889,-4.219 -4.219,-4.219 -2.33,0 -4.218,1.889 -4.218,4.219 z"
           id="path9116" />
        <path
           style="fill:#ffffff"
           d="m 343.619,455.2 c 0,2.33 1.889,4.218 4.219,4.218 2.33,0 4.219,-1.888 4.219,-4.218 0,-2.331 -1.889,-4.219 -4.219,-4.219 -2.33,0 -4.219,1.888 -4.219,4.219"
           id="path9118" />
        <path
           style="fill-opacity:0;stroke:#797979;stroke-width:4;stroke-linecap:round;stroke-linejoin:round"
           d="m 343.619,455.2 c 0,2.33 1.889,4.218 4.219,4.218 2.33,0 4.219,-1.888 4.219,-4.218 0,-2.331 -1.889,-4.219 -4.219,-4.219 -2.33,0 -4.219,1.888 -4.219,4.219 z"
           id="path9120" />
        <path
           style="fill:#ffffff"
           d="m 344.4,433.854 c 0,2.33 1.889,4.219 4.219,4.219 2.33,0 4.219,-1.889 4.219,-4.219 0,-2.33 -1.889,-4.219 -4.219,-4.219 -2.33,0 -4.219,1.889 -4.219,4.219"
           id="path9122" />
        <path
           style="fill-opacity:0;stroke:#797979;stroke-width:4;stroke-linecap:round;stroke-linejoin:round"
           d="m 344.4,433.854 c 0,2.33 1.889,4.219 4.219,4.219 2.33,0 4.219,-1.889 4.219,-4.219 0,-2.33 -1.889,-4.219 -4.219,-4.219 -2.33,0 -4.219,1.889 -4.219,4.219 z"
           id="path9124" />
        <path
           style="fill:#ffffff"
           d="m 334.566,492.489 c 0,2.33 -1.888,4.218 -4.218,4.218 -2.33,0 -4.219,-1.888 -4.219,-4.218 0,-2.33 1.889,-4.219 4.219,-4.219 2.33,0 4.218,1.889 4.218,4.219"
           id="path9126" />
        <path
           style="fill-opacity:0;stroke:#797979;stroke-width:4;stroke-linecap:round;stroke-linejoin:round"
           d="m 334.566,492.489 c 0,2.33 -1.888,4.218 -4.218,4.218 -2.33,0 -4.219,-1.888 -4.219,-4.218 0,-2.33 1.889,-4.219 4.219,-4.219 2.33,0 4.218,1.889 4.218,4.219 z"
           id="path9128" />
        <path
           style="fill:#ffefd9"
           d="m 269.403,274.489 c 0,0 -27.324,-8.896 -30.15,16.391 -1.661,14.874 7.214,22.703 26.977,25.198"
           id="path9130" />
        <path
           style="fill-opacity:0;stroke:#797979;stroke-width:4;stroke-linecap:round;stroke-linejoin:round"
           d="m 269.403,274.489 c 0,0 -27.324,-8.896 -30.15,16.391 -1.661,14.874 7.214,22.703 26.977,25.198"
           id="path9132" />
        <path
           style="fill:#ffefd9"
           d="m 249.759,293.438 c 0,0 3.856,-1.284 7.347,-0.872"
           id="path9134" />
        <path
           style="fill-opacity:0;stroke:#797979;stroke-width:4;stroke-linecap:round;stroke-linejoin:round"
           d="m 249.759,293.438 c 0,0 3.856,-1.284 7.347,-0.872"
           id="path9136" />
        <path
           style="fill:#ffefd9"
           d="m 410.742,290.278 c 0,0 28.613,-2.648 25.789,22.639 -1.662,14.874 -12.045,20.553 -31.871,18.625"
           id="path9138" />
        <path
           style="fill-opacity:0;stroke:#797979;stroke-width:4;stroke-linecap:round;stroke-linejoin:round"
           d="m 410.742,290.278 c 0,0 28.613,-2.648 25.789,22.639 -1.662,14.874 -12.045,20.553 -31.871,18.625"
           id="path9140" />
        <path
           style="fill:#ffefd9"
           d="m 425.721,313.095 c 0,0 -3.477,-2.104 -6.973,-2.472"
           id="path9142" />
        <path
           style="fill-opacity:0;stroke:#797979;stroke-width:4;stroke-linecap:round;stroke-linejoin:round"
           d="m 425.721,313.095 c 0,0 -3.477,-2.104 -6.973,-2.472"
           id="path9144" />
        <path
           style="fill:#ffefd9"
           d="m 329.084,380.741 c -120.012,-13.407 -86.537,-207.84 21.865,-195.73 108.403,12.109 98.149,209.136 -21.865,195.73"
           id="path9146" />
        <path
           style="fill-opacity:0;stroke:#797979;stroke-width:4;stroke-linecap:round;stroke-linejoin:round"
           d="m 329.084,380.741 c -120.012,-13.407 -86.537,-207.84 21.865,-195.73 108.403,12.109 98.149,209.136 -21.865,195.73 z"
           id="path9148" />
        <path
           style="fill:#ae9684"
           d="m 436.699,232.083 c -9.097,-36.342 -38.617,-69.288 -53.422,-64.675 -21.236,-18.903 -49.121,-18.519 -76.011,-7.122 -26.891,11.397 -42.44,26.375 -55.376,54.208 -10.894,23.438 -14.993,56.526 -16.401,72.42 -0.506,4.878 -0.589,7.668 -0.58,7.668 -0.061,1.007 -0.321,4.033 -0.321,4.033 0,0 12.014,1.117 51.555,-54.026 40.478,-56.449 88.695,-48.346 88.695,-48.346 0,0 32.236,16.869 41.213,71.397 8.976,54.527 22.008,47.841 22.008,47.841 0,0 7.181,-49.285 -1.36,-83.398"
           id="path9150" />
        <path
           style="fill-opacity:0;stroke:#797979;stroke-width:4;stroke-linecap:round;stroke-linejoin:round"
           d="m 436.699,232.083 c -9.097,-36.342 -38.617,-69.288 -53.422,-64.675 -21.236,-18.903 -49.121,-18.519 -76.011,-7.122 -26.891,11.397 -42.44,26.375 -55.376,54.208 -10.894,23.438 -14.993,56.526 -16.401,72.42 -0.506,4.878 -0.589,7.668 -0.58,7.668 -0.061,1.007 -0.321,4.033 -0.321,4.033 0,0 12.014,1.117 51.555,-54.026 40.478,-56.449 88.695,-48.346 88.695,-48.346 0,0 32.236,16.869 41.213,71.397 8.976,54.527 22.008,47.841 22.008,47.841 0,0 7.181,-49.285 -1.36,-83.398 z"
           id="path9152" />
        <path
           style="fill-opacity:0;stroke:#797979;stroke-width:4;stroke-linecap:round;stroke-linejoin:round"
           d="m 332.064,318.765 c 0,0 -1.99,5.815 3.266,6.068"
           id="path9154" />
        <path
           style="fill-opacity:0;stroke:#797979;stroke-width:4;stroke-linecap:round;stroke-linejoin:round"
           d="m 359.459,341.719 c 0,0 -10.646,12.717 -28.348,10.74 -6.033,-0.674 -10.888,-2.832 -14.672,-5.384"
           id="path9156" />
        <path
           style="fill-opacity:0;stroke:#797979;stroke-width:4;stroke-linecap:round;stroke-linejoin:round"
           d="m 371.373,247.925 c 0,0 3.625,-4.626 10.793,-3.826 5.154,0.577 9.713,7.626 9.713,7.626"
           id="path9158" />
        <path
           style="fill-opacity:0;stroke:#797979;stroke-width:4;stroke-linecap:round;stroke-linejoin:round"
           d="m 317.146,241.867 c 0,0 -2.513,-5.311 -9.681,-6.112 -5.156,-0.576 -11.157,5.294 -11.157,5.294"
           id="path9160" />
        <path
           style="fill-opacity:0;stroke:#797979;stroke-width:4;stroke-linecap:round;stroke-linejoin:round"
           d="m 293.919,289.362 c 0,0 4.324,-7.852 9.956,-7.221 5.633,0.632 7.34,10.034 7.34,10.034"
           id="path9162" />
        <path
           style="fill-opacity:0;stroke:#797979;stroke-width:4;stroke-linecap:round;stroke-linejoin:round"
           d="m 383.607,299.423 c 0,0 -2.474,-8.616 -8.107,-9.247 -5.633,-0.632 -9.381,8.158 -9.381,8.158"
           id="path9164" />
        <path
           style="fill:#f4aca6"
           d="m 341.955,351.868 c 0,0 0.807,-16.601 9.059,-19.795 8.865,-3.432 9.742,5.277 8.445,9.646 -1.297,4.368 -17.504,10.149 -17.504,10.149"
           id="path9166" />
        <path
           style="fill-opacity:0;stroke:#797979;stroke-width:4;stroke-linecap:round;stroke-linejoin:round"
           d="m 341.955,351.868 c 0,0 0.807,-16.601 9.059,-19.795 8.865,-3.432 9.742,5.277 8.445,9.646 -1.297,4.368 -17.504,10.149 -17.504,10.149 z"
           id="path9168" />
        <path
           style="fill:#ffefd9"
           d="m 395.43,334.973 c -6.012,-6.116 -13.502,2.557 -18.235,10.992 -4.736,8.431 -8.308,13.404 -8.308,13.404 0,0 -28.356,17.856 -16.262,36.564 0.25,0.387 0.588,0.676 0.995,0.883 1.068,9.615 5.406,47.262 8.755,54.757 7,15.666 17.352,7.609 19,1 2.204,-8.836 -8.637,-45.938 -12.871,-59.828 2.945,-1.844 17.811,-11.429 24.135,-20.874 7.035,-10.508 11.484,-28.063 2.791,-36.898"
           id="path9170" />
        <path
           style="fill-opacity:0;stroke:#797979;stroke-width:4;stroke-linecap:round;stroke-linejoin:round"
           d="m 395.43,334.973 c -6.012,-6.116 -13.502,2.557 -18.235,10.992 -4.736,8.431 -8.308,13.404 -8.308,13.404 0,0 -28.356,17.856 -16.262,36.564 0.25,0.387 0.588,0.676 0.995,0.883 1.068,9.615 5.406,47.262 8.755,54.757 7,15.666 17.352,7.609 19,1 2.204,-8.836 -8.637,-45.938 -12.871,-59.828 2.945,-1.844 17.811,-11.429 24.135,-20.874 7.035,-10.508 11.484,-28.063 2.791,-36.898 z"
           id="path9172" />
        <path
           style="fill:#ffefd9"
           d="m 385.449,335.319 c 0,0 1.715,5.315 0.387,12.243 -1.33,6.929 -4.926,14.039 -4.926,14.039"
           id="path9174" />
        <path
           style="fill-opacity:0;stroke:#797979;stroke-width:4;stroke-linecap:round;stroke-linejoin:round"
           d="m 385.449,335.319 c 0,0 1.715,5.315 0.387,12.243 -1.33,6.929 -4.926,14.039 -4.926,14.039"
           id="path9176" />
        <path
           style="fill:#ffefd9"
           d="m 393.832,333.709 c 0,0 3.16,7.084 0.76,15.806 -2.049,7.456 -2.694,9.738 -2.694,9.738"
           id="path9178" />
        <path
           style="fill-opacity:0;stroke:#797979;stroke-width:4;stroke-linecap:round;stroke-linejoin:round"
           d="m 393.832,333.709 c 0,0 3.16,7.084 0.76,15.806 -2.049,7.456 -2.694,9.738 -2.694,9.738"
           id="path9180" />
        <path
           style="fill:#fff0bd"
           d="m 154.949,525.287 h 267 c 1.656,0 3,-1.343 3,-3 v -10.835 c 0,-1.657 -1.344,-3 -3,-3 h -267 z"
           id="path9182" />
        <path
           style="fill-opacity:0;stroke:#797979;stroke-width:4;stroke-linecap:round;stroke-linejoin:round"
           d="m 154.949,525.287 h 267 c 1.656,0 3,-1.343 3,-3 v -10.835 c 0,-1.657 -1.344,-3 -3,-3 h -267 z"
           id="path9184" />
        <path
           style="fill:#ffefd9"
           d="m 286.14,441.104 c 0,0 -11.629,17.092 -16.764,17.045 -7.607,-0.071 -27.99,-29.885 -40.817,-47.351 l 12.117,-9.491 29.095,28.266"
           id="path9186" />
        <path
           style="fill-opacity:0;stroke:#797979;stroke-width:4;stroke-linecap:round;stroke-linejoin:round"
           d="m 286.14,441.104 c 0,0 -11.629,17.092 -16.764,17.045 -7.607,-0.071 -27.99,-29.885 -40.817,-47.351 l 12.117,-9.491 29.095,28.266"
           id="path9188" />
        <path
           style="fill:#ffefd9"
           d="m 216.635,375.072 12.771,0.808 c 0,0 10.715,-0.27 11.648,2.887 5.022,17.005 1.181,33.655 -16.295,33.211 -25.221,-0.645 -26.914,-18.309 -27.43,-20.737 -3.312,-15.583 19.306,-16.169 19.306,-16.169"
           id="path9190" />
        <path
           style="fill-opacity:0;stroke:#797979;stroke-width:4;stroke-linecap:round;stroke-linejoin:round"
           d="m 216.635,375.072 12.771,0.808 c 0,0 10.715,-0.27 11.648,2.887 5.022,17.005 1.181,33.655 -16.295,33.211 -25.221,-0.645 -26.914,-18.309 -27.43,-20.737 -3.312,-15.583 19.306,-16.169 19.306,-16.169 z"
           id="path9192" />
        <path
           style="fill:#ffffff"
           d="m 180.18,361.191 c 0,0 31.994,6.901 44.975,18.279 8.185,7.173 26.382,26.769 34.194,29.365 7.813,2.596 30.998,-1.403 36.568,3.704 7.999,7.337 -21.769,21.69 -39.59,5.227 -15.589,-14.399 -28.046,-27.971 -36.299,-34.529 -13.942,-11.075 -39.852,-14.85 -39.852,-14.85 z"
           id="path9194" />
        <path
           style="fill-opacity:0;stroke:#797979;stroke-width:4;stroke-linecap:round;stroke-linejoin:round"
           d="m 180.18,361.191 c 0,0 31.994,6.901 44.975,18.279 8.185,7.173 26.382,26.769 34.194,29.365 7.813,2.596 30.998,-1.403 36.568,3.704 7.999,7.337 -21.769,21.69 -39.59,5.227 -15.589,-14.399 -28.046,-27.971 -36.299,-34.529 -13.942,-11.075 -39.852,-14.85 -39.852,-14.85 z"
           id="path9196" />
        <path
           style="fill:#ffffff"
           d="m 264.583,415.539 c 0,0 6,3 12.334,3 6.333,0 12.666,-2.333 12.666,-2.333"
           id="path9198" />
        <path
           style="fill-opacity:0;stroke:#797979;stroke-width:4;stroke-linecap:round;stroke-linejoin:round"
           d="m 264.583,415.539 c 0,0 6,3 12.334,3 6.333,0 12.666,-2.333 12.666,-2.333"
           id="path9200" />
        <path
           style="fill:#ffefd9"
           d="m 241.054,378.767 c -4.024,-8.912 -19.521,-19.397 -20.459,-5.866 -0.733,10.603 10.295,12.53 10.295,12.53"
           id="path9202" />
        <path
           style="fill-opacity:0;stroke:#797979;stroke-width:4;stroke-linecap:round;stroke-linejoin:round"
           d="m 241.054,378.767 c -4.024,-8.912 -19.521,-19.397 -20.459,-5.866 -0.733,10.603 10.295,12.53 10.295,12.53"
           id="path9204" />
        <path
           style="fill:#ffefd9"
           d="m 202.796,409.135 c -6.125,-4.151 -15.324,-27.351 -4.483,-34.8 10.843,-7.453 24.499,-7.376 27.947,7.088 3.448,14.462 5.41,28.75 -5.844,30.076 -11.5,1.354 -11.495,1.788 -17.62,-2.364"
           id="path9206" />
        <path
           style="fill-opacity:0;stroke:#797979;stroke-width:4;stroke-linecap:round;stroke-linejoin:round"
           d="m 202.796,409.135 c -6.125,-4.151 -15.324,-27.351 -4.483,-34.8 10.843,-7.453 24.499,-7.376 27.947,7.088 3.448,14.462 5.41,28.75 -5.844,30.076 -11.5,1.354 -11.495,1.788 -17.62,-2.364 z"
           id="path9208" />
        <path
           style="fill:#ffffff"
           d="m 220.233,478.641 16.667,29.811 h 98.496 l 16.668,-29.811 z"
           id="path9210" />
        <path
           style="fill-opacity:0;stroke:#797979;stroke-width:4;stroke-linecap:round;stroke-linejoin:round"
           d="m 220.233,478.641 16.667,29.811 h 98.496 l 16.668,-29.811 z"
           id="path9212" />
        <path
           style="fill:#ffffff"
           d="m 203.585,508.452 h -29.327 l -5.67,-55.813 h 40.667 z"
           id="path9214" />
        <path
           style="fill-opacity:0;stroke:#797979;stroke-width:4;stroke-linecap:round;stroke-linejoin:round"
           d="m 203.585,508.452 h -29.327 l -5.67,-55.813 h 40.667 z"
           id="path9216" />
        <path
           style="fill:#ffeaa3"
           d="m 199.967,502.981 h -22.09 l -4.271,-37.754 h 30.632 z"
           id="path9218" />
        <path
           style="fill:#ffffff"
           d="m 353.932,485.069 c 0,0 2.107,23.383 16.011,23.383 h 21.516 c 13.904,0 16.014,-23.383 16.014,-23.383 z"
           id="path9220" />
        <path
           style="fill-opacity:0;stroke:#797979;stroke-width:4;stroke-linecap:round;stroke-linejoin:round"
           d="m 353.932,485.069 c 0,0 2.107,23.383 16.011,23.383 h 21.516 c 13.904,0 16.014,-23.383 16.014,-23.383 z"
           id="path9222" />
      </g>
    </g>
  </g>
</svg>
