<?xml version="1.0" encoding="UTF-8"?>
<!DOCTYPE svg PUBLIC "-//W3C//DTD SVG 1.1//EN" "http://www.w3.org/Graphics/SVG/1.1/DTD/svg11.dtd">
<svg version="1.1" xmlns="http://www.w3.org/2000/svg" xmlns:xlink="http://www.w3.org/1999/xlink" x="0" y="0" width="457" height="293" viewBox="0, 0, 457, 293">
  <g id="Layer_1">
    <path d="M357.364,206.429 C361.771,188.42 368.602,170.659 364.221,151.559 C360.388,134.842 343.402,126.014 327.368,126.03 L109.048,126.03 C93.015,126.014 76.032,134.842 72.196,151.559 C67.854,170.5 74.534,188.126 78.942,205.981 L354.304,207.704" fill="#A57A5C"/>
    <path d="M66.369,251.544 L74.421,282.68 L83.011,282.68 L81.937,249.397 L66.369,251.544" fill="#DDBFA0"/>
    <path d="M370.756,251.544 L362.704,282.68 L354.113,282.68 L355.187,249.397 L370.756,251.544" fill="#DDBFA0"/>
    <path d="M58.777,256.252 L378.759,256.252 C378.759,256.252 416.185,193.794 367.587,202.731 C367.587,202.731 90.353,202.731 87.842,202.731 C70.333,202.731 44.773,189.564 44.902,219.082 C44.977,235.442 52.6,241.564 58.777,256.252" fill="#B78665"/>
    <path d="M428.808,212.617 C428.808,212.617 418.352,208.175 422.277,219.412 C424.098,224.641 427.887,229.086 432.021,232.659 C434.813,235.069 440.942,238.329 441.352,242.411 C440.602,234.935 439.096,227.518 436.269,220.535 C435.197,217.878 434.056,214.855 432.26,212.591 C431.831,212.052 431.114,210.847 430.269,210.929 C429.834,210.974 428.624,212.538 428.808,212.617" fill="#9FB868"/>
    <path d="M430.553,246.969 C430.553,246.969 422.735,219.839 425.492,181.213 C425.492,181.213 427.333,153.166 422.735,132.933 C422.736,132.933 430.553,142.587 428.712,179.836 C428.712,179.836 426.416,218.458 434.46,247.197 L430.553,246.969" fill="#9AB264"/>
    <path d="M427.505,160.875 C426.716,160.351 417.832,146.764 417.571,140.488 C417.308,134.216 417.571,139.444 417.571,139.444 C417.571,139.444 424.367,153.556 426.981,154.604 L427.505,160.875" fill="#9AB264"/>
    <path d="M427.239,172.898 C427.239,172.898 419.663,165.841 419.399,157.735 L420.707,155.647 C420.707,155.647 422.798,166.364 427.763,168.19 L427.239,172.898" fill="#9AB264"/>
    <path d="M417.571,196.938 C417.571,196.938 421.489,209.219 427.239,209.743 L427.239,206.61 C427.239,206.61 420.707,201.121 420.445,194.325 L417.571,196.938" fill="#9AB264"/>
    <path d="M431.419,179.166 C431.419,179.166 429.071,189.622 426.193,192.233 L425.935,195.373 C425.935,195.373 434.299,185.966 434.299,180.214 L431.419,179.166" fill="#9AB264"/>
    <path d="M427.505,138.134 C427.505,138.134 430.117,147.022 426.716,153.297 L426.981,157.735 C426.981,157.735 435.865,148.069 427.505,137.353" fill="#9AB264"/>
    <path d="M415.837,248.653 L422.735,282.68 L446.648,282.68 L453.541,248.653 L415.837,248.653" fill="#A69770"/>
    <path d="M412.16,245.435 L456.764,245.435 L456.764,248.654 L412.16,248.654 z" fill="#8D7E57"/>
    <path d="M417.832,190.403 C417.832,190.403 406.332,184.922 403.982,198.768 C402.354,208.34 399.062,217.22 399.015,227.121 C399.099,222.006 402.263,217.635 405.034,213.586 C407.032,210.675 409.909,203.726 413.914,203.213 C413.917,203.213 431.943,196.68 417.832,190.403" fill="#B9D577"/>
    <path d="M433.943,175.031 C433.167,175.368 432.439,175.731 431.795,176.079 C421.389,181.654 439.136,195.119 442.572,199.886 C444.862,203.067 446.731,206.824 447.101,210.787 C446.878,208.399 447.512,205.735 447.37,203.28 C447.019,197.072 444.505,191.373 443.987,185.255 C443.744,182.373 444.842,178.852 443.301,176.214 C441.287,172.768 437.204,173.628 433.943,175.031" fill="#B9D577"/>
    <path d="M420.707,155.647 C420.707,155.647 415.481,150.682 408.685,156.953 C408.685,156.953 404.765,160.351 402.673,167.408 C402.673,167.408 394.572,177.602 393.528,184.918 C393.528,184.918 399.801,174.986 407.898,171.326 C407.898,171.326 429.071,162.963 420.707,155.647" fill="#B9D577"/>
    <path d="M418.876,142.842 C418.876,142.842 401.104,111.218 407.378,92.923 C407.378,92.923 411.036,109.91 414.695,114.355 C414.695,114.355 423.06,121.411 418.094,136.308 C418.094,136.308 418.876,141.012 418.876,142.842" fill="#B9D577"/>
    <path d="M428.549,142.58 C428.104,139.604 425.062,140.274 425.411,136.951 C426.512,126.545 437.398,121.101 441.352,112 C440.554,120.284 440.106,128.827 437.602,136.817 C436.409,140.626 430.375,154.861 428.549,142.58" fill="#B9D577"/>
    <path d="M364.879,0.527 L445.291,0.527 L445.291,71.93 L364.879,71.93 z" fill="#FBDBAA"/>
    <path d="M368.734,4.378 L439.512,4.378 L439.512,66.158 L368.734,66.158 z" fill="#B9A481"/>
    <path d="M369.696,5.338 L440.477,5.338 L440.477,67.119 L369.696,67.119 z" fill="#FFF9BC"/>
    <path d="M404.877,29.307 C404.877,36.35 399.176,42.057 392.131,42.057 C385.087,42.057 379.379,36.35 379.379,29.307 C379.379,22.261 385.087,16.555 392.131,16.555 C399.176,16.555 404.877,22.261 404.877,29.307" fill="#F2B277"/>
    <path d="M408.066,39.134 C408.066,42.798 405.09,45.771 401.424,45.771 C397.761,45.771 394.783,42.798 394.783,39.134 C394.783,35.467 397.761,32.495 401.424,32.495 C405.09,32.495 408.066,35.467 408.066,39.134" fill="#FBDBAA"/>
    <path d="M390.531,56.397 C390.531,59.332 388.157,61.709 385.222,61.709 C382.29,61.709 379.91,59.332 379.91,56.397 C379.91,53.461 382.29,51.082 385.222,51.082 C388.157,51.082 390.531,53.461 390.531,56.397" fill="#F7D4DE"/>
    <path d="M432.766,20.273 C432.766,24.817 429.078,28.507 424.534,28.507 C419.985,28.507 416.296,24.817 416.296,20.273 C416.296,15.727 419.985,12.038 424.534,12.038 C429.078,12.038 432.766,15.727 432.766,20.273" fill="#FBDBAA"/>
    <path d="M435.688,55.867 C435.688,59.976 432.354,63.304 428.247,63.304 C424.142,63.304 420.816,59.976 420.816,55.867 C420.816,51.756 424.142,48.429 428.247,48.429 C432.354,48.429 435.688,51.756 435.688,55.867" fill="#F2B277"/>
    <path d="M426.124,48.96 C426.124,52.187 423.508,54.802 420.284,54.802 C417.052,54.802 414.437,52.187 414.437,48.96 C414.437,45.736 417.052,43.118 420.284,43.118 C423.508,43.118 426.124,45.736 426.124,48.96" fill="#E15D29"/>
    <path d="M417.625,37.803 C417.625,39.565 416.196,40.993 414.437,40.993 C412.676,40.993 411.249,39.565 411.249,37.803 C411.249,36.045 412.676,34.617 414.437,34.617 C416.196,34.617 417.625,36.045 417.625,37.803" fill="#FFFFFE"/>
    <path d="M24.311,67.517 L27.195,67.517 L27.195,279.119 L24.311,279.119 z" fill="#DDBFA0"/>
    <path d="M25.757,268.207 L34.437,282.68 L17.07,282.68 L25.757,268.207" fill="#DDBFA0"/>
    <path d="M13.833,54.686 L0.935,105.115 L50.583,105.115 L37.681,54.686 L13.833,54.686" fill="#FCE2B4"/>
    <g>
      <path d="M291.571,98.811 C291.571,98.811 287.01,98.143 289.426,103.375 C289.426,103.375 291.303,107.268 294.658,106.865" fill="#F5C4AD"/>
      <path d="M291.571,98.811 C291.571,98.811 287.01,98.143 289.426,103.375 C289.426,103.375 291.303,107.268 294.658,106.865" fill-opacity="0" stroke="#9D6E51" stroke-width="1" stroke-linecap="round" stroke-linejoin="round"/>
    </g>
    <g>
      <path d="M326.063,93.579 C326.063,93.579 329.82,90.761 330.625,95.727 C330.625,95.727 330.896,101.496 326.195,101.632" fill="#F5C4AD"/>
      <path d="M326.063,93.579 C326.063,93.579 329.82,90.761 330.625,95.727 C330.625,95.727 330.896,101.496 326.195,101.632" fill-opacity="0" stroke="#9D6E51" stroke-width="1" stroke-linecap="round" stroke-linejoin="round"/>
    </g>
    <g>
      <path d="M329.284,192.624 L341.631,195.309 C343.141,197.999 344.43,201.547 344.523,204.654 C344.638,208.384 343.216,212.134 340.448,214.491 C337.604,216.917 334.155,217.981 330.462,217.993 C325.12,218.01 318.949,215.398 315.056,211.682 L310.101,200.787" fill="#FFF8B4"/>
      <path d="M329.284,192.624 L341.631,195.309 C343.141,197.999 344.43,201.547 344.523,204.654 C344.638,208.384 343.216,212.134 340.448,214.491 C337.604,216.917 334.155,217.981 330.462,217.993 C325.12,218.01 318.949,215.398 315.056,211.682 L310.101,200.787" fill-opacity="0" stroke="#9D6E51" stroke-width="1" stroke-linecap="round" stroke-linejoin="round"/>
    </g>
    <g>
      <path d="M356.153,202.391 L345.626,163.079 L337.487,165.092 L349.997,200.673" fill="#F5C4AD"/>
      <path d="M356.153,202.391 L345.626,163.079 L337.487,165.092 L349.997,200.673" fill-opacity="0" stroke="#9D6E51" stroke-width="1" stroke-linecap="round" stroke-linejoin="round"/>
    </g>
    <g>
      <path d="M288.752,166.318 C288.306,168.332 287.858,170.345 287.413,172.359 C285.523,171.982 266.475,168.863 266.475,168.199 L266.475,174.104 C273.251,176.07 280.027,178.035 286.804,180 C288.182,180.4 289.552,180.828 290.931,181.225 C292.696,181.73 293.574,181.016 293.937,179.217 C294.292,177.469 294.642,175.721 295.023,173.978 C295.216,173.096 296.155,166.553 297.478,166.588 C297.477,166.588 288.752,166.318 288.752,166.318 z" fill="#F5C4AD"/>
      <path d="M288.752,166.318 C288.306,168.332 287.858,170.345 287.413,172.359 C285.523,171.982 266.475,168.863 266.475,168.199 L266.475,174.104 C273.251,176.07 280.027,178.035 286.804,180 C288.182,180.4 289.552,180.828 290.931,181.225 C292.696,181.73 293.574,181.016 293.937,179.217 C294.292,177.469 294.642,175.721 295.023,173.978 C295.216,173.096 296.155,166.553 297.478,166.588 C297.477,166.588 288.752,166.318 288.752,166.318 z" fill-opacity="0" stroke="#9D6E51" stroke-width="1" stroke-linecap="round" stroke-linejoin="round"/>
    </g>
    <g>
      <path d="M308.213,116.233 C308.213,116.233 310.63,126.432 303.115,129.921 L307.005,139.585 L322.708,138.377 L323.109,127.237 C323.109,127.237 315.998,126.834 315.326,114.89 L308.213,116.233 z" fill="#F5C4AD"/>
      <path d="M308.213,116.233 C308.213,116.233 310.63,126.432 303.115,129.921 L307.005,139.585 L322.708,138.377 L323.109,127.237 C323.109,127.237 315.998,126.834 315.326,114.89 L308.213,116.233 z" fill-opacity="0" stroke="#9D6E51" stroke-width="1" stroke-linecap="round" stroke-linejoin="round"/>
    </g>
    <g>
      <path d="M301.236,151.153 L299.355,170.613 C290.095,171.956 284.593,165.784 284.593,165.784 C284.965,164.814 285.323,163.836 285.662,162.856 C288.445,154.842 289.562,149.961 291.976,139.209 C292.967,134.788 297.171,131.348 301.252,129.515 C301.256,129.513 303.92,128.315 303.92,128.315 C303.92,128.315 304.358,138.852 313.283,138.413 C313.283,138.413 323.234,139.144 321.626,125.976 L325.349,127.129 C325.349,127.129 335.188,130.486 338.143,134.379 C342.349,139.925 342.463,147.646 344.182,154.107 C345.064,157.419 347.885,161.926 349.206,165.096 C349.206,165.096 339.215,171.419 331.833,167.393 C331.833,167.393 331.027,150.617 331.97,144.311" fill="#B5AAC8"/>
      <path d="M301.236,151.153 L299.355,170.613 C290.095,171.956 284.593,165.784 284.593,165.784 C284.965,164.814 285.323,163.836 285.662,162.856 C288.445,154.842 289.562,149.961 291.976,139.209 C292.967,134.788 297.171,131.348 301.252,129.515 C301.256,129.513 303.92,128.315 303.92,128.315 C303.92,128.315 304.358,138.852 313.283,138.413 C313.283,138.413 323.234,139.144 321.626,125.976 L325.349,127.129 C325.349,127.129 335.188,130.486 338.143,134.379 C342.349,139.925 342.463,147.646 344.182,154.107 C345.064,157.419 347.885,161.926 349.206,165.096 C349.206,165.096 339.215,171.419 331.833,167.393 C331.833,167.393 331.027,150.617 331.97,144.311" fill-opacity="0" stroke="#9D6E51" stroke-width="1" stroke-linecap="round" stroke-linejoin="round"/>
    </g>
    <g>
      <path d="M306.676,69.106 C305.692,69.261 304.774,69.658 303.703,69.697 C301.36,69.788 298.282,68.088 297.281,65.813 C295.387,61.509 301.918,57.866 305.432,58.211 C307.375,58.403 307.222,61.147 305.238,60.952 C303.888,60.821 303.41,58.642 303.731,57.53 C304.471,54.984 309.028,54.353 311.166,54.445 C313.731,54.554 312.772,56.675 311.386,56.326 C310.365,56.068 310.341,54.424 310.416,53.653 C310.643,51.35 312.632,50.524 314.719,50.188 C316.798,49.855 326.316,48.573 325.455,53.067 C325.059,55.13 322.417,55.762 320.673,55.51 C320.22,54.306 322.876,54.427 323.44,54.445 C325.674,54.516 329.664,55.515 330.595,57.833 C331.602,60.345 328.104,62.313 326.28,63.202 C323.797,64.41 318.71,66.065 317.456,62.341 C316.726,60.154 319.455,59.816 320.971,59.8 C323.202,59.777 325.79,60.145 327.394,61.862 C328.687,63.248 328.162,65.198 326.154,65.333 C326.146,65.22 326.158,65.075 326.149,64.968 C327.463,64.383 329.153,64.616 330.029,65.871 C331.674,68.239 327.125,68.779 327.219,67.526 C328.264,66.978 331.141,66.913 331.88,68.063 C333.223,70.153 330.038,72.195 328.523,72.71 C324.193,74.183 318.923,74.141 314.558,72.844 C312.81,72.325 309.663,71.608 308.287,70.448 L306.676,69.106 z" fill="#D8A06B"/>
      <path d="M306.676,69.106 C305.692,69.261 304.774,69.658 303.703,69.697 C301.36,69.788 298.282,68.088 297.281,65.813 C295.387,61.509 301.918,57.866 305.432,58.211 C307.375,58.403 307.222,61.147 305.238,60.952 C303.888,60.821 303.41,58.642 303.731,57.53 C304.471,54.984 309.028,54.353 311.166,54.445 C313.731,54.554 312.772,56.675 311.386,56.326 C310.365,56.068 310.341,54.424 310.416,53.653 C310.643,51.35 312.632,50.524 314.719,50.188 C316.798,49.855 326.316,48.573 325.455,53.067 C325.059,55.13 322.417,55.762 320.673,55.51 C320.22,54.306 322.876,54.427 323.44,54.445 C325.674,54.516 329.664,55.515 330.595,57.833 C331.602,60.345 328.104,62.313 326.28,63.202 C323.797,64.41 318.71,66.065 317.456,62.341 C316.726,60.154 319.455,59.816 320.971,59.8 C323.202,59.777 325.79,60.145 327.394,61.862 C328.687,63.248 328.162,65.198 326.154,65.333 C326.146,65.22 326.158,65.075 326.149,64.968 C327.463,64.383 329.153,64.616 330.029,65.871 C331.674,68.239 327.125,68.779 327.219,67.526 C328.264,66.978 331.141,66.913 331.88,68.063 C333.223,70.153 330.038,72.195 328.523,72.71 C324.193,74.183 318.923,74.141 314.558,72.844 C312.81,72.325 309.663,71.608 308.287,70.448 L306.676,69.106 z" fill-opacity="0" stroke="#9D6E51" stroke-width="1" stroke-linecap="round" stroke-linejoin="round"/>
    </g>
    <g>
      <path d="M240.846,231.282 C241.666,233.741 243.715,236.6 246.506,234.77 C248.882,233.212 248.479,230.154 247.817,227.783 C247.155,225.41 244.949,221.211 241.831,222.539 C238.456,223.978 240.017,228.798 240.846,231.282 z" fill="#8EC9A0"/>
      <path d="M240.846,231.282 C241.666,233.741 243.715,236.6 246.506,234.77 C248.882,233.212 248.479,230.154 247.817,227.783 C247.155,225.41 244.949,221.211 241.831,222.539 C238.456,223.978 240.017,228.798 240.846,231.282 z" fill-opacity="0" stroke="#9D6E51" stroke-width="1" stroke-linecap="round" stroke-linejoin="round"/>
    </g>
    <g>
      <path d="M252.113,228.186 C252.084,230.37 252.262,233.583 254.521,234.805 C257.017,236.152 258.969,232.486 259.366,230.501 C259.945,227.621 259.496,223.81 256.158,222.899 C252.726,221.962 252.146,225.732 252.113,228.186 z" fill="#8EC9A0"/>
      <path d="M252.113,228.186 C252.084,230.37 252.262,233.583 254.521,234.805 C257.017,236.152 258.969,232.486 259.366,230.501 C259.945,227.621 259.496,223.81 256.158,222.899 C252.726,221.962 252.146,225.732 252.113,228.186 z" fill-opacity="0" stroke="#9D6E51" stroke-width="1" stroke-linecap="round" stroke-linejoin="round"/>
    </g>
    <g>
      <path d="M230.102,204.167 C229.147,204.412 228.536,200.261 228.492,199.604 C228.329,197.189 229.447,195.138 231.713,194.37 C239.633,191.685 243.604,195.944 249.96,195.043 C255.192,194.301 263.549,190.692 267.741,195.003 C271.171,198.529 268.619,203.361 267.144,205.106 C266.262,206.148 263.324,206.457 263.119,205.106 C262.925,203.848 263.696,204.45 262.314,204.167 C261.05,203.908 261.074,204.148 260.032,204.437 C258.837,204.767 257.096,204.893 255.871,205.106 C253.27,205.562 252.591,204.028 249.967,204.033 C248.194,204.036 244.488,205.578 241.377,204.704 C240.115,204.35 237.528,203.367 236.283,203.228 C234.968,203.078 233.098,203.872 232.115,203.631 L230.102,204.167 z" fill="#F3B778"/>
      <path d="M230.102,204.167 C229.147,204.412 228.536,200.261 228.492,199.604 C228.329,197.189 229.447,195.138 231.713,194.37 C239.633,191.685 243.604,195.944 249.96,195.043 C255.192,194.301 263.549,190.692 267.741,195.003 C271.171,198.529 268.619,203.361 267.144,205.106 C266.262,206.148 263.324,206.457 263.119,205.106 C262.925,203.848 263.696,204.45 262.314,204.167 C261.05,203.908 261.074,204.148 260.032,204.437 C258.837,204.767 257.096,204.893 255.871,205.106 C253.27,205.562 252.591,204.028 249.967,204.033 C248.194,204.036 244.488,205.578 241.377,204.704 C240.115,204.35 237.528,203.367 236.283,203.228 C234.968,203.078 233.098,203.872 232.115,203.631 L230.102,204.167 z" fill-opacity="0" stroke="#9D6E51" stroke-width="1" stroke-linecap="round" stroke-linejoin="round"/>
    </g>
    <g>
      <path d="M234.309,164.938 C234.559,164.878 234.631,164.931 234.53,165.1 C233.128,165.863 231.226,167.896 230.322,169.177 C229.04,171.002 228.897,173.051 228.897,175.201 C228.895,178.868 229.244,184.466 232.218,186.888 C233.351,187.81 235.174,188.296 236.622,188.298 C239.648,188.305 240.704,183.727 241.122,181.333 C241.578,178.74 242.298,175.106 241.301,172.563 C240.867,171.448 239.958,170.469 239.379,169.444 C238.286,167.51 236.286,166.433 235.184,164.588 L234.309,164.938 z" fill="#8EC9A0"/>
      <path d="M234.309,164.938 C234.559,164.878 234.631,164.931 234.53,165.1 C233.128,165.863 231.226,167.896 230.322,169.177 C229.04,171.002 228.897,173.051 228.897,175.201 C228.895,178.868 229.244,184.466 232.218,186.888 C233.351,187.81 235.174,188.296 236.622,188.298 C239.648,188.305 240.704,183.727 241.122,181.333 C241.578,178.74 242.298,175.106 241.301,172.563 C240.867,171.448 239.958,170.469 239.379,169.444 C238.286,167.51 236.286,166.433 235.184,164.588 L234.309,164.938 z" fill-opacity="0" stroke="#9D6E51" stroke-width="1" stroke-linecap="round" stroke-linejoin="round"/>
    </g>
    <g>
      <path d="M235.069,165.111 C234.511,168.207 237.349,170.405 237.842,173.499 C238.376,176.855 238.846,180.255 238.73,183.66 C238.609,187.302 237.305,189.915 236.183,193.242 C236.07,193.578 243.068,195.257 243.578,195.34 C247.512,195.971 251.419,195.282 255.287,194.554 C257.639,194.108 259.912,194.565 262.314,194.502 C263.342,194.475 264.997,194.101 267.144,194.236 C267.144,194.236 265.154,189.31 265.4,188.061 C265.78,186.137 267.542,186.383 268.981,185.383 C275.391,180.922 273.53,173.065 270.601,167.129 C269.087,164.057 267.269,160.551 264.058,158.929 C262.022,157.902 259.799,157.002 257.649,156.257 C254.328,155.104 250.642,155.154 247.193,155.79 C242.293,156.69 236.054,159.652 235.069,165.111 z" fill="#8EC9A0"/>
      <path d="M235.069,165.111 C234.511,168.207 237.349,170.405 237.842,173.499 C238.376,176.855 238.846,180.255 238.73,183.66 C238.609,187.302 237.305,189.915 236.183,193.242 C236.07,193.578 243.068,195.257 243.578,195.34 C247.512,195.971 251.419,195.282 255.287,194.554 C257.639,194.108 259.912,194.565 262.314,194.502 C263.342,194.475 264.997,194.101 267.144,194.236 C267.144,194.236 265.154,189.31 265.4,188.061 C265.78,186.137 267.542,186.383 268.981,185.383 C275.391,180.922 273.53,173.065 270.601,167.129 C269.087,164.057 267.269,160.551 264.058,158.929 C262.022,157.902 259.799,157.002 257.649,156.257 C254.328,155.104 250.642,155.154 247.193,155.79 C242.293,156.69 236.054,159.652 235.069,165.111 z" fill-opacity="0" stroke="#9D6E51" stroke-width="1" stroke-linecap="round" stroke-linejoin="round"/>
    </g>
    <g>
      <path d="M249.565,162.026 C252.247,162.963 253.95,161.573 254.801,160.257 C255.83,158.666 255.131,156.205 253.599,155.177 C252.006,154.109 249.265,154.669 247.929,155.929 C245.971,157.777 247.6,161.339 249.565,162.026 z" fill="#F5C4AD"/>
      <path d="M249.565,162.026 C252.247,162.963 253.95,161.573 254.801,160.257 C255.83,158.666 255.131,156.205 253.599,155.177 C252.006,154.109 249.265,154.669 247.929,155.929 C245.971,157.777 247.6,161.339 249.565,162.026 z" fill-opacity="0" stroke="#9D6E51" stroke-width="1" stroke-linecap="round" stroke-linejoin="round"/>
    </g>
    <g>
      <path d="M234.002,145.251 C233.28,144.005 231.714,144.317 231.009,145.258 C229.926,146.698 230.716,148.661 231.747,150.042 C232.305,150.788 233.168,151.735 234.728,151.064" fill="#F5C4AD"/>
      <path d="M234.002,145.251 C233.28,144.005 231.714,144.317 231.009,145.258 C229.926,146.698 230.716,148.661 231.747,150.042 C232.305,150.788 233.168,151.735 234.728,151.064" fill-opacity="0" stroke="#9D6E51" stroke-width="1" stroke-linecap="round" stroke-linejoin="round"/>
    </g>
    <g>
      <path d="M266.842,144.22 C267.619,142.493 269.088,142.667 269.691,143.098 C273.502,145.817 268.164,151.849 266.237,148.887" fill="#F5C4AD"/>
      <path d="M266.842,144.22 C267.619,142.493 269.088,142.667 269.691,143.098 C273.502,145.817 268.164,151.849 266.237,148.887" fill-opacity="0" stroke="#9D6E51" stroke-width="1" stroke-linecap="round" stroke-linejoin="round"/>
    </g>
    <g>
      <path d="M266.619,138.526 C271.163,157.788 251.718,159.243 251.718,159.243 C228.276,160.696 234.09,139.071 234.09,139.071 L241.511,128.069 C241.511,128.069 257.348,126.325 257.752,126.325 C258.151,126.325 266.619,138.526 266.619,138.526 z" fill="#F5C4AD"/>
      <path d="M266.619,138.526 C271.163,157.788 251.718,159.243 251.718,159.243 C228.276,160.696 234.09,139.071 234.09,139.071 L241.511,128.069 C241.511,128.069 257.348,126.325 257.752,126.325 C258.151,126.325 266.619,138.526 266.619,138.526 z" fill-opacity="0" stroke="#9D6E51" stroke-width="1" stroke-linecap="round" stroke-linejoin="round"/>
    </g>
    <path d="M243.537,149.065 C243.537,149.865 242.891,150.52 242.089,150.52 C241.283,150.52 240.637,149.865 240.637,149.065 C240.637,148.263 241.283,147.615 242.089,147.615 C242.891,147.615 243.537,148.263 243.537,149.065" fill="#9D6E51"/>
    <path d="M259.166,147.795 C259.166,148.597 258.516,149.248 257.716,149.248 C256.916,149.248 256.264,148.597 256.264,147.795 C256.264,146.992 256.916,146.343 257.716,146.343 C258.516,146.343 259.166,146.992 259.166,147.795" fill="#9D6E51"/>
    <path d="M248.992,151.609 C248.992,151.609 250.629,153.973 251.899,151.429" fill-opacity="0" stroke="#9D6E51" stroke-width="1" stroke-linecap="round" stroke-linejoin="round"/>
    <g>
      <path d="M253.354,157.064 C253.354,157.966 252.459,158.698 251.356,158.698 C250.251,158.698 249.355,157.966 249.355,157.064 C249.355,156.157 250.251,155.426 251.356,155.426 C252.459,155.426 253.354,156.157 253.354,157.064 z" fill="#ED9E9A"/>
      <path d="M253.354,157.064 C253.354,157.966 252.459,158.698 251.356,158.698 C250.251,158.698 249.355,157.966 249.355,157.064 C249.355,156.157 250.251,155.426 251.356,155.426 C252.459,155.426 253.354,156.157 253.354,157.064 z" fill-opacity="0" stroke="#9D6E51" stroke-width="1" stroke-linecap="round" stroke-linejoin="round"/>
    </g>
    <g>
      <path d="M249.126,119.43 C249.126,119.43 247.054,115.629 240.315,118.22 C240.315,118.22 243.51,118.738 244.721,120.121 C244.721,120.121 234.269,119.773 229.861,131.176 C229.861,131.176 227.356,141.284 233.662,147.418 C233.662,147.418 233.317,142.407 238.588,137.568 C238.588,137.568 235.738,142.84 235.478,144.565 C235.478,144.565 239.623,141.284 242.734,138.174 L240.575,143.184 C240.575,143.184 247.915,138.347 252.321,130.572 C252.321,130.572 254.653,139.125 263.381,141.542 C263.381,141.542 260.355,136.531 260.183,135.581 C260.183,135.581 263.212,141.229 265.803,142.699 L265.107,136.965 C265.107,136.965 267.366,144.172 267.28,146.59 C270.097,141.491 271.815,137.457 271.158,131.875 C270.599,127.105 265.7,122.103 261.128,120.81 C260.419,120.608 256.91,119.792 256.382,120.379 C256.382,120.379 258.8,117.702 261.652,117.96 C261.652,117.96 255.604,115.457 251.372,119.603 C251.372,119.603 250.594,116.405 248.607,115.801 C248.607,115.801 249.644,118.047 249.126,119.43 z" fill="#BA8E74"/>
      <path d="M249.126,119.43 C249.126,119.43 247.054,115.629 240.315,118.22 C240.315,118.22 243.51,118.738 244.721,120.121 C244.721,120.121 234.269,119.773 229.861,131.176 C229.861,131.176 227.356,141.284 233.662,147.418 C233.662,147.418 233.317,142.407 238.588,137.568 C238.588,137.568 235.738,142.84 235.478,144.565 C235.478,144.565 239.623,141.284 242.734,138.174 L240.575,143.184 C240.575,143.184 247.915,138.347 252.321,130.572 C252.321,130.572 254.653,139.125 263.381,141.542 C263.381,141.542 260.355,136.531 260.183,135.581 C260.183,135.581 263.212,141.229 265.803,142.699 L265.107,136.965 C265.107,136.965 267.366,144.172 267.28,146.59 C270.097,141.491 271.815,137.457 271.158,131.875 C270.599,127.105 265.7,122.103 261.128,120.81 C260.419,120.608 256.91,119.792 256.382,120.379 C256.382,120.379 258.8,117.702 261.652,117.96 C261.652,117.96 255.604,115.457 251.372,119.603 C251.372,119.603 250.594,116.405 248.607,115.801 C248.607,115.801 249.644,118.047 249.126,119.43 z" fill-opacity="0" stroke="#9D6E51" stroke-width="1" stroke-linecap="round" stroke-linejoin="round"/>
    </g>
    <g>
      <path d="M228.653,161.414 C228.653,161.414 232.627,182.059 232.454,189.228 C232.454,189.228 248.435,190.611 251.026,194.498 C251.026,194.498 257.592,187.846 268.562,187.413 C268.562,187.413 267.353,164.348 269.687,159.771 C269.687,159.771 256.295,162.018 250.336,170.224 C250.336,170.224 239.363,162.018 228.653,161.414 z" fill="#E38380"/>
      <path d="M228.653,161.414 C228.653,161.414 232.627,182.059 232.454,189.228 C232.454,189.228 248.435,190.611 251.026,194.498 C251.026,194.498 257.592,187.846 268.562,187.413 C268.562,187.413 267.353,164.348 269.687,159.771 C269.687,159.771 256.295,162.018 250.336,170.224 C250.336,170.224 239.363,162.018 228.653,161.414 z" fill-opacity="0" stroke="#9D6E51" stroke-width="1" stroke-linecap="round" stroke-linejoin="round"/>
    </g>
    <path d="M250.336,170.224 L251.026,194.498" fill-opacity="0" stroke="#FFFFFE" stroke-width="0.425" stroke-linecap="round" stroke-linejoin="round"/>
    <g>
      <path d="M227.786,176.507 C227.592,175.198 228.215,174.493 229.257,173.871 C230.255,173.278 231.833,172.912 232.713,173.94 C233.49,174.848 233.112,175.718 232.918,176.692 C233.89,176.797 233.84,178.94 233.266,179.468 C234.286,179.892 233.69,181.012 233.171,181.597 C232.398,182.465 231.285,182.731 230.198,182.245 C229.34,181.865 229.114,181.193 228.912,180.334 C228.607,179.055 227.98,177.798 227.786,176.507 z" fill="#F3B9A0"/>
      <path d="M227.786,176.507 C227.592,175.198 228.215,174.493 229.257,173.871 C230.255,173.278 231.833,172.912 232.713,173.94 C233.49,174.848 233.112,175.718 232.918,176.692 C233.89,176.797 233.84,178.94 233.266,179.468 C234.286,179.892 233.69,181.012 233.171,181.597 C232.398,182.465 231.285,182.731 230.198,182.245 C229.34,181.865 229.114,181.193 228.912,180.334 C228.607,179.055 227.98,177.798 227.786,176.507 z" fill-opacity="0" stroke="#9D6E51" stroke-width="1" stroke-linecap="round" stroke-linejoin="round"/>
    </g>
    <g>
      <path d="M271.557,174.2 C271.357,173.64 271,173.165 270.421,172.848 C269.646,172.424 268.355,172.021 267.456,172.204 C265.844,172.536 265.879,174.586 266.48,175.644 C265.857,175.937 265.681,176.381 265.621,177.047 C265.593,177.377 265.604,177.722 265.709,178.025 C265.792,178.262 266.149,178.565 266.19,178.732 C266.309,179.203 265.9,179.729 265.969,180.331 C266.066,181.231 266.409,181.355 267.198,181.449 C268.703,181.63 269.56,180.886 270.376,179.719 C271.25,178.471 272.162,175.927 271.557,174.2 z" fill="#F3B9A0"/>
      <path d="M271.557,174.2 C271.357,173.64 271,173.165 270.421,172.848 C269.646,172.424 268.355,172.021 267.456,172.204 C265.844,172.536 265.879,174.586 266.48,175.644 C265.857,175.937 265.681,176.381 265.621,177.047 C265.593,177.377 265.604,177.722 265.709,178.025 C265.792,178.262 266.149,178.565 266.19,178.732 C266.309,179.203 265.9,179.729 265.969,180.331 C266.066,181.231 266.409,181.355 267.198,181.449 C268.703,181.63 269.56,180.886 270.376,179.719 C271.25,178.471 272.162,175.927 271.557,174.2 z" fill-opacity="0" stroke="#9D6E51" stroke-width="1" stroke-linecap="round" stroke-linejoin="round"/>
    </g>
    <g>
      <path d="M243.979,221.441 C243.182,218.976 242.76,216.393 242.118,213.883 C241.318,210.769 240.529,207.693 239.975,204.521 C239.492,201.754 239.043,198.472 237.487,196.057 C235.998,193.743 232.607,193.265 230.33,194.683 C229.416,195.253 229.301,196.347 229.109,197.359 C228.638,199.87 229.34,202.666 230.016,205.093 C231.15,209.172 233.104,212.967 235.158,216.646 C236.87,219.712 240.11,223.555 240.571,227.115 C240.571,227.115 241.106,231.274 244.061,230.606 C244.061,230.606 247.685,230.202 246.343,225.775 C246.142,225.116 245.153,224.369 244.833,223.663 C244.502,222.936 244.224,222.195 243.979,221.441 z" fill="#F5C4AD"/>
      <path d="M243.979,221.441 C243.182,218.976 242.76,216.393 242.118,213.883 C241.318,210.769 240.529,207.693 239.975,204.521 C239.492,201.754 239.043,198.472 237.487,196.057 C235.998,193.743 232.607,193.265 230.33,194.683 C229.416,195.253 229.301,196.347 229.109,197.359 C228.638,199.87 229.34,202.666 230.016,205.093 C231.15,209.172 233.104,212.967 235.158,216.646 C236.87,219.712 240.11,223.555 240.571,227.115 C240.571,227.115 241.106,231.274 244.061,230.606 C244.061,230.606 247.685,230.202 246.343,225.775 C246.142,225.116 245.153,224.369 244.833,223.663 C244.502,222.936 244.224,222.195 243.979,221.441 z" fill-opacity="0" stroke="#9D6E51" stroke-width="1" stroke-linecap="round" stroke-linejoin="round"/>
    </g>
    <g>
      <path d="M261.111,219.307 C263.429,214.746 264.608,209.26 265.772,204.307 C266.257,202.249 267.08,199.922 266.6,197.8 C266.219,196.102 264.831,194.828 263.232,194.359 C261.926,193.977 260.478,194.133 259.327,195.038 C257.806,196.232 257.294,198.837 256.949,200.677 C255.984,205.815 255.839,210.926 255.335,216.112 C255.155,217.962 254.827,219.763 254.533,221.583 C254.533,221.583 254.613,223.63 253.676,225.375 C253.676,225.375 252.873,228.982 255.335,229.934 C255.335,229.934 258.553,230.606 258.69,226.177 C258.69,226.177 259.225,223.493 260.97,219.733" fill="#F5C4AD"/>
      <path d="M261.111,219.307 C263.429,214.746 264.608,209.26 265.772,204.307 C266.257,202.249 267.08,199.922 266.6,197.8 C266.219,196.102 264.831,194.828 263.232,194.359 C261.926,193.977 260.478,194.133 259.327,195.038 C257.806,196.232 257.294,198.837 256.949,200.677 C255.984,205.815 255.839,210.926 255.335,216.112 C255.155,217.962 254.827,219.763 254.533,221.583 C254.533,221.583 254.613,223.63 253.676,225.375 C253.676,225.375 252.873,228.982 255.335,229.934 C255.335,229.934 258.553,230.606 258.69,226.177 C258.69,226.177 259.225,223.493 260.97,219.733" fill-opacity="0" stroke="#9D6E51" stroke-width="1" stroke-linecap="round" stroke-linejoin="round"/>
    </g>
    <g>
      <path d="M324.519,85.995 C332.168,113.978 310.63,116.795 310.63,116.795 C292.107,117.399 290.498,91.632 290.498,91.632 L291.728,84.24 L314.142,75.861 L324.519,85.995 z" fill="#F5C4AD"/>
      <path d="M324.519,85.995 C332.168,113.978 310.63,116.795 310.63,116.795 C292.107,117.399 290.498,91.632 290.498,91.632 L291.728,84.24 L314.142,75.861 L324.519,85.995 z" fill-opacity="0" stroke="#9D6E51" stroke-width="1" stroke-linecap="round" stroke-linejoin="round"/>
    </g>
    <path d="M304.872,100.573 C304.872,100.573 304.671,105.149 303.664,106.557 C303.664,106.557 304.258,107.487 306.562,107.055 M305.678,110.793 C305.678,110.793 310.106,115.624 312.724,108.578" fill-opacity="0" stroke="#9D6E51" stroke-width="1" stroke-linecap="round" stroke-linejoin="round"/>
    <path d="M300.251,99.861 C300.443,100.884 299.967,101.831 299.185,101.978 C298.405,102.126 297.618,101.419 297.422,100.396 C297.23,99.376 297.706,98.428 298.488,98.278 C299.269,98.132 300.06,98.842 300.251,99.861" fill="#9D6E51"/>
    <path d="M314.724,97.018 C314.938,98.141 314.411,99.182 313.554,99.343 C312.693,99.504 311.827,98.726 311.612,97.605 C311.402,96.48 311.924,95.438 312.785,95.275 C313.643,95.113 314.514,95.892 314.724,97.018" fill="#9D6E51"/>
    <g>
      <path d="M307.81,67.676 C307.81,67.676 285.532,70.225 286.338,88.881 C286.338,88.881 285.263,96.799 292.646,102.303 C292.646,102.303 291.706,95.993 292.78,93.846 C292.78,93.846 306.467,93.579 314.252,78.682 C314.252,78.682 317.473,88.344 323.109,91.026 C323.109,91.026 325.929,97.069 325.662,101.228 C325.662,101.228 328.21,96.397 328.076,92.638 C328.076,92.638 330.091,93.175 330.493,94.786 C330.493,94.786 334.653,83.647 326.601,73.179 C326.601,73.179 321.5,68.615 317.742,70.358 C317.742,70.358 315.326,66.736 307.81,67.676 z" fill="#D8A06B"/>
      <path d="M307.81,67.676 C307.81,67.676 285.532,70.225 286.338,88.881 C286.338,88.881 285.263,96.799 292.646,102.303 C292.646,102.303 291.706,95.993 292.78,93.846 C292.78,93.846 306.467,93.579 314.252,78.682 C314.252,78.682 317.473,88.344 323.109,91.026 C323.109,91.026 325.929,97.069 325.662,101.228 C325.662,101.228 328.21,96.397 328.076,92.638 C328.076,92.638 330.091,93.175 330.493,94.786 C330.493,94.786 334.653,83.647 326.601,73.179 C326.601,73.179 321.5,68.615 317.742,70.358 C317.742,70.358 315.326,66.736 307.81,67.676 z" fill-opacity="0" stroke="#9D6E51" stroke-width="1" stroke-linecap="round" stroke-linejoin="round"/>
    </g>
    <g>
      <path d="M324.986,140.416 C325.551,137.274 324.443,127.603 324.38,126.176 L328.748,127.803 C330.829,128.576 331.713,143.903 332.029,146.288 C332.898,152.82 333.663,159.368 334.98,165.831 C337.001,175.75 339.269,185.666 341.9,195.443 C341.9,195.443 327.942,199.335 320.025,196.786 L294.576,200.701 C294.608,200.701 296.264,196.614 296.269,196.463 C296.616,189.475 299.129,182.151 299.046,174.885 C298.957,167.044 297.524,159.272 297.504,151.418 C297.487,144.682 296.451,137.29 297.61,130.619 L302.277,128.363 C302.409,130.433 302.152,141.478 304.524,143.79 C306.893,146.105 310.102,146.239 313.178,146.457 C316.967,146.728 324.986,143.679 324.986,140.416 z" fill="#FFFFFE"/>
      <path d="M324.986,140.416 C325.551,137.274 324.443,127.603 324.38,126.176 L328.748,127.803 C330.829,128.576 331.713,143.903 332.029,146.288 C332.898,152.82 333.663,159.368 334.98,165.831 C337.001,175.75 339.269,185.666 341.9,195.443 C341.9,195.443 327.942,199.335 320.025,196.786 L294.576,200.701 C294.608,200.701 296.264,196.614 296.269,196.463 C296.616,189.475 299.129,182.151 299.046,174.885 C298.957,167.044 297.524,159.272 297.504,151.418 C297.487,144.682 296.451,137.29 297.61,130.619 L302.277,128.363 C302.409,130.433 302.152,141.478 304.524,143.79 C306.893,146.105 310.102,146.239 313.178,146.457 C316.967,146.728 324.986,143.679 324.986,140.416 z" fill-opacity="0" stroke="#9D6E51" stroke-width="1" stroke-linecap="round" stroke-linejoin="round"/>
    </g>
    <g>
      <path d="M312.371,271.269 C312.297,273.503 313.461,275.714 314.358,277.688 C315.831,280.925 317.389,284.825 320.415,286.934 C321.802,287.896 324.538,288.593 326.007,287.492 C328.438,285.666 327.476,282.118 326.546,279.984 C325.212,276.924 323.888,273.551 322.344,270.576 C320.901,267.795 317.9,262.917 313.943,264.155 C311.805,264.826 312.103,267.598 312.103,269.393 C312.103,269.482 312.103,269.571 312.103,269.661 L312.371,271.269 z" fill="#F2BEC9"/>
      <path d="M312.371,271.269 C312.297,273.503 313.461,275.714 314.358,277.688 C315.831,280.925 317.389,284.825 320.415,286.934 C321.802,287.896 324.538,288.593 326.007,287.492 C328.438,285.666 327.476,282.118 326.546,279.984 C325.212,276.924 323.888,273.551 322.344,270.576 C320.901,267.795 317.9,262.917 313.943,264.155 C311.805,264.826 312.103,267.598 312.103,269.393 C312.103,269.482 312.103,269.571 312.103,269.661 L312.371,271.269 z" fill-opacity="0" stroke="#9D6E51" stroke-width="1" stroke-linecap="round" stroke-linejoin="round"/>
    </g>
    <g>
      <path d="M315.537,276.253 C315.7,276.558 315.884,276.843 316.089,277.103 C317.928,279.452 321.448,278.931 321.5,275.433 C321.537,272.626 319.819,266.927 316.565,266.438 C314.484,266.127 313.821,268.063 313.714,269.794 C313.592,271.776 314.528,274.371 315.537,276.253 z" fill="#F5C4AD"/>
      <path d="M315.537,276.253 C315.7,276.558 315.884,276.843 316.089,277.103 C317.928,279.452 321.448,278.931 321.5,275.433 C321.537,272.626 319.819,266.927 316.565,266.438 C314.484,266.127 313.821,268.063 313.714,269.794 C313.592,271.776 314.528,274.371 315.537,276.253 z" fill-opacity="0" stroke="#9D6E51" stroke-width="1" stroke-linecap="round" stroke-linejoin="round"/>
    </g>
    <g>
      <path d="M322.171,271.138 L300.16,194.904 C300.16,194.904 288.885,189.673 285.395,195.98 C285.395,195.98 281.101,199.604 286.602,217.588 C286.602,217.588 295.328,241.747 303.11,254.63 C303.11,254.63 311.297,269.662 311.297,272.748 C311.297,272.748 317.566,274.497 322.171,271.138 z" fill="#FFF8B4"/>
      <path d="M322.171,271.138 L300.16,194.904 C300.16,194.904 288.885,189.673 285.395,195.98 C285.395,195.98 281.101,199.604 286.602,217.588 C286.602,217.588 295.328,241.747 303.11,254.63 C303.11,254.63 311.297,269.662 311.297,272.748 C311.297,272.748 317.566,274.497 322.171,271.138 z" fill-opacity="0" stroke="#9D6E51" stroke-width="1" stroke-linecap="round" stroke-linejoin="round"/>
    </g>
    <g>
      <path d="M324.986,273.054 C325.78,274.65 326.649,276.213 327.519,277.769 C328.225,279.029 328.818,280.458 329.692,281.613 C330.415,282.563 331.61,283.949 332.672,284.506 C335.529,286.007 338.642,285.708 339.519,281.868 C340.049,279.54 338.72,277.131 337.706,275.08 C336.593,272.818 335.074,270.779 334.048,268.48 C332.613,265.269 330.557,260.185 326.265,260.039 C323.59,259.948 323.141,262.954 323.14,265.015 C323.138,268.024 323.648,270.359 324.986,273.054 z" fill="#F2BEC9"/>
      <path d="M324.986,273.054 C325.78,274.65 326.649,276.213 327.519,277.769 C328.225,279.029 328.818,280.458 329.692,281.613 C330.415,282.563 331.61,283.949 332.672,284.506 C335.529,286.007 338.642,285.708 339.519,281.868 C340.049,279.54 338.72,277.131 337.706,275.08 C336.593,272.818 335.074,270.779 334.048,268.48 C332.613,265.269 330.557,260.185 326.265,260.039 C323.59,259.948 323.141,262.954 323.14,265.015 C323.138,268.024 323.648,270.359 324.986,273.054 z" fill-opacity="0" stroke="#9D6E51" stroke-width="1" stroke-linecap="round" stroke-linejoin="round"/>
    </g>
    <g>
      <path d="M326.83,273.507 C327.715,275.317 330.699,277.632 332.784,276.529 C335.901,274.88 332.345,269.336 331.26,267.467 C330.935,266.907 330.518,266.028 329.909,265.669 C328.248,264.681 325.896,266.149 325.257,267.748 C324.505,269.63 326.027,271.863 326.83,273.507 z" fill="#F5C4AD"/>
      <path d="M326.83,273.507 C327.715,275.317 330.699,277.632 332.784,276.529 C335.901,274.88 332.345,269.336 331.26,267.467 C330.935,266.907 330.518,266.028 329.909,265.669 C328.248,264.681 325.896,266.149 325.257,267.748 C324.505,269.63 326.027,271.863 326.83,273.507 z" fill-opacity="0" stroke="#9D6E51" stroke-width="1" stroke-linecap="round" stroke-linejoin="round"/>
    </g>
    <g>
      <path d="M328.748,198.261 L311.838,193.43 C311.838,193.43 299.893,188.866 299.758,199.066 C299.758,199.066 304.589,236.51 322.441,271.602 C322.441,271.602 332.346,272.84 335.729,269.457 C335.729,269.457 326.734,250.47 326.063,240.807 C326.063,240.807 324.451,214.501 318.278,204.972" fill="#FFF8B4"/>
      <path d="M328.748,198.261 L311.838,193.43 C311.838,193.43 299.893,188.866 299.758,199.066 C299.758,199.066 304.589,236.51 322.441,271.602 C322.441,271.602 332.346,272.84 335.729,269.457 C335.729,269.457 326.734,250.47 326.063,240.807 C326.063,240.807 324.451,214.501 318.278,204.972" fill-opacity="0" stroke="#9D6E51" stroke-width="1" stroke-linecap="round" stroke-linejoin="round"/>
    </g>
    <g>
      <path d="M347.373,201.088 C346.658,201.69 344.959,201.843 345.589,202.787 C346.027,203.441 348.222,203.532 348.928,203.521 C349.403,203.512 351.16,202.717 351.401,202.816 C352.702,203.351 351.838,205.127 352.09,206.235 C352.341,207.328 352.92,208.613 354.304,207.704 C355.302,207.045 354.829,205.621 355.264,204.726 C355.231,206.275 354.828,208.89 357.245,208.228 C357.629,206.844 358.506,206.056 358.463,204.48 C358.823,205.567 358.099,207.314 359.534,207.59 C360.976,207.865 361.542,205.805 361.561,204.711 C361.882,206.029 362.739,206.812 363.842,205.619 C364.675,204.715 364.343,202.423 364.282,201.269 C364.101,197.971 362.361,197.462 359.579,198.526 C359.414,197.226 357.194,196.972 357.006,198.53 C356.657,197.346 354.731,196.764 354.121,198.142 C351.398,196.273 349.168,199.571 347.373,201.088 z" fill="#F5C4AD"/>
      <path d="M347.373,201.088 C346.658,201.69 344.959,201.843 345.589,202.787 C346.027,203.441 348.222,203.532 348.928,203.521 C349.403,203.512 351.16,202.717 351.401,202.816 C352.702,203.351 351.838,205.127 352.09,206.235 C352.341,207.328 352.92,208.613 354.304,207.704 C355.302,207.045 354.829,205.621 355.264,204.726 C355.231,206.275 354.828,208.89 357.245,208.228 C357.629,206.844 358.506,206.056 358.463,204.48 C358.823,205.567 358.099,207.314 359.534,207.59 C360.976,207.865 361.542,205.805 361.561,204.711 C361.882,206.029 362.739,206.812 363.842,205.619 C364.675,204.715 364.343,202.423 364.282,201.269 C364.101,197.971 362.361,197.462 359.579,198.526 C359.414,197.226 357.194,196.972 357.006,198.53 C356.657,197.346 354.731,196.764 354.121,198.142 C351.398,196.273 349.168,199.571 347.373,201.088 z" fill-opacity="0" stroke="#9D6E51" stroke-width="1" stroke-linecap="round" stroke-linejoin="round"/>
    </g>
    <path d="M244.363,144.533 C244.363,144.533 241.27,141.661 238.619,145.195 M255.06,144.249 C255.06,144.249 258.152,141.377 260.803,144.912 M309.94,91.956 C309.94,91.956 312.467,88.201 316.443,91.515 M300.508,93.799 C300.508,93.799 297.238,91.35 294.835,95.356" fill-opacity="0" stroke="#9D6E51" stroke-width="1" stroke-linecap="round" stroke-linejoin="round"/>
    <g>
      <path d="M240.045,226.311 C240.045,226.311 238.041,221.634 236.973,220.698 C236.973,220.698 241.248,218.293 243.653,218.293 C243.653,218.293 244.409,222.753 244.833,223.663 C244.833,223.663 249.398,229.517 244.455,230.72 C244.455,230.72 240.713,232.057 240.045,226.311 z" fill="#FFFFFE"/>
      <path d="M240.045,226.311 C240.045,226.311 238.041,221.634 236.973,220.698 C236.973,220.698 241.248,218.293 243.653,218.293 C243.653,218.293 244.409,222.753 244.833,223.663 C244.833,223.663 249.398,229.517 244.455,230.72 C244.455,230.72 240.713,232.057 240.045,226.311 z" fill-opacity="0" stroke="#9D6E51" stroke-width="1" stroke-linecap="round" stroke-linejoin="round"/>
    </g>
    <g>
      <path d="M254.21,223.504 C254.21,223.504 254.615,218.948 254.206,217.587 C254.206,217.587 259.788,217.818 261.826,219.095 C261.826,219.095 259.419,223.274 259.295,224.272 C259.295,224.271 260.059,231.656 255.229,230.052 C255.229,230.052 251.727,228.73 254.21,223.504 z" fill="#FFFFFE"/>
      <path d="M254.21,223.504 C254.21,223.504 254.615,218.948 254.206,217.587 C254.206,217.587 259.788,217.818 261.826,219.095 C261.826,219.095 259.419,223.274 259.295,224.272 C259.295,224.271 260.059,231.656 255.229,230.052 C255.229,230.052 251.727,228.73 254.21,223.504 z" fill-opacity="0" stroke="#9D6E51" stroke-width="1" stroke-linecap="round" stroke-linejoin="round"/>
    </g>
    <g>
      <path d="M114.804,267.534 C115.919,271.469 108.076,276.467 105.417,278.278 C101.788,280.752 97.086,282.732 98.491,288.955 C99.333,292.69 104.338,292.576 108.109,290.619 C110.551,289.351 112.627,287.744 114.804,286.123 C116.637,284.759 117.839,282.719 119.57,281.533 C119.662,281.77 119.846,281.983 119.951,282.247 C122.196,282.522 126.016,280.141 127.425,278.593 C129.235,276.606 129.359,273.164 128.754,270.487 C128.204,268.043 126.129,265.43 123.663,264.784 C120.456,263.943 118.627,264.788 116.651,267.172 C116.725,267.007 116.826,266.86 116.952,266.729 L114.804,267.534 z" fill="#A3A3A2"/>
      <path d="M114.804,267.534 C115.919,271.469 108.076,276.467 105.417,278.278 C101.788,280.752 97.086,282.732 98.491,288.955 C99.333,292.69 104.338,292.576 108.109,290.619 C110.551,289.351 112.627,287.744 114.804,286.123 C116.637,284.759 117.839,282.719 119.57,281.533 C119.662,281.77 119.846,281.983 119.951,282.247 C122.196,282.522 126.016,280.141 127.425,278.593 C129.235,276.606 129.359,273.164 128.754,270.487 C128.204,268.043 126.129,265.43 123.663,264.784 C120.456,263.943 118.627,264.788 116.651,267.172 C116.725,267.007 116.826,266.86 116.952,266.729 L114.804,267.534 z" fill-opacity="0" stroke="#9D6E51" stroke-width="1" stroke-linecap="round" stroke-linejoin="round"/>
    </g>
    <g>
      <path d="M165.098,267.374 C165.909,269.06 167.125,270.639 168.287,271.645 C172.477,275.272 183.605,279.3 179.897,286.17 C177.862,289.939 174.027,289.042 170.155,287.356 C168.787,286.761 160.358,282.224 158.728,278.239 C158.665,279.363 158.706,279.97 158.604,280.237 C156.231,279.675 153.096,277.453 151.683,275.907 C149.754,273.788 149.758,270.444 150.356,267.803 C150.908,265.356 152.981,262.742 155.448,262.099 C158.655,261.26 163.627,264.32 165.098,267.374 z" fill="#A3A3A2"/>
      <path d="M165.098,267.374 C165.909,269.06 167.125,270.639 168.287,271.645 C172.477,275.272 183.605,279.3 179.897,286.17 C177.862,289.939 174.027,289.042 170.155,287.356 C168.787,286.761 160.358,282.224 158.728,278.239 C158.665,279.363 158.706,279.97 158.604,280.237 C156.231,279.675 153.096,277.453 151.683,275.907 C149.754,273.788 149.758,270.444 150.356,267.803 C150.908,265.356 152.981,262.742 155.448,262.099 C158.655,261.26 163.627,264.32 165.098,267.374 z" fill-opacity="0" stroke="#9D6E51" stroke-width="1" stroke-linecap="round" stroke-linejoin="round"/>
    </g>
    <g>
      <path d="M113.751,265.843 C113.751,265.843 115.353,269.582 111.971,273.143 C111.971,273.143 125.323,274.745 125.857,264.953 L113.751,265.843 z" fill="#FFFFFE"/>
      <path d="M113.751,265.843 C113.751,265.843 115.353,269.582 111.971,273.143 C111.971,273.143 125.323,274.745 125.857,264.953 L113.751,265.843 z" fill-opacity="0" stroke="#9D6E51" stroke-width="1" stroke-linecap="round" stroke-linejoin="round"/>
    </g>
    <g>
      <path d="M151.671,264.063 C151.671,264.063 153.332,272.534 168.287,271.645 C168.287,271.645 164.488,267.623 164.31,263.351 L151.671,264.063 z" fill="#FFFFFE"/>
      <path d="M151.671,264.063 C151.671,264.063 153.332,272.534 168.287,271.645 C168.287,271.645 164.488,267.623 164.31,263.351 L151.671,264.063 z" fill-opacity="0" stroke="#9D6E51" stroke-width="1" stroke-linecap="round" stroke-linejoin="round"/>
    </g>
    <g>
      <path d="M116.558,83.223 C116.558,83.223 112.064,77.444 111.423,82.578 C111.423,82.578 110.619,89.801 117.198,92.208" fill="#F5C4AD"/>
      <path d="M116.558,83.223 C116.558,83.223 112.064,77.444 111.423,82.578 C111.423,82.578 110.619,89.801 117.198,92.208" fill-opacity="0" stroke="#9D6E51" stroke-width="1" stroke-linecap="round" stroke-linejoin="round"/>
    </g>
    <g>
      <path d="M150.096,82.578 C151.455,80.588 155.711,77.421 156.178,81.577 C156.667,85.938 154.375,89.36 150.577,91.408" fill="#F5C4AD"/>
      <path d="M150.096,82.578 C151.455,80.588 155.711,77.421 156.178,81.577 C156.667,85.938 154.375,89.36 150.577,91.408" fill-opacity="0" stroke="#9D6E51" stroke-width="1" stroke-linecap="round" stroke-linejoin="round"/>
    </g>
    <g>
      <path d="M108.511,177.995 C108.511,177.995 109.315,188.665 105.69,195.309 C105.69,195.309 148.571,206.783 165.683,192.691 C165.683,192.691 160.852,181.017 161.052,173.971 L108.511,177.995 z" fill="#F2AF6A"/>
      <path d="M108.511,177.995 C108.511,177.995 109.315,188.665 105.69,195.309 C105.69,195.309 148.571,206.783 165.683,192.691 C165.683,192.691 160.852,181.017 161.052,173.971 L108.511,177.995 z" fill-opacity="0" stroke="#9D6E51" stroke-width="1" stroke-linecap="round" stroke-linejoin="round"/>
    </g>
    <g>
      <path d="M122.802,110.556 C122.802,110.556 109.113,115.185 106.496,117.802 L111.729,138.336 L150.383,137.934 L158.033,116.191 C158.033,116.191 150.584,112.166 145.952,110.354 L122.802,110.556 z" fill="#F2AF6A"/>
      <path d="M122.802,110.556 C122.802,110.556 109.113,115.185 106.496,117.802 L111.729,138.336 L150.383,137.934 L158.033,116.191 C158.033,116.191 150.584,112.166 145.952,110.354 L122.802,110.556 z" fill-opacity="0" stroke="#9D6E51" stroke-width="1" stroke-linecap="round" stroke-linejoin="round"/>
    </g>
    <g>
      <path d="M124.211,103.912 C124.211,103.912 125.622,110.958 126.023,118.004 L126.828,126.936 L133.272,126.86 L142.128,116.795 C142.128,116.795 142.532,104.315 144.343,100.892 L122.602,99.08 L124.211,103.912 z" fill="#F5C4AD"/>
      <path d="M124.211,103.912 C124.211,103.912 125.622,110.958 126.023,118.004 L126.828,126.936 L133.272,126.86 L142.128,116.795 C142.128,116.795 142.532,104.315 144.343,100.892 L122.602,99.08 L124.211,103.912 z" fill-opacity="0" stroke="#9D6E51" stroke-width="1" stroke-linecap="round" stroke-linejoin="round"/>
    </g>
    <g>
      <path d="M142.876,57.708 C142.876,57.708 142.714,54.661 136.616,53.536 C136.616,53.536 138.221,54.661 137.9,56.265 C137.9,56.265 133.086,53.213 121.21,56.905 C121.21,56.905 115.755,59.633 113.669,59.633 C113.669,59.633 117.358,60.758 120.247,60.274 C120.247,60.274 113.988,61.076 112.706,66.692 C112.706,66.692 113.669,65.249 114.631,65.249 C114.631,65.249 112.706,70.383 111.741,71.668 L114.47,70.225 C114.47,70.225 111.902,77.284 116.717,86.912 L150.577,86.912 C152.021,84.665 152.823,80.173 152.823,80.173 C153.466,79.532 154.908,79.69 154.908,79.69 C157.073,71.785 156.63,58.227 145.764,57.547 C145.764,57.547 146.405,54.979 148.49,54.819 C148.49,54.819 145.121,53.213 142.876,57.708 z" fill="#B4875B"/>
      <path d="M142.876,57.708 C142.876,57.708 142.714,54.661 136.616,53.536 C136.616,53.536 138.221,54.661 137.9,56.265 C137.9,56.265 133.086,53.213 121.21,56.905 C121.21,56.905 115.755,59.633 113.669,59.633 C113.669,59.633 117.358,60.758 120.247,60.274 C120.247,60.274 113.988,61.076 112.706,66.692 C112.706,66.692 113.669,65.249 114.631,65.249 C114.631,65.249 112.706,70.383 111.741,71.668 L114.47,70.225 C114.47,70.225 111.902,77.284 116.717,86.912 L150.577,86.912 C152.021,84.665 152.823,80.173 152.823,80.173 C153.466,79.532 154.908,79.69 154.908,79.69 C157.073,71.785 156.63,58.227 145.764,57.547 C145.764,57.547 146.405,54.979 148.49,54.819 C148.49,54.819 145.121,53.213 142.876,57.708 z" fill-opacity="0" stroke="#9D6E51" stroke-width="1" stroke-linecap="round" stroke-linejoin="round"/>
    </g>
    <g>
      <path d="M148.17,70.065 C149.599,74.988 150.027,80.208 150.219,85.311 C150.404,90.245 151.099,95.531 148.252,99.913 C147.315,101.357 146.013,102.686 144.482,103.504 C144.386,103.556 142.702,104.112 142.713,104.083 C140.627,109.54 134.049,109.7 134.049,109.7 C128.593,109.38 126.185,104.885 126.185,104.885 C119.334,102.856 118.483,97.825 118.483,97.825 C115.112,86.109 117.358,73.593 117.358,73.593 C118.16,69.261 120.247,68.299 120.247,68.299 C126.346,63.965 132.925,67.015 132.925,67.015 L130.839,63.964 C133.084,64.446 136.936,67.496 136.936,67.496 L134.531,63.964 C135.814,64.286 139.825,67.496 139.825,67.496 L138.219,64.585 C142.564,66.032 142.504,67.48 142.504,67.48 C142.504,67.48 145.603,65.57 147.207,66.692 C147.207,66.692 145.923,67.015 145.764,67.978 C145.764,67.978 147.85,68.779 148.17,70.065 z" fill="#F5C4AD"/>
      <path d="M148.17,70.065 C149.599,74.988 150.027,80.208 150.219,85.311 C150.404,90.245 151.099,95.531 148.252,99.913 C147.315,101.357 146.013,102.686 144.482,103.504 C144.386,103.556 142.702,104.112 142.713,104.083 C140.627,109.54 134.049,109.7 134.049,109.7 C128.593,109.38 126.185,104.885 126.185,104.885 C119.334,102.856 118.483,97.825 118.483,97.825 C115.112,86.109 117.358,73.593 117.358,73.593 C118.16,69.261 120.247,68.299 120.247,68.299 C126.346,63.965 132.925,67.015 132.925,67.015 L130.839,63.964 C133.084,64.446 136.936,67.496 136.936,67.496 L134.531,63.964 C135.814,64.286 139.825,67.496 139.825,67.496 L138.219,64.585 C142.564,66.032 142.504,67.48 142.504,67.48 C142.504,67.48 145.603,65.57 147.207,66.692 C147.207,66.692 145.923,67.015 145.764,67.978 C145.764,67.978 147.85,68.779 148.17,70.065 z" fill-opacity="0" stroke="#9D6E51" stroke-width="1" stroke-linecap="round" stroke-linejoin="round"/>
    </g>
    <path d="M131.481,84.665 C131.481,84.665 129.556,89.641 129.556,93.653 C129.556,93.653 128.272,97.183 132.283,96.702 C132.283,96.702 134.85,95.899 135.813,95.257" fill-opacity="0" stroke="#9D6E51" stroke-width="1" stroke-linecap="round" stroke-linejoin="round"/>
    <path d="M125.223,84.265 C125.223,85.196 124.684,85.951 124.019,85.951 C123.354,85.951 122.815,85.196 122.815,84.265 C122.815,83.334 123.354,82.578 124.019,82.578 C124.684,82.578 125.223,83.334 125.223,84.265" fill="#9D6E51"/>
    <path d="M140.868,83.704 C140.868,84.634 140.33,85.39 139.665,85.39 C139.001,85.39 138.462,84.634 138.462,83.704 C138.462,82.773 139.001,82.019 139.665,82.019 C140.33,82.019 140.868,82.773 140.868,83.704" fill="#9D6E51"/>
    <path d="M128.713,100.665 C128.713,100.665 134.331,102.75 138.504,99.06" fill-opacity="0" stroke="#9D6E51" stroke-width="1" stroke-linecap="round" stroke-linejoin="round"/>
    <g>
      <path d="M124.815,107.135 L121.595,109.951 L119.583,127.265 L132.868,126.661 C132.868,126.661 127.231,122.835 124.815,107.135 z" fill="#FFFFFE"/>
      <path d="M124.815,107.135 L121.595,109.951 L119.583,127.265 L132.868,126.661 C132.868,126.661 127.231,122.835 124.815,107.135 z" fill-opacity="0" stroke="#9D6E51" stroke-width="1" stroke-linecap="round" stroke-linejoin="round"/>
    </g>
    <g>
      <path d="M142.934,107.135 C142.934,107.135 141.322,118.81 132.868,126.661 L146.355,128.674 L146.758,109.951 L142.934,107.135 z" fill="#FFFFFE"/>
      <path d="M142.934,107.135 C142.934,107.135 141.322,118.81 132.868,126.661 L146.355,128.674 L146.758,109.951 L142.934,107.135 z" fill-opacity="0" stroke="#9D6E51" stroke-width="1" stroke-linecap="round" stroke-linejoin="round"/>
    </g>
    <g>
      <path d="M83.556,146.698 C81.974,147.784 82.721,152.206 82.831,153.85 C83.052,157.067 83.504,160.268 84.378,163.348 C85.285,166.542 87.398,170.439 90.165,172.438 C91.731,173.567 92.683,174.494 94.012,172.982 C96.726,169.89 97.054,164.626 96.827,160.738 C96.534,155.747 97.255,149.016 92.99,145.268 C91.532,143.983 89.66,144.312 88.025,143.6 C87.887,143.718 87.897,143.855 87.808,143.985 L83.556,146.698 z" fill="#F2AF6A"/>
      <path d="M83.556,146.698 C81.974,147.784 82.721,152.206 82.831,153.85 C83.052,157.067 83.504,160.268 84.378,163.348 C85.285,166.542 87.398,170.439 90.165,172.438 C91.731,173.567 92.683,174.494 94.012,172.982 C96.726,169.89 97.054,164.626 96.827,160.738 C96.534,155.747 97.255,149.016 92.99,145.268 C91.532,143.983 89.66,144.312 88.025,143.6 C87.887,143.718 87.897,143.855 87.808,143.985 L83.556,146.698 z" fill-opacity="0" stroke="#9D6E51" stroke-width="1" stroke-linecap="round" stroke-linejoin="round"/>
    </g>
    <g>
      <path d="M181.184,144.779 C183.086,145.302 182.99,147.927 183.247,149.463 C183.72,152.305 183.742,155.2 183.398,158.069 C182.954,161.781 181.431,165.809 178.768,168.488 C174.71,172.571 170.544,167.377 170.304,162.911 C170.075,158.707 170.193,153.314 172.375,149.601 C173.518,147.658 175.598,145.096 178.164,145.382 L181.184,144.779 z" fill="#F2AF6A"/>
      <path d="M181.184,144.779 C183.086,145.302 182.99,147.927 183.247,149.463 C183.72,152.305 183.742,155.2 183.398,158.069 C182.954,161.781 181.431,165.809 178.768,168.488 C174.71,172.571 170.544,167.377 170.304,162.911 C170.075,158.707 170.193,153.314 172.375,149.601 C173.518,147.658 175.598,145.096 178.164,145.382 L181.184,144.779 z" fill-opacity="0" stroke="#9D6E51" stroke-width="1" stroke-linecap="round" stroke-linejoin="round"/>
    </g>
    <g>
      <path d="M177.557,196.112 C176.25,193.131 174.152,190.787 171.197,189.397 C168.796,188.268 166.044,188.504 163.464,188.459 C159.973,188.398 156.458,188.154 152.985,188.637 C149.55,189.113 146.205,190.06 142.815,190.766 C138.469,191.671 138.366,192.39 134.847,192.939 C128.13,192.162 121.459,191.027 114.729,190.352 C108.418,189.719 101.879,189.199 95.719,191.078 C92.511,192.057 88.838,193.819 88.076,197.439 C87.595,199.719 87.658,202.227 87.737,204.53 C88.056,213.786 90.815,222.822 94.254,231.354 C98.522,241.941 104.443,251.753 108.731,262.304 C108.877,262.664 109.749,270.131 109.656,270.116 C109.656,270.116 122.256,271.418 130.308,264.775 C130.308,264.775 113.272,223.11 110.723,210.522 C116.994,211.666 126.286,212.805 132.568,211.08 C132.568,211.08 136.189,210.273 139.412,211.08 C139.412,211.08 148.486,212.862 158.322,210.805 C158.138,219.425 155.429,228.066 153.808,236.206 C152.054,244.999 150.427,255.175 148.288,263.885 C152.765,268.591 162.555,268.728 168.405,267.98 C168.729,262.513 169.241,254.61 170.534,249.312 C173.242,238.196 176.591,227.318 178.077,215.954 C178.891,209.741 180.161,202.049 177.557,196.112 z" fill="#A0C2CE"/>
      <path d="M177.557,196.112 C176.25,193.131 174.152,190.787 171.197,189.397 C168.796,188.268 166.044,188.504 163.464,188.459 C159.973,188.398 156.458,188.154 152.985,188.637 C149.55,189.113 146.205,190.06 142.815,190.766 C138.469,191.671 138.366,192.39 134.847,192.939 C128.13,192.162 121.459,191.027 114.729,190.352 C108.418,189.719 101.879,189.199 95.719,191.078 C92.511,192.057 88.838,193.819 88.076,197.439 C87.595,199.719 87.658,202.227 87.737,204.53 C88.056,213.786 90.815,222.822 94.254,231.354 C98.522,241.941 104.443,251.753 108.731,262.304 C108.877,262.664 109.749,270.131 109.656,270.116 C109.656,270.116 122.256,271.418 130.308,264.775 C130.308,264.775 113.272,223.11 110.723,210.522 C116.994,211.666 126.286,212.805 132.568,211.08 C132.568,211.08 136.189,210.273 139.412,211.08 C139.412,211.08 148.486,212.862 158.322,210.805 C158.138,219.425 155.429,228.066 153.808,236.206 C152.054,244.999 150.427,255.175 148.288,263.885 C152.765,268.591 162.555,268.728 168.405,267.98 C168.729,262.513 169.241,254.61 170.534,249.312 C173.242,238.196 176.591,227.318 178.077,215.954 C178.891,209.741 180.161,202.049 177.557,196.112 z" fill-opacity="0" stroke="#9D6E51" stroke-width="1" stroke-linecap="round" stroke-linejoin="round"/>
    </g>
    <g>
      <path d="M74.486,104.517 C74.486,104.517 85.358,140.351 87.373,158.469 C87.373,158.469 89.183,171.754 88.981,177.795 C88.981,177.795 119.179,179.808 135.284,197.121 C135.284,197.121 149.779,178.601 177.762,176.384 C177.762,176.384 178.566,120.822 187.627,100.69 C187.627,100.69 142.532,106.126 133.272,126.86 C133.272,126.86 119.583,111.36 96.631,108.341 C96.631,108.341 79.319,106.729 74.486,104.517 z" fill="#E4E4E3"/>
      <path d="M74.486,104.517 C74.486,104.517 85.358,140.351 87.373,158.469 C87.373,158.469 89.183,171.754 88.981,177.795 C88.981,177.795 119.179,179.808 135.284,197.121 C135.284,197.121 149.779,178.601 177.762,176.384 C177.762,176.384 178.566,120.822 187.627,100.69 C187.627,100.69 142.532,106.126 133.272,126.86 C133.272,126.86 119.583,111.36 96.631,108.341 C96.631,108.341 79.319,106.729 74.486,104.517 z" fill-opacity="0" stroke="#9D6E51" stroke-width="1" stroke-linecap="round" stroke-linejoin="round"/>
    </g>
    <g>
      <path d="M82.845,143.496 C83.656,142.437 84.259,141.856 85.533,141.329 C86.817,140.802 89.38,140.31 90.719,140.699 C91.626,140.963 92.647,141.489 92.054,142.539 C91.653,143.242 90.848,143.489 90.094,143.632 C89.353,143.771 88.745,143.98 88.05,144.302 C86.334,145.102 85.808,147.749 83.724,147.94 C82.866,148.018 82.297,147.455 82.172,146.628 C82.002,145.511 82.197,144.34 82.845,143.496 z" fill="#F5C4AD"/>
      <path d="M82.845,143.496 C83.656,142.437 84.259,141.856 85.533,141.329 C86.817,140.802 89.38,140.31 90.719,140.699 C91.626,140.963 92.647,141.489 92.054,142.539 C91.653,143.242 90.848,143.489 90.094,143.632 C89.353,143.771 88.745,143.98 88.05,144.302 C86.334,145.102 85.808,147.749 83.724,147.94 C82.866,148.018 82.297,147.455 82.172,146.628 C82.002,145.511 82.197,144.34 82.845,143.496 z" fill-opacity="0" stroke="#9D6E51" stroke-width="1" stroke-linecap="round" stroke-linejoin="round"/>
    </g>
    <g>
      <path d="M83.567,146.249 C84.461,145.08 85.7,144.403 87.105,143.822 C88.523,143.238 90.259,143.283 91.735,143.713 C92.736,144.003 93.862,144.584 93.206,145.742 C92.768,146.516 91.877,146.788 91.047,146.945 C90.228,147.1 89.561,147.329 88.792,147.685 C86.9,148.565 86.321,151.487 84.02,151.696 C83.075,151.782 82.447,151.162 82.31,150.249 C82.124,149.019 82.853,147.179 83.567,146.249 z" fill="#F5C4AD"/>
      <path d="M83.567,146.249 C84.461,145.08 85.7,144.403 87.105,143.822 C88.523,143.238 90.259,143.283 91.735,143.713 C92.736,144.003 93.862,144.584 93.206,145.742 C92.768,146.516 91.877,146.788 91.047,146.945 C90.228,147.1 89.561,147.329 88.792,147.685 C86.9,148.565 86.321,151.487 84.02,151.696 C83.075,151.782 82.447,151.162 82.31,150.249 C82.124,149.019 82.853,147.179 83.567,146.249 z" fill-opacity="0" stroke="#9D6E51" stroke-width="1" stroke-linecap="round" stroke-linejoin="round"/>
    </g>
    <g>
      <path d="M84.354,149.592 C85.248,148.423 86.29,147.55 87.695,146.97 C89.111,146.385 91.331,146.407 92.81,146.839 C93.811,147.13 94.799,147.94 94.145,149.098 C93.707,149.872 92.816,150.147 91.984,150.302 C91.168,150.457 90.497,150.685 89.73,151.039 C87.837,151.921 87.26,154.842 84.958,155.053 C84.015,155.139 83.387,154.519 83.248,153.605 C83.063,152.373 83.639,150.524 84.354,149.592 z" fill="#F5C4AD"/>
      <path d="M84.354,149.592 C85.248,148.423 86.29,147.55 87.695,146.97 C89.111,146.385 91.331,146.407 92.81,146.839 C93.811,147.13 94.799,147.94 94.145,149.098 C93.707,149.872 92.816,150.147 91.984,150.302 C91.168,150.457 90.497,150.685 89.73,151.039 C87.837,151.921 87.26,154.842 84.958,155.053 C84.015,155.139 83.387,154.519 83.248,153.605 C83.063,152.373 83.639,150.524 84.354,149.592 z" fill-opacity="0" stroke="#9D6E51" stroke-width="1" stroke-linecap="round" stroke-linejoin="round"/>
    </g>
    <g>
      <path d="M85.664,153.132 C86.314,152.2 87.704,150.876 88.745,150.445 C89.834,149.995 92.201,149.747 93.239,150.622 C95.46,152.502 89.873,154.442 89.004,155.18 C88.158,155.898 87.473,156.544 87.494,157.615 C87.531,159.365 87.399,159.581 86.201,159.051 C83.672,157.932 84.386,154.962 85.664,153.132 z" fill="#F5C4AD"/>
      <path d="M85.664,153.132 C86.314,152.2 87.704,150.876 88.745,150.445 C89.834,149.995 92.201,149.747 93.239,150.622 C95.46,152.502 89.873,154.442 89.004,155.18 C88.158,155.898 87.473,156.544 87.494,157.615 C87.531,159.365 87.399,159.581 86.201,159.051 C83.672,157.932 84.386,154.962 85.664,153.132 z" fill-opacity="0" stroke="#9D6E51" stroke-width="1" stroke-linecap="round" stroke-linejoin="round"/>
    </g>
    <g>
      <path d="M182.298,142.023 C181.485,140.962 180.735,139.952 179.462,139.426 C178.178,138.897 176.222,138.699 174.881,139.09 C173.976,139.353 172.954,139.88 173.548,140.93 C173.945,141.631 174.753,141.88 175.505,142.023 C176.247,142.16 176.854,142.368 177.551,142.692 C179.265,143.489 179.791,146.139 181.875,146.33 C182.732,146.407 183.303,145.845 183.43,145.018 C183.598,143.899 182.944,142.868 182.298,142.023 z" fill="#F5C4AD"/>
      <path d="M182.298,142.023 C181.485,140.962 180.735,139.952 179.462,139.426 C178.178,138.897 176.222,138.699 174.881,139.09 C173.976,139.353 172.954,139.88 173.548,140.93 C173.945,141.631 174.753,141.88 175.505,142.023 C176.247,142.16 176.854,142.368 177.551,142.692 C179.265,143.489 179.791,146.139 181.875,146.33 C182.732,146.407 183.303,145.845 183.43,145.018 C183.598,143.899 182.944,142.868 182.298,142.023 z" fill-opacity="0" stroke="#9D6E51" stroke-width="1" stroke-linecap="round" stroke-linejoin="round"/>
    </g>
    <g>
      <path d="M182.044,145.338 C181.149,144.168 180.323,143.054 178.916,142.474 C177.499,141.888 175.345,141.672 173.865,142.102 C172.864,142.393 171.738,142.974 172.395,144.13 C172.832,144.906 173.723,145.181 174.554,145.335 C175.371,145.488 176.041,145.719 176.81,146.074 C178.701,146.956 179.279,149.877 181.58,150.087 C182.524,150.173 183.152,149.551 183.29,148.641 C183.477,147.407 182.757,146.268 182.044,145.338 z" fill="#F5C4AD"/>
      <path d="M182.044,145.338 C181.149,144.168 180.323,143.054 178.916,142.474 C177.499,141.888 175.345,141.672 173.865,142.102 C172.864,142.393 171.738,142.974 172.395,144.13 C172.832,144.906 173.723,145.181 174.554,145.335 C175.371,145.488 176.041,145.719 176.81,146.074 C178.701,146.956 179.279,149.877 181.58,150.087 C182.524,150.173 183.152,149.551 183.29,148.641 C183.477,147.407 182.757,146.268 182.044,145.338 z" fill-opacity="0" stroke="#9D6E51" stroke-width="1" stroke-linecap="round" stroke-linejoin="round"/>
    </g>
    <g>
      <path d="M181.103,148.69 C180.209,147.523 179.382,146.409 177.977,145.829 C176.561,145.245 174.404,145.026 172.926,145.457 C171.925,145.747 170.8,146.33 171.454,147.485 C171.894,148.262 172.785,148.534 173.615,148.69 C174.435,148.847 175.103,149.074 175.869,149.431 C177.762,150.31 178.34,153.232 180.641,153.44 C181.585,153.528 182.214,152.907 182.353,151.995 C182.538,150.763 181.817,149.622 181.103,148.69 z" fill="#F5C4AD"/>
      <path d="M181.103,148.69 C180.209,147.523 179.382,146.409 177.977,145.829 C176.561,145.245 174.404,145.026 172.926,145.457 C171.925,145.747 170.8,146.33 171.454,147.485 C171.894,148.262 172.785,148.534 173.615,148.69 C174.435,148.847 175.103,149.074 175.869,149.431 C177.762,150.31 178.34,153.232 180.641,153.44 C181.585,153.528 182.214,152.907 182.353,151.995 C182.538,150.763 181.817,149.622 181.103,148.69 z" fill-opacity="0" stroke="#9D6E51" stroke-width="1" stroke-linecap="round" stroke-linejoin="round"/>
    </g>
    <g>
      <path d="M179.698,151.595 C179.049,150.662 177.984,149.787 176.943,149.356 C175.855,148.906 173.397,148.136 172.359,149.014 C170.14,150.891 175.728,152.833 176.597,153.568 C177.442,154.288 178.127,154.935 178.105,156.004 C178.069,157.754 178.2,157.97 179.4,157.44 C181.929,156.321 180.978,153.425 179.698,151.595 z" fill="#F5C4AD"/>
      <path d="M179.698,151.595 C179.049,150.662 177.984,149.787 176.943,149.356 C175.855,148.906 173.397,148.136 172.359,149.014 C170.14,150.891 175.728,152.833 176.597,153.568 C177.442,154.288 178.127,154.935 178.105,156.004 C178.069,157.754 178.2,157.97 179.4,157.44 C181.929,156.321 180.978,153.425 179.698,151.595 z" fill-opacity="0" stroke="#9D6E51" stroke-width="1" stroke-linecap="round" stroke-linejoin="round"/>
    </g>
    <path d="M133.272,126.86 C133.272,126.86 135.485,147.397 134.681,163.501 C134.681,163.501 134.076,189.873 135.284,197.121 M128.07,77.347 C128.07,77.347 123.904,73.729 120.287,77.347 M136.192,77.347 C136.192,77.347 140.357,73.729 143.975,77.347 M100.577,289.521 C100.577,289.521 107.698,291.48 118.202,280.798 M160.038,277.771 C160.038,277.771 170.542,288.097 177.485,287.028" fill-opacity="0" stroke="#9D6E51" stroke-width="1" stroke-linecap="round" stroke-linejoin="round"/>
  </g>
</svg>
