<?xml version="1.0" encoding="UTF-8"?>
<!DOCTYPE svg PUBLIC "-//W3C//DTD SVG 1.1//EN" "http://www.w3.org/Graphics/SVG/1.1/DTD/svg11.dtd">
<svg version="1.1" xmlns="http://www.w3.org/2000/svg" xmlns:xlink="http://www.w3.org/1999/xlink" x="0" y="0" width="1669" height="1269" viewBox="0, 0, 1669, 1269">
  <g id="Layer_1">
    <path d="M479.938,754.695 C438.469,805.566 347.605,782.433 352.067,712.679 C354.972,667.611 426.93,666.988 458.43,684.919 C489.979,702.868 505.318,723.556 479.938,754.695" fill="#F5C6AE"/>
    <path d="M479.938,754.695 C438.469,805.566 347.605,782.433 352.067,712.679 C354.972,667.611 426.93,666.988 458.43,684.919 C489.979,702.868 505.318,723.556 479.938,754.695 z" fill-opacity="0" stroke="#1A1919" stroke-width="5.669" stroke-linecap="round" stroke-linejoin="round"/>
    <path d="M379.854,644.1 C430.194,623.428 495.195,652.37 488.923,713.767 C482.35,778.14 383.469,785.064 344.406,746.427 C311.512,713.861 344.832,658.472 379.854,644.1" fill="#F5C6AE"/>
    <path d="M379.854,644.1 C430.194,623.428 495.195,652.37 488.923,713.767 C482.35,778.14 383.469,785.064 344.406,746.427 C311.512,713.861 344.832,658.472 379.854,644.1 z" fill-opacity="0" stroke="#1A1919" stroke-width="5.669" stroke-linecap="round" stroke-linejoin="round"/>
    <path d="M271.988,803.247 C278.409,803.062 294.334,796.958 300.224,795.187 C307.251,793.064 317.762,794.64 318.697,785.851 C319.797,775.466 305.474,771.48 297.801,773.574 C282.505,777.714 273.662,790.527 256.162,782.339 C254.664,799.058 259.881,803.618 271.988,803.247" fill="#C2995E"/>
    <path d="M271.988,803.247 C278.409,803.062 294.334,796.958 300.224,795.187 C307.251,793.064 317.762,794.64 318.697,785.851 C319.797,775.466 305.474,771.48 297.801,773.574 C282.505,777.714 273.662,790.527 256.162,782.339 C254.664,799.058 259.881,803.618 271.988,803.247 z" fill-opacity="0" stroke="#1A1919" stroke-width="5.669" stroke-linecap="round" stroke-linejoin="round"/>
    <path d="M327.136,803.913 C286.754,815.038 410.808,778.243 452.917,778.025 C485.483,777.861 484.285,793.699 516.605,793.851 C532.225,793.923 528.517,807.064 542.15,824.093 C558.267,844.251 640.424,868.763 642.95,888.603 C648.217,930.226 639.97,921.491 625.231,959.15 C583.248,954.72 481.66,959.167 445.977,924.976 C410.441,930.275 364.077,928.257 315.646,942.005 C234.664,965.023 283.331,876.659 232.154,843.486 C241.26,836.792 334.398,801.923 327.136,803.913" fill="#D0BB85"/>
    <path d="M327.136,803.913 C286.754,815.038 410.808,778.243 452.917,778.025 C485.483,777.861 484.285,793.699 516.605,793.851 C532.225,793.923 528.517,807.064 542.15,824.093 C558.267,844.251 640.424,868.763 642.95,888.603 C648.217,930.226 639.97,921.491 625.231,959.15 C583.248,954.72 481.66,959.167 445.977,924.976 C410.441,930.275 364.077,928.257 315.646,942.005 C234.664,965.023 283.331,876.659 232.154,843.486 C241.26,836.792 334.398,801.923 327.136,803.913 z" fill-opacity="0" stroke="#1A1919" stroke-width="5.669" stroke-linecap="round" stroke-linejoin="round"/>
    <path d="M247.625,944.991 C236.994,960.079 231.75,972.241 210.29,967.14 C187.857,961.824 179.785,927.075 168.433,909.636 C161.033,898.261 130.189,885.716 135.227,869.408 C140.263,870.769 147.761,871.294 152.847,874.15 C141.165,869.747 126.597,867.159 129.615,853.068 C136.933,847.204 146.12,854.429 154.323,855.693 C141.313,852.345 130.797,842.714 134.718,829.656 C144.086,828.206 152.387,833.423 157.276,841.747 C146.268,833.691 131.19,812.988 142.199,806.572 C153.207,800.14 159.18,812.134 166.387,820.304 C153.142,806.802 157.014,778.003 181.645,784.833 C208.519,792.265 176.045,813.413 186.074,825.816 C193.484,834.954 200.053,837.892 208.677,846.22 C218.996,856.163 224.624,869.818 234.484,880.302 C238.766,876.07 255.55,869.058 259.372,864.388 C262.211,860.909 304.495,926.878 305.113,935.115 C288.821,926.191 255.867,933.277 247.625,944.991" fill="#F5C6AE"/>
    <path d="M247.625,944.991 C236.994,960.079 231.75,972.241 210.29,967.14 C187.857,961.824 179.785,927.075 168.433,909.636 C161.033,898.261 130.189,885.716 135.227,869.408 C140.263,870.769 147.761,871.294 152.847,874.15 C141.165,869.747 126.597,867.159 129.615,853.068 C136.933,847.204 146.12,854.429 154.323,855.693 C141.313,852.345 130.797,842.714 134.718,829.656 C144.086,828.206 152.387,833.423 157.276,841.747 C146.268,833.691 131.19,812.988 142.199,806.572 C153.207,800.14 159.18,812.134 166.387,820.304 C153.142,806.802 157.014,778.003 181.645,784.833 C208.519,792.265 176.045,813.413 186.074,825.816 C193.484,834.954 200.053,837.892 208.677,846.22 C218.996,856.163 224.624,869.818 234.484,880.302 C238.766,876.07 255.55,869.058 259.372,864.388 C262.211,860.909 304.495,926.878 305.113,935.115 C288.821,926.191 255.867,933.277 247.625,944.991 z" fill-opacity="0" stroke="#1A1919" stroke-width="5.669" stroke-linecap="round" stroke-linejoin="round"/>
    <path d="M251.809,818.794 C271.742,835.218 285.557,868.915 293.596,886.947 C301.881,905.583 310.625,936.329 309.22,951.652 C290.643,951.439 298.862,950.849 270.479,953.605 C260.914,928.777 271.054,934.409 259.733,902.296 C257.245,895.265 231.285,851.296 220.489,839.132 C228.282,827.195 246.592,819.599 251.809,818.794" fill="#C5A86F"/>
    <path d="M251.809,818.794 C271.742,835.218 285.557,868.915 293.596,886.947 C301.881,905.583 310.625,936.329 309.22,951.652 C290.643,951.439 298.862,950.849 270.479,953.605 C260.914,928.777 271.054,934.409 259.733,902.296 C257.245,895.265 231.285,851.296 220.489,839.132 C228.282,827.195 246.592,819.599 251.809,818.794 z" fill-opacity="0" stroke="#1A1919" stroke-width="5.669" stroke-linecap="round" stroke-linejoin="round"/>
    <path d="M642.95,852.296 C649.578,875.708 631.171,866.029 631.777,889.538 C632.193,905.616 641.195,944.034 632.86,959.167 C625.494,972.456 610.762,985.056 590.532,969.257 C570.67,953.72 582.461,947.058 578.425,926.906 C574.34,906.388 588.515,856.331 612.703,852.296 C639.997,847.751 641.326,846.554 642.95,852.296" fill="#C5A86F"/>
    <path d="M642.95,852.296 C649.578,875.708 631.171,866.029 631.777,889.538 C632.193,905.616 641.195,944.034 632.86,959.167 C625.494,972.456 610.762,985.056 590.532,969.257 C570.67,953.72 582.461,947.058 578.425,926.906 C574.34,906.388 588.515,856.331 612.703,852.296 C639.997,847.751 641.326,846.554 642.95,852.296 z" fill-opacity="0" stroke="#1A1919" stroke-width="5.669" stroke-linecap="round" stroke-linejoin="round"/>
    <path d="M605.314,879.859 C609.481,869.945 661.588,861.773 663.458,893.574 C664.284,907.339 661.293,938.741 650.137,949.324 C622.787,975.294 600.605,977.306 597.248,930.943 C595.717,909.876 596.586,900.695 605.314,879.859" fill="#F5C2A3"/>
    <path d="M605.314,879.859 C609.481,869.945 661.588,861.773 663.458,893.574 C664.284,907.339 661.293,938.741 650.137,949.324 C622.787,975.294 600.605,977.306 597.248,930.943 C595.717,909.876 596.586,900.695 605.314,879.859 z" fill-opacity="0" stroke="#1A1919" stroke-width="5.669" stroke-linecap="round" stroke-linejoin="round"/>
    <path d="M606.66,879.859 C616.738,864.404 626.823,856.331 634.879,856.331 C655.846,856.331 632.023,884.781 637.569,887.913 C626.823,891.96 622.787,887.913 606.66,879.859" fill="#ABA157"/>
    <path d="M606.66,879.859 C616.738,864.404 626.823,856.331 634.879,856.331 C655.846,856.331 632.023,884.781 637.569,887.913 C626.823,891.96 622.787,887.913 606.66,879.859 z" fill-opacity="0" stroke="#1A1919" stroke-width="5.669" stroke-linecap="round" stroke-linejoin="round"/>
    <path d="M622.787,900.695 C623.46,886.421 616.738,876.495 616.323,845.652 C596.586,832.144 586.496,811.986 609.974,806.474 C621.704,803.7 631.023,816.269 634.063,830.82 C632.784,818.302 628.332,797.101 639.478,796.904 C655.402,796.63 652.105,812.824 653.023,826.14 C659.882,814.562 655.271,806.408 663.064,805.982 C676.32,805.243 678.617,824.913 672.137,840.45 C673.958,831.378 679.569,818.976 686.656,820.484 C703.424,824.093 693.815,833.281 690.299,853.15 C694.138,839.232 695.828,836.574 701.176,838.64 C716.904,844.683 707.771,854.687 702.997,873.116 C704.802,893.081 702.997,909.406 695.762,929.7 C690.791,943.695 681.669,964.646 670.037,974.408 C652.745,988.945 627.446,989.452 617.882,970.783 C608.005,951.587 621.327,931.292 622.787,900.695" fill="#F5C6AE"/>
    <path d="M622.787,900.695 C623.46,886.421 616.738,876.495 616.323,845.652 C596.586,832.144 586.496,811.986 609.974,806.474 C621.704,803.7 631.023,816.269 634.063,830.82 C632.784,818.302 628.332,797.101 639.478,796.904 C655.402,796.63 652.105,812.824 653.023,826.14 C659.882,814.562 655.271,806.408 663.064,805.982 C676.32,805.243 678.617,824.913 672.137,840.45 C673.958,831.378 679.569,818.976 686.656,820.484 C703.424,824.093 693.815,833.281 690.299,853.15 C694.138,839.232 695.828,836.574 701.176,838.64 C716.904,844.683 707.771,854.687 702.997,873.116 C704.802,893.081 702.997,909.406 695.762,929.7 C690.791,943.695 681.669,964.646 670.037,974.408 C652.745,988.945 627.446,989.452 617.882,970.783 C608.005,951.587 621.327,931.292 622.787,900.695 z" fill-opacity="0" stroke="#1A1919" stroke-width="5.669" stroke-linecap="round" stroke-linejoin="round"/>
    <path d="M594.257,664.603 C600.475,679.818 590.894,711.995 573.371,708.726 C552.06,704.755 537.016,659.523 557.146,648.218 C565.004,643.805 586.71,646.136 594.257,664.603" fill="#C2995E"/>
    <path d="M594.257,664.603 C600.475,679.818 590.894,711.995 573.371,708.726 C552.06,704.755 537.016,659.523 557.146,648.218 C565.004,643.805 586.71,646.136 594.257,664.603 z" fill-opacity="0" stroke="#1A1919" stroke-width="5.669" stroke-linecap="round" stroke-linejoin="round"/>
    <path d="M441.104,952.359 C443.883,965.63 434.771,972.997 428.581,970.585 C422.385,968.191 419.12,955.999 413.662,958.05 C397.595,964.116 403.523,999.132 390.983,1000.538 C373.379,1002.53 375.414,972.538 381.599,962.218 C379.712,975.687 369.759,1000.855 354.135,997.781 C338.516,994.73 359.598,972.779 362.551,959.906 C359.324,972.62 346.391,990.595 333.49,987.714 C320.567,984.825 341.765,967.911 345.347,955.476 C329.181,983.409 279.766,975.802 316.729,952.277 C341.311,936.624 343.881,893.279 368.326,895.247 C389.31,896.954 436.839,931.851 441.104,952.359" fill="#F5C6AE"/>
    <path d="M441.104,952.359 C443.883,965.63 434.771,972.997 428.581,970.585 C422.385,968.191 419.12,955.999 413.662,958.05 C397.595,964.116 403.523,999.132 390.983,1000.538 C373.379,1002.53 375.414,972.538 381.599,962.218 C379.712,975.687 369.759,1000.855 354.135,997.781 C338.516,994.73 359.598,972.779 362.551,959.906 C359.324,972.62 346.391,990.595 333.49,987.714 C320.567,984.825 341.765,967.911 345.347,955.476 C329.181,983.409 279.766,975.802 316.729,952.277 C341.311,936.624 343.881,893.279 368.326,895.247 C389.31,896.954 436.839,931.851 441.104,952.359 z" fill-opacity="0" stroke="#1A1919" stroke-width="5.669" stroke-linecap="round" stroke-linejoin="round"/>
    <path d="M565.234,927.929 C562.051,909.357 558.344,870.769 535.769,867.241 C513.242,863.741 495.441,910.9 485.029,930.275 C476.837,945.45 454.787,956.476 456.805,964.548 C460.742,980.314 482.612,970.865 493.473,957.066 C499.051,966.499 506.86,996.622 520.297,994.062 C536.315,991.011 526.964,963.497 520.609,956.476 C527.023,970.667 547.302,989.513 557.261,985.843 C571.6,983.284 551.081,961.218 543.168,953.359 C550.633,962.792 565.431,984.197 577.522,982.054 C589.613,979.904 570.336,955.886 561.516,949.372 C572.567,958.378 585.528,969.798 591.55,960.572 C597.784,951.023 584.609,937.314 565.234,927.929" fill="#F5C6AE"/>
    <path d="M565.234,927.929 C562.051,909.357 558.344,870.769 535.769,867.241 C513.242,863.741 495.441,910.9 485.029,930.275 C476.837,945.45 454.787,956.476 456.805,964.548 C460.742,980.314 482.612,970.865 493.473,957.066 C499.051,966.499 506.86,996.622 520.297,994.062 C536.315,991.011 526.964,963.497 520.609,956.476 C527.023,970.667 547.302,989.513 557.261,985.843 C571.6,983.284 551.081,961.218 543.168,953.359 C550.633,962.792 565.431,984.197 577.522,982.054 C589.613,979.904 570.336,955.886 561.516,949.372 C572.567,958.378 585.528,969.798 591.55,960.572 C597.784,951.023 584.609,937.314 565.234,927.929 z" fill-opacity="0" stroke="#1A1919" stroke-width="5.669" stroke-linecap="round" stroke-linejoin="round"/>
    <path d="M343.969,660.294 C341.403,656.57 338.652,653.847 335.793,653.109 C323.39,649.958 296.68,678.357 291.118,687.593 C280.137,705.849 280.044,722.523 282.751,744.113 C286.776,776.368 303.128,820.238 312.315,853.542 C319.829,880.745 325.801,898.218 324.587,925.726 C354.906,930.98 391.032,930.882 417.151,912.113 C396.808,868.074 383.338,853.111 375.594,804.286 C389.402,811.691 423.287,820.763 440.93,819.991 C458.035,819.222 476.563,798.648 493.594,795.919 C505.564,829.704 490.738,871.54 482.793,906.781 C506.237,920.409 544.857,917.872 571.512,905.206 C575.75,879.859 578.425,861.04 588.219,804.833 C593.803,772.741 588.547,679.702 567.422,652.435 C543.906,621.969 506.587,645.605 491.192,666.593 C475.951,687.398 461.104,732.269 432.836,738.749 C398.432,746.64 375.479,717.273 359.598,691.351 C355.809,685.199 350.41,669.624 343.969,660.294" fill="#A6BDA1"/>
    <path d="M343.969,660.294 C341.403,656.57 338.652,653.847 335.793,653.109 C323.39,649.958 296.68,678.357 291.118,687.593 C280.137,705.849 280.044,722.523 282.751,744.113 C286.776,776.368 303.128,820.238 312.315,853.542 C319.829,880.745 325.801,898.218 324.587,925.726 C354.906,930.98 391.032,930.882 417.151,912.113 C396.808,868.074 383.338,853.111 375.594,804.286 C389.402,811.691 423.287,820.763 440.93,819.991 C458.035,819.222 476.563,798.648 493.594,795.919 C505.564,829.704 490.738,871.54 482.793,906.781 C506.237,920.409 544.857,917.872 571.512,905.206 C575.75,879.859 578.425,861.04 588.219,804.833 C593.803,772.741 588.547,679.702 567.422,652.435 C543.906,621.969 506.587,645.605 491.192,666.593 C475.951,687.398 461.104,732.269 432.836,738.749 C398.432,746.64 375.479,717.273 359.598,691.351 C355.809,685.199 350.41,669.624 343.969,660.294 z" fill-opacity="0" stroke="#1A1919" stroke-width="5.669" stroke-linecap="round" stroke-linejoin="round"/>
    <path d="M274.695,803.257 C254.532,811.314 245.039,804.029 242.436,795.187 C238.094,780.464 241.26,754.695 272.005,737.404 C293.514,725.296 304.26,727.997 316.352,725.296 C323.947,723.622 360.407,729.812 371.46,742.784 C382.484,755.745 400.909,789.575 386.078,798.402 C365.144,810.837 360.55,758.021 340.551,752.185 C329.793,749.034 317.729,745.753 306.934,748.15 C258.568,758.906 251.842,795.187 274.695,803.257" fill="#C5A86F"/>
    <path d="M274.695,803.257 C254.532,811.314 245.039,804.029 242.436,795.187 C238.094,780.464 241.26,754.695 272.005,737.404 C293.514,725.296 304.26,727.997 316.352,725.296 C323.947,723.622 360.407,729.812 371.46,742.784 C382.484,755.745 400.909,789.575 386.078,798.402 C365.144,810.837 360.55,758.021 340.551,752.185 C329.793,749.034 317.729,745.753 306.934,748.15 C258.568,758.906 251.842,795.187 274.695,803.257 z" fill-opacity="0" stroke="#1A1919" stroke-width="5.669" stroke-linecap="round" stroke-linejoin="round"/>
    <path d="M524.858,662.558 C502.136,674.191 498.493,697.421 497.902,717.683 C497.477,732.695 494.688,785.243 487.961,790.822 C485.27,793.064 474.622,789.527 474.934,785.386 C476.148,768.411 471.652,730.726 475.918,707.97 C482.711,671.691 463.827,664.997 486.506,648.263 C505.991,633.864 531.076,630.975 552.257,635.684 C580.918,639.01 590.652,652.665 594.453,668.64 C569.696,648.023 541.461,654.07 524.858,662.558" fill="#C5A86F"/>
    <path d="M524.858,662.558 C502.136,674.191 498.493,697.421 497.902,717.683 C497.477,732.695 494.688,785.243 487.961,790.822 C485.27,793.064 474.622,789.527 474.934,785.386 C476.148,768.411 471.652,730.726 475.918,707.97 C482.711,671.691 463.827,664.997 486.506,648.263 C505.991,633.864 531.076,630.975 552.257,635.684 C580.918,639.01 590.652,652.665 594.453,668.64 C569.696,648.023 541.461,654.07 524.858,662.558 z" fill-opacity="0" stroke="#1A1919" stroke-width="5.669" stroke-linecap="round" stroke-linejoin="round"/>
    <path d="M554.23,602.331 C549.604,613.126 538.114,631.55 519.969,621.476 C485.647,602.413 512.274,544.761 542.15,558.979 C563.314,569.058 560.29,588.216 554.23,602.331" fill="#F5C6AE"/>
    <path d="M554.23,602.331 C549.604,613.126 538.114,631.55 519.969,621.476 C485.647,602.413 512.274,544.761 542.15,558.979 C563.314,569.058 560.29,588.216 554.23,602.331 z" fill-opacity="0" stroke="#1A1919" stroke-width="5.669" stroke-linecap="round" stroke-linejoin="round"/>
    <path d="M534.078,590.895 C532.438,599.492 531.453,632.71 528.697,644.658 C516.605,697.077 458.134,720.587 427.225,719.257 C398.995,718.027 372.789,703.804 353.987,691.695 C341.113,679.128 322.389,662.804 316.406,635.073 C309.318,646.71 295.22,649.284 281.832,640.114 C271.25,632.846 270.436,631.528 262.407,619.464 C247.773,597.491 254.91,577.114 274.827,567.434 C316.975,520.983 309.182,440.023 378.679,415.6 C414.838,402.913 463.302,406.866 495.327,428.999 C523.775,448.632 545.448,493.196 544.836,529.077 C544.414,553.565 537.891,571.011 534.078,590.895" fill="#F5C6AE"/>
    <path d="M534.078,590.895 C532.438,599.492 531.453,632.71 528.697,644.658 C516.605,697.077 458.134,720.587 427.225,719.257 C398.995,718.027 372.789,703.804 353.987,691.695 C341.113,679.128 322.389,662.804 316.406,635.073 C309.318,646.71 295.22,649.284 281.832,640.114 C271.25,632.846 270.436,631.528 262.407,619.464 C247.773,597.491 254.91,577.114 274.827,567.434 C316.975,520.983 309.182,440.023 378.679,415.6 C414.838,402.913 463.302,406.866 495.327,428.999 C523.775,448.632 545.448,493.196 544.836,529.077 C544.414,553.565 537.891,571.011 534.078,590.895 z" fill-opacity="0" stroke="#1A1919" stroke-width="5.669" stroke-linecap="round" stroke-linejoin="round"/>
    <path d="M427.094,452.372 C434.607,462.008 450.16,486.699 446.075,499.917 C457.565,489.259 459.042,471.409 458.823,464.567 C466.879,476.659 475.869,488.176 470.882,503.631 C485.423,494.427 485.029,482.713 487.042,468.587 C501.151,478.677 503.169,492.786 505.762,512.812 C516.672,496.1 515.015,488.203 510.426,469.965 C547.516,500.846 547.516,550.585 535.424,582.84 C577.096,555.95 569.319,501.53 549.304,462.762 C552.814,466.618 561.264,470.457 564.151,473.492 C569.696,420.221 484.285,387.54 426.404,399.68 C431.605,394.529 455.159,385.67 462.055,381.24 C434.115,377.461 402.582,391.018 385.668,402.913 C385.044,393.938 386.718,384.095 390.195,375.437 C373.675,383.602 360.828,396.694 352.067,412.839 C344.996,403.153 332.987,393.381 320.781,397.838 C327.195,401.874 332.117,410.733 337.729,414.823 C320.617,413.068 299.502,415.332 289.953,430.393 C300.289,430.295 313.332,427.018 322.077,432.558 C288.51,437.842 250.136,473.635 254.254,508.58 C263.392,499.792 266.969,496.641 270.463,494.18 C260.668,519.577 259.902,554.604 270.118,571.159 C288.756,561.758 308.559,577.049 324.16,599.656 C336.941,583.266 342.158,551.247 337.926,521.234 C346.922,524.844 357.301,535.015 356.055,542.147 C368.375,535.453 378.181,529.077 384.229,514.968 C389.966,501.596 388.26,494.803 385.733,474.127 C401.357,483.205 402.243,494.016 408.193,509.241 C425.277,505.648 432.113,472.65 427.094,452.372" fill="#915330"/>
    <path d="M427.094,452.372 C434.607,462.008 450.16,486.699 446.075,499.917 C457.565,489.259 459.042,471.409 458.823,464.567 C466.879,476.659 475.869,488.176 470.882,503.631 C485.423,494.427 485.029,482.713 487.042,468.587 C501.151,478.677 503.169,492.786 505.762,512.812 C516.672,496.1 515.015,488.203 510.426,469.965 C547.516,500.846 547.516,550.585 535.424,582.84 C577.096,555.95 569.319,501.53 549.304,462.762 C552.814,466.618 561.264,470.457 564.151,473.492 C569.696,420.221 484.285,387.54 426.404,399.68 C431.605,394.529 455.159,385.67 462.055,381.24 C434.115,377.461 402.582,391.018 385.668,402.913 C385.044,393.938 386.718,384.095 390.195,375.437 C373.675,383.602 360.828,396.694 352.067,412.839 C344.996,403.153 332.987,393.381 320.781,397.838 C327.195,401.874 332.117,410.733 337.729,414.823 C320.617,413.068 299.502,415.332 289.953,430.393 C300.289,430.295 313.332,427.018 322.077,432.558 C288.51,437.842 250.136,473.635 254.254,508.58 C263.392,499.792 266.969,496.641 270.463,494.18 C260.668,519.577 259.902,554.604 270.118,571.159 C288.756,561.758 308.559,577.049 324.16,599.656 C336.941,583.266 342.158,551.247 337.926,521.234 C346.922,524.844 357.301,535.015 356.055,542.147 C368.375,535.453 378.181,529.077 384.229,514.968 C389.966,501.596 388.26,494.803 385.733,474.127 C401.357,483.205 402.243,494.016 408.193,509.241 C425.277,505.648 432.113,472.65 427.094,452.372 z M378.17,549.234 C385.41,536.639 409.09,530.422 422.521,545.198 M473.589,549.234 C483.006,534.441 505.335,536.46 509.891,547.894" fill-opacity="0" stroke="#1A1919" stroke-width="5.669" stroke-linecap="round" stroke-linejoin="round"/>
    <path d="M407.066,594.259 C399.684,592.241 402.222,578.311 411.77,581.478 C420.313,584.333 415.511,596.555 407.066,594.259" fill="#1A1919"/>
    <path d="M488.519,587.679 C488.354,594.538 476.345,597.174 475.951,586.859 C475.558,576.556 488.715,578.803 488.519,587.679" fill="#1A1919"/>
    <path d="M452.77,616.768 C460.841,610.73 472.681,606.973 476.957,611.731 C479.659,614.733 479.987,619.459 476.345,627.957" fill-opacity="0" stroke="#1A1919" stroke-width="5.669" stroke-linecap="round" stroke-linejoin="round"/>
    <path d="M406.061,640.623 C400.68,653.404 402.024,670.859 415.133,677.931 C426.781,684.199 447.388,672.55 454.64,656.783 C440.678,659.113 418.152,654.732 406.061,640.623" fill="#E57880"/>
    <path d="M406.061,640.623 C400.68,653.404 402.024,670.859 415.133,677.931 C426.781,684.199 447.388,672.55 454.64,656.783 C440.678,659.113 418.152,654.732 406.061,640.623 z M273.29,599.339 C277.523,584.103 286.59,584.179 300.421,597.764 C308.334,605.541 309.023,613.416 308.443,609.811" fill-opacity="0" stroke="#1A1919" stroke-width="5.669" stroke-linecap="round" stroke-linejoin="round"/>
    <path d="M393.089,776.527 C407.756,771.21 408.324,807.359 405.699,814.956 C402.172,825.21 397.874,825.39 379.729,820.234 C375.217,810.363 373.795,809.788 368.49,795.187 C366.095,788.634 375.233,783.023 393.089,776.527" fill="#8A8B8A"/>
    <path d="M393.089,776.527 C407.756,771.21 408.324,807.359 405.699,814.956 C402.172,825.21 397.874,825.39 379.729,820.234 C375.217,810.363 373.795,809.788 368.49,795.187 C366.095,788.634 375.233,783.023 393.089,776.527 z" fill-opacity="0" stroke="#1A1919" stroke-width="5.669" stroke-linecap="round" stroke-linejoin="round"/>
    <path d="M472.626,779.437 C483.235,776.232 492.565,774.433 494.873,780.388 C497.263,786.568 501.299,811.866 496.606,816.634 C493.063,820.271 478.478,817.515 474.359,815.677 C466.107,812.034 462.782,782.406 472.626,779.437" fill="#8A8B8A"/>
    <path d="M472.626,779.437 C483.235,776.232 492.565,774.433 494.873,780.388 C497.263,786.568 501.299,811.866 496.606,816.634 C493.063,820.271 478.478,817.515 474.359,815.677 C466.107,812.034 462.782,782.406 472.626,779.437 z M478.98,851.634 C463.964,857.874 450.85,872.066 448.651,889.523 C447.979,869.648 455.525,835.759 476.957,827.456 M404.633,849.622 C429.117,855.671 442.68,889.949 442.285,903.533 C436.642,893.984 425.863,871.376 404.633,869.784" fill-opacity="0" stroke="#1A1919" stroke-width="5.669" stroke-linecap="round" stroke-linejoin="round"/>
    <path d="M438.66,910.113 C439.059,915.722 439.809,929.111 444.714,926.24 C445.879,925.55 448.273,910.861 448.733,908.105 C452.195,887.208 452.195,877.447 450.434,858.202 C448.094,832.773 446.934,846.652 444.845,820.845 C437.84,819.544 438.512,819.697 428.92,820.009 C435.69,856.611 436.642,881.876 438.66,910.113" fill="#C5A86F"/>
    <path d="M438.66,910.113 C439.059,915.722 439.809,929.111 444.714,926.24 C445.879,925.55 448.273,910.861 448.733,908.105 C452.195,887.208 452.195,877.447 450.434,858.202 C448.094,832.773 446.934,846.652 444.845,820.845 C437.84,819.544 438.512,819.697 428.92,820.009 C435.69,856.611 436.642,881.876 438.66,910.113 z" fill-opacity="0" stroke="#1A1919" stroke-width="5.669" stroke-linecap="round" stroke-linejoin="round"/>
    <path d="M827.57,842.732 L910.241,828.622 L909.716,986.023 L876.121,996.95 L827.57,842.732" fill="#CDA681"/>
    <path d="M827.57,842.732 L910.241,828.622 L909.716,986.023 L876.121,996.95 L827.57,842.732 z" fill-opacity="0" stroke="#1A1919" stroke-width="5.669" stroke-linecap="round" stroke-linejoin="round"/>
    <path d="M660.341,990.06 L660.341,844.324 L744.242,861.04 L740.223,1009.57 L727.541,1034.99 L660.341,990.06" fill="#CDA681"/>
    <path d="M660.341,990.06 L660.341,844.324 L744.242,861.04 L740.223,1009.57 L727.541,1034.99 L660.341,990.06 z" fill-opacity="0" stroke="#1A1919" stroke-width="5.669" stroke-linecap="round" stroke-linejoin="round"/>
    <path d="M821.516,955.786 L821.516,842.382 L875.969,834.659 L876.121,996.95 L821.516,955.786" fill="#BA9872"/>
    <path d="M821.516,955.786 L821.516,842.382 L875.969,834.659 L876.121,996.95 L821.516,955.786 z" fill-opacity="0" stroke="#1A1919" stroke-width="5.669" stroke-linecap="round" stroke-linejoin="round"/>
    <path d="M728.378,881.269 L764.493,861.96 C764.493,861.96 763.668,1022.76 763.662,1024.09 C763.635,1026.52 738.462,1032.47 728.378,1034.99 C727.541,1005.6 729.133,902.171 728.378,881.269" fill="#BD9B78"/>
    <path d="M728.378,881.269 L764.493,861.96 C764.493,861.96 763.668,1022.76 763.662,1024.09 C763.635,1026.52 738.462,1032.47 728.378,1034.99 C727.541,1005.6 729.133,902.171 728.378,881.269 z" fill-opacity="0" stroke="#1A1919" stroke-width="5.669" stroke-linecap="round" stroke-linejoin="round"/>
    <path d="M886.715,804.603 L911.504,814.075 L911.078,846.417 L728.378,893.044 L720.06,863.741 L738.878,826.095 L886.715,804.603" fill="#BD9B78"/>
    <path d="M886.715,804.603 L911.504,814.075 L911.078,846.417 L728.378,893.044 L720.06,863.741 L738.878,826.095 L886.715,804.603 z" fill-opacity="0" stroke="#1A1919" stroke-width="5.669" stroke-linecap="round" stroke-linejoin="round"/>
    <path d="M659.504,821.632 L659.504,856.923 L728.378,893.044 L728.378,850.197 L659.504,821.632" fill="#CDA681"/>
    <path d="M659.504,821.632 L659.504,856.923 L728.378,893.044 L728.378,850.197 L659.504,821.632 z" fill-opacity="0" stroke="#1A1919" stroke-width="5.669" stroke-linecap="round" stroke-linejoin="round"/>
    <path d="M661.178,822.47 L835.904,790.548 L911.504,814.075 L730.139,850.294 L661.178,822.47" fill="#CDA681"/>
    <path d="M661.178,822.47 L835.904,790.548 L911.504,814.075 L730.139,850.294 L661.178,822.47 z" fill-opacity="0" stroke="#1A1919" stroke-width="5.669" stroke-linecap="round" stroke-linejoin="round"/>
    <path d="M987.58,851.099 C961.773,815.284 922.496,930.275 957.77,930.275 C977.129,930.275 999.262,867.286 987.58,851.099" fill="#C34A63"/>
    <path d="M987.58,851.099 C961.773,815.284 922.496,930.275 957.77,930.275 C977.129,930.275 999.262,867.286 987.58,851.099 z" fill-opacity="0" stroke="#1A1919" stroke-width="5.669" stroke-linecap="round" stroke-linejoin="round"/>
    <path d="M831.688,649.81 C846.913,633.651 894.475,638.491 932.57,641.295 C956.217,643.045 973.996,637.981 984.862,644.856 C1012.19,662.099 989.516,675.667 965.743,692.958 C949.72,704.64 920.418,726.394 898.986,723.605 C875.017,720.472 871.096,699.8 855.362,689.185 C836.232,676.257 805.143,677.964 831.688,649.81" fill="#F5C6AE"/>
    <path d="M831.688,649.81 C846.913,633.651 894.475,638.491 932.57,641.295 C956.217,643.045 973.996,637.981 984.862,644.856 C1012.19,662.099 989.516,675.667 965.743,692.958 C949.72,704.64 920.418,726.394 898.986,723.605 C875.017,720.472 871.096,699.8 855.362,689.185 C836.232,676.257 805.143,677.964 831.688,649.81 z" fill-opacity="0" stroke="#1A1919" stroke-width="5.669" stroke-linecap="round" stroke-linejoin="round"/>
    <path d="M801.533,669.859 L831.704,658.669 L947.696,748.822 L896.378,809.033 L775.42,734.269 L771.297,703.458 L801.533,669.859" fill="#CDA681"/>
    <path d="M801.533,669.859 L831.704,658.669 L947.696,748.822 L896.378,809.033 L775.42,734.269 L771.297,703.458 L801.533,669.859 z" fill-opacity="0" stroke="#1A1919" stroke-width="5.669" stroke-linecap="round" stroke-linejoin="round"/>
    <path d="M858.66,663.148 C868.738,683.306 841.203,743.015 873.786,728.659 C890.056,721.49 880.551,697.679 905.696,693.386" fill="#F5C6AE"/>
    <path d="M858.66,663.148 C868.738,683.306 841.203,743.015 873.786,728.659 C890.056,721.49 880.551,697.679 905.696,693.386" fill-opacity="0" stroke="#1A1919" stroke-width="5.669" stroke-linecap="round" stroke-linejoin="round"/>
    <path d="M776.333,734.533 L756.104,716.632 L809.015,646.07 L832.541,658.669 L776.333,734.533" fill="#BB9A77"/>
    <path d="M776.333,734.533 L756.104,716.632 L809.015,646.07 L832.541,658.669 L776.333,734.533 z" fill-opacity="0" stroke="#1A1919" stroke-width="5.669" stroke-linecap="round" stroke-linejoin="round"/>
    <path d="M1224.9,568.107 C1207.01,539.232 1150.26,562.496 1087.14,585.858 C1020.33,610.583 947.483,636.291 946.531,633.42 C953.603,656.241 950.863,682.968 959.902,706.341 C991.616,700.533 1025.25,694.726 1057.45,687.243 C1092.43,679.095 1134.32,674.322 1167.79,669.859 C1210.25,664.183 1252.42,612.6 1224.9,568.107" fill="#F8D8E0"/>
    <path d="M1224.9,568.107 C1207.01,539.232 1150.26,562.496 1087.14,585.858 C1020.33,610.583 947.483,636.291 946.531,633.42 C953.603,656.241 950.863,682.968 959.902,706.341 C991.616,700.533 1025.25,694.726 1057.45,687.243 C1092.43,679.095 1134.32,674.322 1167.79,669.859 C1210.25,664.183 1252.42,612.6 1224.9,568.107 z" fill-opacity="0" stroke="#1A1919" stroke-width="5.669" stroke-linecap="round" stroke-linejoin="round"/>
    <path d="M1011.07,620.246 C1015.24,613.667 1022.13,608.631 1032.94,606.054 C1027.37,607.384 1023.45,646.316 1025.59,653.699 C1030.64,671.056 1034.7,676.159 1046.82,688.349 C1011.71,698.685 1015.48,697.749 1008.17,663.148 C1004.91,647.546 1003.89,631.616 1011.07,620.246" fill="#EBA1BE"/>
    <path d="M1062.14,600.181 C1065.26,592.815 1071.42,588.418 1082.1,589.221 C1072.2,588.483 1090.91,660.048 1111.41,677.57 C1093.42,678.949 1095.53,678.259 1083.77,683.306 C1079.11,667.741 1052.78,622.275 1062.14,600.181" fill="#EBA1BE"/>
    <path d="M1224.9,568.107 C1207.01,539.232 1150.26,562.496 1087.14,585.858 C1060.83,595.598 1045.04,604.502 1021.62,612.749 C985.529,625.425 947.105,635.17 946.531,633.42 C953.603,656.241 950.863,682.968 959.902,706.341 C991.616,700.533 1025.25,694.726 1057.45,687.243 C1092.43,679.095 1141.03,670.974 1174.5,666.495 C1216.96,660.835 1252.42,612.6 1224.9,568.107 z" fill-opacity="0" stroke="#1A1919" stroke-width="5.669" stroke-linecap="round" stroke-linejoin="round"/>
    <path d="M1456.18,236.947 C1502.9,263.328 1500.26,298.864 1502.11,344.244 C1503.16,369.952 1503.69,399.27 1539.36,394.25 C1524.52,407.44 1498,410.164 1478.88,403.765 C1480.13,417.366 1486.79,430.262 1496.86,439.827 C1463.54,461.795 1431.53,461.549 1397.36,425.537 C1393.55,437.409 1404.58,451.524 1414.59,460.22 C1383.66,453.985 1358.46,431.306 1343.33,401.058 C1329.13,372.61 1337,369.985 1333.16,339.464 C1324.33,269.431 1380.72,194.312 1456.18,236.947" fill="#8F452D"/>
    <path d="M1456.18,236.947 C1502.9,263.328 1500.26,298.864 1502.11,344.244 C1503.16,369.952 1503.69,399.27 1539.36,394.25 C1524.52,407.44 1498,410.164 1478.88,403.765 C1480.13,417.366 1486.79,430.262 1496.86,439.827 C1463.54,461.795 1431.53,461.549 1397.36,425.537 C1393.55,437.409 1404.58,451.524 1414.59,460.22 C1383.66,453.985 1358.46,431.306 1343.33,401.058 C1329.13,372.61 1337,369.985 1333.16,339.464 C1324.33,269.431 1380.72,194.312 1456.18,236.947 z" fill-opacity="0" stroke="#1A1919" stroke-width="5.669" stroke-linecap="round" stroke-linejoin="round"/>
    <path d="M957.639,921.81 C959,880.548 986.858,837.284 1024.93,830.218 C1056.65,873.247 1044.79,1062.82 972.896,972.259 C961.631,958.068 957.031,940.136 957.639,921.81" fill="#F5C6AE"/>
    <path d="M957.639,921.81 C959,880.548 986.858,837.284 1024.93,830.218 C1056.65,873.247 1044.79,1062.82 972.896,972.259 C961.631,958.068 957.031,940.136 957.639,921.81 z" fill-opacity="0" stroke="#1A1919" stroke-width="5.669" stroke-linecap="round" stroke-linejoin="round"/>
    <path d="M977.934,859.706 C1043.46,814.349 1168.57,860.101 1228.85,793.349 C1153.81,753.908 1010.7,784.107 967.859,842.058 C955.851,858.3 942.66,877.349 942.66,910.113 C945.17,884.906 960.182,871.999 977.934,859.706" fill="#D64F89"/>
    <path d="M977.934,859.706 C1043.46,814.349 1168.57,860.101 1228.85,793.349 C1153.81,753.908 1010.7,784.107 967.859,842.058 C955.851,858.3 942.66,877.349 942.66,910.113 C945.17,884.906 960.182,871.999 977.934,859.706 z" fill-opacity="0" stroke="#1A1919" stroke-width="5.669" stroke-linecap="round" stroke-linejoin="round"/>
    <path d="M1227.41,310.622 C1159.2,258.718 1040.15,294.516 1039.67,389.721 C1039.57,409.59 1058.83,452.639 1051.01,464.058 C1042.87,475.97 1031.92,468.259 1025.81,472.886 C1021.64,476.052 1019.41,489.16 1027.07,496.822 C1032.11,501.858 1035.72,503.023 1043.46,505.648 C1047.23,510.685 1051.01,513.206 1048.5,527.058 C1051.01,533.358 1050.5,534.163 1055.22,533.78 C1064.1,533.047 1079.17,524.767 1090.51,516.985 C1088.81,537.148 1074.12,549.322 1075.39,555.622 C1077.06,564.022 1087.97,562.447 1090.07,567.386 C1093.86,576.206 1109.82,583.874 1121.1,586.81 C1161.14,597.212 1210.23,567.188 1238.32,542.087 C1270.88,513.01 1326.39,478.332 1315.18,425.241 C1306.81,385.653 1257.28,333.334 1227.41,310.622" fill="#F5C6AE"/>
    <path d="M1227.41,310.622 C1159.2,258.718 1040.15,294.516 1039.67,389.721 C1039.57,409.59 1058.83,452.639 1051.01,464.058 C1042.87,475.97 1031.92,468.259 1025.81,472.886 C1021.64,476.052 1019.41,489.16 1027.07,496.822 C1032.11,501.858 1035.72,503.023 1043.46,505.648 C1047.23,510.685 1051.01,513.206 1048.5,527.058 C1051.01,533.358 1050.5,534.163 1055.22,533.78 C1064.1,533.047 1079.17,524.767 1090.51,516.985 C1088.81,537.148 1074.12,549.322 1075.39,555.622 C1077.06,564.022 1087.97,562.447 1090.07,567.386 C1093.86,576.206 1109.82,583.874 1121.1,586.81 C1161.14,597.212 1210.23,567.188 1238.32,542.087 C1270.88,513.01 1326.39,478.332 1315.18,425.241 C1306.81,385.653 1257.28,333.334 1227.41,310.622 z" fill-opacity="0" stroke="#1A1919" stroke-width="5.669" stroke-linecap="round" stroke-linejoin="round"/>
    <path d="M1016.64,314.597 C1026.36,297.764 1043.95,288.347 1063.29,289.753 C1030.56,305.607 988.285,408.72 1045.97,414.922 C1036.74,375.858 1068.99,325.623 1106.33,317.682 C1107.08,366.83 1099.59,407.999 1154.5,431.738 C1150.48,417.498 1149.59,398.385 1157.66,383.553 C1165.33,405.143 1171.74,436.693 1194.24,445.7 C1194.53,430.754 1197.76,417.268 1206.87,405.587 C1210.34,437.94 1217.22,472.983 1200.74,504.582 C1221.39,483.401 1221.8,444.846 1248.42,431.306 C1277.84,416.316 1295.85,438.53 1285.37,469.937 C1281.01,483.057 1271.95,501.858 1246.75,508.58 C1243.39,527.058 1244.81,536.214 1251.79,550.585 C1318.99,548.895 1375.62,430.278 1369.53,353.398 C1365.05,296.879 1314.06,261.895 1265.21,242.306 C1226.53,226.775 1131.66,232.221 1113.25,275.157 C1079.29,228.645 1008.78,257.608 1016.64,314.597" fill="#8F452D"/>
    <path d="M1016.64,314.597 C1026.36,297.764 1043.95,288.347 1063.29,289.753 C1030.56,305.607 988.285,408.72 1045.97,414.922 C1036.74,375.858 1068.99,325.623 1106.33,317.682 C1107.08,366.83 1099.59,407.999 1154.5,431.738 C1150.48,417.498 1149.59,398.385 1157.66,383.553 C1165.33,405.143 1171.74,436.693 1194.24,445.7 C1194.53,430.754 1197.76,417.268 1206.87,405.587 C1210.34,437.94 1217.22,472.983 1200.74,504.582 C1221.39,483.401 1221.8,444.846 1248.42,431.306 C1277.84,416.316 1295.85,438.53 1285.37,469.937 C1281.01,483.057 1271.95,501.858 1246.75,508.58 C1243.39,527.058 1244.81,536.214 1251.79,550.585 C1318.99,548.895 1375.62,430.278 1369.53,353.398 C1365.05,296.879 1314.06,261.895 1265.21,242.306 C1226.53,226.775 1131.66,232.221 1113.25,275.157 C1079.29,228.645 1008.78,257.608 1016.64,314.597 z M1063.61,394.338 C1065.26,373.496 1089.4,379.386 1100.59,390.985" fill-opacity="0" stroke="#1A1919" stroke-width="5.669" stroke-linecap="round" stroke-linejoin="round"/>
    <path d="M1073.98,426.62 C1085.31,432.739 1080.42,455.15 1069.59,444.749 C1065.17,440.483 1068.66,423.749 1073.98,426.62" fill="#1A1919"/>
    <path d="M1174.23,690.236 C1170.2,647.562 1158.51,567.369 1201.03,539.937 C1224.9,524.549 1257.2,527.944 1285.29,545.269 C1319.89,566.603 1356.59,623.117 1362.57,658.49 C1366.76,683.23 1370.03,707.232 1381.84,729.572 C1392.93,750.495 1414.39,767.984 1426.73,787.355 C1449.09,822.47 1410.29,864.388 1374.42,876.495 C1337.62,888.931 1261.15,862.32 1230.61,840.353 C1189.34,810.685 1178.91,739.306 1174.23,690.236" fill="#F8D8E0"/>
    <path d="M1174.23,690.236 C1170.2,647.562 1158.51,567.369 1201.03,539.937 C1224.9,524.549 1257.2,527.944 1285.29,545.269 C1319.89,566.603 1356.59,623.117 1362.57,658.49 C1366.76,683.23 1370.03,707.232 1381.84,729.572 C1392.93,750.495 1414.39,767.984 1426.73,787.355 C1449.09,822.47 1410.29,864.388 1374.42,876.495 C1337.62,888.931 1261.15,862.32 1230.61,840.353 C1189.34,810.685 1178.91,739.306 1174.23,690.236 z" fill-opacity="0" stroke="#1A1919" stroke-width="5.669" stroke-linecap="round" stroke-linejoin="round"/>
    <path d="M1268.59,678.259 C1280.27,672.38 1295.21,677.472 1303.86,673.222 C1330.87,659.884 1339.97,654.142 1354.59,628.432 C1358.43,631.025 1358.67,656.882 1360.97,661.458 C1342.63,678.505 1339.61,677.421 1318.99,691.695 C1316.53,693.402 1249.79,714.681 1255.13,693.386 C1257.36,684.558 1257.28,683.941 1268.59,678.259" fill="#EBA1BE"/>
    <path d="M1374.42,723.622 C1352.67,737.468 1319.99,755.089 1297.15,765.622 C1280.77,773.179 1253.64,766.361 1241.71,765.622 C1229.75,764.866 1236.35,753.394 1240.17,746.984 C1244.17,740.302 1270.41,747.488 1285.37,743.784 C1317.15,735.915 1348.88,718.273 1366.01,690.859 C1372.75,703.458 1373.26,714.697 1374.42,723.622" fill="#EBA1BE"/>
    <path d="M1387.87,742.095 C1396.47,746.208 1400.46,758.058 1408.02,765.622 C1397.29,774.072 1392.06,788.312 1374.42,802.585 C1348.14,823.816 1300.35,831.849 1275.49,820.681 C1267.73,817.181 1261.7,814.349 1258.42,806.818 C1303.86,805.933 1327.98,805.243 1350.9,792.495 C1355.97,789.673 1394.24,745.148 1387.87,742.095" fill="#EBA1BE"/>
    <path d="M1319.12,243.062 C1363.34,231.837 1375.34,297.834 1333.34,297.834 C1303.35,297.834 1285.85,251.506 1319.12,243.062" fill="#EA8C9D"/>
    <path d="M1319.12,243.062 C1363.34,231.837 1375.34,297.834 1333.34,297.834 C1303.35,297.834 1285.85,251.506 1319.12,243.062 z" fill-opacity="0" stroke="#1A1919" stroke-width="5.669" stroke-linecap="round" stroke-linejoin="round"/>
    <path d="M1338.49,279.148 C1382.16,267.386 1402.55,328.576 1352.84,333.832 C1319.56,337.359 1307.28,287.538 1338.49,279.148" fill="#EA8C9D"/>
    <path d="M1338.49,279.148 C1382.16,267.386 1402.55,328.576 1352.84,333.832 C1319.56,337.359 1307.28,287.538 1338.49,279.148 z" fill-opacity="0" stroke="#1A1919" stroke-width="5.669" stroke-linecap="round" stroke-linejoin="round"/>
    <path d="M1258.5,503.532 C1252.91,509.11 1241.04,511.095 1231.62,510.259" fill="#FFFFFE"/>
    <path d="M1258.5,503.532 C1252.91,509.11 1241.04,511.095 1231.62,510.259 M1236.67,481.706 C1230.34,467.274 1248.83,447.816 1261.87,449.785" fill-opacity="0" stroke="#1A1919" stroke-width="5.669" stroke-linecap="round" stroke-linejoin="round"/>
    <path d="M1290.34,603.233 C1287.81,568.337 1257.81,531.636 1218.79,535.846 C1211.39,536.639 1190.57,540.08 1193.22,551.028 C1215.58,546.106 1234.66,558.558 1249.19,567.96 C1262.93,576.841 1273.11,593.783 1274.39,611.633 C1274.8,617.244 1275.21,635.996 1275.21,651.116 C1284.9,647.841 1290.85,610.288 1290.34,603.233" fill="#EBA1BE"/>
    <path d="M1174.23,690.236 C1170.2,647.562 1159.53,568.894 1201.03,539.937 C1231.28,518.839 1278.5,535.672 1302.94,557.87 C1330.65,583.069 1356.59,623.117 1362.57,658.49 C1366.76,683.23 1370.03,707.232 1381.84,729.572 C1392.93,750.495 1423.66,774.3 1431.53,795.859 C1446.32,836.267 1392.39,857.978 1356.52,870.097 C1319.72,882.517 1261.15,862.32 1230.61,840.353 C1189.34,810.685 1178.91,739.306 1174.23,690.236 z" fill-opacity="0" stroke="#1A1919" stroke-width="5.669" stroke-linecap="round" stroke-linejoin="round"/>
    <path d="M1188.28,551.569 C1158.37,594.292 1166.06,667.993 1156.76,699.505 C1144.92,739.585 1107.46,771.234 1114.24,817.335 C1165.59,825.685 1210.44,824.859 1229.18,778.124 C1248.85,729.134 1276.21,681.277 1271.95,626.185" fill="#F8D8E0"/>
    <path d="M1240.66,746.46 C1239.15,755.013 1234.23,765.644 1228.33,771.134 C1243.44,757.074 1154.33,746.306 1134.17,748.822 C1144.26,726.148 1155.53,726.855 1177.5,727.542 C1199.88,729.447 1220.96,735.271 1240.66,746.46" fill="#EBA1BE"/>
    <path d="M1167.79,617.785 C1190.66,603.545 1252.57,606.054 1271.95,632.906 C1271.95,642.985 1271.95,637.948 1267.73,658.107 C1252.61,635.422 1183.93,625.988 1166.11,636.258 C1162.94,627.563 1160.14,622.526 1167.79,617.785" fill="#EBA1BE"/>
    <path d="M1251.79,725.296 C1241,710.179 1221.04,692.581 1202.14,691.433 C1196.53,691.089 1152.35,700.359 1154.79,706.806 C1151.15,697.142 1160.87,690.792 1163.08,685.132 C1166.77,675.628 1197.09,671.269 1209.36,671.566 C1221.14,671.861 1252.07,686.56 1258.5,698.421 C1262.58,705.919 1253.62,727.87 1251.79,725.296" fill="#EBA1BE"/>
    <path d="M1190.38,548.633 C1157.62,586.432 1167.88,661.886 1156.76,699.505 C1144.92,739.585 1107.46,771.234 1114.24,817.335 C1165.59,825.685 1210.44,824.859 1229.18,778.124 C1248.85,729.134 1276.21,681.277 1271.95,626.185" fill-opacity="0" stroke="#1A1919" stroke-width="5.669" stroke-linecap="round" stroke-linejoin="round"/>
    <path d="M1191.02,1010.9 C1124.7,1073.52 984.627,1053.32 996.259,944.581 C1003.47,877.13 1076.44,840.353 1138.52,869.058 C1192.66,894.099 1240.24,964.384 1191.02,1010.9" fill="#F5C6AE"/>
    <path d="M1191.02,1010.9 C1124.7,1073.52 984.627,1053.32 996.259,944.581 C1003.47,877.13 1076.44,840.353 1138.52,869.058 C1192.66,894.099 1240.24,964.384 1191.02,1010.9 z" fill-opacity="0" stroke="#1A1919" stroke-width="5.669" stroke-linecap="round" stroke-linejoin="round"/>
    <path d="M1429.93,830.491 C1398.38,818.745 1364.91,841.927 1331.82,831.214 C1300.16,820.976 1287.7,814.37 1265.21,801.749 C1228.87,781.306 1179.08,782.257 1142.46,793.283 C1113.91,801.868 1067.35,813.243 1036.74,836.179 C1012.11,854.626 999.59,881.779 1001.46,911.784 C1078.5,848.523 1113.22,871.179 1190.54,909.341 C1214.58,921.197 1242.6,951.712 1270.26,955.476 C1316.05,961.677 1352.65,956.044 1396.26,968.896 C1421.79,976.443 1483.38,970.241 1503.95,951.98 C1534.97,924.445 1476.6,930.45 1465.14,905.075 C1450.15,871.902 1469.79,845.339 1429.93,830.491" fill="#D64F89"/>
    <path d="M1429.93,830.491 C1398.38,818.745 1364.91,841.927 1331.82,831.214 C1300.16,820.976 1287.7,814.37 1265.21,801.749 C1228.87,781.306 1179.08,782.257 1142.46,793.283 C1113.91,801.868 1067.35,813.243 1036.74,836.179 C1012.11,854.626 999.59,881.779 1001.46,911.784 C1078.5,848.523 1113.22,871.179 1190.54,909.341 C1214.58,921.197 1242.6,951.712 1270.26,955.476 C1316.05,961.677 1352.65,956.044 1396.26,968.896 C1421.79,976.443 1483.38,970.241 1503.95,951.98 C1534.97,924.445 1476.6,930.45 1465.14,905.075 C1450.15,871.902 1469.79,845.339 1429.93,830.491 z" fill-opacity="0" stroke="#1A1919" stroke-width="5.669" stroke-linecap="round" stroke-linejoin="round"/>
    <path d="M1043.46,1033.59 C1119.06,1071.39 1185.36,1025.89 1254.21,1006.37 C1310.13,990.497 1377.33,1029.89 1424.23,1056.1 C1436.99,1063.21 1468.81,1098.75 1473.94,1070.62 C1477.13,1053.24 1459.57,1041 1444.33,1042.59 C1465.14,1041.15 1473.27,1060.84 1480.26,1052.91 C1487.23,1044.97 1477.67,1018.33 1454.9,1019.39 C1461.06,1019.18 1477.5,1018.35 1483.62,1017.62 C1485.28,1002.48 1469.6,997.704 1454.21,1000.833 C1463.17,999.788 1480.52,1000.952 1482.9,992.488 C1485.3,984.023 1468.02,983.409 1458.5,981.593 C1471.86,978.98 1476.9,985.712 1475.22,972.259 C1473.53,958.822 1451.46,964.056 1441.61,962.185 C1425.45,959.095 1416.67,950.554 1403.12,942.038 C1386.46,931.572 1369.85,922.449 1349.7,921.788 C1323.22,920.902 1320.58,938.031 1298.64,941.574 C1271.95,945.927 1247.91,912.868 1197.51,909.187 C1150.66,905.765 1129.07,923.855 1086.3,930.275" fill="#F5C6AE"/>
    <path d="M1043.46,1033.59 C1119.06,1071.39 1185.36,1025.89 1254.21,1006.37 C1310.13,990.497 1377.33,1029.89 1424.23,1056.1 C1436.99,1063.21 1468.81,1098.75 1473.94,1070.62 C1477.13,1053.24 1459.57,1041 1444.33,1042.59 C1465.14,1041.15 1473.27,1060.84 1480.26,1052.91 C1487.23,1044.97 1477.67,1018.33 1454.9,1019.39 C1461.06,1019.18 1477.5,1018.35 1483.62,1017.62 C1485.28,1002.48 1469.6,997.704 1454.21,1000.833 C1463.17,999.788 1480.52,1000.952 1482.9,992.488 C1485.3,984.023 1468.02,983.409 1458.5,981.593 C1471.86,978.98 1476.9,985.712 1475.22,972.259 C1473.53,958.822 1451.46,964.056 1441.61,962.185 C1425.45,959.095 1416.67,950.554 1403.12,942.038 C1386.46,931.572 1369.85,922.449 1349.7,921.788 C1323.22,920.902 1320.58,938.031 1298.64,941.574 C1271.95,945.927 1247.91,912.868 1197.51,909.187 C1150.66,905.765 1129.07,923.855 1086.3,930.275 M1474.29,915.722 C1459.7,902.32 1412.11,897.374 1424.82,873.138" fill-opacity="0" stroke="#1A1919" stroke-width="5.669" stroke-linecap="round" stroke-linejoin="round"/>
  </g>
<script xmlns=""/></svg>