<?xml version="1.0" encoding="UTF-8"?>
<!DOCTYPE svg PUBLIC "-//W3C//DTD SVG 1.1//EN" "http://www.w3.org/Graphics/SVG/1.1/DTD/svg11.dtd">
<svg version="1.1" xmlns="http://www.w3.org/2000/svg" xmlns:xlink="http://www.w3.org/1999/xlink" x="0" y="0" width="367" height="564" viewBox="0, 0, 367, 564">
  <defs>
    <linearGradient id="Gradient_1" gradientUnits="userSpaceOnUse" x1="446.685" y1="449.368" x2="523.067" y2="370.192">
      <stop offset="0" stop-color="#FFFBD2"/>
      <stop offset="1" stop-color="#3DAB49"/>
    </linearGradient>
    <radialGradient id="Gradient_2" gradientUnits="userSpaceOnUse" cx="228.441" cy="106.668" r="9.521">
      <stop offset="0" stop-color="#ED9D89"/>
      <stop offset="1" stop-color="#F5BE92"/>
    </radialGradient>
    <radialGradient id="Gradient_3" gradientUnits="userSpaceOnUse" cx="280.039" cy="101.656" r="9.527">
      <stop offset="0" stop-color="#ED9D89"/>
      <stop offset="1" stop-color="#F5BE92"/>
    </radialGradient>
    <radialGradient id="Gradient_4" gradientUnits="userSpaceOnUse" cx="116.504" cy="353.484" r="7.588">
      <stop offset="0" stop-color="#ED9D89"/>
      <stop offset="1" stop-color="#F5BE92"/>
    </radialGradient>
    <radialGradient id="Gradient_5" gradientUnits="userSpaceOnUse" cx="70.271" cy="362.418" r="7.586">
      <stop offset="0" stop-color="#ED9D89"/>
      <stop offset="1" stop-color="#F5BE92"/>
    </radialGradient>
  </defs>
  <g id="Layer_1">
    <path d="M297.887,18.759 C298.824,28.587 291.637,37.337 281.809,38.29 C271.965,39.259 263.215,32.056 262.262,22.22 C261.301,12.384 268.496,3.634 278.34,2.681 C288.176,1.728 296.926,8.931 297.887,18.759" fill="#B27D35"/>
    <path d="M174.371,268.806 C173.535,272.267 164.66,299.72 163.621,302.962 C163.355,303.806 163.254,304.774 162.824,305.548 C162.113,306.845 160.574,305.727 159.387,305.516 C158.199,305.306 157.418,305.657 156.496,306.251 C154.09,307.806 151.465,309.228 148.309,307.868 C147.105,307.337 145.441,306.587 144.27,306.806 C143.644,306.923 142.652,307.157 142.707,308.009 C142.746,308.829 143.465,309.634 143.902,310.274 C145.519,312.665 148.199,313.235 150.715,314.134 C152.285,314.696 154.168,314.806 154.152,316.634 C154.144,318.212 153.668,319.798 153.144,321.274 C152.309,323.681 151.808,325.313 152.355,327.852 C153.332,332.493 157.105,334.97 161.613,336.017 C165.285,336.876 169.137,335.782 172.082,333.563 C174.777,331.532 175.387,329.071 175.387,325.813 C175.387,322.384 174.816,319.04 174.465,315.649 C174.137,312.29 175.496,309.032 176.738,305.97 C178.058,302.696 179.387,299.431 180.715,296.149 C183.465,289.384 186.23,282.587 188.84,275.751 L174.371,268.806" fill="#F5BF92"/>
    <path d="M364.684,217.462 L361.262,210.774 L345.574,215.196 L350.074,196.024 L337.707,196.243 L336.277,216.554 L268.73,286.571 L275.449,293.071 L343.252,222.772 L343.254,222.774 L364.684,217.462 z" fill="url(#Gradient_1)"/>
    <path d="M341.324,505.696 C341.012,504.767 340.715,503.868 340.418,502.931 C339.402,499.79 327.605,428.806 302.785,392.235 C299.035,386.696 298.23,334.657 298.98,329.813 C299.09,329.071 309.949,275.079 296.809,258.774 C294.934,256.454 304.387,257.009 303.512,252.704 C301.848,244.634 299.191,245.446 299.191,245.446 L298.723,245.548 C298.699,245.556 264.293,247.704 258.621,247.939 L258.621,303.595 L262.058,303.806 L278.152,394.173 C278.152,394.173 304.582,433.446 312.418,465.556 L332.371,508.899 L331.105,541.493 C331.34,542.696 334.582,544.977 335.441,545.782 C337.574,547.806 339.246,550.235 341.301,552.399 C343.512,554.743 345.543,554.899 346.652,551.72 C347.707,548.72 349.09,545.938 350.402,543.001 C351.434,540.681 353.488,537.603 353.621,535.032 C353.824,531.595 343.879,510.509 341.324,505.696" fill="#F5BF92"/>
    <path d="M215.73,245.548 C215.73,245.548 216.355,245.595 217.449,245.665 M254.699,247.97 C252.762,247.97 224.699,246.142 217.449,245.665 C218.387,246.29 219.137,247.892 218.309,251.868 C217.426,256.181 212.746,264.806 213.59,286.853 C213.645,288.439 210.324,310.548 210.496,311.29 C218.051,344.962 223.512,385.493 225.246,391.946 C227.785,401.274 223.832,417.415 223.574,424.712 C222.605,453.173 232.824,512.915 232.793,516.04 C232.793,517.001 232.785,517.97 232.754,518.931 C232.676,523.274 229.949,528.72 226.684,531.563 C224.98,533.048 222.973,534.212 221.152,535.423 C218.019,537.524 215.152,539.821 211.848,541.673 C208.309,543.642 205.863,546.056 202.965,548.899 C198.613,553.134 204.48,554.931 208.371,555.423 C212.449,555.931 216.855,554.181 220.598,553.227 C224.855,552.118 228.98,551.298 233.23,550.853 C237.105,550.431 241.934,549.79 245.59,548.321 C249.387,546.806 250.402,541.993 250.012,538.196 C249.324,531.696 244.137,526.329 242.629,520.024 C241.973,517.227 242.551,513.884 242.699,511.024 C243.074,503.86 243.465,496.688 243.848,489.524 C244.894,469.97 245.933,450.415 246.973,430.86 C247.684,417.681 248.387,404.493 249.09,391.306 C249.113,390.837 249.152,390.384 249.168,389.915 L250.988,303.118 L256.012,303.431 L256.012,247.939 C255.519,247.962 254.793,247.97 254.699,247.97" fill="#F5BF92"/>
    <path d="M215.73,245.548 C215.73,245.548 216.355,245.595 217.449,245.665 M245.496,531.517 C245.246,531.696 244.996,531.899 244.738,532.071 C243.074,533.196 241.644,534.657 239.933,535.665 C238.777,536.337 237.676,537.056 236.558,537.712 C235.715,538.196 232.113,539.712 231.223,540.087 C229.293,540.892 227.129,541.329 225.027,540.97 C220.871,540.282 220.051,537.978 221.152,535.423 C216.113,537.056 205.863,546.056 202.965,548.899 C198.613,553.134 204.48,554.931 208.371,555.423 C212.449,555.931 216.855,554.181 220.598,553.227 C224.855,552.118 228.98,551.298 233.23,550.853 C237.363,550.399 241.824,549.962 245.684,548.29 C248.059,547.259 250.027,544.399 250.254,541.798 C250.387,540.501 250.324,539.142 250.309,537.845 C250.309,536.22 250.207,533.938 249.293,532.556 C249.012,532.157 248.769,531.767 248.441,531.415 C248.121,531.071 248.027,530.727 247.793,530.314 C247.027,530.727 246.215,531.009 245.496,531.517" fill="#1A1919"/>
    <path d="M349.816,523.384 C350.699,524.899 351.902,527.181 352.449,528.884 C353.043,530.681 353.746,533.103 353.621,535.032 C353.488,537.603 347.707,548.72 346.652,551.72 C345.543,554.899 343.512,554.743 341.301,552.399 C339.246,550.235 331.34,542.696 331.105,541.493 C330.934,540.626 331.09,532.923 331.301,531.946 C332.238,531.915 332.527,533.212 332.902,533.868 C333.465,534.774 334.23,535.829 335.129,536.376 C336.066,536.946 336.98,537.157 338.137,537.056 C339.324,536.946 340.129,536.337 341.145,535.649 C343.23,534.196 345.441,532.11 346.793,529.946 C347.98,528.017 349.559,525.712 349.816,523.384" fill="#1A1919"/>
    <path d="M213.512,267.228 C213.512,267.228 198.488,311.352 224.84,400.391 C224.839,400.391 213.762,438.587 229.574,523.407 L246.965,522.345 L251.168,404.071 L253.285,311.352 L261.184,311.352 L278.152,399.681 C278.152,399.681 324.871,488.938 328.074,516.556 L343.902,507.603 C343.902,507.603 322.418,414.845 306.121,393.337 C306.121,393.337 314.402,277.634 303.332,267.618 L213.512,267.228" fill="#003248"/>
    <path d="M288.645,234.345 C287.199,217.61 294.793,203.626 298.176,178.212 C299.973,164.79 303.254,141.688 286.613,138.126 C279.918,136.696 267.605,136.259 267.434,126.368 C267.34,120.149 267.434,116.524 267.434,110.337 L246.887,110.337 C246.887,116.524 247.004,120.149 246.887,126.368 C246.73,136.259 233.723,136.298 227.137,138.126 C211.48,142.501 213.777,164.79 215.566,178.212 C218.957,203.626 226.559,217.61 225.098,234.345 C224.551,240.704 223.379,247.087 220.988,253.009 C219.652,256.321 215.152,263.712 214.777,264.868 C215.23,265.204 216.348,264.54 216.949,264.54 C217.73,264.54 217.355,264.54 218.129,264.54 C220.176,264.54 222.238,264.54 224.309,264.54 C229.355,264.54 234.426,264.54 239.496,264.54 C244.035,264.54 248.59,264.54 253.137,264.54 C254.387,264.54 255.621,266.759 256.879,267.54 C258.121,266.759 259.371,264.54 260.605,264.54 C265.168,264.54 269.715,264.54 274.262,264.54 C279.324,264.54 284.387,264.54 289.457,264.54 C291.512,264.54 293.566,264.54 295.621,264.54 C296.402,264.54 296.012,264.54 296.809,264.54 C297.394,264.54 298.527,265.204 298.98,264.868 C298.605,263.712 294.09,256.321 292.754,253.009 C290.363,247.087 289.199,240.704 288.645,234.345" fill="#F5BF92"/>
    <path d="M297.551,76.087 C294.762,48.352 273.902,32.962 247.355,35.212 C220.777,38.118 203.23,57.313 205.949,85.212 C205.324,85.126 204.683,85.11 204.012,85.157 C199.449,85.602 199.113,88.29 199.543,92.649 C199.973,96.993 200.965,101.36 205.551,100.907 C207.082,100.751 208.488,100.189 209.66,99.337 C216.809,115.97 233.23,129.415 256.324,127.509 C278.98,124.97 292.449,109.095 296.48,91.673 C297.277,91.829 298.121,91.915 298.996,91.829 C303.543,91.384 305.777,87.618 305.34,83.259 C304.918,78.954 302.059,75.696 297.551,76.087" fill="#F5BF92"/>
    <path d="M237.918,105.743 C238.309,109.681 234.371,113.251 229.137,113.759 C223.902,114.274 219.34,111.517 218.957,107.587 C218.574,103.673 222.519,100.079 227.754,99.571 C232.988,99.064 237.551,101.829 237.918,105.743 z" fill="url(#Gradient_2)"/>
    <path d="M270.551,102.579 C270.934,106.493 275.496,109.259 280.73,108.751 C285.965,108.243 289.918,104.657 289.527,100.735 C289.144,96.806 284.582,94.04 279.348,94.556 C274.113,95.071 270.168,98.649 270.551,102.579 z" fill="url(#Gradient_3)"/>
    <path d="M250.459,91.009 C250.461,91.534 250.346,92.455 250.162,93.498 C249.887,95.069 249.469,96.95 249.119,98.541 C248.943,99.337 248.785,100.061 248.668,100.647 C248.609,100.941 248.561,101.2 248.526,101.424 C248.492,101.652 248.468,101.828 248.466,102.033 L248.471,102.158 L249.426,102.064 L248.469,102.121 C248.487,102.455 248.603,102.772 248.764,103.023 C249.052,103.467 249.435,103.741 249.828,103.967 C250.421,104.299 251.08,104.52 251.696,104.718 C252.308,104.91 252.887,105.08 253.218,105.221 C253.706,105.426 254.269,105.197 254.474,104.709 C254.68,104.221 254.45,103.658 253.962,103.453 C253.571,103.289 253.14,103.158 252.693,103.02 C252.029,102.815 251.336,102.593 250.88,102.356 C250.652,102.239 250.492,102.119 250.426,102.047 L250.379,101.986 L250.333,102.008 L250.383,102.006 L250.379,101.986 L250.333,102.008 L250.383,102.006 L250.38,101.968 L249.596,102.046 L250.384,102.037 L250.38,101.968 L249.596,102.046 L250.384,102.037 L249.896,102.043 L250.384,102.044 L250.384,102.037 L249.896,102.043 L250.384,102.044 L250.384,102.033 C250.381,102.031 250.403,101.805 250.455,101.52 C250.636,100.491 251.114,98.452 251.546,96.408 C251.762,95.384 251.967,94.354 252.12,93.424 C252.272,92.491 252.375,91.674 252.377,91.009 C252.377,90.479 251.947,90.05 251.418,90.05 C250.889,90.05 250.459,90.479 250.459,91.009" fill="#ED9973"/>
    <path d="M235.832,93.774 C236.066,96.259 234.324,98.493 231.918,98.727 C229.504,98.962 227.355,97.11 227.113,94.618 C226.871,92.11 228.605,89.891 231.027,89.649 C233.434,89.415 235.574,91.259 235.832,93.774" fill="#1A1919"/>
    <path d="M278.324,89.931 C278.387,92.446 276.48,94.54 274.043,94.618 C271.652,94.712 269.637,92.743 269.582,90.212 C269.527,87.704 271.433,85.587 273.848,85.509 C276.262,85.423 278.277,87.392 278.324,89.931" fill="#1A1919"/>
    <path d="M248.199,22.602 C230.933,24.274 213.543,33.001 205.324,48.868 C201.199,56.821 197.676,67.391 197.558,76.22 C197.441,86.446 197.512,97.267 203.723,106.251 C203.84,106.415 205.051,108.095 205.184,108.259 C208.152,102.681 211.09,96.048 215.785,91.774 C218.387,89.407 221.183,87.157 224.215,85.501 C238.949,77.352 255.168,71.54 265.699,57.423 C267.316,55.259 271.402,48.282 271.887,47.868 C273.23,55.493 278.699,69.821 284.426,73.009 C288.019,75.009 290.957,77.087 294.793,76.915 C296.277,76.868 296.434,75.313 301.457,77.524 C305.129,40.782 276.59,19.837 248.199,22.602" fill="#B27D35"/>
    <path d="M212.418,81.524 C212.183,80.884 225.777,75.618 231.73,72.923 C238.332,69.923 243.996,66.071 250.73,61.36 C255.09,58.306 268.832,45.149 269.48,45.368 C270.152,45.618 263.019,56.071 252.262,63.36 C245.34,68.048 239.637,72.079 232.824,75.157 C226.777,77.899 212.605,82.142 212.418,81.524" fill="#895F37"/>
    <path d="M213.098,78.024 C212.91,78.048 212.699,78.017 212.48,77.946 C211.824,77.688 217.433,63.954 237.035,51.118 C250.965,41.993 264.84,41.712 264.934,42.384 C265.027,43.056 250.16,46.72 240.324,52.97 C230.129,59.415 213.574,77.993 213.098,78.024" fill="#895F37"/>
    <path d="M206.434,82.22 C206.34,82.235 206.199,82.22 206.098,82.212 C205.387,82.071 206.34,64.587 214.449,53.438 C228.48,34.056 255.418,33.181 255.152,33.821 C254.887,34.477 232.512,35.431 217.808,55.204 C209.824,65.931 207.027,82.157 206.434,82.22" fill="#895F37"/>
    <path d="M294.074,76.274 C294.043,75.54 298.332,64.165 286.254,45.438 C285.965,44.97 294.543,76.22 294.074,76.274" fill="#895F37"/>
    <path d="M224.558,74.841 C225.073,73.712 225.744,72.868 226.492,72.312 C227.242,71.758 228.063,71.479 228.965,71.477 C229.877,71.478 230.887,71.771 231.961,72.457 C232.369,72.719 232.91,72.599 233.172,72.192 C233.432,71.784 233.313,71.242 232.906,70.982 C231.604,70.147 230.26,69.725 228.965,69.725 C227.686,69.723 226.471,70.143 225.447,70.906 C224.421,71.67 223.58,72.764 222.965,74.114 C222.764,74.555 222.958,75.074 223.398,75.275 C223.838,75.476 224.358,75.281 224.558,74.841" fill="#845737"/>
    <path d="M271.342,67.542 C272.65,66.134 274.088,65.474 275.417,65.474 C276.708,65.48 277.983,66.072 279.133,67.494 C279.435,67.871 279.986,67.933 280.364,67.63 C280.741,67.328 280.803,66.776 280.5,66.398 C279.106,64.646 277.287,63.717 275.417,63.723 C273.493,63.724 271.607,64.676 270.056,66.351 C269.727,66.705 269.748,67.26 270.103,67.589 C270.458,67.918 271.012,67.897 271.342,67.542" fill="#845737"/>
    <path d="M242.054,112.981 C242.132,113.351 242.284,113.632 242.452,113.886 C242.75,114.324 243.124,114.692 243.543,115.054 C244.171,115.591 244.903,116.092 245.599,116.514 C246.3,116.936 246.939,117.27 247.455,117.473 L247.887,116.36 L247.443,117.468 C249.855,118.431 252.519,118.729 254.854,118.764 L254.949,118.764 C257.312,118.764 259.605,118.068 261.614,116.902 C263.623,115.734 265.355,114.094 266.602,112.152 C266.771,111.889 266.83,111.564 266.764,111.258 L265.805,111.464 L266.785,111.464 C266.785,111.366 266.772,111.301 266.764,111.258 L265.805,111.464 L266.785,111.464 L265.725,111.464 L266.454,112.229 C266.686,112.014 266.792,111.69 266.785,111.464 L265.725,111.464 L266.454,112.229 L265.73,111.47 L265.73,112.522 C265.936,112.525 266.227,112.447 266.454,112.229 L265.73,111.47 L265.73,112.522 C266.389,112.522 266.924,111.988 266.924,111.329 C266.924,110.67 266.389,110.137 265.73,110.137 C265.443,110.133 265.084,110.236 264.807,110.502 C264.526,110.763 264.393,111.154 264.399,111.464 C264.399,111.59 264.416,111.686 264.431,111.76 L265.598,111.509 L264.594,110.864 C263.564,112.472 262.099,113.862 260.416,114.839 C258.732,115.816 256.839,116.379 254.949,116.378 L254.871,116.378 L254.871,117.571 L254.888,116.379 C252.738,116.352 250.324,116.056 248.33,115.253 L248.318,115.248 C248.1,115.164 247.699,114.971 247.261,114.723 C246.599,114.35 245.823,113.842 245.237,113.361 C244.945,113.122 244.701,112.888 244.55,112.708 L244.399,112.502 L244.381,112.467 L244.181,112.547 L244.391,112.505 L244.381,112.467 L244.181,112.547 L244.391,112.505 C244.26,111.859 243.629,111.442 242.984,111.574 C242.339,111.706 241.922,112.336 242.054,112.981" fill="#E57266"/>
    <path d="M186.105,299.267 C175.441,289.329 160.559,283.759 162.113,281.696 C163.371,280.009 188.48,210.993 189.004,209.61 C192.738,199.587 210.207,159.649 210.207,159.649 C210.59,158.196 212.394,155.157 213.441,152.712 C214.684,149.79 223.777,142.321 224.504,142.321 C226.535,142.321 226.824,144.649 228.121,145.977 C228.809,146.689 230.832,146.509 231.457,146.751 C232.058,146.977 234.84,148.681 237.137,149.915 C238.387,150.571 237.98,151.665 238.879,152.149 C240.777,153.196 240.418,154.446 240.043,155.978 L241.816,155.751 L233.527,156.173 C232.863,157.821 186.105,299.267 186.105,299.267" fill="#F5BB38"/>
    <path d="M255.949,295.204 C246.73,295.204 232.395,293.727 224.699,292.868 C205.543,290.681 202.418,281.907 202.105,281.681 L200.863,280.759 L201.355,279.337 C201.637,278.516 202.395,277.618 204.512,275.134 C206.496,272.845 211.73,264.852 212.512,262.977 C214.855,257.501 216.308,251.173 217.004,243.571 C217.918,233.516 215.543,224.501 212.527,213.056 C210.355,204.774 212.496,194.267 210.871,182.696 L210.637,181.298 C206.012,140.431 227.988,137.056 232.543,136.212 C232.543,136.212 245.387,166.712 255.949,169.868 C266.41,168.282 280.949,136.509 280.949,136.509 C284.824,138.165 309.816,137.384 305.855,182.415 L305.652,183.806 C304.012,195.384 301.559,204.774 299.371,213.056 C296.355,224.501 295.793,232.353 296.73,242.399 C297.418,250.001 298.855,256.337 301.223,261.821 C302.004,263.681 305.418,272.845 307.395,275.134 C309.527,277.618 310.262,278.516 310.559,279.337 L311.043,280.759 L309.793,281.681 C309.504,281.915 306.301,290.712 287.965,292.868 C278.762,293.931 265.746,295.204 255.949,295.204" fill="#F5BB38"/>
    <path d="M267.965,200.032 C267.004,199.79 266.012,198.048 265.41,197.306 C264.402,196.016 263.762,194.931 262.473,193.931 C260.543,192.462 259.621,190.009 257.574,188.556 C256.637,187.892 255.363,187.063 254.605,188.321 C254.059,189.212 254.48,190.681 254.558,191.743 C254.684,193.001 254.918,193.759 255.371,194.821 C255.809,195.86 256.184,196.618 256.137,197.868 C254.558,198.493 251.574,197.149 250.309,196.259 C248.84,195.243 247.551,194.063 246.308,192.923 C245.027,191.751 243.488,191.095 241.887,190.696 C240.996,190.47 240.207,190.04 239.558,191.009 C238.957,191.923 239.012,193.407 238.949,194.431 C238.824,196.478 238.519,198.899 239.113,200.946 C239.324,201.72 239.895,202.54 240.308,203.282 C240.832,204.165 241.168,205.227 241.816,206.056 C242.84,207.353 244.941,208.126 246.34,208.868 C248.215,209.853 250.129,210.501 252.082,211.274 C253.051,211.649 253.988,211.977 255.059,211.977 C256.184,211.977 257.34,211.634 258.465,211.665 C260.598,211.728 262.785,211.806 265.027,211.618 C266.574,211.509 266.496,210.931 267.012,209.603 C267.441,208.517 268.121,207.259 268.254,206.056 C268.371,204.993 268.176,203.993 268.199,202.899 C268.23,201.845 268.746,200.509 267.676,199.79" fill="#F5BF92"/>
    <path d="M320.52,229.056 C315.34,230.587 307.808,229.353 303.371,228.649 C296.379,227.532 265.152,217.712 262.121,218.009 C262.395,214.524 263.488,210.852 263.957,207.142 C264.449,203.36 264.113,199.571 264.738,195.751 C269.309,197.548 274.348,198.946 279.246,200.516 C282.551,201.587 285.871,202.532 289.168,203.626 C291.254,204.321 296.34,207.228 298.488,206.274 C297.652,204.728 297.215,202.821 296.496,201.282 C295.808,199.813 295.418,198.024 294.699,196.571 C290.699,188.556 285.676,180.782 281.246,172.97 C278.996,169.009 276.902,164.743 274.301,160.993 L274.215,160.884 L274.16,160.735 C273.73,159.728 273.949,158.907 273.98,157.86 C274.012,157.22 273.855,156.517 273.801,155.884 C273.683,154.618 274.066,153.681 274.582,152.587 C275.012,151.688 274.855,150.782 275.309,149.876 C275.785,148.868 276.613,147.962 276.98,146.923 C277.433,145.657 277.277,144.298 277.918,143.056 C278.199,142.524 278.434,141.978 278.699,141.454 C278.98,140.915 279.113,140.149 279.637,139.868 C280.637,139.329 282.074,139.813 282.996,140.001 C284.348,140.259 285.574,140.657 286.808,141.306 C288.184,142.032 289.605,142.556 291.105,142.97 C293.121,143.493 294.84,144.337 296.512,145.587 C298.215,146.853 299.449,148.196 300.34,150.102 C301.012,151.493 301.793,152.774 302.605,154.071 C304.605,157.22 305.543,161.087 306.902,164.532 L317.262,190.157 C319.816,196.446 322.184,203.103 325.105,209.243 C326.965,213.087 329.074,216.384 329.074,220.696 C329.074,223.642 325.621,226.306 323.074,227.931 C322.316,228.407 321.457,228.782 320.52,229.056" fill="#F5BB38"/>
    <path d="M294.699,205.001 C295.574,204.814 297.34,205.946 298.098,206.298 C300.777,207.61 303.293,209.399 305.48,211.595 C308.543,214.681 310.91,218.556 312.434,222.852 C313.465,225.821 314.23,229.009 314.246,232.22 C314.246,233.47 314.348,237.071 313.566,238.071 C312.824,239.032 311.73,239.962 310.887,240.852 C310.051,241.759 309.191,242.446 308.23,243.181 C306.871,244.259 305.496,243.571 304.035,243.196 C302.551,242.837 301.066,242.235 299.973,241.118 C297.762,238.853 297.027,230.345 296.691,227.079 L281.879,222.978 L265.238,288.36 C265.238,288.36 273.207,313.485 289.371,320.157 C289.371,320.157 320.809,324.946 333.152,317.79 C329.168,324.274 356.98,290.321 345.754,265.868 C345.754,265.868 334.324,239.993 330.324,239.993 C330.324,239.993 331.613,196.61 294.699,205.001" fill="#86B4D6"/>
    <path d="M135.988,329.735 C135.715,329.407 135.465,329.134 135.098,329.087 C135.027,335.001 139.152,341.993 142.433,346.743 C143.223,347.899 144.137,348.978 144.973,350.11 C145.754,351.196 146.34,352.47 147.27,353.478 C148.254,354.563 150.777,357.806 152.199,357.759 C149.613,359.696 145.16,356.415 142.512,355.806 C143.332,359.228 143.449,362.352 142.824,365.853 C142.316,368.72 141.105,373.517 139.152,375.728 C138.074,374.384 136.535,373.681 135.519,372.22 C134.668,370.962 133.684,369.181 132.293,368.595 C131.848,371.048 129.074,373.462 127.519,375.36 C125.652,377.657 123.793,380.399 121.637,382.423 C120.246,383.72 120.559,383.321 119.09,381.993 C118.309,381.259 117.473,380.571 116.613,379.931 C115.465,379.071 114.23,378.126 112.965,377.399 C111.34,380.431 109.277,383.548 107.074,385.985 C105.23,388.009 101.059,388.954 98.254,388.798 C95.363,388.642 92.527,387.634 89.793,387.149 C88.512,386.923 87.043,387.118 85.699,387.399 C84.168,387.735 82.863,388.649 81.246,388.571 C79.973,388.517 78.441,387.884 77.199,387.399 C75.449,386.696 74.684,385.821 73.355,387.157 C71.527,389.009 70.324,391.564 68.746,393.641 C67.433,395.337 67.316,394.837 65.676,393.649 C64.23,392.603 63.027,391.454 61.746,390.149 C59.895,388.251 58.355,385.939 57.121,383.54 C56.34,385.806 55.832,387.962 55.637,390.36 C55.559,391.595 55.832,392.579 54.434,392.399 C53.332,392.29 52.637,390.899 52.004,390.181 C50.355,388.282 49.387,386.915 48.308,384.618 C47.355,382.579 47.152,380.228 45.91,378.439 C45.09,379.478 44.113,380.665 43.074,381.485 C41.902,382.384 39.762,382.821 38.918,383.782 C38.074,382.235 39.308,380.196 39.582,378.618 C39.84,377.11 39.816,375.462 40.058,373.868 C40.699,369.79 40.699,365.548 41.121,361.384 C41.59,356.673 42.98,351.829 44.699,347.493 C45.887,344.478 47.059,341.79 49.066,339.142 C51.637,335.743 54.996,333.798 58.699,331.821 C76.027,322.556 96.926,314.767 116.496,320.649 C120.574,321.852 124.504,323.384 128.019,325.681 C130.754,327.477 133.855,329.329 136.957,330.399" fill="#955838"/>
    <path d="M75.09,458.126 C73.777,457.376 72.887,456.048 71.574,455.196 C69.504,453.821 67.496,451.72 66.324,449.524 C65.262,447.571 65.598,444.743 65.387,442.54 C64.855,436.751 62.324,430.962 63.332,425.235 C65.762,411.243 67.395,393.446 69.621,388.634 C72.184,383.087 83.801,387.032 83.902,378.196 C83.957,372.626 83.84,369.407 83.801,363.86 L93.254,363.79 L102.168,363.728 C102.199,369.274 102.129,372.509 102.27,378.071 C102.48,386.907 119.973,382.353 119.98,388.462 C119.98,390.134 121.09,408.228 119.558,420.243 C118.371,429.634 122.16,439.564 121.777,449.032 C121.613,453.009 120.207,454.993 117.16,457.579 C113.723,460.478 109.371,460.282 105.105,460.29 C97.246,460.337 89.402,459.993 81.645,459.407 C79.582,459.251 76.949,459.196 75.09,458.126" fill="#F5BF92"/>
    <path d="M86.379,467.923 C84.629,467.415 82.285,467.11 81.199,466.993 C67.707,465.571 71.183,477.313 69.27,485.821 C67.316,494.571 66.34,503.571 65.316,512.47 C64.77,517.274 60.012,536.978 58.73,539.376 C56.98,542.681 52.934,542.931 49.371,543.524 C45.637,544.149 39.949,544.29 36.84,546.454 C33.488,548.774 36.871,552.149 39.793,553.134 C43.488,554.384 47.863,554.923 51.488,554.853 C55.238,554.79 58.957,555.657 62.73,556.485 C64.043,556.774 66.574,557.806 67.762,557.29 C70.168,556.251 71.332,550.134 71.574,548.001 C71.965,544.399 73.137,541.251 74.215,537.743 C78.308,524.376 87.059,490.196 88.137,486.673 C89.621,481.853 93.254,473.04 88.184,468.72 C87.824,468.407 87.16,468.149 86.379,467.923" fill="#F5BF92"/>
    <path d="M74.527,532.47 C73.918,532.399 73.355,532.368 72.746,532.353 C71.379,532.306 69.926,532.001 68.59,531.72 C67.824,531.563 67.105,531.298 66.324,531.134 C65.699,531.017 65.168,530.696 64.543,530.501 C63.926,530.321 63.285,530.188 62.652,530.048 C61.199,529.735 61.324,530.735 61.043,531.79 C60.73,532.946 60.418,534.118 60.09,535.29 C59.715,536.642 59.394,538.126 58.73,539.376 C56.98,542.681 52.934,542.931 49.371,543.524 C45.637,544.149 39.949,544.29 36.84,546.454 C33.488,548.774 36.871,552.149 39.793,553.134 C43.488,554.384 47.863,554.923 51.488,554.853 C55.238,554.79 58.957,555.657 62.73,556.485 C64.043,556.774 66.574,557.806 67.762,557.29 C70.168,556.251 71.332,550.134 71.574,548.001 C71.965,544.399 73.137,541.251 74.215,537.743 C74.496,536.829 76.309,532.79 74.527,532.47" fill="#F6D2DC"/>
    <path d="M70.152,548.056 C69.262,547.892 68.223,548.352 67.371,548.642 C65.074,549.415 62.105,549.243 59.715,548.907 C57.262,548.556 54.894,548.134 52.59,547.454 C52.137,547.313 51.293,547.087 50.988,546.712 C50.621,546.259 50.809,545.524 51.043,545.079 C51.34,544.532 53.074,543.681 52.832,542.97 C52.676,542.501 52.043,543.071 51.691,543.165 C50.965,543.384 50.129,543.399 49.371,543.524 C45.637,544.149 39.949,544.29 36.84,546.454 C33.488,548.774 36.871,553.399 39.793,554.384 C43.48,555.618 58.926,558.993 62.699,559.837 C64.027,560.126 66.559,560.087 67.746,559.571 C69.426,558.852 70.074,554.251 70.598,552.688 C70.996,551.509 72.238,549.399 70.887,548.392 C70.652,548.204 70.418,548.103 70.152,548.056" fill="#E0566B"/>
    <path d="M102.707,463.696 C100.949,464.087 98.746,464.954 97.73,465.368 C85.207,470.571 93.855,479.212 96.262,487.602 C98.73,496.22 102.184,504.587 105.543,512.899 C107.355,517.384 112.598,536.954 112.652,539.665 C112.684,543.407 109.246,545.571 106.402,547.806 C103.418,550.126 98.496,552.97 96.801,556.368 C94.973,560.001 99.559,561.36 102.605,560.821 C106.433,560.149 110.543,558.517 113.684,556.728 C116.949,554.868 120.621,553.86 124.324,552.782 C125.637,552.399 128.355,552.102 129.144,551.087 C130.762,549.024 128.848,543.095 128.043,541.103 C126.652,537.743 126.184,534.423 125.465,530.829 C122.637,517.134 113.98,482.938 113.246,479.321 C112.215,474.384 111.199,464.899 104.691,463.548 C104.215,463.438 103.512,463.517 102.707,463.696" fill="#F5BF92"/>
    <path d="M112.09,528.868 C111.809,528.899 111.559,528.954 111.324,529.024 C110.09,529.376 110.832,531.071 111.019,531.821 C111.308,532.993 111.59,534.149 111.855,535.321 C112.168,536.727 112.621,538.235 112.652,539.665 C112.684,543.407 109.246,545.571 106.402,547.806 C103.418,550.126 98.496,552.97 96.801,556.368 C94.973,560.001 99.559,561.36 102.605,560.821 C106.433,560.149 110.543,558.517 113.684,556.728 C116.949,554.868 120.621,553.86 124.324,552.782 C125.637,552.399 128.355,552.102 129.144,551.087 C130.762,549.024 128.848,543.095 128.043,541.103 C126.652,537.743 126.184,534.423 125.465,530.829 C125.285,530.04 125.129,529.251 124.949,528.462 C124.855,528.024 124.793,526.587 124.293,526.399 C124.144,526.353 123.645,526.587 123.496,526.642 C122.941,526.853 122.371,527.165 121.808,527.314 C120.59,527.649 119.387,527.931 118.098,528.243 C116.668,528.595 115.168,528.493 113.691,528.681 C113.199,528.751 112.629,528.782 112.09,528.868" fill="#F6D2DC"/>
    <path d="M124.66,543.665 C122.996,545.446 120.316,546.72 118.074,547.556 C115.754,548.438 113.449,549.188 111.105,549.696 C110.652,549.798 109.793,550.009 109.348,549.814 C108.801,549.587 108.637,548.868 108.621,548.352 C108.605,547.735 109.738,546.165 109.184,545.649 C108.824,545.314 108.527,546.102 108.277,546.368 C107.73,546.907 107.004,547.321 106.402,547.806 C103.418,550.126 98.496,552.97 96.801,556.368 C94.973,560.001 99.559,562.665 102.598,562.118 C106.426,561.439 120.598,555.884 124.309,554.806 C125.621,554.423 128.332,553.415 129.137,552.384 C130.262,550.946 130.074,547.157 129.785,545.524 C129.582,544.298 129.582,541.196 127.918,540.938 C127.652,540.907 125.262,543.017 124.66,543.665" fill="#E0566B"/>
    <path d="M34.426,496.759 C27.949,489.532 59.629,458.884 60.308,455.673 C61.574,449.727 58.723,445.884 58.723,445.884 L91.965,447.493 C92.059,447.493 125.176,445.438 125.176,445.438 C125.176,445.438 121.926,443.306 123.254,449.228 C123.98,452.376 150.801,492.767 145.441,499.056 C145.441,499.056 79.348,512.118 34.426,496.759" fill="#FFF156"/>
    <path d="M36.379,352.962 C37.395,357.188 40.699,360.001 45.121,358.939 C45.957,358.743 46.73,358.384 47.434,357.978 C58.879,376.274 73.293,383.868 96.746,378.618 C119.973,372.657 129.84,358.751 131.418,337.032 C132.793,337.431 134.293,337.524 135.793,337.165 C140.238,336.095 139.762,331.673 138.754,327.462 C137.73,323.235 136.574,320.821 132.129,321.884 C131.488,322.04 130.871,322.274 130.324,322.556 C123.824,295.501 101.145,283.157 75.238,289.04 C49.582,295.54 34.996,316.743 41.371,343.696 C37.004,344.79 35.363,348.774 36.379,352.962" fill="#F5BF92"/>
    <path d="M69.637,277.181 C86.48,273.134 105.715,275.696 118.621,287.993 C120.73,289.993 122.738,292.11 124.605,294.345 C126.402,296.509 128.41,298.806 129.699,301.321 C130.621,303.079 133.543,312.22 134.074,315.024 C134.48,317.228 135.543,320.134 134.613,322.321 C134.293,323.056 133.73,323.673 133.355,324.384 C132.73,325.571 132.434,326.79 132.316,328.087 C130.934,328.095 126.746,321.665 125.262,320.282 C123.902,319.032 122.449,317.884 120.91,316.829 C119.996,316.196 118.027,314.54 116.879,314.759 C116.949,315.548 116.465,316.899 116.23,317.689 C115.91,318.798 112.504,329.11 112.34,329.212 C111.66,329.618 107.527,328.04 106.121,327.501 C102.762,326.212 99.668,324.134 96.301,322.813 C93.566,321.759 86.637,318.931 85.887,318.556 C85.074,318.157 84.152,318.212 83.457,317.61 C83.684,319.368 83.488,321.204 83.285,322.993 C83.066,324.743 82.98,326.665 82.199,328.282 C77.027,326.79 72.027,323.985 67.129,321.712 C64.887,320.673 59.199,317.384 58.512,316.977 C57.652,316.485 56.801,315.649 55.871,315.321 C55.363,316.564 55.597,318.439 55.316,319.845 C54.996,321.462 49.605,338.493 48.199,340.977 C47.246,342.657 46.808,341.103 45.871,339.923 C44.84,338.634 44.012,337.399 43.387,335.829 C43.73,336.681 43.371,338.516 43.293,339.462 C43.199,340.524 43.605,341.915 42.863,342.814 C42.34,343.47 41.277,343.634 40.559,343.977 C39.308,344.563 38.41,345.462 37.34,346.259 C33.957,340.696 32.496,332.923 32.059,326.509 C31.652,320.501 32.371,314.431 34.293,308.72 C37.902,297.86 45.637,288.728 55.441,282.915 C59.855,280.306 64.66,278.368 69.637,277.181" fill="#955838"/>
    <path d="M114.535,316.595 C114.738,316.54 114.918,316.462 115.09,316.329 C115.637,315.868 105.887,304.743 83.215,299.009 C67.105,294.954 53.902,299.212 54.035,299.884 C54.168,300.548 69.394,299.149 80.715,301.821 C92.418,304.587 114.082,316.712 114.535,316.595" fill="#7F553A"/>
    <path d="M124.84,317.321 C124.949,317.298 125.051,317.267 125.168,317.212 C125.793,316.845 119.168,300.665 107.918,292.782 C88.363,279.064 62.684,287.056 63.137,287.556 C63.605,288.056 85.012,281.689 105.324,295.548 C116.34,303.071 124.269,317.462 124.84,317.321" fill="#7F553A"/>
    <path d="M109.113,355.259 C110.019,359.032 114.074,361.306 118.144,360.337 C122.23,359.352 124.793,355.478 123.879,351.712 C122.973,347.931 118.926,345.657 114.855,346.634 C110.785,347.61 108.207,351.477 109.113,355.259 z" fill="url(#Gradient_4)"/>
    <path d="M77.652,360.649 C78.512,364.259 75.902,367.97 71.824,368.954 C67.746,369.946 63.746,367.806 62.887,364.196 C62.004,360.587 64.621,356.853 68.684,355.892 C72.762,354.899 76.77,357.04 77.652,360.649 z" fill="url(#Gradient_5)"/>
    <path d="M108.676,343.181 C109.246,345.603 111.613,347.141 113.957,346.571 C116.301,345.993 117.707,343.587 117.121,341.149 C116.543,338.712 114.184,337.196 111.84,337.759 C109.496,338.321 108.074,340.743 108.676,343.181" fill="#1A1919"/>
    <path d="M67.121,351.196 C67.887,353.587 70.363,354.931 72.668,354.22 C74.941,353.516 76.184,351.024 75.418,348.634 C74.66,346.259 72.184,344.899 69.894,345.603 C67.59,346.298 66.34,348.821 67.121,351.196" fill="#1A1919"/>
    <path d="M118.267,330.526 C116.759,328.935 114.944,328.033 113.09,328.033 C111.187,328.028 109.343,328.999 107.922,330.814 C107.624,331.19 107.689,331.738 108.066,332.036 C108.443,332.334 108.991,332.269 109.289,331.892 C110.475,330.399 111.783,329.779 113.09,329.773 C114.365,329.773 115.735,330.391 117.006,331.725 C117.336,332.073 117.887,332.088 118.236,331.757 C118.584,331.426 118.598,330.875 118.267,330.527 L118.267,330.526" fill="#845737"/>
    <path d="M71.532,338.492 C70.239,337.798 68.921,337.436 67.656,337.436 C66.359,337.434 65.12,337.824 64.095,338.598 C63.066,339.369 62.263,340.506 61.754,341.936 C61.593,342.389 61.829,342.886 62.282,343.047 C62.734,343.209 63.232,342.973 63.394,342.52 C63.81,341.355 64.421,340.53 65.14,339.989 C65.86,339.45 66.7,339.178 67.656,339.176 C68.586,339.176 69.627,339.444 70.709,340.025 C71.133,340.253 71.66,340.094 71.887,339.67 C72.115,339.247 71.956,338.72 71.533,338.492 L71.532,338.492" fill="#845737"/>
    <path d="M43.098,338.821 C42.902,338.126 35.168,328.79 40.449,307.189 C40.59,306.673 42.668,338.931 43.098,338.821" fill="#7F553A"/>
    <path d="M81.949,362.509 C82.043,362.478 88.832,374.188 97.433,372.181 C105.254,370.36 106.98,358.134 106.816,356.759 L81.949,362.509" fill="#E57266"/>
    <path d="M99.596,351.893 C99.552,351.449 99.363,351.077 99.134,350.773 C98.785,350.317 98.332,349.983 97.855,349.735 C97.375,349.493 96.881,349.331 96.352,349.325 L96.352,349.905 L96.357,349.325 L96.352,349.325 L96.352,349.905 L96.357,349.325 C96.347,349.328 96.297,349.316 96.144,349.348 L96.34,350.196 L96.334,349.326 C95.516,349.327 94.811,349.715 94.338,350.226 C93.855,350.738 93.553,351.366 93.375,352.005 C93.248,352.469 93.521,352.947 93.984,353.074 C94.448,353.201 94.927,352.929 95.055,352.466 C95.166,352.05 95.371,351.662 95.602,351.421 C95.841,351.178 96.054,351.073 96.346,351.066 L96.535,351.044 L96.346,350.221 L96.358,351.065 C96.385,351.064 96.435,351.066 96.535,351.044 L96.346,350.221 L96.358,351.065 L96.347,350.306 L96.338,351.065 L96.358,351.065 L96.347,350.306 L96.338,351.065 L96.352,351.066 C96.427,351.064 96.594,351.091 96.776,351.158 C97.052,351.257 97.365,351.441 97.573,351.637 C97.791,351.832 97.868,352.02 97.864,352.062 C97.911,352.541 98.337,352.891 98.815,352.844 C99.294,352.797 99.643,352.371 99.596,351.893" fill="#845737"/>
    <path d="M7.082,417.681 C9.387,416.642 12.082,416.899 14.715,416.571 C17.183,416.228 19.144,414.532 21.293,414.196 C25.387,411.829 29.262,409.274 32.918,406.681 L47.183,415.438 C42.434,419.134 38.496,422.071 36.637,423.243 C34.808,424.399 33.465,426.274 31.652,427.298 C27.48,429.665 26.027,434.337 22.433,437.376 C21.277,438.384 17.887,440.681 16.465,438.509 C15.285,436.681 18.277,433.915 19.215,432.392 C19.449,431.993 17.215,431.454 16.949,431.485 C15.988,431.571 15.472,432.306 14.637,432.634 C13.871,432.938 12.996,432.782 12.184,433.001 C11.043,433.274 9.824,433.595 8.824,432.735 C8.066,432.071 7.98,431.603 6.957,431.282 C6.199,431.04 4.793,430.962 4.262,430.204 C3.855,429.634 3.824,428.056 3.488,427.29 C3.184,426.54 2.668,425.915 2.355,425.196 C1.168,422.446 4.918,418.665 7.082,417.681" fill="#F5BF92"/>
    <path d="M31.965,430.227 L16.77,414.298 L18.434,413.634 C27.973,409.954 35.879,405.04 42.371,400.735 C48.715,396.509 54.527,392.071 60.129,387.806 C62.285,386.165 69.402,383.704 73.332,383.431 L86.871,394.892 C80.652,398.478 74.269,402.368 68.176,406.415 C61.433,410.899 31.965,430.227 31.965,430.227" fill="#E0562E"/>
    <path d="M175.371,337.493 C173.535,339.243 170.91,339.892 168.535,341.095 C166.324,342.228 165.051,344.478 163.137,345.509 C160.074,349.118 157.262,352.813 154.684,356.485 L138.324,353.001 C141.559,347.931 144.277,343.829 145.652,342.11 C146.996,340.423 147.621,338.204 148.988,336.641 C152.137,333.009 151.949,328.118 154.316,324.064 C155.082,322.712 157.512,319.407 159.574,320.993 C161.293,322.321 159.387,325.907 159.012,327.688 C158.926,328.126 161.223,327.884 161.457,327.774 C162.34,327.376 162.574,326.509 163.254,325.907 C163.855,325.368 164.762,325.227 165.449,324.759 C166.418,324.11 167.465,323.399 168.699,323.884 C169.621,324.259 169.871,324.665 170.949,324.618 C171.738,324.61 173.09,324.212 173.84,324.735 C174.418,325.157 174.973,326.618 175.543,327.243 C176.074,327.837 176.769,328.243 177.316,328.821 C179.348,331.024 177.082,335.837 175.371,337.493" fill="#F5BF92"/>
    <path d="M146.105,336.61 L163.598,350.212 C157.73,358.548 151.012,368.071 145.559,373.626 C140.23,379.071 123.215,399.266 119.449,400.337 L103.23,388.556 C108.559,383.774 101.488,388.407 106.613,383.173 C112.277,377.392 146.105,336.61 146.105,336.61" fill="#E0562E"/>
    <path d="M64.504,411.04 C62.043,382.243 74.449,383.524 78.098,382.337 C78.097,382.337 83.285,390.837 93.152,391.884 C103.121,389.61 105.683,381.923 105.683,381.923 C107.668,382.532 111.973,381.056 120.199,385.813 L122.855,420.782 C121.77,432.399 129.074,458.556 130.715,459.946 C132.746,461.673 56.105,460.438 56.105,460.438 C56.355,459.884 64.504,411.04 64.504,411.04" fill="#E0562E"/>
  </g>
</svg>
