<?xml version="1.0" encoding="UTF-8"?>
<!DOCTYPE svg PUBLIC "-//W3C//DTD SVG 1.1//EN" "http://www.w3.org/Graphics/SVG/1.1/DTD/svg11.dtd">
<svg version="1.1" xmlns="http://www.w3.org/2000/svg" xmlns:xlink="http://www.w3.org/1999/xlink" x="0" y="0" width="1263.35" height="801.047" viewBox="0, 0, 1263.35, 801.047">
  <g id="My_Pic">
    <path d="M328.896,0 C149.418,0.025 3.156,59.447 3.156,132.738 C3.156,134.136 3.216,135.528 3.322,136.916 L0.135,630.951 C-0.377,641.69 0.515,651.219 3.697,660.781 C3.707,660.812 3.716,660.842 3.726,660.873 C8.913,675.778 18.18,688.716 25.837,696.626 C33.494,704.536 35.294,706.242 42.589,712.843 C49.885,719.443 62.693,730.086 98.445,748.606 C134.197,767.126 178.018,781.356 231.48,790.911 C231.523,790.921 231.565,790.925 231.607,790.932 C250.052,794.217 268.698,796.581 286.994,797.956 C329.244,801.792 373.105,802.06 417.48,798.745 C541.623,789.475 667.881,753.971 792.748,693.217 C931.78,625.567 1045.304,607.996 1130.158,640.985 C1203.887,669.648 1229.006,729.269 1229.223,729.788 L1236.986,749.36 L1262.924,720.69 L1262.924,715.649 L1263.349,172.586 L1263.349,168.309 L1260.828,164.858 L1259.99,163.71 C1211.865,97.72 1141.59,58.802 1051.125,48.026 C1034.038,45.99 1016.172,45.007 997.662,45.061 L997.66,45.061 L997.658,45.061 C942.126,45.225 880.807,54.727 817.386,73.17 C759.246,90.08 701.006,114.104 653.502,140.528 C653.867,137.951 654.058,135.355 654.058,132.741 C654.058,59.432 508.528,0.003 329.008,0.003 z" fill="#000000" id="path889"/>
    <path d="M1000.769,67.137 C1016.576,67.179 1032.523,67.995 1048.541,69.699 C1132.332,78.621 1197.131,115.235 1241.521,175.42 L1241.107,705.375 C1227.811,683.148 1197.216,643.705 1138.304,620.729 C1047.523,585.319 928.048,603.105 783.199,673.586 C516.545,803.328 277.799,795.353 143.279,744.627 C81.532,721.346 37.453,687.717 22.148,652.27 L24.556,180.066 C71.459,230.003 190.318,265.477 329.008,265.477 C453.48,265.476 561.592,236.901 616.203,194.943 C648.044,173.513 762.362,101.815 902.422,76.248 C903.203,76.109 903.986,75.974 904.767,75.836 C907.049,75.425 909.34,75.028 911.635,74.648 C912.573,74.492 913.504,74.338 914.443,74.186 C917.29,73.727 920.137,73.278 923.002,72.859 L923.22,72.828 C948.469,69.142 974.424,67.066 1000.769,67.137 z" fill="#FFFFFF" id="path1703"/>
    <path d="M327.929,20.328 L328.177,20.328 C496.202,20.328 632.412,70.285 632.412,131.909 C632.412,193.533 496.202,243.49 328.177,243.49 C160.152,243.49 23.941,193.534 23.941,131.909 C23.941,70.32 160.001,20.378 327.929,20.328 z" fill="#FFFFFF" id="path1701"/>
    <path d="M444.08,131.096 C444.08,155.564 396.716,175.399 338.29,175.399 C279.864,175.399 232.5,155.564 232.5,131.096 C232.5,106.628 279.864,86.793 338.29,86.793 C396.716,86.793 444.08,106.628 444.08,131.096 z" fill="#000000" id="path1628"/>
    <path d="M341.067,403.687 L336.699,403.695 L336.66,379.683 L341.029,379.677 L341.067,403.687" fill="#0A0B09" id="path917"/>
    <path d="M340.923,316.369 L336.554,316.378 L336.516,292.364 L340.885,292.357 L340.923,316.37" fill="#0A0B09" id="path927"/>
    <path d="M340.995,360.027 L336.63,360.034 L336.588,336.022 L340.957,336.016 L340.995,360.026" fill="#0A0B09" id="path929"/>
    <path d="M341.138,447.346 L336.774,447.354 L336.732,423.341 L341.104,423.333 L341.138,447.345" fill="#0A0B09" id="path931"/>
    <path d="M341.282,534.665 L336.918,534.673 L336.876,510.664 L341.241,510.652 L341.282,534.665" fill="#0A0B09" id="path933"/>
    <path d="M341.211,491.007 L336.846,491.015 L336.805,467.002 L341.176,466.99 L341.211,491.007" fill="#0A0B09" id="path935"/>
    <path d="M341.067,621.688 L336.699,621.698 L336.66,597.685 L341.029,597.685 L341.067,621.695" fill="#000000" id="path1719"/>
    <path d="M340.995,578.027 L336.63,578.037 L336.588,554.025 L340.957,554.015 L340.995,578.026" fill="#000000" id="path1723"/>
    <path d="M341.138,665.346 L336.775,665.356 L336.732,641.342 L341.104,641.333 L341.138,665.346" fill="#000000" id="path1725"/>
    <path d="M341.282,752.665 L336.918,752.675 L336.876,728.666 L341.241,728.654 L341.282,752.667" fill="#000000" id="path1727"/>
    <path d="M341.211,709.007 L336.846,709.017 L336.805,685.004 L341.176,684.992 L341.211,709.008" fill="#000000" id="path1729"/>
    <path d="M823.067,235.687 L818.699,235.695 L818.66,211.683 L823.029,211.677 L823.067,235.687" fill="#0A0B09" id="path1877"/>
    <path d="M822.923,148.369 L818.554,148.378 L818.516,124.364 L822.885,124.357 L822.923,148.37" fill="#0A0B09" id="path1879"/>
    <path d="M822.995,192.027 L818.63,192.034 L818.588,168.022 L822.957,168.016 L822.995,192.026" fill="#0A0B09" id="path1881"/>
    <path d="M823.138,279.346 L818.774,279.354 L818.732,255.341 L823.104,255.333 L823.138,279.345" fill="#0A0B09" id="path1883"/>
    <path d="M823.282,366.665 L818.918,366.673 L818.876,342.664 L823.241,342.652 L823.282,366.665" fill="#0A0B09" id="path1885"/>
    <path d="M823.211,323.007 L818.846,323.015 L818.805,299.002 L823.176,298.99 L823.211,323.007" fill="#0A0B09" id="path1887"/>
    <path d="M823.067,453.688 L818.699,453.698 L818.66,429.685 L823.029,429.685 L823.067,453.695" fill="#000000" id="path1889"/>
    <path d="M822.995,410.027 L818.63,410.037 L818.588,386.025 L822.957,386.015 L822.995,410.026" fill="#000000" id="path1891"/>
    <path d="M823.138,497.346 L818.775,497.356 L818.732,473.343 L823.104,473.333 L823.138,497.346" fill="#000000" id="path1893"/>
    <path d="M823.282,584.665 L818.918,584.675 L818.876,560.666 L823.241,560.654 L823.282,584.667" fill="#000000" id="path1895"/>
    <path d="M823.211,541.007 L818.846,541.017 L818.805,517.004 L823.176,516.992 L823.211,541.008" fill="#000000" id="path1897"/>
    <path d="M823.282,628.665 L818.918,628.675 L818.876,604.666 L823.241,604.654 L823.282,628.667" fill="#000000" id="path1901"/>
  </g>
</svg>
