<?xml version="1.0" encoding="UTF-8"?>
<!DOCTYPE svg PUBLIC "-//W3C//DTD SVG 1.1//EN" "http://www.w3.org/Graphics/SVG/1.1/DTD/svg11.dtd">
<svg version="1.1" xmlns="http://www.w3.org/2000/svg" xmlns:xlink="http://www.w3.org/1999/xlink" x="0" y="0" width="577.591" height="580.024" viewBox="0, 0, 577.591, 580.024">
  <defs>
    <linearGradient id="Gradient_1" gradientUnits="userSpaceOnUse" x1="163.739" y1="573.015" x2="448.735" y2="440.517" gradientTransform="matrix(1, 0, 0, 1, -26.068, -23.787)">
      <stop offset="0" stop-color="#AA7320"/>
      <stop offset="0.999" stop-color="#F2B229"/>
      <stop offset="1" stop-color="#F2B229"/>
    </linearGradient>
  </defs>
  <g id="Layer_1">
    <path d="M537.06,263.102 C537.06,408.406 419.271,526.195 273.966,526.195 C128.669,526.195 10.873,408.406 10.873,263.102 C10.873,117.805 128.669,-0 273.966,-0 C419.271,-0 537.06,117.805 537.06,263.102" fill="#8FD1E9" id="path842"/>
    <path d="M529.904,187.492 C534.302,180.024 536.872,171.344 536.872,162.031 C536.872,146.93 530.177,133.414 519.654,124.188 C523.693,117.109 526.029,108.93 526.029,100.203 C526.029,75.071 506.896,54.422 482.404,52.008 C478.56,33.672 463.052,19.664 443.997,18.032 C425.411,-1.14 405.169,17.321 406.951,20.375 C393.732,22.813 382.935,32.008 378.201,44.25 C375.435,43.149 372.419,42.524 369.247,42.524 C355.966,42.524 345.201,53.297 345.201,66.586 C345.201,79.867 355.966,90.649 369.247,90.649 C375.669,90.649 381.49,88.117 385.802,84.016 C392.81,91.609 402.81,96.383 413.927,96.383 C414.583,96.383 415.232,96.32 415.88,96.274 C419.896,99.055 424.404,101.141 429.263,102.414 C429.841,115.234 435.365,126.75 444.029,135.094 C439.068,142.883 436.154,152.109 436.154,162.031 C436.154,166.438 436.779,170.688 437.841,174.758 C426.974,181.625 418.068,191.297 412.154,202.766 C403.06,195.641 391.638,191.352 379.185,191.352 C377.786,191.352 376.411,191.461 375.021,191.563 C366.294,182.055 353.794,176.063 339.872,176.063 C313.49,176.063 292.107,197.445 292.107,223.828 C292.107,247.68 309.591,267.391 332.443,270.969 C341.583,287.359 359.076,298.438 379.185,298.438 C395.232,298.438 409.583,291.352 419.388,280.18 C432.607,297.094 453.177,307.992 476.31,307.992 C516.169,307.992 548.482,275.68 548.482,235.813 C548.482,217.234 541.451,200.289 529.904,187.492" fill="#0D5D35" id="path844"/>
    <path d="M370.708,255.953 C370.708,255.953 383.693,286.797 384.505,295.727 C385.857,310.531 385.107,290.695 380.443,422.219 C380.443,422.219 371.951,441.594 357.326,445.203 C342.716,448.813 310.497,456.953 310.497,456.953 C310.497,456.953 321.997,467.766 332.544,469.859 C343.099,471.945 355.279,469.531 362.591,469.719 C369.896,469.899 382.076,467.102 388.568,469.719 C395.06,472.328 412.451,492.672 422.669,495.813 C426.927,497.133 437.279,498.57 435.654,492.524 C434.036,486.484 431.404,482.203 428.146,470.203 C424.904,458.195 434.341,459.281 439.716,462.25 C445.044,465.18 472.193,469.203 481.122,470.203 C490.076,471.188 493.224,459.766 489.044,458.024 C465.513,448.172 440.31,425.063 440.31,425.063 C440.31,425.063 434.036,323.336 438.099,312.375 C442.154,301.406 480.529,253.508 480.529,253.508 L468.13,240.524 L441.341,272.18 C441.341,272.18 425.786,243.305 421.263,234.641 C415.919,224.422 387.755,193.43 387.755,193.43 L370.708,255.953" fill="#4F433B" id="path846"/>
    <path d="M569.818,209.719 C570.904,206.078 571.497,202.234 571.497,198.234 C571.497,176.039 553.513,158.039 531.31,158.039 C526.076,158.039 521.091,159.078 516.505,160.906 C512.357,146.93 499.435,136.734 484.115,136.734 C466.591,136.734 452.201,150.063 450.49,167.133 L450.326,167.125 C438.888,167.125 429.615,176.391 429.615,187.828 C429.615,199.266 438.888,208.531 450.326,208.531 L450.372,208.531 C450.763,219.055 456.38,228.227 464.708,233.547 C463.669,236.891 463.107,240.438 463.107,244.117 C463.107,263.742 479.013,279.656 498.638,279.656 C512.583,279.656 524.615,271.609 530.435,259.914 C534.818,262.125 539.771,263.391 545.013,263.391 C562.997,263.391 577.591,248.805 577.591,230.813 C577.591,222.758 574.654,215.406 569.818,209.719" fill="#84BF41" id="path848"/>
    <path d="M433.021,125.484 C433.021,150.125 413.052,170.094 388.411,170.094 C363.771,170.094 343.794,150.125 343.794,125.484 C343.794,100.844 363.771,80.859 388.411,80.859 C413.052,80.859 433.021,100.844 433.021,125.484" fill="#0B8B42" id="path850"/>
    <path d="M390.247,124.742 C390.372,124.586 390.513,124.422 390.638,124.25 C390.716,124.367 390.794,124.484 390.88,124.594 C390.669,124.633 390.466,124.703 390.247,124.742 z M503.216,142.844 C506.591,115.531 487.505,90.672 460.435,86.672 C455.451,72.938 443.154,62.399 427.661,60.469 C415.544,58.977 404.044,63.071 395.685,70.704 C388.388,56.618 374.513,46.243 357.583,44.141 C330.286,40.774 305.411,60.172 302.036,87.469 C300.247,101.922 304.896,115.672 313.677,125.93 C305.208,133.07 299.193,143.117 297.263,154.813 C284.771,159.531 275.247,170.828 273.497,184.992 C271.068,204.609 284.435,222.516 303.638,226.039 C308.622,246.781 325.951,263.266 348.365,266.039 C375.833,269.438 400.935,251.031 406.411,224.375 C426.732,221.867 443.841,207.141 449.06,186.953 C475.88,189.109 499.888,169.813 503.216,142.844" fill="#3AAB47" id="path852"/>
    <path d="M160.474,177.016 C152.076,176.438 144.138,178.75 137.638,183.109 C132.185,175.844 123.716,170.891 113.927,170.219 C99.826,169.25 87.216,177.445 81.919,189.719 C67.435,191.508 55.787,203.344 54.748,218.438 C53.568,235.57 66.498,250.414 83.638,251.594 C93.107,252.242 101.888,248.57 108.044,242.258 C111.982,246.906 117.732,250.024 124.302,250.484 C130.326,250.891 135.966,248.984 140.365,245.531 C144.872,248.016 149.982,249.586 155.466,249.969 C175.599,251.352 193.052,236.141 194.435,216 C195.826,195.852 180.622,178.406 160.474,177.016" fill="#FFFFFE" id="path854"/>
    <path d="M293.185,28.844 C284.122,28.844 276.169,33.571 271.622,40.688 C265.708,35.852 258.146,32.954 249.904,32.954 C235.357,32.954 222.911,42.008 217.911,54.789 C213.771,49.61 207.396,46.297 200.255,46.297 C187.763,46.297 177.638,56.422 177.638,68.907 C177.638,81.399 187.763,91.516 200.255,91.516 C207.919,91.516 214.693,87.703 218.779,81.859 C224.263,93.563 236.138,101.664 249.904,101.664 C265.279,101.664 278.279,91.586 282.669,77.68 C285.88,79.125 289.435,79.945 293.185,79.945 C307.294,79.945 318.732,68.5 318.732,54.391 C318.732,40.289 307.294,28.844 293.185,28.844" fill="#FFFFFE" id="path856"/>
    <path d="M206.661,360.813 C206.661,360.813 76.779,445.078 46.326,518.469 C46.326,518.469 103.685,510.813 135.544,508.047 L206.661,360.813" fill="#426530" id="path858"/>
    <path d="M201.654,366.578 C176.099,384 77.701,453.906 49.56,516.031 C62.349,514.352 107.091,508.57 134.232,506.156 z M46.326,520.469 C45.709,520.469 45.123,520.188 44.74,519.688 C44.302,519.125 44.201,518.359 44.474,517.703 C74.818,444.586 204.271,359.984 205.576,359.133 C206.333,358.649 207.318,358.734 207.982,359.313 C208.654,359.906 208.849,360.875 208.458,361.688 L137.341,508.922 C137.036,509.555 136.419,509.984 135.716,510.047 C104.271,512.766 47.162,520.375 46.584,520.453 L46.326,520.469" fill="#1A1919" id="path860"/>
    <path d="M231.857,341.625 C231.857,341.625 280.326,320.461 328.779,316.313 C328.779,316.313 396.638,328.774 425.716,356.469 C454.786,384.156 547.552,522.625 547.552,522.625 C547.552,522.625 420.169,543.391 389.701,564.164 L107.24,510.156 C107.24,510.156 190.576,356.07 231.857,341.625 z" fill="url(#Gradient_1)" id="path862"/>
    <path d="M110.318,508.719 L389.271,562.047 C418.497,542.984 524.247,524.508 544.154,521.156 C531.302,502.063 450.732,383.063 424.341,357.914 C396.904,331.797 333.294,319.211 328.685,318.328 C281.216,322.453 233.138,343.25 232.661,343.461 C195.232,356.555 121.099,489.125 110.318,508.719 z M389.701,566.164 C389.576,566.164 389.451,566.156 389.326,566.125 L106.872,512.125 C106.232,512.008 105.708,511.594 105.435,511.016 C105.161,510.445 105.177,509.766 105.482,509.211 C108.904,502.883 189.661,354.274 231.193,339.742 C231.544,339.586 280.388,318.453 328.615,314.32 C328.755,314.281 328.958,314.297 329.146,314.352 C331.935,314.859 397.911,327.234 427.091,355.024 C455.997,382.547 545.419,515.844 549.216,521.508 C549.591,522.078 549.661,522.797 549.388,523.422 C549.115,524.039 548.544,524.484 547.872,524.594 C546.607,524.797 420.576,545.531 390.826,565.813 C390.49,566.047 390.099,566.164 389.701,566.164" fill="#1A1919" id="path864"/>
    <path d="M382.786,548.172 C381.747,548.172 380.872,547.375 380.794,546.32 C380.708,545.289 372.404,442.063 365.576,399.711 C358.826,357.828 333.06,327.484 332.81,327.188 C332.083,326.352 332.185,325.078 333.013,324.367 C333.849,323.641 335.107,323.734 335.833,324.578 C336.107,324.891 362.591,356.086 369.529,399.063 C376.38,441.586 384.701,544.969 384.779,546.008 C384.865,547.102 384.044,548.07 382.943,548.156 L382.786,548.172" fill="#1A1919" id="path866"/>
    <path d="M8.467,537.102 C5.709,537.102 3.467,534.867 3.467,532.102 L3.467,337.086 C3.467,334.32 5.709,332.086 8.467,332.086 C11.232,332.086 13.467,334.32 13.467,337.086 L13.467,532.102 C13.467,534.867 11.232,537.102 8.467,537.102" fill="#1A1919" id="path868"/>
    <path d="M179.622,524 C179.622,524 218.021,378.625 249.857,368.93 L294.169,380 L288.107,544.742 L179.622,524" fill="#1A1919" id="path870"/>
    <path d="M294.169,380 C294.169,380 367.552,488.125 382.786,562.836 C382.786,562.836 266.482,558.625 237.396,571.086 L294.169,380" fill="#426530" id="path872"/>
    <path d="M294.872,384.672 L240.443,567.844 C260.411,561.531 304.638,560.149 339.404,560.149 C358.466,560.149 374.318,560.57 380.31,560.758 C365.888,494.992 307.388,403.672 294.872,384.672 z M237.396,573.094 C236.919,573.094 236.435,572.914 236.068,572.578 C235.482,572.063 235.255,571.266 235.482,570.524 L292.263,379.438 C292.474,378.695 293.099,378.149 293.872,378.031 C294.63,377.883 295.396,378.25 295.826,378.883 C296.568,379.969 369.607,488.195 384.747,562.438 C384.865,563.039 384.708,563.656 384.31,564.125 C383.919,564.594 383.372,564.984 382.716,564.836 C382.521,564.828 363.56,564.156 339.404,564.156 C302.576,564.156 255.107,565.68 238.185,572.922 C237.935,573.031 237.661,573.094 237.396,573.094" fill="#1A1919" id="path874"/>
    <path d="M294.169,380 L167.576,380 L2.006,341.625 C2.006,341.625 148.091,360.813 212.435,355.055 L294.169,380" fill="#917E70" id="path876"/>
    <path d="M37.998,347.914 L168.021,378.047 L280.786,378.016 L212.216,357.086 C204.24,357.781 194.607,358.125 183.568,358.125 C138.31,358.125 76.622,352.203 37.998,347.914 z M294.271,382.008 L167.576,382.008 L1.56,343.578 C0.513,343.336 -0.151,342.32 0.029,341.266 C0.232,340.219 1.263,339.563 2.271,339.641 C3.373,339.789 113.388,354.133 183.568,354.133 C194.669,354.133 204.318,353.774 212.263,353.063 C212.505,353 212.763,353.063 213.021,353.141 L294.529,378.024 C295.513,378.141 296.271,378.984 296.271,380 C296.271,381.109 295.372,382.008 294.271,382.008" fill="#1A1919" id="path878"/>
    <path d="M171.849,580.024 C169.083,580.024 166.849,577.789 166.849,575.024 L166.849,368.93 C166.849,366.164 169.083,363.93 171.849,363.93 C174.615,363.93 176.849,366.164 176.849,368.93 L176.849,575.024 C176.849,577.789 174.615,580.024 171.849,580.024" fill="#1A1919" id="path880"/>
  </g>
<script xmlns=""/></svg>